<?xml version="1.0" encoding="UTF-8" standalone="no"?>
<!DOCTYPE svg  PUBLIC '-//W3C//DTD SVG 1.1//EN'  'http://www.w3.org/Graphics/SVG/1.1/DTD/svg11.dtd'>
<svg xmlns="http://www.w3.org/2000/svg">
<defs>
<font id="Circe-ExtraLight" horiz-adv-x="586">
<font-face underline-position="-50" font-weight="300" descent="-200" panose-1="2 11 3 2 2 2 3 2 2 3" units-per-em="1000" unicode-range="U+0020-2666" bbox="-180 -251 1176 860" x-height="450" underline-thickness="50" font-family="Circe" ascent="800" cap-height="700"/>
<missing-glyph horiz-adv-x="1000"/>
<glyph glyph-name=".notdef" horiz-adv-x="1000"/>
<glyph glyph-name=".null" horiz-adv-x="0"/>
<glyph glyph-name="nonmarkingreturn" horiz-adv-x="333"/>
<glyph glyph-name="space" horiz-adv-x="243" unicode=" "/>
<glyph glyph-name="exclam" horiz-adv-x="310" unicode="!" d="M131 24q0 8 7.5 15t17.5 7q9 0 16 -7t7 -15q0 -10 -7 -17.5t-16 -7.5q-10 0 -17.5 7.5t-7.5 17.5zM140 174v526h30v-526h-30z"/>
<glyph glyph-name="quotedbl" horiz-adv-x="389" unicode='&quot;' d="M111 505v195h28v-195h-28zM250 505v195h28v-195h-28z"/>
<glyph glyph-name="numbersign" horiz-adv-x="674" unicode="#" d="M260 457l-79 -214h232l79 214h-232zM323 0l80 217h-232l-83 -226l-24 9l81 217h-105v26h114l80 214h-194v26h203l85 226l22 -9l-80 -217h232l84 226l23 -8l-81 -218h107v-26h-116l-79 -214h195v-26h-205l-83 -226z"/>
<glyph glyph-name="dollar" d="M477 170q0 44 -21 77t-54.5 52t-73.5 34.5t-80.5 31.5t-74 36.5t-54.5 55.5t-21 83q0 71 50 118t138 51v81h28v-82q110 -5 169 -70l-17 -21q-62 63 -168 63q-78 0 -124 -38.5t-46 -101.5q0 -50 28 -85t70 -52t91.5 -36.5t91.5 -38.5t70 -59.5t28 -97.5 q0 -76 -54.5 -124.5t-138.5 -54.5v-92h-28v91q-62 2 -121.5 29t-84.5 70l19 20q30 -41 83.5 -65.5t105.5 -24.5q78 0 133.5 39.5t55.5 110.5z" unicode="$"/>
<glyph glyph-name="percent" horiz-adv-x="827" unicode="%" d="M473 156q0 -58 40.5 -95.5t94.5 -37.5q56 0 95.5 37.5t39.5 95.5t-40 95t-95 37t-95 -37t-40 -95zM446 156q0 68 46.5 112t115.5 44t115.5 -44t46.5 -112q0 -69 -46 -113t-116 -44t-116 44t-46 113zM83 546q0 -58 40.5 -95.5t94.5 -37.5q56 0 95.5 37.5t39.5 95.5t-40 95 t-95 37t-95 -37t-40 -95zM56 546q0 68 46.5 112t115.5 44t115.5 -44t46.5 -112q0 -69 -46 -113t-116 -44t-116 44t-46 113zM144 5l527 704l17 -13l-526 -705z"/>
<glyph glyph-name="ampersand" horiz-adv-x="731" unicode="&amp;" d="M183 575q0 -45 32 -77.5t78 -32.5q45 0 77 32.5t32 77.5t-32 77t-77 32q-46 0 -78 -32t-32 -77zM297 20q132 0 211 122l-225 286q-75 -53 -121 -109t-46 -124q0 -78 53.5 -126.5t127.5 -48.5zM620 0l-94 119q-87 -128 -229 -128q-91 0 -151.5 56.5t-60.5 142.5 q0 134 181 255q-48 8 -79 44t-31 86q0 57 40 95.5t97 38.5q56 0 96 -39t40 -95q0 -53 -36 -91t-87 -40l221 -280q73 124 73 286h28q0 -179 -83 -310l111 -140h-36z"/>
<glyph glyph-name="quotesingle" horiz-adv-x="250" unicode="&apos;" d="M111 505v195h28v-195h-28z"/>
<glyph glyph-name="parenleft" horiz-adv-x="261" unicode="(" d="M261 -190l-19 -16q-202 174 -202 431q0 248 203 431l18 -16q-193 -178 -193 -415q0 -249 193 -415z"/>
<glyph glyph-name="parenright" horiz-adv-x="261" unicode=")" d="M19 -206l-19 16q193 166 193 415q0 237 -193 415l18 16q203 -183 203 -431q0 -257 -202 -431z"/>
<glyph glyph-name="asterisk" horiz-adv-x="449" unicode="*" d="M94 619q0 10 7 17t17 7q9 0 16 -7t7 -17t-7 -16.5t-16 -6.5q-10 0 -17 6.5t-7 16.5zM94 512q0 9 7 16t17 7q9 0 16 -7t7 -16q0 -10 -7 -17t-16 -7q-10 0 -17 7t-7 17zM308 512q0 9 7 16t16 7q10 0 17 -7t7 -16q0 -10 -6.5 -17t-17.5 -7q-9 0 -16 7t-7 17zM308 619 q0 10 7 17t16 7q10 0 17 -7t7 -17t-7 -16.5t-17 -6.5q-9 0 -16 6.5t-7 16.5zM202 446q0 10 7 17t17 7q9 0 16.5 -7t7.5 -17q0 -9 -7.5 -16t-16.5 -7q-10 0 -17 7t-7 16zM203 684q0 10 7 17t17 7q9 0 16.5 -7t7.5 -17q0 -9 -7.5 -16t-16.5 -7q-10 0 -17 7t-7 16z"/>
<glyph glyph-name="plus" d="M73 347v26h206v206h26v-206h208v-26h-208v-208h-26v208h-206z" unicode="+"/>
<glyph glyph-name="comma" horiz-adv-x="181" unicode="," d="M65 21q0 10 7.5 16.5t19.5 6.5q19 0 34 -20.5t15 -54.5q0 -44 -25 -75t-62 -41l-7 15q25 8 46 31.5t23 56.5q1 43 -18 54q-1 -10 -14 -10q-7 0 -13 6.5t-6 14.5z"/>
<glyph glyph-name="hyphen" horiz-adv-x="407" unicode="-" d="M93 257v27h221v-27h-221z"/>
<glyph glyph-name="period" horiz-adv-x="162" unicode="." d="M57 24q0 8 7.5 15t17.5 7q9 0 16 -7t7 -15q0 -10 -7 -17.5t-16 -7.5q-10 0 -17.5 7.5t-7.5 17.5z"/>
<glyph glyph-name="slash" horiz-adv-x="301" unicode="/" d="M-30 -199l338 908l23 -9l-337 -908z"/>
<glyph glyph-name="zero" horiz-adv-x="579" unicode="0" d="M103 350q0 -153 45.5 -242t142.5 -89q185 0 185 331t-187 331q-186 0 -186 -331zM73 350q0 164 53 261t163 97q75 0 124.5 -48t70.5 -125.5t21 -184.5t-20.5 -184.5t-69.5 -125.5t-124 -48q-110 0 -164 97.5t-54 260.5z"/>
<glyph glyph-name="one" horiz-adv-x="366" unicode="1" d="M53 584l152 123h19v-707h-29v664l-125 -102z"/>
<glyph glyph-name="two" horiz-adv-x="531" unicode="2" d="M56 0v24q49 48 81.5 81.5t88 97t89.5 113.5t60.5 110.5t26.5 108.5q0 59 -39.5 102t-111.5 43q-56 0 -103 -35t-57 -105l-25 8q9 76 64.5 118t120.5 42q88 0 134.5 -51t46.5 -116q0 -55 -31 -124t-69.5 -124t-94.5 -118t-84 -90.5t-60 -57.5h372v-27h-409z"/>
<glyph glyph-name="three" horiz-adv-x="534" unicode="3" d="M251 -9q-66 0 -119 30t-79 93l19 18q25 -58 74.5 -85t107.5 -27q79 0 127 48t48 121q0 68 -46.5 111.5t-113.5 43.5h-64v28h57q54 0 97 47t43 113q0 72 -41 110t-110 38q-117 0 -161 -104l-18 15q19 55 67 86.5t113 31.5q84 0 131.5 -46.5t47.5 -129.5q0 -55 -30 -102.5 t-83 -67.5v-3q64 -9 102 -58.5t38 -112.5q0 -89 -58 -143.5t-149 -54.5z"/>
<glyph glyph-name="four" horiz-adv-x="528" unicode="4" d="M354 0v193h-327v17l320 490h33l-313 -478h287v228h28v-228h108v-29h-108v-193h-28z"/>
<glyph glyph-name="five" horiz-adv-x="520" unicode="5" d="M126 378l41 322h293v-28h-269l-34 -262q40 12 79 12q99 0 160.5 -57.5t61.5 -151.5q0 -99 -61 -160.5t-146 -61.5q-61 0 -114 28.5t-84 86.5l19 19q28 -52 77 -78.5t102 -26.5q76 0 127 54.5t51 137.5q0 79 -56 131.5t-145 52.5q-50 0 -102 -18z"/>
<glyph glyph-name="six" horiz-adv-x="547" unicode="6" d="M87 249q0 -95 52.5 -162t148.5 -67q71 0 122 55.5t51 133.5q0 83 -48 137t-135 54q-77 0 -127.5 -46.5t-63.5 -104.5zM57 248q0 92 30 175t78.5 140.5t107 95t118.5 50.5l13 -22q-115 -26 -206 -128.5t-109 -264.5q22 57 73 95t123 38q94 0 149.5 -60t55.5 -156 q0 -92 -60.5 -156t-140.5 -64q-111 0 -171.5 74t-60.5 183z"/>
<glyph glyph-name="seven" horiz-adv-x="466" unicode="7" d="M37 672v28h391v-15l-274 -685h-32l269 672h-354z"/>
<glyph glyph-name="eight" horiz-adv-x="588" unicode="8" d="M294 -9q-88 0 -153 52t-65 138q0 63 41 113t110 64v3q-53 14 -89 63t-36 103q0 81 55 131.5t136 50.5t137 -50.5t56 -131.5q0 -53 -34 -99.5t-92 -65.5v-3q67 -7 109 -56.5t42 -119.5q0 -87 -64.5 -139.5t-152.5 -52.5zM310 346h-29q-72 0 -123.5 -46.5t-51.5 -114.5 q0 -71 55.5 -118t131.5 -47q79 0 134 45.5t55 119.5q0 73 -50 117t-122 44zM276 374h36q54 0 99 44.5t45 107.5q0 71 -49 112.5t-115 41.5q-65 0 -113 -42t-48 -112q0 -63 45.5 -107.5t99.5 -44.5z"/>
<glyph glyph-name="nine" horiz-adv-x="546" unicode="9" d="M459 450q0 96 -48.5 163t-143.5 67q-72 0 -127.5 -54.5t-55.5 -130.5q0 -77 49 -132.5t135 -55.5q77 0 127.5 43t63.5 100zM489 451q0 -190 -94.5 -314t-242.5 -146l-11 23q133 23 219 125.5t97 264.5q-21 -55 -72 -89.5t-123 -34.5q-93 0 -150 62t-57 151 q0 91 64.5 153.5t145.5 62.5q111 0 167.5 -73.5t56.5 -184.5z"/>
<glyph glyph-name="colon" horiz-adv-x="324" unicode=":" d="M138 24q0 8 7.5 15t17.5 7q9 0 16 -7t7 -15q0 -10 -7 -17.5t-16 -7.5q-10 0 -17.5 7.5t-7.5 17.5zM138 436q0 8 7.5 15t17.5 7q9 0 16 -7t7 -15q0 -10 -7 -17.5t-16 -7.5q-10 0 -17.5 7.5t-7.5 17.5z"/>
<glyph glyph-name="semicolon" horiz-adv-x="326" unicode=";" d="M137 21q0 10 7.5 16.5t19.5 6.5q19 0 34 -20.5t15 -54.5q0 -44 -25 -75t-62 -41l-7 15q25 8 46 31.5t23 56.5q1 43 -18 54q-1 -10 -14 -10q-7 0 -13 6.5t-6 14.5zM138 436q0 8 7.5 15t17.5 7q9 0 16 -7t7 -15q0 -10 -7 -17.5t-16 -7.5q-10 0 -17.5 7.5t-7.5 17.5z"/>
<glyph glyph-name="less" d="M473 97l-403 259v12l403 256v-31l-363 -231l363 -233v-32z" unicode="&lt;"/>
<glyph glyph-name="equal" d="M73 264v26h440v-26h-440zM73 430v26h440v-26h-440z" unicode="="/>
<glyph glyph-name="greater" d="M516 356l-403 -259v32l363 233l-363 231v31l403 -256v-12z" unicode="&gt;"/>
<glyph glyph-name="question" horiz-adv-x="455" unicode="?" d="M171 24q0 8 7.5 15t17.5 7q9 0 16 -7t7 -15q0 -10 -7 -17.5t-16 -7.5q-10 0 -17.5 7.5t-7.5 17.5zM388 535q0 63 -46 104t-118 41q-102 0 -166 -88l-18 17q28 44 78.5 72t108.5 28q89 0 139.5 -48.5t50.5 -120.5q0 -44 -15.5 -78t-38.5 -54.5t-50.5 -41.5t-50.5 -38.5 t-38.5 -45t-15.5 -61.5q0 -20 4 -39l-26 -2q-5 21 -5 46q0 42 21.5 74t51.5 53.5t60.5 44t52 57t21.5 80.5z"/>
<glyph glyph-name="at" horiz-adv-x="1021" unicode="@" d="M514 18q47 0 93 25.5t67 55.5v294q-63 39 -144 39q-90 0 -152.5 -60.5t-62.5 -147.5q0 -95 54.5 -150.5t144.5 -55.5zM674 0v67q-28 -32 -73 -54t-91 -22q-101 0 -162.5 64t-61.5 170q0 99 70.5 166.5t174.5 67.5q95 0 171 -48v-384h21q90 0 142.5 70.5t52.5 168.5 q0 159 -113 262.5t-285 103.5q-180 0 -298.5 -117t-118.5 -290q0 -171 119 -289t298 -118q57 0 108 12l5 -26q-58 -13 -113 -13q-192 0 -318 125.5t-126 308.5q0 182 126 308t318 126q184 0 304.5 -110t120.5 -282q0 -108 -59.5 -187.5t-167.5 -79.5h-44z"/>
<glyph glyph-name="A" horiz-adv-x="690" unicode="A" d="M344 663l-163 -375h326zM26 0l308 707h22l308 -707h-32l-113 260h-350l-112 -260h-31z"/>
<glyph glyph-name="B" horiz-adv-x="617" unicode="B" d="M291 674q-83 0 -145 -2v-299h156q76 0 127.5 42t51.5 111q0 148 -190 148zM296 346h-150v-318q14 0 68 -1t80 -1q103 0 159.5 42t56.5 126q0 72 -55.5 112t-158.5 40zM116 0v700q17 0 81.5 1t95.5 1q218 0 218 -172q0 -69 -43 -112t-107 -54v-2q86 -8 132.5 -52 t46.5 -118q0 -99 -67 -146.5t-179 -47.5q-30 0 -95 1t-83 1z"/>
<glyph glyph-name="C" horiz-adv-x="657" unicode="C" d="M606 90l13 -23q-36 -35 -94.5 -55.5t-120.5 -20.5q-155 0 -251 98.5t-96 260.5q0 154 94 256.5t244 102.5q132 0 211 -65l-15 -21q-72 57 -195 57q-137 0 -222.5 -94t-85.5 -236q0 -148 88.5 -239t229.5 -91q118 0 200 70z"/>
<glyph glyph-name="D" horiz-adv-x="735" unicode="D" d="M283 675q-32 0 -73.5 -1.5t-63.5 -1.5v-644h38t36 -0.5t29 -1t20.5 -0.5h8.5q177 0 273 94.5t96 240.5q0 138 -90.5 226t-273.5 88zM116 0v700h11q25 0 74.5 1.5t83.5 1.5q102 0 179 -27.5t123 -76t68.5 -108.5t22.5 -130q0 -158 -104.5 -260.5t-296.5 -102.5 q-28 0 -77.5 1t-76.5 1h-7z"/>
<glyph glyph-name="E" horiz-adv-x="575" unicode="E" d="M116 0v700h380v-28h-350v-302h320v-28h-320v-314h360v-28h-390z"/>
<glyph glyph-name="F" horiz-adv-x="544" unicode="F" d="M116 0v700h388v-28h-358v-322h328v-28h-328v-322h-30z"/>
<glyph glyph-name="G" horiz-adv-x="727" unicode="G" d="M413 296v28h247v-237q-45 -45 -119 -70.5t-143 -25.5q-152 0 -246.5 98.5t-94.5 260.5q0 153 93.5 256t242.5 103q132 0 214 -65l-15 -23q-70 59 -195 59q-138 0 -223.5 -94t-85.5 -236q0 -149 86.5 -239.5t225.5 -90.5q64 0 129 22.5t102 59.5v194h-218z"/>
<glyph glyph-name="H" horiz-adv-x="772" unicode="H" d="M627 0v343h-481v-343h-30v700h30v-329h481v329h29v-700h-29z"/>
<glyph glyph-name="I" horiz-adv-x="316" unicode="I" d="M143 0v700h30v-700h-30z"/>
<glyph glyph-name="J" horiz-adv-x="350" unicode="J" d="M233 700v-550q0 -77 -29 -118t-100 -41q-52 0 -87 29l12 23q31 -23 72 -23q60 0 81.5 35t21.5 98v547h29z"/>
<glyph glyph-name="K" horiz-adv-x="624" unicode="K" d="M116 0v700h30v-700h-30zM577 700l-344 -333l356 -367h-43l-354 365l344 335h41z"/>
<glyph glyph-name="L" horiz-adv-x="554" unicode="L" d="M116 0v700h30v-672h389v-28h-419z"/>
<glyph glyph-name="M" horiz-adv-x="877" unicode="M" d="M116 0v700h31l297 -405l288 405h29v-700h-29v655l-287 -404h-5l-294 401v-652h-30z"/>
<glyph glyph-name="N" horiz-adv-x="799" unicode="N" d="M683 0h-24l-515 646v-646h-28v700h24l514 -648v648h29v-700z"/>
<glyph glyph-name="O" horiz-adv-x="807" unicode="O" d="M88 350q0 -141 90.5 -235.5t224.5 -94.5q135 0 225 94.5t90 235.5t-90.5 235.5t-224.5 94.5t-224.5 -94.5t-90.5 -235.5zM57 350q0 152 99 255.5t247 103.5q147 0 246.5 -102.5t99.5 -256.5q0 -153 -99.5 -256t-246.5 -103t-246.5 102.5t-99.5 256.5z"/>
<glyph glyph-name="P" horiz-adv-x="575" unicode="P" d="M279 674q-67 0 -133 -2v-352q72 -5 123 -5q107 0 162.5 50.5t55.5 131.5q0 80 -50.5 128.5t-157.5 48.5zM146 0h-30v700q20 0 81 1t79 1q69 0 118 -17.5t74.5 -48.5t37 -65t11.5 -75q0 -88 -61 -148.5t-185 -60.5q-53 0 -125 5v-292z"/>
<glyph glyph-name="Q" horiz-adv-x="807" unicode="Q" d="M88 350q0 -141 90.5 -235.5t224.5 -94.5q107 0 187 61l-61 75l19 18l64 -76q106 96 106 252q0 141 -90.5 235.5t-224.5 94.5t-224.5 -94.5t-90.5 -235.5zM57 350q0 152 99 255.5t247 103.5q147 0 246.5 -102.5t99.5 -256.5q0 -169 -118 -274l64 -76h-38l-48 58 q-91 -67 -206 -67q-147 0 -246.5 102.5t-99.5 256.5z"/>
<glyph glyph-name="R" horiz-adv-x="621" unicode="R" d="M265 674q-53 0 -119 -2v-338h136q75 0 135.5 49.5t60.5 122.5q0 168 -213 168zM146 0h-30v700q22 0 82.5 1t68.5 1q242 0 242 -196q0 -71 -49 -125t-128 -69l254 -312h-37l-249 306h-154v-306z"/>
<glyph glyph-name="S" horiz-adv-x="543" unicode="S" d="M455 170q0 44 -21 77t-54.5 52t-73.5 34.5t-80.5 31.5t-74 36.5t-54.5 55.5t-21 83q0 74 53.5 121.5t146.5 47.5q56 0 105.5 -19.5t78.5 -51.5l-17 -21q-62 63 -168 63q-77 0 -122.5 -38.5t-45.5 -101.5q0 -50 28 -85t70 -52t91.5 -36.5t91.5 -38.5t70 -59.5t28 -97.5 q0 -81 -62.5 -130.5t-156.5 -49.5q-62 0 -123 27.5t-87 71.5l19 20q30 -41 83.5 -65.5t105.5 -24.5q78 0 134 39.5t56 110.5z"/>
<glyph glyph-name="T" horiz-adv-x="591" unicode="T" d="M10 672v28h571v-28h-271v-672h-29v672h-271z"/>
<glyph glyph-name="U" horiz-adv-x="751" unicode="U" d="M645 700v-406q0 -151 -73.5 -226t-186.5 -75q-124 0 -201.5 80t-77.5 228v399h30v-395q0 -135 69 -209.5t180 -74.5q103 0 166.5 70t63.5 210v399h30z"/>
<glyph glyph-name="V" horiz-adv-x="656" unicode="V" d="M640 700l-299 -707h-19l-306 707h32l285 -660l276 660h31z"/>
<glyph glyph-name="W" horiz-adv-x="948" unicode="W" d="M930 700l-205 -700h-23l-226 647l-220 -647h-23l-216 700h33l197 -641l218 641h24l224 -642l188 642h29z"/>
<glyph glyph-name="X" horiz-adv-x="657" unicode="X" d="M613 700l-265 -344l274 -356h-36l-258 333l-257 -333h-36l275 356l-264 344h36l247 -321l248 321h36z"/>
<glyph glyph-name="Y" horiz-adv-x="567" unicode="Y" d="M550 700l-253 -389v-311h-29v311l-251 389h35l231 -361l233 361h34z"/>
<glyph glyph-name="Z" horiz-adv-x="624" unicode="Z" d="M60 672v28h514v-16l-491 -656h501v-28h-544v16l490 656h-470z"/>
<glyph glyph-name="bracketleft" horiz-adv-x="276" unicode="[" d="M60 -200v850h213v-27h-185v-796h185v-27h-213z"/>
<glyph glyph-name="backslash" horiz-adv-x="301" unicode="\" d="M-7 709l338 -908l-24 -9l-337 908z"/>
<glyph glyph-name="bracketright" horiz-adv-x="276" unicode="]" d="M216 650v-850h-213v27h184v796h-184v27h213z"/>
<glyph glyph-name="asciicircum" horiz-adv-x="470" unicode="^" d="M55 450l172 258h17l171 -258h-32l-147 226l-150 -226h-31z"/>
<glyph glyph-name="underscore" horiz-adv-x="266" unicode="_" d="M0 -200v28h266v-28h-266z"/>
<glyph glyph-name="grave" horiz-adv-x="250" unicode="`" d="M172 552l-112 141l21 17l109 -146z"/>
<glyph glyph-name="a" horiz-adv-x="457" unicode="a" d="M193 22q42 0 76 14.5t50 30.5t35 40v90q-56 40 -134 40q-58 0 -100.5 -28t-42.5 -83q0 -48 33 -76t83 -28zM91 394l-9 24q65 41 138 41q87 0 124.5 -45t37.5 -133v-281h-28v78q-61 -83 -167 -83q-63 0 -101.5 35.5t-38.5 93.5q0 65 47.5 101t123.5 36q84 0 136 -37 q0 37 -1 59t-5 49.5t-13 43t-24 30t-38.5 20.5t-55.5 6q-61 0 -126 -38z"/>
<glyph glyph-name="b" horiz-adv-x="550" unicode="b" d="M279 432q-50 0 -96.5 -24.5t-68.5 -54.5v-289q64 -46 146 -46q91 0 150 57t59 153q0 93 -51 148.5t-139 55.5zM85 46v654h29v-316q28 32 75 53.5t95 21.5q100 0 157.5 -63t57.5 -164q0 -110 -67 -175.5t-174 -65.5q-104 0 -173 55z"/>
<glyph glyph-name="c" horiz-adv-x="491" unicode="c" d="M439 83l14 -19q-28 -35 -72.5 -54t-93.5 -19q-104 0 -169.5 64t-65.5 170q0 98 63.5 166t156.5 68q113 0 172 -55l-14 -23q-58 51 -153 51q-81 0 -138.5 -59.5t-57.5 -147.5q0 -94 58.5 -150.5t149.5 -56.5q45 0 85 18t65 47z"/>
<glyph glyph-name="d" horiz-adv-x="553" unicode="d" d="M279 19q46 0 91 25t69 55v287q-66 46 -144 46q-91 0 -152.5 -58t-61.5 -149q0 -94 54.5 -150t143.5 -56zM439 0v71q-29 -34 -73 -56.5t-91 -22.5q-101 0 -162 63t-61 169q0 103 69.5 169t173.5 66q84 0 144 -45v286h28v-700h-28z"/>
<glyph glyph-name="e" horiz-adv-x="527" unicode="e" d="M271 432q-84 0 -134 -50.5t-56 -131.5h366q1 84 -47 133t-129 49zM441 80l11 -21q-28 -33 -72.5 -50.5t-91.5 -17.5q-104 0 -170 64t-66 170q0 103 58 168.5t165 65.5q88 0 144.5 -55.5t56.5 -146.5q0 -13 -2 -31h-391q1 -96 57 -152t149 -56q95 0 152 62z"/>
<glyph glyph-name="f" horiz-adv-x="338" unicode="f" d="M103 0v523q0 186 153 186q69 0 112 -37l-11 -22q-44 32 -98 32q-128 0 -128 -168v-64h191v-27h-191v-423h-28z"/>
<glyph glyph-name="g" horiz-adv-x="487" unicode="g" d="M95 301q0 -57 40 -93.5t103 -36.5t103 36.5t40 93.5t-40 94t-103 37t-103 -37t-40 -94zM47 -69q0 -52 52.5 -82t139.5 -30q88 0 140 29.5t52 82.5t-52.5 83.5t-139.5 30.5t-139.5 -30.5t-52.5 -83.5zM17 -69q0 52 37 86t103 47q-17 19 -17 46q0 30 19 49q-44 19 -69 56.5 t-25 85.5q0 68 48.5 113t124.5 45q68 0 113 -36l126 35v-27l-103 -28q37 -42 37 -102q0 -68 -48 -112.5t-125 -44.5q-33 0 -57 7q-14 -15 -14 -41t18 -42q34 4 54 4q101 0 161.5 -37t60.5 -104t-60.5 -103t-161.5 -36t-161.5 36t-60.5 103z"/>
<glyph glyph-name="h" horiz-adv-x="553" unicode="h" d="M85 0v700h29v-318q28 33 76.5 54.5t96.5 21.5q96 0 143 -49.5t47 -154.5v-254h-28v248q0 93 -41 138t-126 45q-50 0 -97.5 -23t-70.5 -54v-354h-29z"/>
<glyph glyph-name="i" horiz-adv-x="255" unicode="i" d="M105 629q0 9 7 15.5t16 6.5q8 0 14.5 -6.5t6.5 -15.5q0 -10 -6.5 -16.5t-14.5 -6.5q-9 0 -16 6.5t-7 16.5zM113 0v450h28v-450h-28z"/>
<glyph glyph-name="j" horiz-adv-x="257" unicode="j" d="M106 629q0 9 7 15.5t16 6.5q8 0 14.5 -6.5t6.5 -15.5q0 -10 -6.5 -16.5t-14.5 -6.5q-9 0 -16 6.5t-7 16.5zM143 450v-483q0 -175 -141 -175q-49 0 -85 26l10 23q32 -22 71 -22q117 0 117 149v482h28z"/>
<glyph glyph-name="k" horiz-adv-x="457" unicode="k" d="M85 0v700h29v-700h-29zM414 450l-225 -213l244 -237h-40l-240 235l223 215h38z"/>
<glyph glyph-name="l" horiz-adv-x="276" unicode="l" d="M85 113v587h29v-566q0 -58 16.5 -84.5t56.5 -26.5q39 0 70 23l9 -23q-37 -27 -87 -27q-49 0 -71.5 28.5t-22.5 88.5z"/>
<glyph glyph-name="m" horiz-adv-x="807" unicode="m" d="M731 296v-296h-28v288q0 143 -128 143q-51 0 -91 -23t-64 -61q2 -8 2 -31v-316h-28v316q0 52 -33.5 83.5t-94.5 31.5q-48 0 -89 -23.5t-63 -55.5v-352h-29v450h29v-68q25 34 69.5 55t90.5 21q54 0 91.5 -23t50.5 -64q24 39 70.5 63t96.5 24q148 0 148 -162z"/>
<glyph glyph-name="n" horiz-adv-x="553" unicode="n" d="M85 0v450h29v-68q28 32 76.5 54t96.5 22q96 0 143 -49.5t47 -154.5v-254h-28v248q0 93 -41 138t-126 45q-50 0 -97 -23t-71 -54v-354h-29z"/>
<glyph glyph-name="o" horiz-adv-x="569" unicode="o" d="M81 225q0 -91 57 -149t146 -58t146 58t57 149t-57 149t-146 58t-146 -58t-57 -149zM52 225q0 102 65 168t167 66t167.5 -66t65.5 -168t-65.5 -168t-167.5 -66t-167 66t-65 168z"/>
<glyph glyph-name="p" horiz-adv-x="552" unicode="p" d="M281 432q-51 0 -97.5 -22.5t-69.5 -53.5v-290q67 -48 157 -48q89 0 144.5 59t55.5 152q0 92 -50.5 147.5t-139.5 55.5zM85 -200v650h29v-66q27 33 75 54t98 21q99 0 156.5 -63t57.5 -164q0 -104 -63.5 -172.5t-165.5 -68.5q-98 0 -158 45v-236h-29z"/>
<glyph glyph-name="q" horiz-adv-x="553" unicode="q" d="M281 18q47 0 92.5 23.5t66.5 52.5v299q-63 39 -144 39q-90 0 -152.5 -60.5t-62.5 -147.5q0 -94 54.5 -150t145.5 -56zM440 -200v262q-28 -31 -72.5 -51t-89.5 -20q-102 0 -164 64t-62 170q0 99 70.5 166.5t174.5 67.5q95 0 171 -48v-611h-28z"/>
<glyph glyph-name="r" horiz-adv-x="320" unicode="r" d="M85 0v450h29v-65q47 73 127 73q47 0 70 -17l-9 -27q-29 17 -65 17q-74 0 -123 -79v-352h-29z"/>
<glyph glyph-name="s" horiz-adv-x="409" unicode="s" d="M323 114q0 31 -19 51.5t-47 30.5t-61 22t-61 24t-47 38.5t-19 65.5q0 50 37.5 81.5t99.5 31.5q39 0 74.5 -13.5t54.5 -34.5l-14 -21q-41 43 -116 43q-48 0 -77.5 -25t-29.5 -61q0 -33 19 -55t47 -32.5t61 -22t61 -23t47 -37t19 -61.5q0 -61 -43 -93t-108 -32 q-42 0 -85.5 19t-59.5 43l18 18q17 -24 55 -39t73 -15q50 0 85.5 25t35.5 72z"/>
<glyph glyph-name="t" horiz-adv-x="344" unicode="t" d="M75 171v404h29v-125h194v-27h-194v-243q0 -80 27.5 -119t89.5 -39q41 0 73 24l12 -23q-40 -28 -90 -28q-74 0 -107.5 44t-33.5 132z"/>
<glyph glyph-name="u" horiz-adv-x="547" unicode="u" d="M462 450v-450h-28v78q-29 -36 -79 -61.5t-102 -25.5q-178 0 -178 203v256h29v-249q0 -93 38 -138t120 -45q51 0 99 27.5t73 61.5v343h28z"/>
<glyph glyph-name="v" horiz-adv-x="469" unicode="v" d="M452 450l-206 -457h-17l-213 457h33l147 -318q30 -68 43 -97q23 58 43 101l140 314h30z"/>
<glyph glyph-name="w" horiz-adv-x="684" unicode="w" d="M666 450l-147 -457h-21l-135 356q-14 38 -20 58q-4 -10 -11 -30.5t-11 -31.5l-132 -352h-19l-153 457h31l113 -342q5 -13 12.5 -38t8.5 -29q5 12 13 34.5t12 32.5l126 342h21l128 -340l26 -70q7 25 23 75l106 335h29z"/>
<glyph glyph-name="x" horiz-adv-x="485" unicode="x" d="M439 450l-177 -218l187 -232h-35l-172 212l-172 -212h-34l187 231l-177 219h35l161 -200l163 200h34z"/>
<glyph glyph-name="y" horiz-adv-x="472" unicode="y" d="M455 450l-184 -450q-48 -117 -84.5 -158.5t-82.5 -41.5q-32 0 -70 19l10 22q33 -15 56 -15q39 0 70 35t64 115l10 24l-227 450h33l173 -345q19 -36 35 -73q9 25 29 75l136 343h32z"/>
<glyph glyph-name="z" horiz-adv-x="478" unicode="z" d="M64 423v27h365v-16l-338 -407h333v-27h-375v16l336 407h-321z"/>
<glyph glyph-name="braceleft" horiz-adv-x="294" unicode="{" d="M110 -80v194q0 52 -26 75t-61 23h-3v26q35 0 62.5 25t27.5 85v179q0 60 25 91.5t84 31.5h55v-27h-50q-46 0 -66 -24.5t-20 -78.5v-180q0 -48 -20.5 -78.5t-54.5 -35.5q75 -9 75 -114v-184q0 -101 92 -101h44v-27h-52q-112 0 -112 120z"/>
<glyph glyph-name="bar" horiz-adv-x="315" unicode="|" d="M143 0v700h29v-700h-29z"/>
<glyph glyph-name="braceright" horiz-adv-x="294" unicode="}" d="M184 114v-194q0 -120 -112 -120h-52v27h44q92 0 92 101v184q0 105 75 114q-34 5 -54.5 35.5t-20.5 78.5v180q0 54 -20 78.5t-66 24.5h-50v27h55q59 0 84 -31t25 -92v-179q0 -60 27.5 -85t62.5 -25v-26h-3q-35 0 -61 -23t-26 -75z"/>
<glyph glyph-name="asciitilde" d="M79 335l-16 19q60 57 121 57q42 0 117 -37t113 -37q48 0 95 46l14 -20q-55 -52 -110 -52q-40 0 -115.5 37.5t-114.5 37.5q-51 0 -104 -51z" unicode="~"/>
<glyph glyph-name="uni00A0" horiz-adv-x="243" unicode=" "/>
<glyph glyph-name="exclamdown" horiz-adv-x="310" unicode="¡" d="M180 434q0 -8 -7.5 -15t-17.5 -7q-9 0 -16 7t-7 15q0 10 7 17.5t16 7.5q10 0 17.5 -7.5t7.5 -17.5zM171 284v-526h-30v526h30z"/>
<glyph glyph-name="cent" d="M481 83l14 -19q-55 -70 -160 -73v-111h-28v112q-96 7 -154.5 70t-58.5 163q0 96 61 163.5t152 70.5v109h28v-110q98 -5 151 -54l-14 -23q-58 51 -153 51q-81 0 -138.5 -59.5t-57.5 -147.5q0 -94 58.5 -150.5t149.5 -56.5q45 0 85 18t65 47z" unicode="¢"/>
<glyph glyph-name="sterling" d="M85 290v24h78q-5 16 -22 52.5t-25.5 70t-8.5 77.5q0 78 55 136t146 58q56 0 105 -19.5t78 -51.5l-16 -21q-64 64 -169 64q-74 0 -121.5 -50.5t-47.5 -116.5q0 -43 9 -76t25.5 -68t22.5 -55h181v-24h-175q6 -26 6 -57q0 -90 -51 -160q15 3 30 3q40 0 115 -26t112 -26 q60 0 112 49l15 -21q-57 -56 -129 -56q-38 0 -114 26t-114 26q-62 0 -118 -55l-15 22q34 32 72 49q56 66 56 166q0 28 -7 60h-85z" unicode="£"/>
<glyph glyph-name="currency" d="M99 349q0 -84 53.5 -143t141.5 -59t141.5 59t53.5 143t-53.5 142.5t-141.5 58.5t-141.5 -59t-53.5 -142zM72 349q0 86 53 150l-95 96l18 18l95 -95q60 58 151 58q90 0 151 -58l101 101l18 -18l-101 -102q53 -64 53 -150t-53 -150l96 -98l-18 -18l-96 97q-60 -58 -151 -58 t-151 57l-103 -102l-18 18l103 104q-53 64 -53 150z" unicode="¤"/>
<glyph glyph-name="yen" d="M73 310v25h189l-231 365h35l227 -361l228 361h34l-233 -365h190v-25h-205v-138h205v-24h-205v-148h-30v148h-204v24h204v138h-204z" unicode="¥"/>
<glyph glyph-name="brokenbar" horiz-adv-x="315" unicode="¦" d="M143 260h29v-260h-29v260zM172 440h-29v260h29v-260z"/>
<glyph glyph-name="section" horiz-adv-x="524" unicode="§" d="M104 249q0 -66 47.5 -110t110.5 -44q65 0 111.5 44t46.5 110q0 67 -46.5 111t-111.5 44t-111.5 -44t-46.5 -111zM76 249q0 70 43 119t112 59q-44 18 -74.5 52.5t-30.5 82.5q0 60 40.5 99t105.5 39q80 0 124 -58l-17 -20q-15 16 -23 23.5t-31.5 17.5t-53.5 10 q-49 0 -83 -33t-34 -81t35 -81t85 -50q76 -4 125 -54t49 -125q0 -69 -43 -118t-112 -59q44 -19 73.5 -53t29.5 -81q0 -60 -40.5 -99t-105.5 -39q-80 0 -124 58l17 20q15 -16 23 -23.5t31.5 -17.5t53.5 -10q49 0 83 33t34 81t-35 80.5t-85 48.5q-75 5 -123.5 55t-48.5 124z "/>
<glyph glyph-name="dieresis" horiz-adv-x="374" unicode="¨" d="M271 626q0 8 6.5 14.5t15.5 6.5q8 0 14.5 -6.5t6.5 -14.5q0 -10 -6 -16.5t-15 -6.5t-15.5 6.5t-6.5 16.5zM60 626q0 8 6.5 14.5t15.5 6.5q8 0 14 -6.5t6 -14.5q0 -10 -6 -16.5t-14 -6.5q-9 0 -15.5 6.5t-6.5 16.5z"/>
<glyph glyph-name="copyright" horiz-adv-x="1018" unicode="©" d="M669 83l14 -19q-28 -35 -72.5 -54t-93.5 -19q-104 0 -169.5 64t-65.5 170q0 98 63.5 166t156.5 68q113 0 172 -55l-14 -23q-58 51 -153 51q-81 0 -138.5 -59.5t-57.5 -147.5q0 -94 58.5 -150.5t149.5 -56.5q45 0 85 18t65 47zM104 221q0 -169 116 -287t289 -118t289 118 t116 287t-116 287t-289 118t-289 -118t-116 -287zM79 221q0 180 123 305t307 125t307 -125t123 -305t-123 -305t-307 -125t-307 125t-123 305z"/>
<glyph glyph-name="ordfeminine" horiz-adv-x="395" unicode="ª" d="M176 371q71 0 116 53v68q-44 27 -107 27q-42 0 -71.5 -20t-29.5 -55q0 -32 27 -52.5t65 -20.5zM104 604l-14 17q44 37 106 37q59 0 90.5 -30.5t31.5 -87.5v-189h-26v54q-41 -57 -124 -57q-49 0 -80 27.5t-31 66.5q0 46 33 71.5t90 25.5q70 0 112 -28v23q0 101 -101 101 q-44 0 -87 -31z"/>
<glyph glyph-name="guillemotleft" horiz-adv-x="485" unicode="«" d="M231 43l-175 205v4l176 203l19 -17l-163 -188l161 -189zM391 43l-175 205v4l176 203l19 -17l-163 -188l161 -189z"/>
<glyph glyph-name="logicalnot" d="M71 347v26h444v-157h-25v131h-419z" unicode="¬"/>
<glyph glyph-name="uni00AD" horiz-adv-x="407" unicode="­" d="M93 257v27h221v-27h-221z"/>
<glyph glyph-name="registered" horiz-adv-x="551" unicode="®" d="M265 622h-47v-125h54q27 0 49 18t22 46q0 29 -20 45t-58 16zM218 360h-22v280h71q98 0 98 -79q0 -28 -19 -50t-51 -29l97 -122h-28l-94 119h-52v-119zM82 496q0 -80 57 -137t137 -57t137 57t57 137t-57 137t-137 57t-137 -57t-57 -137zM57 496q0 91 64 154.5t155 63.5 t154.5 -63.5t63.5 -154.5t-63.5 -154.5t-154.5 -63.5t-155 63.5t-64 154.5z"/>
<glyph glyph-name="macron" horiz-adv-x="362" unicode="¯" d="M60 624v25h242v-25h-242z"/>
<glyph glyph-name="degree" horiz-adv-x="388" unicode="°" d="M83 570q0 -46 32.5 -78.5t78.5 -32.5t78.5 32.5t32.5 78.5t-32.5 78.5t-78.5 32.5t-78.5 -32.5t-32.5 -78.5zM57 570q0 57 40 96.5t97 39.5t96.5 -39t39.5 -96t-40 -97.5t-96 -40.5q-57 0 -97 40t-40 97z"/>
<glyph glyph-name="plusminus" d="M73 180v26h440v-26h-440zM73 421v26h206v205h26v-205h208v-26h-208v-153h-26v153h-206z" unicode="±"/>
<glyph glyph-name="twosuperior" horiz-adv-x="330" unicode="²" d="M42 350v20q3 2 31 22.5t39.5 29.5t37.5 30.5t39 36.5t29.5 35t23.5 39.5t7 38.5q0 34 -22 56.5t-64 22.5q-32 0 -59.5 -17.5t-33.5 -50.5l-22 7q6 39 40 61.5t75 22.5q56 0 84.5 -29t28.5 -73q0 -99 -198 -229h218v-23h-254z"/>
<glyph glyph-name="threesuperior" horiz-adv-x="335" unicode="³" d="M160 346q-93 0 -124 64l17 13q26 -55 106 -55q46 0 73.5 22.5t27.5 56.5q0 31 -26 51t-65 20h-38v21h34q31 0 55.5 21.5t24.5 52.5q0 34 -23.5 51.5t-63.5 17.5q-71 0 -96 -52l-15 14q26 60 114 60q52 0 81.5 -23t29.5 -64q0 -28 -18.5 -52t-51.5 -33v-1q39 -4 62 -29 t23 -57q0 -45 -36 -72t-91 -27z"/>
<glyph glyph-name="acute" horiz-adv-x="250" unicode="´" d="M190 693l-112 -141l-18 12l109 146z"/>
<glyph glyph-name="mu" horiz-adv-x="549" unicode="µ" d="M463 450v-450h-28v78q-29 -36 -79 -61.5t-102 -25.5q-108 0 -149 70v-261h-29v650h29v-249q0 -93 38 -138t120 -45q51 0 99 27.5t73 61.5v343h28z"/>
<glyph glyph-name="mu" horiz-adv-x="549" unicode="μ" d="M463 450v-450h-28v78q-29 -36 -79 -61.5t-102 -25.5q-108 0 -149 70v-261h-29v650h29v-249q0 -93 38 -138t120 -45q51 0 99 27.5t73 61.5v343h28z"/>
<glyph glyph-name="paragraph" horiz-adv-x="417" unicode="¶" d="M56 481q0 102 54 160.5t149 58.5h120v-27h-94v-715q0 -81 -30 -123.5t-102 -42.5q-52 0 -89 29l13 22q32 -24 74 -24q62 0 84 36.5t22 101.5v306q-88 1 -144.5 59.5t-56.5 158.5z"/>
<glyph glyph-name="periodcentered" horiz-adv-x="243" unicode="·" d="M97 295q0 8 7.5 15t17.5 7q9 0 16 -7t7 -15q0 -10 -7 -17.5t-16 -7.5q-10 0 -17.5 7.5t-7.5 17.5z"/>
<glyph glyph-name="cedilla" horiz-adv-x="312" unicode="¸" d="M60 -178l10 17q38 -20 73 -20q36 0 58.5 15t22.5 39q0 54 -82 54h-6v73h19v-56q97 -1 97 -72q0 -33 -28.5 -53t-77.5 -20q-38 0 -86 23z"/>
<glyph glyph-name="onesuperior" horiz-adv-x="228" unicode="¹" d="M32 640l93 63h17v-353h-25v320l-74 -49z"/>
<glyph glyph-name="ordmasculine" horiz-adv-x="442" unicode="º" d="M86 502q0 -58 40.5 -95.5t94.5 -37.5q56 0 95.5 37.5t39.5 95.5t-40 95t-95 37t-95 -37t-40 -95zM59 502q0 68 46.5 112t115.5 44t115.5 -44t46.5 -112q0 -69 -46 -113t-116 -44t-116 44t-46 113z"/>
<glyph glyph-name="guillemotright" horiz-adv-x="485" unicode="»" d="M268 248l-174 -205l-19 18l161 189l-163 188l19 17l176 -203v-4zM428 248l-174 -205l-19 18l161 189l-163 188l19 17l176 -203v-4z"/>
<glyph glyph-name="onequarter" horiz-adv-x="643" unicode="¼" d="M535 0v93h-196v16l189 241h25l-184 -235h166v110h24v-110h64v-22h-64v-93h-24zM57 5l527 704l17 -13l-526 -705zM49 640l93 63h17v-353h-25v320l-74 -49z"/>
<glyph glyph-name="onehalf" horiz-adv-x="659" unicode="½" d="M365 0v20q3 2 31 22.5t39.5 29.5t37.5 30.5t39 36.5t29.5 35t23.5 39.5t7 38.5q0 34 -22 56.5t-64 22.5q-32 0 -59.5 -17.5t-33.5 -50.5l-22 7q6 39 40 61.5t75 22.5q56 0 84.5 -29t28.5 -73q0 -99 -198 -229h218v-23h-254zM23 5l527 704l17 -13l-526 -705zM49 640l93 63 h17v-353h-25v320l-74 -49z"/>
<glyph glyph-name="threequarters" horiz-adv-x="679" unicode="¾" d="M161 346q-93 0 -124 64l17 13q26 -55 106 -55q46 0 73.5 22.5t27.5 56.5q0 31 -26 51t-65 20h-38v21h34q31 0 55.5 21.5t24.5 52.5q0 34 -23.5 51.5t-63.5 17.5q-71 0 -96 -52l-15 14q26 60 114 60q52 0 81.5 -23t29.5 -64q0 -28 -18.5 -52t-51.5 -33v-1q39 -4 62 -29 t23 -57q0 -45 -36 -72t-91 -27zM570 0v93h-196v16l189 241h25l-184 -235h166v110h24v-110h64v-22h-64v-93h-24zM103 5l527 704l17 -13l-526 -705z"/>
<glyph glyph-name="questiondown" horiz-adv-x="455" unicode="¿" d="M284 434q0 -8 -7.5 -15t-17.5 -7q-9 0 -16 7t-7 15q0 10 7 17.5t16 7.5q10 0 17.5 -7.5t7.5 -17.5zM67 -77q0 -63 46 -104t118 -41q102 0 166 88l18 -17q-28 -44 -78.5 -72t-108.5 -28q-89 0 -139.5 48.5t-50.5 120.5q0 51 21.5 89.5t52 61.5t61.5 44.5t52.5 52.5 t21.5 71q0 20 -4 39l26 2q5 -21 5 -46q0 -42 -21.5 -74t-52 -53.5t-60.5 -44t-51.5 -57t-21.5 -80.5z"/>
<glyph glyph-name="Agrave" horiz-adv-x="690" unicode="À" d="M372 740l-166 89l11 23l165 -94zM344 663l-163 -375h326zM26 0l308 707h22l308 -707h-32l-113 260h-350l-112 -260h-31z"/>
<glyph glyph-name="Aacute" horiz-adv-x="690" unicode="Á" d="M488 829l-167 -89l-9 18l165 94zM344 663l-163 -375h326zM26 0l308 707h22l308 -707h-32l-113 260h-350l-112 -260h-31z"/>
<glyph glyph-name="Acircumflex" horiz-adv-x="690" unicode="Â" d="M177 757l166 94h4l167 -93l-15 -18l-154 85l-155 -85zM344 663l-163 -375h326zM26 0l308 707h22l308 -707h-32l-113 260h-350l-112 -260h-31z"/>
<glyph glyph-name="Atilde" horiz-adv-x="690" unicode="Ã" d="M193 772l-11 18q39 35 81 35q31 0 83 -24t78 -24q41 0 73 35l11 -19q-38 -41 -85 -41q-28 0 -81.5 23.5t-82.5 23.5q-33 0 -66 -27zM344 663l-163 -375h326zM26 0l308 707h22l308 -707h-32l-113 260h-350l-112 -260h-31z"/>
<glyph glyph-name="Adieresis" horiz-adv-x="690" unicode="Ä" d="M439 796q0 9 7 15t17 6q9 0 15.5 -6t6.5 -15q0 -10 -6.5 -16t-15.5 -6q-24 0 -24 22zM205 796q0 9 7 15t17 6q9 0 16 -6t7 -15q0 -10 -7 -16t-16 -6q-24 0 -24 22zM344 663l-163 -375h326zM26 0l308 707h22l308 -707h-32l-113 260h-350l-112 -260h-31z"/>
<glyph glyph-name="Aring" horiz-adv-x="690" unicode="Å" d="M267 779q0 -31 21.5 -47.5t55.5 -16.5q35 0 57 16.5t22 47.5t-22 46.5t-57 15.5t-56 -15.5t-21 -46.5zM344 663l-163 -375h326zM244 779q0 40 28 60.5t72 20.5q45 0 73.5 -20.5t28.5 -60.5q0 -35 -24 -56.5t-62 -25.5l304 -697h-32l-113 260h-350l-112 -260h-31l303 697 q-38 4 -61.5 25.5t-23.5 56.5z"/>
<glyph glyph-name="AE" horiz-adv-x="964" unicode="Æ" d="M504 656l-256 -361h256v361zM895 0h-391v267h-276l-189 -267h-36l501 700h381v-28h-351v-302h321v-28h-321v-314h361v-28z"/>
<glyph glyph-name="Ccedilla" horiz-adv-x="657" unicode="Ç" d="M308 -177l10 17q40 -21 74 -21q36 0 58.5 15t22.5 39q0 54 -82 54h-6v65q-147 6 -237.5 103t-90.5 255q0 154 94 256.5t244 102.5q132 0 211 -65l-15 -21q-72 57 -195 57q-137 0 -222.5 -94t-85.5 -236q0 -148 88.5 -239t229.5 -91q118 0 200 70l13 -23 q-36 -35 -94.5 -55.5t-120.5 -20.5v-47q98 -1 98 -72q0 -33 -28.5 -53t-76.5 -20q-44 0 -89 24z"/>
<glyph glyph-name="Egrave" horiz-adv-x="575" unicode="È" d="M355 740l-166 89l11 23l165 -94zM116 0v700h380v-28h-350v-302h320v-28h-320v-314h360v-28h-390z"/>
<glyph glyph-name="Eacute" horiz-adv-x="575" unicode="É" d="M421 829l-167 -89l-9 18l165 94zM116 0v700h380v-28h-350v-302h320v-28h-320v-314h360v-28h-390z"/>
<glyph glyph-name="Ecircumflex" horiz-adv-x="575" unicode="Ê" d="M140 757l166 94h4l167 -93l-15 -18l-154 85l-155 -85zM116 0v700h380v-28h-350v-302h320v-28h-320v-314h360v-28h-390z"/>
<glyph glyph-name="Edieresis" horiz-adv-x="575" unicode="Ë" d="M402 796q0 9 7 15t17 6q9 0 15.5 -6t6.5 -15q0 -10 -6.5 -16t-15.5 -6q-24 0 -24 22zM168 796q0 9 7 15t17 6q9 0 16 -6t7 -15q0 -10 -7 -16t-16 -6q-24 0 -24 22zM116 0v700h380v-28h-350v-302h320v-28h-320v-314h360v-28h-390z"/>
<glyph glyph-name="Igrave" horiz-adv-x="316" unicode="Ì" d="M173 740l-166 89l11 23l165 -94zM143 0v700h30v-700h-30z"/>
<glyph glyph-name="Iacute" horiz-adv-x="316" unicode="Í" d="M309 829l-167 -89l-9 18l165 94zM143 0v700h30v-700h-30z"/>
<glyph glyph-name="Icircumflex" horiz-adv-x="316" unicode="Î" d="M-10 757l166 94h4l167 -93l-15 -18l-154 85l-155 -85zM143 0v700h30v-700h-30z"/>
<glyph glyph-name="Idieresis" horiz-adv-x="316" unicode="Ï" d="M252 796q0 9 7 15t17 6q9 0 15.5 -6t6.5 -15q0 -10 -6.5 -16t-15.5 -6q-24 0 -24 22zM18 796q0 9 7 15t17 6q9 0 16 -6t7 -15q0 -10 -7 -16t-16 -6q-24 0 -24 22zM143 0v700h30v-700h-30z"/>
<glyph glyph-name="Eth" horiz-adv-x="761" unicode="Ð" d="M309 675q-32 0 -73.5 -1.5t-63.5 -1.5v-300h206v-27h-206v-317h38t36 -0.5t29.5 -1t21 -0.5h8.5q177 0 272.5 94.5t95.5 240.5q0 138 -90.5 226t-273.5 88zM10 345v27h132v328h11q25 0 74.5 1.5t83.5 1.5q102 0 179 -27.5t123 -76t68.5 -108.5t22.5 -130 q0 -158 -104.5 -260.5t-296.5 -102.5q-27 0 -77 1t-77 1h-7v345h-132z"/>
<glyph glyph-name="Ntilde" horiz-adv-x="799" unicode="Ñ" d="M252 772l-11 18q39 35 81 35q31 0 83 -24t78 -24q41 0 73 35l11 -19q-38 -41 -85 -41q-28 0 -81.5 23.5t-82.5 23.5q-33 0 -66 -27zM683 0h-24l-515 646v-646h-28v700h24l514 -648v648h29v-700z"/>
<glyph glyph-name="Ograve" horiz-adv-x="807" unicode="Ò" d="M475 740l-166 89l11 23l165 -94zM88 350q0 -141 90.5 -235.5t224.5 -94.5q135 0 225 94.5t90 235.5t-90.5 235.5t-224.5 94.5t-224.5 -94.5t-90.5 -235.5zM57 350q0 152 99 255.5t247 103.5q147 0 246.5 -102.5t99.5 -256.5q0 -153 -99.5 -256t-246.5 -103t-246.5 102.5 t-99.5 256.5z"/>
<glyph glyph-name="Oacute" horiz-adv-x="807" unicode="Ó" d="M523 829l-167 -89l-9 18l165 94zM88 350q0 -141 90.5 -235.5t224.5 -94.5q135 0 225 94.5t90 235.5t-90.5 235.5t-224.5 94.5t-224.5 -94.5t-90.5 -235.5zM57 350q0 152 99 255.5t247 103.5q147 0 246.5 -102.5t99.5 -256.5q0 -153 -99.5 -256t-246.5 -103t-246.5 102.5 t-99.5 256.5z"/>
<glyph glyph-name="Ocircumflex" horiz-adv-x="807" unicode="Ô" d="M239 757l166 94h4l167 -93l-15 -18l-154 85l-155 -85zM88 350q0 -141 90.5 -235.5t224.5 -94.5q135 0 225 94.5t90 235.5t-90.5 235.5t-224.5 94.5t-224.5 -94.5t-90.5 -235.5zM57 350q0 152 99 255.5t247 103.5q147 0 246.5 -102.5t99.5 -256.5q0 -153 -99.5 -256 t-246.5 -103t-246.5 102.5t-99.5 256.5z"/>
<glyph glyph-name="Otilde" horiz-adv-x="807" unicode="Õ" d="M254 772l-11 18q39 35 81 35q31 0 83 -24t78 -24q41 0 73 35l11 -19q-38 -41 -85 -41q-28 0 -81.5 23.5t-82.5 23.5q-33 0 -66 -27zM88 350q0 -141 90.5 -235.5t224.5 -94.5q135 0 225 94.5t90 235.5t-90.5 235.5t-224.5 94.5t-224.5 -94.5t-90.5 -235.5zM57 350 q0 152 99 255.5t247 103.5q147 0 246.5 -102.5t99.5 -256.5q0 -153 -99.5 -256t-246.5 -103t-246.5 102.5t-99.5 256.5z"/>
<glyph glyph-name="Odieresis" horiz-adv-x="807" unicode="Ö" d="M499 796q0 9 7 15t17 6q9 0 15.5 -6t6.5 -15q0 -10 -6.5 -16t-15.5 -6q-24 0 -24 22zM265 796q0 9 7 15t17 6q9 0 16 -6t7 -15q0 -10 -7 -16t-16 -6q-24 0 -24 22zM88 350q0 -141 90.5 -235.5t224.5 -94.5q135 0 225 94.5t90 235.5t-90.5 235.5t-224.5 94.5t-224.5 -94.5 t-90.5 -235.5zM57 350q0 152 99 255.5t247 103.5q147 0 246.5 -102.5t99.5 -256.5q0 -153 -99.5 -256t-246.5 -103t-246.5 102.5t-99.5 256.5z"/>
<glyph glyph-name="multiply" d="M130 506l18 18l145 -146l145 146l18 -18l-145 -146l147 -146l-18 -18l-147 146l-147 -146l-18 18l147 146z" unicode="×"/>
<glyph glyph-name="Oslash" horiz-adv-x="807" unicode="Ø" d="M88 350q0 -124 72 -215l465 453q-90 92 -222 92q-134 0 -224.5 -94.5t-90.5 -235.5zM718 350q0 128 -76 220l-464 -454q90 -96 225 -96t225 94.5t90 235.5zM57 350q0 152 99 255.5t247 103.5q144 0 244 -100l51 50l18 -17l-52 -51q85 -101 85 -241q0 -153 -99.5 -256 t-246.5 -103t-247 103l-50 -48l-18 19l50 49q-81 98 -81 236z"/>
<glyph glyph-name="Ugrave" horiz-adv-x="751" unicode="Ù" d="M434 740l-166 89l11 23l165 -94zM645 700v-406q0 -151 -73.5 -226t-186.5 -75q-124 0 -201.5 80t-77.5 228v399h30v-395q0 -135 69 -209.5t180 -74.5q103 0 166.5 70t63.5 210v399h30z"/>
<glyph glyph-name="Uacute" horiz-adv-x="751" unicode="Ú" d="M492 829l-167 -89l-9 18l165 94zM645 700v-406q0 -151 -73.5 -226t-186.5 -75q-124 0 -201.5 80t-77.5 228v399h30v-395q0 -135 69 -209.5t180 -74.5q103 0 166.5 70t63.5 210v399h30z"/>
<glyph glyph-name="Ucircumflex" horiz-adv-x="751" unicode="Û" d="M207 757l166 94h4l167 -93l-15 -18l-154 85l-155 -85zM645 700v-406q0 -151 -73.5 -226t-186.5 -75q-124 0 -201.5 80t-77.5 228v399h30v-395q0 -135 69 -209.5t180 -74.5q103 0 166.5 70t63.5 210v399h30z"/>
<glyph glyph-name="Udieresis" horiz-adv-x="751" unicode="Ü" d="M467 796q0 9 7 15t17 6q9 0 15.5 -6t6.5 -15q0 -10 -6.5 -16t-15.5 -6q-24 0 -24 22zM233 796q0 9 7 15t17 6q9 0 16 -6t7 -15q0 -10 -7 -16t-16 -6q-24 0 -24 22zM645 700v-406q0 -151 -73.5 -226t-186.5 -75q-124 0 -201.5 80t-77.5 228v399h30v-395q0 -135 69 -209.5 t180 -74.5q103 0 166.5 70t63.5 210v399h30z"/>
<glyph glyph-name="Yacute" horiz-adv-x="567" unicode="Ý" d="M407 829l-167 -89l-9 18l165 94zM550 700l-253 -389v-311h-29v311l-251 389h35l231 -361l233 361h34z"/>
<glyph glyph-name="Thorn" horiz-adv-x="575" unicode="Þ" d="M277 565q-71 0 -131 -2v-351q72 -5 123 -5q107 0 162.5 50.5t55.5 130.5t-51 128.5t-159 48.5zM146 0h-30v700h30v-109q20 0 69 1t61 1q69 0 118 -17.5t74.5 -48t37 -65t11.5 -75.5q0 -88 -61 -148.5t-185 -60.5q-53 0 -125 5v-183z"/>
<glyph glyph-name="germandbls" horiz-adv-x="539" unicode="ß" d="M454 144q0 38 -22 67.5t-53 49t-62 38.5t-53 46t-22 61q0 29 17.5 54.5t38.5 41.5t38.5 40.5t17.5 52.5q0 38 -30.5 62.5t-72.5 24.5q-66 0 -97.5 -41.5t-31.5 -130.5v-513h-29v522q0 190 161 190q55 0 92.5 -31t37.5 -79q0 -27 -11.5 -49.5t-28 -38t-33.5 -30 t-28.5 -32.5t-11.5 -38q0 -33 22 -58t53.5 -43t62.5 -37.5t53 -52t22 -75.5q0 -67 -42.5 -110.5t-104.5 -43.5q-48 0 -84 22.5t-54 52.5l13 20q48 -68 120 -68q49 0 85.5 35.5t36.5 90.5z"/>
<glyph glyph-name="agrave" horiz-adv-x="457" unicode="à" d="M257 552l-112 141l21 17l109 -146zM193 22q42 0 76 14.5t50 30.5t35 40v90q-56 40 -134 40q-58 0 -100.5 -28t-42.5 -83q0 -48 33 -76t83 -28zM91 394l-9 24q65 41 138 41q87 0 124.5 -45t37.5 -133v-281h-28v78q-61 -83 -167 -83q-63 0 -101.5 35.5t-38.5 93.5 q0 65 47.5 101t123.5 36q84 0 136 -37q0 37 -1 59t-5 49.5t-13 43t-24 30t-38.5 20.5t-55.5 6q-61 0 -126 -38z"/>
<glyph glyph-name="aacute" horiz-adv-x="457" unicode="á" d="M314 693l-112 -141l-18 12l109 146zM193 22q42 0 76 14.5t50 30.5t35 40v90q-56 40 -134 40q-58 0 -100.5 -28t-42.5 -83q0 -48 33 -76t83 -28zM91 394l-9 24q65 41 138 41q87 0 124.5 -45t37.5 -133v-281h-28v78q-61 -83 -167 -83q-63 0 -101.5 35.5t-38.5 93.5 q0 65 47.5 101t123.5 36q84 0 136 -37q0 37 -1 59t-5 49.5t-13 43t-24 30t-38.5 20.5t-55.5 6q-61 0 -126 -38z"/>
<glyph glyph-name="acircumflex" horiz-adv-x="457" unicode="â" d="M231 708l120 -131l-15 -18l-107 114l-108 -113l-16 17l122 131h4zM193 22q42 0 76 14.5t50 30.5t35 40v90q-56 40 -134 40q-58 0 -100.5 -28t-42.5 -83q0 -48 33 -76t83 -28zM91 394l-9 24q65 41 138 41q87 0 124.5 -45t37.5 -133v-281h-28v78q-61 -83 -167 -83 q-63 0 -101.5 35.5t-38.5 93.5q0 65 47.5 101t123.5 36q84 0 136 -37q0 37 -1 59t-5 49.5t-13 43t-24 30t-38.5 20.5t-55.5 6q-61 0 -126 -38z"/>
<glyph glyph-name="atilde" horiz-adv-x="457" unicode="ã" d="M96 586l-13 15q51 46 93 46q24 0 56.5 -24t52.5 -24q31 0 76 41l12 -16q-50 -49 -91 -49q-22 0 -54.5 23.5t-55.5 23.5q-32 0 -76 -36zM193 22q42 0 76 14.5t50 30.5t35 40v90q-56 40 -134 40q-58 0 -100.5 -28t-42.5 -83q0 -48 33 -76t83 -28zM91 394l-9 24 q65 41 138 41q87 0 124.5 -45t37.5 -133v-281h-28v78q-61 -83 -167 -83q-63 0 -101.5 35.5t-38.5 93.5q0 65 47.5 101t123.5 36q84 0 136 -37q0 37 -1 59t-5 49.5t-13 43t-24 30t-38.5 20.5t-55.5 6q-61 0 -126 -38z"/>
<glyph glyph-name="adieresis" horiz-adv-x="457" unicode="ä" d="M306 626q0 8 6.5 14.5t15.5 6.5q8 0 14.5 -6.5t6.5 -14.5q0 -10 -6 -16.5t-15 -6.5t-15.5 6.5t-6.5 16.5zM95 626q0 8 6.5 14.5t15.5 6.5q8 0 14 -6.5t6 -14.5q0 -10 -6 -16.5t-14 -6.5q-9 0 -15.5 6.5t-6.5 16.5zM193 22q42 0 76 14.5t50 30.5t35 40v90q-56 40 -134 40 q-58 0 -100.5 -28t-42.5 -83q0 -48 33 -76t83 -28zM91 394l-9 24q65 41 138 41q87 0 124.5 -45t37.5 -133v-281h-28v78q-61 -83 -167 -83q-63 0 -101.5 35.5t-38.5 93.5q0 65 47.5 101t123.5 36q84 0 136 -37q0 37 -1 59t-5 49.5t-13 43t-24 30t-38.5 20.5t-55.5 6 q-61 0 -126 -38z"/>
<glyph glyph-name="aring" horiz-adv-x="457" unicode="å" d="M145 615q0 -33 22 -55.5t55 -22.5q32 0 55 22.5t23 55.5q0 32 -23 55t-55 23q-33 0 -55 -22.5t-22 -55.5zM124 614q0 41 28.5 69.5t69.5 28.5t70 -28.5t29 -69.5q0 -40 -29 -68t-70 -28t-69.5 28t-28.5 68zM193 22q42 0 76 14.5t50 30.5t35 40v90q-56 40 -134 40 q-58 0 -100.5 -28t-42.5 -83q0 -48 33 -76t83 -28zM91 394l-9 24q65 41 138 41q87 0 124.5 -45t37.5 -133v-281h-28v78q-61 -83 -167 -83q-63 0 -101.5 35.5t-38.5 93.5q0 65 47.5 101t123.5 36q84 0 136 -37q0 37 -1 59t-5 49.5t-13 43t-24 30t-38.5 20.5t-55.5 6 q-61 0 -126 -38z"/>
<glyph glyph-name="ae" horiz-adv-x="801" unicode="æ" d="M193 22q42 0 76 14.5t50 30.5t35 40v118q-82 12 -134 12q-58 0 -100.5 -28t-42.5 -83q0 -48 33 -76t83 -28zM382 281v-31h339q0 84 -48 133t-129 49q-116 0 -167 -94q5 -30 5 -57zM220 459q117 0 148 -86q61 86 180 86q88 0 145 -56t57 -146q0 -13 -2 -31h-366v-113 q54 -95 181 -95q95 0 152 62l10 -21q-28 -33 -72.5 -50.5t-91.5 -17.5q-127 0 -193 90q-73 -86 -177 -86q-66 0 -105 35t-39 94q0 65 47.5 101t123.5 36q74 0 136 -11q0 4 0.5 13t0.5 14q0 79 -31.5 117t-106.5 38q-61 0 -126 -38l-9 24q65 41 138 41z"/>
<glyph glyph-name="ccedilla" horiz-adv-x="491" unicode="ç" d="M189 -178l10 17q38 -20 73 -20q36 0 58.5 15t22.5 39q0 54 -82 54h-6v65q-96 7 -154.5 70t-58.5 163q0 98 63.5 166t156.5 68q113 0 172 -55l-14 -23q-58 51 -153 51q-81 0 -138.5 -59.5t-57.5 -147.5q0 -94 58.5 -150.5t149.5 -56.5q45 0 85 18t65 47l14 -19 q-28 -35 -72.5 -54t-93.5 -19h-3v-47q97 -1 97 -72q0 -33 -28.5 -53t-77.5 -20q-38 0 -86 23z"/>
<glyph glyph-name="egrave" horiz-adv-x="527" unicode="è" d="M286 552l-112 141l21 17l109 -146zM271 432q-84 0 -134 -50.5t-56 -131.5h366q1 84 -47 133t-129 49zM441 80l11 -21q-28 -33 -72.5 -50.5t-91.5 -17.5q-104 0 -170 64t-66 170q0 103 58 168.5t165 65.5q88 0 144.5 -55.5t56.5 -146.5q0 -13 -2 -31h-391q1 -96 57 -152 t149 -56q95 0 152 62z"/>
<glyph glyph-name="eacute" horiz-adv-x="527" unicode="é" d="M377 693l-112 -141l-18 12l109 146zM271 432q-84 0 -134 -50.5t-56 -131.5h366q1 84 -47 133t-129 49zM441 80l11 -21q-28 -33 -72.5 -50.5t-91.5 -17.5q-104 0 -170 64t-66 170q0 103 58 168.5t165 65.5q88 0 144.5 -55.5t56.5 -146.5q0 -13 -2 -31h-391q1 -96 57 -152 t149 -56q95 0 152 62z"/>
<glyph glyph-name="ecircumflex" horiz-adv-x="527" unicode="ê" d="M276 708l120 -131l-15 -18l-107 114l-108 -113l-16 17l122 131h4zM271 432q-84 0 -134 -50.5t-56 -131.5h366q1 84 -47 133t-129 49zM441 80l11 -21q-28 -33 -72.5 -50.5t-91.5 -17.5q-104 0 -170 64t-66 170q0 103 58 168.5t165 65.5q88 0 144.5 -55.5t56.5 -146.5 q0 -13 -2 -31h-391q1 -96 57 -152t149 -56q95 0 152 62z"/>
<glyph glyph-name="edieresis" horiz-adv-x="527" unicode="ë" d="M349 626q0 8 6.5 14.5t15.5 6.5q8 0 14.5 -6.5t6.5 -14.5q0 -10 -6 -16.5t-15 -6.5t-15.5 6.5t-6.5 16.5zM138 626q0 8 6.5 14.5t15.5 6.5q8 0 14 -6.5t6 -14.5q0 -10 -6 -16.5t-14 -6.5q-9 0 -15.5 6.5t-6.5 16.5zM271 432q-84 0 -134 -50.5t-56 -131.5h366 q1 84 -47 133t-129 49zM441 80l11 -21q-28 -33 -72.5 -50.5t-91.5 -17.5q-104 0 -170 64t-66 170q0 103 58 168.5t165 65.5q88 0 144.5 -55.5t56.5 -146.5q0 -13 -2 -31h-391q1 -96 57 -152t149 -56q95 0 152 62z"/>
<glyph glyph-name="igrave" horiz-adv-x="255" unicode="ì" d="M134 552l-112 141l21 17l109 -146zM113 0v450h28v-450h-28z"/>
<glyph glyph-name="iacute" horiz-adv-x="255" unicode="í" d="M230 693l-112 -141l-18 12l109 146zM113 0v450h28v-450h-28z"/>
<glyph glyph-name="icircumflex" horiz-adv-x="255" unicode="î" d="M131 708l120 -131l-15 -18l-107 114l-108 -113l-16 17l122 131h4zM113 0v450h28v-450h-28z"/>
<glyph glyph-name="idieresis" horiz-adv-x="255" unicode="ï" d="M212 626q0 8 6.5 14.5t15.5 6.5q8 0 14.5 -6.5t6.5 -14.5q0 -10 -6 -16.5t-15 -6.5t-15.5 6.5t-6.5 16.5zM1 626q0 8 6.5 14.5t15.5 6.5q8 0 14 -6.5t6 -14.5q0 -10 -6 -16.5t-14 -6.5q-9 0 -15.5 6.5t-6.5 16.5zM113 0v450h28v-450h-28z"/>
<glyph glyph-name="eth" horiz-adv-x="569" unicode="ð" d="M81 225q0 -91 57 -149t146 -58q90 0 146.5 64t56.5 172v5q-9 67 -64.5 120t-138.5 53q-89 0 -146 -58t-57 -149zM208 542l-10 24l113 60q-52 45 -121 73l31 10q60 -26 114 -70l104 55l10 -24l-93 -50q76 -70 118.5 -166t42.5 -198q0 -121 -64.5 -193t-168.5 -72 q-102 0 -167 66t-65 168t65 168t167 66q65 0 116.5 -34t78.5 -94q-24 162 -147 277z"/>
<glyph glyph-name="ntilde" horiz-adv-x="553" unicode="ñ" d="M143 586l-13 15q51 46 93 46q24 0 56.5 -24t52.5 -24q31 0 76 41l12 -16q-50 -49 -91 -49q-22 0 -54.5 23.5t-55.5 23.5q-32 0 -76 -36zM85 0v450h29v-68q28 32 76.5 54t96.5 22q96 0 143 -49.5t47 -154.5v-254h-28v248q0 93 -41 138t-126 45q-50 0 -97 -23t-71 -54v-354 h-29z"/>
<glyph glyph-name="ograve" horiz-adv-x="569" unicode="ò" d="M302 552l-112 141l21 17l109 -146zM81 225q0 -91 57 -149t146 -58t146 58t57 149t-57 149t-146 58t-146 -58t-57 -149zM52 225q0 102 65 168t167 66t167.5 -66t65.5 -168t-65.5 -168t-167.5 -66t-167 66t-65 168z"/>
<glyph glyph-name="oacute" horiz-adv-x="569" unicode="ó" d="M379 693l-112 -141l-18 12l109 146zM81 225q0 -91 57 -149t146 -58t146 58t57 149t-57 149t-146 58t-146 -58t-57 -149zM52 225q0 102 65 168t167 66t167.5 -66t65.5 -168t-65.5 -168t-167.5 -66t-167 66t-65 168z"/>
<glyph glyph-name="ocircumflex" horiz-adv-x="569" unicode="ô" d="M286 708l120 -131l-15 -18l-107 114l-108 -113l-16 17l122 131h4zM81 225q0 -91 57 -149t146 -58t146 58t57 149t-57 149t-146 58t-146 -58t-57 -149zM52 225q0 102 65 168t167 66t167.5 -66t65.5 -168t-65.5 -168t-167.5 -66t-167 66t-65 168z"/>
<glyph glyph-name="otilde" horiz-adv-x="569" unicode="õ" d="M151 586l-13 15q51 46 93 46q24 0 56.5 -24t52.5 -24q31 0 76 41l12 -16q-50 -49 -91 -49q-22 0 -54.5 23.5t-55.5 23.5q-32 0 -76 -36zM81 225q0 -91 57 -149t146 -58t146 58t57 149t-57 149t-146 58t-146 -58t-57 -149zM52 225q0 102 65 168t167 66t167.5 -66 t65.5 -168t-65.5 -168t-167.5 -66t-167 66t-65 168z"/>
<glyph glyph-name="odieresis" horiz-adv-x="569" unicode="ö" d="M370 626q0 8 6.5 14.5t15.5 6.5q8 0 14.5 -6.5t6.5 -14.5q0 -10 -6 -16.5t-15 -6.5t-15.5 6.5t-6.5 16.5zM159 626q0 8 6.5 14.5t15.5 6.5q8 0 14 -6.5t6 -14.5q0 -10 -6 -16.5t-14 -6.5q-9 0 -15.5 6.5t-6.5 16.5zM81 225q0 -91 57 -149t146 -58t146 58t57 149t-57 149 t-146 58t-146 -58t-57 -149zM52 225q0 102 65 168t167 66t167.5 -66t65.5 -168t-65.5 -168t-167.5 -66t-167 66t-65 168z"/>
<glyph glyph-name="divide" d="M73 347v26h440v-26h-440zM271 146q0 8 6.5 14.5t16.5 6.5q9 0 15 -6.5t6 -14.5q0 -9 -6 -16t-15 -7q-10 0 -16.5 7t-6.5 16zM271 575q0 9 6.5 15t16.5 6q9 0 15 -6.5t6 -14.5q0 -9 -6 -16t-15 -7q-10 0 -16.5 7t-6.5 16z" unicode="÷"/>
<glyph glyph-name="oslash" horiz-adv-x="569" unicode="ø" d="M487 225q0 76 -43 132l-293 -294q54 -45 133 -45q89 0 146 58t57 149zM81 225q0 -87 52 -144l295 295q-58 56 -144 56q-89 0 -146 -58t-57 -149zM52 225q0 102 65 168t167 66q98 0 164 -63l55 55l16 -18l-55 -55q53 -64 53 -153q0 -102 -65.5 -168t-167.5 -66 q-91 0 -152 53l-57 -57l-17 19l55 55q-61 64 -61 164z"/>
<glyph glyph-name="ugrave" horiz-adv-x="547" unicode="ù" d="M291 552l-112 141l21 17l109 -146zM462 450v-450h-28v78q-29 -36 -79 -61.5t-102 -25.5q-178 0 -178 203v256h29v-249q0 -93 38 -138t120 -45q51 0 99 27.5t73 61.5v343h28z"/>
<glyph glyph-name="uacute" horiz-adv-x="547" unicode="ú" d="M369 693l-112 -141l-18 12l109 146zM462 450v-450h-28v78q-29 -36 -79 -61.5t-102 -25.5q-178 0 -178 203v256h29v-249q0 -93 38 -138t120 -45q51 0 99 27.5t73 61.5v343h28z"/>
<glyph glyph-name="ucircumflex" horiz-adv-x="547" unicode="û" d="M271 708l120 -131l-15 -18l-107 114l-108 -113l-16 17l122 131h4zM462 450v-450h-28v78q-29 -36 -79 -61.5t-102 -25.5q-178 0 -178 203v256h29v-249q0 -93 38 -138t120 -45q51 0 99 27.5t73 61.5v343h28z"/>
<glyph glyph-name="udieresis" horiz-adv-x="547" unicode="ü" d="M358 626q0 8 6.5 14.5t15.5 6.5q8 0 14.5 -6.5t6.5 -14.5q0 -10 -6 -16.5t-15 -6.5t-15.5 6.5t-6.5 16.5zM147 626q0 8 6.5 14.5t15.5 6.5q8 0 14 -6.5t6 -14.5q0 -10 -6 -16.5t-14 -6.5q-9 0 -15.5 6.5t-6.5 16.5zM462 450v-450h-28v78q-29 -36 -79 -61.5t-102 -25.5 q-178 0 -178 203v256h29v-249q0 -93 38 -138t120 -45q51 0 99 27.5t73 61.5v343h28z"/>
<glyph glyph-name="yacute" horiz-adv-x="472" unicode="ý" d="M330 693l-112 -141l-18 12l109 146zM455 450l-184 -450q-48 -117 -84.5 -158.5t-82.5 -41.5q-32 0 -70 19l10 22q33 -15 56 -15q39 0 70 35t64 115l10 24l-227 450h33l173 -345q19 -36 35 -73q9 25 29 75l136 343h32z"/>
<glyph glyph-name="thorn" horiz-adv-x="552" unicode="þ" d="M281 432q-51 0 -97.5 -22.5t-69.5 -53.5v-290q67 -48 157 -48q89 0 144.5 59t55.5 152q0 92 -50.5 147.5t-139.5 55.5zM85 -200v900h29v-314q28 32 75.5 52.5t97.5 20.5q99 0 156.5 -63t57.5 -164q0 -104 -63.5 -172.5t-165.5 -68.5q-98 0 -158 45v-236h-29z"/>
<glyph glyph-name="OE" horiz-adv-x="1048" unicode="Œ" d="M406 20q109 0 183 57v547q-73 56 -193 56q-137 0 -222.5 -94t-85.5 -236q0 -148 88.5 -239t229.5 -91zM589 0v43q-76 -52 -185 -52q-155 0 -251 98.5t-96 260.5q0 154 94 256.5t244 102.5q119 0 194 -52v43h380v-28h-350v-302h320v-28h-320v-314h360v-28h-390z"/>
<glyph glyph-name="oe" horiz-adv-x="847" unicode="œ" d="M591 432q-84 0 -134 -50.5t-56 -131.5h367q0 84 -48 133t-129 49zM285 18q83 0 139 51q-52 63 -52 156q0 96 50 158q-55 49 -137 49q-89 0 -146 -58t-57 -149t57 -149t146 -58zM761 80l11 -21q-28 -33 -72.5 -50.5t-91.5 -17.5q-98 0 -164 58q-63 -58 -159 -58 q-102 0 -167.5 66t-65.5 168t65.5 168t167.5 66q92 0 154 -56q59 56 156 56q88 0 144.5 -55.5t56.5 -146.5q0 -13 -2 -31h-391q1 -96 57 -152t149 -56q95 0 152 62z"/>
<glyph glyph-name="Scaron" horiz-adv-x="543" unicode="Š" d="M276 742l-167 93l13 17l156 -85l154 85l14 -17l-166 -93h-4zM455 170q0 44 -21 77t-54.5 52t-73.5 34.5t-80.5 31.5t-74 36.5t-54.5 55.5t-21 83q0 74 53.5 121.5t146.5 47.5q56 0 105.5 -19.5t78.5 -51.5l-17 -21q-62 63 -168 63q-77 0 -122.5 -38.5t-45.5 -101.5 q0 -50 28 -85t70 -52t91.5 -36.5t91.5 -38.5t70 -59.5t28 -97.5q0 -81 -62.5 -130.5t-156.5 -49.5q-62 0 -123 27.5t-87 71.5l19 20q30 -41 83.5 -65.5t105.5 -24.5q78 0 134 39.5t56 110.5z"/>
<glyph glyph-name="scaron" horiz-adv-x="409" unicode="š" d="M203 560l-122 131l16 18l108 -119l107 118l16 -17l-121 -131h-4zM323 114q0 31 -19 51.5t-47 30.5t-61 22t-61 24t-47 38.5t-19 65.5q0 50 37.5 81.5t99.5 31.5q39 0 74.5 -13.5t54.5 -34.5l-14 -21q-41 43 -116 43q-48 0 -77.5 -25t-29.5 -61q0 -33 19 -55t47 -32.5 t61 -22t61 -23t47 -37t19 -61.5q0 -61 -43 -93t-108 -32q-42 0 -85.5 19t-59.5 43l18 18q17 -24 55 -39t73 -15q50 0 85.5 25t35.5 72z"/>
<glyph glyph-name="Ydieresis" horiz-adv-x="567" unicode="Ÿ" d="M378 796q0 9 7 15t17 6q9 0 15.5 -6t6.5 -15q0 -10 -6.5 -16t-15.5 -6q-24 0 -24 22zM144 796q0 9 7 15t17 6q9 0 16 -6t7 -15q0 -10 -7 -16t-16 -6q-24 0 -24 22zM550 700l-253 -389v-311h-29v311l-251 389h35l231 -361l233 361h34z"/>
<glyph glyph-name="circumflex" horiz-adv-x="366" unicode="ˆ" d="M186 708l120 -131l-15 -18l-107 114l-108 -113l-16 17l122 131h4z"/>
<glyph glyph-name="tilde" horiz-adv-x="410" unicode="˜" d="M73 586l-13 15q51 46 93 46q24 0 56.5 -24t52.5 -24q31 0 76 41l12 -16q-50 -49 -91 -49q-22 0 -54.5 23.5t-55.5 23.5q-32 0 -76 -36z"/>
<glyph glyph-name="pi" horiz-adv-x="647" unicode="π" d="M54 423v27h538v-27h-109v-307q0 -51 11 -72t42 -21q35 0 64 23l9 -23q-37 -27 -81 -27q-38 0 -55.5 24t-17.5 76v327h-264v-84q0 -101 -10.5 -169.5t-31.5 -105t-47 -51.5t-63 -15l-2 28q62 0 93.5 67t32.5 236v94h-109z"/>
<glyph glyph-name="afii10023" horiz-adv-x="575" unicode="Ё" d="M402 796q0 9 7 15t17 6q9 0 15.5 -6t6.5 -15q0 -10 -6.5 -16t-15.5 -6q-24 0 -24 22zM168 796q0 9 7 15t17 6q9 0 16 -6t7 -15q0 -10 -7 -16t-16 -6q-24 0 -24 22zM116 0v700h380v-28h-350v-302h320v-28h-320v-314h360v-28h-390z"/>
<glyph glyph-name="afii10051" horiz-adv-x="758" unicode="Ђ" d="M701 205q0 -111 -44.5 -162.5t-120.5 -51.5q-25 0 -50.5 10t-35.5 19l12 23q31 -23 72 -23q64 0 100.5 45t36.5 139q0 191 -182 191q-26 0 -48 -3.5t-44 -13t-31 -14t-32 -18.5t-24 -15v-331h-29v672h-271v28h571v-28h-271v-313q28 19 47.5 30t58 22.5t79.5 11.5 q206 0 206 -218z"/>
<glyph glyph-name="afii10052" horiz-adv-x="501" unicode="Ѓ" d="M443 829l-167 -89l-9 18l165 94zM116 0v700h383v-28h-353v-672h-30z"/>
<glyph glyph-name="afii10053" horiz-adv-x="682" unicode="Є" d="M479 371v-28h-392q2 -146 93 -234.5t236 -88.5q111 0 206 68l14 -24q-100 -73 -223 -73q-159 0 -257.5 99t-98.5 260q0 157 96 258t254 101q137 0 214 -68l-15 -21q-77 60 -195 60q-141 0 -229 -86t-95 -223h392z"/>
<glyph glyph-name="afii10054" horiz-adv-x="543" unicode="Ѕ" d="M455 170q0 44 -21 77t-54.5 52t-73.5 34.5t-80.5 31.5t-74 36.5t-54.5 55.5t-21 83q0 74 53.5 121.5t146.5 47.5q56 0 105.5 -19.5t78.5 -51.5l-17 -21q-62 63 -168 63q-77 0 -122.5 -38.5t-45.5 -101.5q0 -50 28 -85t70 -52t91.5 -36.5t91.5 -38.5t70 -59.5t28 -97.5 q0 -81 -62.5 -130.5t-156.5 -49.5q-62 0 -123 27.5t-87 71.5l19 20q30 -41 83.5 -65.5t105.5 -24.5q78 0 134 39.5t56 110.5z"/>
<glyph glyph-name="afii10055" horiz-adv-x="316" unicode="І" d="M143 0v700h30v-700h-30z"/>
<glyph glyph-name="afii10056" horiz-adv-x="316" unicode="Ї" d="M143 0v700h30v-700h-30zM207 796q0 9 6.5 15t15.5 6q8 0 14.5 -6t6.5 -15q0 -10 -6 -16t-15 -6t-15.5 6t-6.5 16zM67 796q0 9 7 15t16 6q8 0 14 -6t6 -15t-6 -15.5t-14 -6.5q-9 0 -16 6.5t-7 15.5z"/>
<glyph glyph-name="afii10057" horiz-adv-x="350" unicode="Ј" d="M233 700v-550q0 -77 -29 -118t-100 -41q-52 0 -87 29l12 23q31 -23 72 -23q60 0 81.5 35t21.5 98v547h29z"/>
<glyph glyph-name="afii10058" horiz-adv-x="1041" unicode="Љ" d="M722 387q-61 0 -116 -6v-353q15 0 51 -1t61 -1q114 0 174.5 48t60.5 141q0 82 -59 127t-172 45zM576 0v672h-328l-11 -132q-9 -117 -23 -207.5t-30.5 -147.5t-34 -95.5t-38 -57t-37.5 -25.5t-37 -7h-8v29h2q142 0 179 531l10 140h386v-290q59 5 116 5q130 0 195.5 -53 t65.5 -148q0 -106 -71.5 -161t-197.5 -55q-27 0 -73 1t-65 1z"/>
<glyph glyph-name="afii10059" horiz-adv-x="1082" unicode="Њ" d="M646 370v-342q16 0 52 -1t61 -1q234 0 234 183q0 81 -58 124t-172 43q-61 0 -117 -6zM116 0v700h30v-303h471v303h29v-302q72 6 117 6q131 0 196 -50.5t65 -144.5q0 -105 -71 -158t-198 -53q-22 0 -59.5 1t-53.5 1h-25v369h-471v-369h-30z"/>
<glyph glyph-name="afii10060" horiz-adv-x="758" unicode="Ћ" d="M10 672v28h571v-28h-271v-314q85 65 194 65q93 0 145 -55t52 -169v-199h-29v195q0 100 -45 150t-130 50q-39 0 -76.5 -11t-56 -21t-46.5 -28q-5 -3 -8 -5v-330h-29v672h-271z"/>
<glyph glyph-name="afii10061" horiz-adv-x="624" unicode="Ќ" d="M451 829l-167 -89l-9 18l165 94zM116 0v700h30v-700h-30zM577 700l-344 -333l356 -367h-43l-354 365l344 335h41z"/>
<glyph glyph-name="afii10062" horiz-adv-x="640" unicode="Ў" d="M163 845h28q21 -34 57.5 -55t82.5 -21q47 0 85.5 21.5t51.5 54.5h28q-12 -43 -60 -71t-105 -28q-59 0 -105 28t-63 71zM621 700l-246 -544q-37 -83 -71.5 -119.5t-79.5 -36.5q-43 0 -70 21l10 25q28 -19 59 -19q61 0 110 103l15 30l-329 540h33l310 -511l229 511h30z"/>
<glyph glyph-name="afii10145" horiz-adv-x="761" unicode="Џ" d="M116 0v700h30v-672h469v672h30v-700h-251v-159h-28v159h-250z"/>
<glyph glyph-name="afii10017" horiz-adv-x="690" unicode="А" d="M344 663l-163 -375h326zM26 0l308 707h22l308 -707h-32l-113 260h-350l-112 -260h-31z"/>
<glyph glyph-name="afii10018" horiz-adv-x="608" unicode="Б" d="M273 382q-71 0 -127 -6v-348q15 0 56 -1t66 -1q114 0 173.5 47.5t59.5 137.5q0 81 -58 126t-170 45zM116 0v700h377v-28h-347v-268q69 6 127 6q128 0 193 -52t65 -146q0 -106 -70.5 -160t-196.5 -54q-29 0 -79 1t-69 1z"/>
<glyph glyph-name="afii10019" horiz-adv-x="617" unicode="В" d="M291 674q-83 0 -145 -2v-299h156q76 0 127.5 42t51.5 111q0 148 -190 148zM296 346h-150v-318q14 0 68 -1t80 -1q103 0 159.5 42t56.5 126q0 72 -55.5 112t-158.5 40zM116 0v700q17 0 81.5 1t95.5 1q218 0 218 -172q0 -69 -43 -112t-107 -54v-2q86 -8 132.5 -52 t46.5 -118q0 -99 -67 -146.5t-179 -47.5q-30 0 -95 1t-83 1z"/>
<glyph glyph-name="afii10020" horiz-adv-x="501" unicode="Г" d="M116 0v700h383v-28h-353v-672h-30z"/>
<glyph glyph-name="afii10021" horiz-adv-x="738" unicode="Д" d="M247 542q-9 -151 -34.5 -271t-46.5 -171t-39 -72h449v644h-320zM19 -137v165h75q34 42 73.5 176t51.5 356l8 140h378v-672h95v-165h-28v137h-625v-137h-28z"/>
<glyph glyph-name="afii10022" horiz-adv-x="575" unicode="Е" d="M116 0v700h380v-28h-350v-302h320v-28h-320v-314h360v-28h-390z"/>
<glyph glyph-name="afii10024" horiz-adv-x="904" unicode="Ж" d="M355 365l-309 335h39l307 -335l-318 -365h-39zM437 0v700h30v-700h-30zM859 700l-310 -334l321 -366h-40l-318 365l307 335h40z"/>
<glyph glyph-name="afii10025" horiz-adv-x="569" unicode="З" d="M261 -9q-61 0 -123.5 28.5t-90.5 70.5l18 18q35 -40 90.5 -64t101.5 -24q94 0 149.5 48.5t55.5 129.5q0 67 -43.5 106.5t-115.5 39.5h-93v28h86q53 0 96 47t43 112q0 72 -46 110.5t-118 38.5q-110 0 -186 -81l-18 17q35 44 88.5 68.5t114.5 24.5q89 0 141.5 -47.5 t52.5 -130.5q0 -52 -29.5 -99.5t-81.5 -68.5v-3q63 -7 100.5 -54t37.5 -110q0 -94 -65 -149.5t-165 -55.5z"/>
<glyph glyph-name="afii10026" horiz-adv-x="799" unicode="И" d="M143 0h-27v700h30v-653l510 653h27v-700h-30v652z"/>
<glyph glyph-name="afii10027" horiz-adv-x="799" unicode="Й" d="M230 845h28q21 -34 57.5 -55t82.5 -21q47 0 85.5 21.5t51.5 54.5h28q-12 -43 -60 -71t-105 -28q-59 0 -105 28t-63 71zM143 0h-27v700h30v-653l510 653h27v-700h-30v652z"/>
<glyph glyph-name="afii10028" horiz-adv-x="624" unicode="К" d="M116 0v700h30v-700h-30zM577 700l-344 -333l356 -367h-43l-354 365l344 335h41z"/>
<glyph glyph-name="afii10029" horiz-adv-x="722" unicode="Л" d="M576 0v672h-328l-11 -132q-9 -117 -23 -207.5t-30.5 -147.5t-34 -95.5t-38 -57t-37.5 -25.5t-37 -7h-8v29h2q142 0 179 531l10 140h386v-700h-30z"/>
<glyph glyph-name="afii10030" horiz-adv-x="877" unicode="М" d="M116 0v700h31l297 -405l288 405h29v-700h-29v655l-287 -404h-5l-294 401v-652h-30z"/>
<glyph glyph-name="afii10031" horiz-adv-x="772" unicode="Н" d="M627 0v343h-481v-343h-30v700h30v-329h481v329h29v-700h-29z"/>
<glyph glyph-name="afii10032" horiz-adv-x="807" unicode="О" d="M88 350q0 -141 90.5 -235.5t224.5 -94.5q135 0 225 94.5t90 235.5t-90.5 235.5t-224.5 94.5t-224.5 -94.5t-90.5 -235.5zM57 350q0 152 99 255.5t247 103.5q147 0 246.5 -102.5t99.5 -256.5q0 -153 -99.5 -256t-246.5 -103t-246.5 102.5t-99.5 256.5z"/>
<glyph glyph-name="afii10033" horiz-adv-x="771" unicode="П" d="M625 0v672h-479v-672h-30v700h539v-700h-30z"/>
<glyph glyph-name="afii10034" horiz-adv-x="575" unicode="Р" d="M279 674q-67 0 -133 -2v-352q72 -5 123 -5q107 0 162.5 50.5t55.5 131.5q0 80 -50.5 128.5t-157.5 48.5zM146 0h-30v700q20 0 81 1t79 1q69 0 118 -17.5t74.5 -48.5t37 -65t11.5 -75q0 -88 -61 -148.5t-185 -60.5q-53 0 -125 5v-292z"/>
<glyph glyph-name="afii10035" horiz-adv-x="657" unicode="С" d="M606 90l13 -23q-36 -35 -94.5 -55.5t-120.5 -20.5q-155 0 -251 98.5t-96 260.5q0 154 94 256.5t244 102.5q132 0 211 -65l-15 -21q-72 57 -195 57q-137 0 -222.5 -94t-85.5 -236q0 -148 88.5 -239t229.5 -91q118 0 200 70z"/>
<glyph glyph-name="afii10036" horiz-adv-x="591" unicode="Т" d="M10 672v28h571v-28h-271v-672h-29v672h-271z"/>
<glyph glyph-name="afii10037" horiz-adv-x="640" unicode="У" d="M621 700l-246 -544q-37 -83 -71.5 -119.5t-79.5 -36.5q-43 0 -70 21l10 25q28 -19 59 -19q61 0 110 103l15 30l-329 540h33l310 -511l229 511h30z"/>
<glyph glyph-name="afii10038" horiz-adv-x="827" unicode="Ф" d="M78 360q0 -120 86 -185t226 -65h8v500h-6q-142 0 -228 -65.5t-86 -184.5zM433 610h-6v-500h10q139 0 225 65t86 185t-85.5 185t-229.5 65zM398 -8v91h-9q-154 0 -248 73.5t-94 203.5q0 131 93.5 204t252.5 73h5v71h29v-71h5q161 0 254 -73.5t93 -203.5t-94 -203.5 t-248 -73.5h-10v-91h-29z"/>
<glyph glyph-name="afii10039" horiz-adv-x="657" unicode="Х" d="M613 700l-265 -344l274 -356h-36l-258 333l-257 -333h-36l275 356l-264 344h36l247 -321l248 321h36z"/>
<glyph glyph-name="afii10040" horiz-adv-x="783" unicode="Ц" d="M116 0v700h30v-672h474v672h30v-672h95v-165h-28v137h-601z"/>
<glyph glyph-name="afii10041" horiz-adv-x="624" unicode="Ч" d="M508 700v-700h-30v334q-37 -25 -93.5 -44.5t-116.5 -19.5q-94 0 -150.5 55.5t-56.5 168.5v206h30v-202q0 -98 49 -148.5t135 -50.5q105 0 203 64v337h30z"/>
<glyph glyph-name="afii10042" horiz-adv-x="991" unicode="Ш" d="M116 0v700h29v-672h336v672h29v-672h336v672h29v-700h-759z"/>
<glyph glyph-name="afii10043" horiz-adv-x="1008" unicode="Щ" d="M116 0v700h29v-672h336v672h29v-672h336v672h29v-672h95v-165h-28v137h-826z"/>
<glyph glyph-name="afii10044" horiz-adv-x="664" unicode="Ъ" d="M343 387q-69 0 -125 -6v-353q15 0 55.5 -1t65.5 -1q115 0 175.5 48t60.5 141q0 82 -59.5 127t-172.5 45zM1 672v28h217v-290q59 5 125 5q132 0 197.5 -52.5t65.5 -148.5q0 -106 -71.5 -161t-199.5 -55q-27 0 -77.5 1t-69.5 1v672h-187z"/>
<glyph glyph-name="afii10045" horiz-adv-x="815" unicode="Ы" d="M146 700v-290q59 5 116 5q130 0 195.5 -53t65.5 -148q0 -106 -71 -161t-197 -55q-27 0 -73.5 1t-65.5 1v700h30zM262 387q-60 0 -116 -6v-353q15 0 51 -1t61 -1q114 0 174.5 48t60.5 141q0 82 -59 127t-172 45zM670 0v700h29v-700h-29z"/>
<glyph glyph-name="afii10046" horiz-adv-x="591" unicode="Ь" d="M146 700v-290q59 5 125 5q131 0 196.5 -52.5t65.5 -148.5q0 -106 -71.5 -161t-198.5 -55q-27 0 -77.5 1t-69.5 1v700h30zM271 387q-69 0 -125 -6v-353q15 0 55.5 -1t65.5 -1q115 0 175.5 48t60.5 141q0 82 -59.5 127t-172.5 45z"/>
<glyph glyph-name="afii10047" horiz-adv-x="683" unicode="Э" d="M203 343v28h392q-6 143 -93.5 226t-231.5 83q-118 0 -195 -60l-13 21q77 68 213 68q160 0 255 -96.5t95 -259.5q0 -156 -96 -259t-251 -103q-132 0 -232 73l15 24q97 -68 215 -68q140 0 227.5 91.5t91.5 231.5h-392z"/>
<glyph glyph-name="afii10048" horiz-adv-x="1074" unicode="Ю" d="M376 350q0 -142 86.5 -236t218.5 -94q134 0 219 93.5t85 236.5q0 142 -85.5 236t-218.5 94q-132 0 -218.5 -94t-86.5 -236zM116 0v700h30v-329h200q8 146 101 242t233 96q146 0 241 -102t95 -257q0 -154 -95 -256.5t-241 -102.5q-143 0 -237.5 99.5t-96.5 252.5h-200 v-343h-30z"/>
<glyph glyph-name="afii10049" horiz-adv-x="608" unicode="Я" d="M280 314h183v358q-15 0 -57 1t-66 1q-107 0 -162 -53t-55 -135q0 -64 47.5 -113.5t109.5 -58.5zM463 0v286h-177l-214 -286h-36l220 290q-67 16 -115.5 69.5t-48.5 126.5q0 96 65.5 156t187.5 60q26 0 77 -1t70 -1v-700h-29z"/>
<glyph glyph-name="afii10065" horiz-adv-x="457" unicode="а" d="M193 22q42 0 76 14.5t50 30.5t35 40v90q-56 40 -134 40q-58 0 -100.5 -28t-42.5 -83q0 -48 33 -76t83 -28zM91 394l-9 24q65 41 138 41q87 0 124.5 -45t37.5 -133v-281h-28v78q-61 -83 -167 -83q-63 0 -101.5 35.5t-38.5 93.5q0 65 47.5 101t123.5 36q84 0 136 -37 q0 37 -1 59t-5 49.5t-13 43t-24 30t-38.5 20.5t-55.5 6q-61 0 -126 -38z"/>
<glyph glyph-name="afii10066" horiz-adv-x="558" unicode="б" d="M81 262q0 -115 56 -179.5t143 -64.5q84 0 140.5 59t56.5 143q0 91 -51.5 146.5t-141.5 55.5q-83 0 -137.5 -49t-65.5 -111zM448 709l16 -18q-16 -27 -42 -40t-52.5 -15t-69 -10t-79.5 -24q-129 -53 -142 -289h2q23 62 81.5 99t126.5 37q101 0 159 -62.5t58 -165.5 q0 -95 -64.5 -162.5t-159.5 -67.5q-105 0 -168 73.5t-63 201.5q0 296 163 363q45 19 98 25.5t84.5 15.5t51.5 39z"/>
<glyph glyph-name="afii10067" horiz-adv-x="479" unicode="в" d="M224 426q-23 0 -110 -3v-182h137q56 0 89 26t33 69q0 90 -149 90zM242 217h-128v-191q14 0 50.5 -1t61.5 -1q166 0 166 100q0 93 -150 93zM85 0v450q17 0 62 1.5t76 1.5q180 0 180 -114q0 -39 -24.5 -69t-71.5 -36v-2q61 -8 88 -35.5t27 -75.5q0 -60 -49.5 -92 t-146.5 -32q-30 0 -76 1.5t-65 1.5z"/>
<glyph glyph-name="afii10068" horiz-adv-x="346" unicode="г" d="M85 0v450h260v-27h-231v-423h-29z"/>
<glyph glyph-name="afii10069" horiz-adv-x="513" unicode="д" d="M169 306q-7 -99 -30 -176t-44 -103h296v396h-215zM10 -117v144h55q24 30 47 106t30 183l7 134h270v-423h75v-144h-27v117h-430v-117h-27z"/>
<glyph glyph-name="afii10070" horiz-adv-x="527" unicode="е" d="M271 432q-84 0 -134 -50.5t-56 -131.5h366q1 84 -47 133t-129 49zM441 80l11 -21q-28 -33 -72.5 -50.5t-91.5 -17.5q-104 0 -170 64t-66 170q0 103 58 168.5t165 65.5q88 0 144.5 -55.5t56.5 -146.5q0 -13 -2 -31h-391q1 -96 57 -152t149 -56q95 0 152 62z"/>
<glyph glyph-name="afii10072" horiz-adv-x="635" unicode="ж" d="M227 234l-192 216h36l188 -216l-198 -234h-35zM302 0v450h28v-450h-28zM596 450l-191 -216l203 -234h-35l-201 234l189 216h35z"/>
<glyph glyph-name="afii10073" horiz-adv-x="455" unicode="з" d="M215 -9q-44 0 -96 17t-73 43l15 22q27 -26 70 -40.5t79 -14.5q71 0 114.5 29.5t43.5 80.5q0 42 -32 65.5t-86 23.5h-76v24h71q42 0 73 29t31 70q0 44 -35 68t-95 24q-85 0 -145 -53l-13 21q57 59 162 59q75 0 115 -30.5t40 -85.5q0 -80 -83 -110v-2q48 -4 75 -34.5 t27 -71.5q0 -62 -50.5 -98t-131.5 -36z"/>
<glyph glyph-name="afii10074" horiz-adv-x="561" unicode="и" d="M114 0h-29v450h29v-409l334 409h28v-450h-28v409z"/>
<glyph glyph-name="afii10075" horiz-adv-x="561" unicode="й" d="M157 687h25q0 -40 29 -66.5t76 -26.5q45 0 73 26.5t28 66.5h25q0 -50 -35.5 -83.5t-90.5 -33.5q-60 0 -95 32.5t-35 84.5zM114 0h-29v450h29v-409l334 409h28v-450h-28v409z"/>
<glyph glyph-name="afii10076" horiz-adv-x="472" unicode="к" d="M85 0v450h29v-450h-29zM430 450l-241 -215l258 -235h-42l-254 234l239 216h40z"/>
<glyph glyph-name="afii10077" horiz-adv-x="523" unicode="л" d="M410 0v422h-217l-7 -118q-20 -306 -147 -306l-2 28h1q11 0 22.5 4.5t28 22.5t29.5 46.5t24.5 83.5t15.5 127l8 140h272v-450h-28z"/>
<glyph glyph-name="afii10078" horiz-adv-x="618" unicode="м" d="M85 0v450h28l200 -275l194 275h26v-450h-28v408l-192 -272h-3l-196 272v-408h-29z"/>
<glyph glyph-name="afii10079" horiz-adv-x="555" unicode="н" d="M441 0v216h-327v-216h-29v450h29v-207h327v207h29v-450h-29z"/>
<glyph glyph-name="afii10080" horiz-adv-x="569" unicode="о" d="M81 225q0 -91 57 -149t146 -58t146 58t57 149t-57 149t-146 58t-146 -58t-57 -149zM52 225q0 102 65 168t167 66t167.5 -66t65.5 -168t-65.5 -168t-167.5 -66t-167 66t-65 168z"/>
<glyph glyph-name="afii10081" horiz-adv-x="550" unicode="п" d="M436 0v423h-322v-423h-29v450h380v-450h-29z"/>
<glyph glyph-name="afii10082" horiz-adv-x="552" unicode="р" d="M281 432q-51 0 -97.5 -22.5t-69.5 -53.5v-290q67 -48 157 -48q89 0 144.5 59t55.5 152q0 92 -50.5 147.5t-139.5 55.5zM85 -200v650h29v-66q27 33 75 54t98 21q99 0 156.5 -63t57.5 -164q0 -104 -63.5 -172.5t-165.5 -68.5q-98 0 -158 45v-236h-29z"/>
<glyph glyph-name="afii10083" horiz-adv-x="491" unicode="с" d="M439 83l14 -19q-28 -35 -72.5 -54t-93.5 -19q-104 0 -169.5 64t-65.5 170q0 98 63.5 166t156.5 68q113 0 172 -55l-14 -23q-58 51 -153 51q-81 0 -138.5 -59.5t-57.5 -147.5q0 -94 58.5 -150.5t149.5 -56.5q45 0 85 18t65 47z"/>
<glyph glyph-name="afii10084" horiz-adv-x="433" unicode="т" d="M11 422v28h410v-28h-191v-422h-28v422h-191z"/>
<glyph glyph-name="afii10085" horiz-adv-x="472" unicode="у" d="M455 450l-184 -450q-48 -117 -84.5 -158.5t-82.5 -41.5q-32 0 -70 19l10 22q33 -15 56 -15q39 0 70 35t64 115l10 24l-227 450h33l173 -345q19 -36 35 -73q9 25 29 75l136 343h32z"/>
<glyph glyph-name="afii10086" horiz-adv-x="656" unicode="ф" d="M363 432h-21v-414h17q100 0 158 57.5t58 149.5q0 85 -58 146t-154 61zM81 225q0 -92 58.5 -149.5t159.5 -57.5h15v414h-20q-96 0 -154.5 -59.5t-58.5 -147.5zM314 -200v191h-18q-112 0 -178 65.5t-66 168.5q0 96 66.5 165t176.5 69h19v241h28v-241h21q106 0 174 -67 t68 -167q0 -103 -65.5 -168.5t-176.5 -65.5h-21v-191h-28z"/>
<glyph glyph-name="afii10087" horiz-adv-x="485" unicode="х" d="M439 450l-177 -218l187 -232h-35l-172 212l-172 -212h-34l187 231l-177 219h35l161 -200l163 200h34z"/>
<glyph glyph-name="afii10088" horiz-adv-x="557" unicode="ц" d="M85 0v450h29v-423h321v423h28v-423h75v-144h-27v117h-426z"/>
<glyph glyph-name="afii10089" horiz-adv-x="469" unicode="ч" d="M384 450v-450h-28v203q-57 -43 -144 -43q-156 0 -156 167v123h30v-123q0 -140 134 -140q82 0 136 43v220h28z"/>
<glyph glyph-name="afii10090" horiz-adv-x="696" unicode="ш" d="M85 0v450h28v-423h221v423h28v-423h221v423h28v-450h-526z"/>
<glyph glyph-name="afii10091" horiz-adv-x="705" unicode="щ" d="M85 0v450h28v-423h221v423h28v-423h221v423h28v-423h75v-144h-27v117h-574z"/>
<glyph glyph-name="afii10092" horiz-adv-x="492" unicode="ъ" d="M264 258h-87v-231h86q83 0 118 29.5t35 86.5q0 115 -152 115zM1 423v27h176v-165h91q178 0 178 -142q0 -143 -183 -143h-114v423h-148z"/>
<glyph glyph-name="afii10093" horiz-adv-x="603" unicode="ы" d="M490 0v450h28v-450h-28zM191 258h-77v-231h76q83 0 118.5 29.5t35.5 86.5q0 115 -153 115zM85 0v450h29v-165h81q178 0 178 -142q0 -143 -183 -143h-105z"/>
<glyph glyph-name="afii10094" horiz-adv-x="428" unicode="ь" d="M200 258h-86v-231h85q83 0 118.5 29.5t35.5 86.5q0 115 -153 115zM85 0v450h29v-165h90q178 0 178 -142q0 -143 -182 -143h-115z"/>
<glyph glyph-name="afii10095" horiz-adv-x="491" unicode="э" d="M160 217v25h250q-5 88 -62 139t-144 51q-94 0 -152 -63l-13 20q28 33 73 51.5t92 18.5q104 0 169.5 -64t65.5 -170q0 -98 -63.5 -166t-156.5 -68q-115 0 -173 55l14 22q56 -50 156 -50q80 0 136 56.5t59 142.5h-251z"/>
<glyph glyph-name="afii10096" horiz-adv-x="742" unicode="ю" d="M274 225q0 -91 53.5 -148t138.5 -57t139 57t54 148q0 90 -53.5 147.5t-139.5 57.5q-85 0 -138.5 -57.5t-53.5 -147.5zM85 0v450h30v-206h128q6 95 67.5 155t155.5 60q99 0 161.5 -66t62.5 -168t-63 -168t-161 -66q-96 0 -158 63t-65 162h-128v-216h-30z"/>
<glyph glyph-name="afii10097" horiz-adv-x="473" unicode="я" d="M110 314q0 -46 35.5 -75t73.5 -29h141v213h-105q-74 0 -109.5 -30t-35.5 -79zM260 450h128v-450h-28v183h-133l-145 -183h-36l152 189q-47 6 -82 40t-35 85q0 61 42 98.5t137 37.5z"/>
<glyph glyph-name="afii10071" horiz-adv-x="527" unicode="ё" d="M351 626q0 8 6.5 14.5t15.5 6.5q8 0 14.5 -6.5t6.5 -14.5q0 -10 -6 -16.5t-15 -6.5t-15.5 6.5t-6.5 16.5zM140 626q0 8 6.5 14.5t15.5 6.5q8 0 14 -6.5t6 -14.5q0 -10 -6 -16.5t-14 -6.5q-9 0 -15.5 6.5t-6.5 16.5zM271 432q-84 0 -134 -50.5t-56 -131.5h366 q1 84 -47 133t-129 49zM441 80l11 -21q-28 -33 -72.5 -50.5t-91.5 -17.5q-104 0 -170 64t-66 170q0 103 58 168.5t165 65.5q88 0 144.5 -55.5t56.5 -146.5q0 -13 -2 -31h-391q1 -96 57 -152t149 -56q95 0 152 62z"/>
<glyph glyph-name="afii10099" horiz-adv-x="606" unicode="ђ" d="M1 501v24h149v175h28v-175h213v-24h-213v-201q28 32 76.5 53.5t97.5 21.5q95 0 142.5 -49.5t47.5 -153.5q0 -114 -46 -217.5t-138 -154.5h-34q52 31 90.5 75t59 93.5t30 97.5t9.5 98q0 94 -40.5 139t-125.5 45q-50 0 -97.5 -23.5t-71.5 -54.5v-270h-28v501h-149z"/>
<glyph glyph-name="afii10100" horiz-adv-x="346" unicode="ѓ" d="M322 693l-112 -141l-18 12l109 146zM85 0v450h260v-27h-231v-423h-29z"/>
<glyph glyph-name="afii10101" horiz-adv-x="491" unicode="є" d="M331 242v-25h-251q2 -92 60.5 -145.5t147.5 -53.5q88 0 144 50l13 -22q-58 -55 -163 -55q-101 0 -165.5 65.5t-64.5 168.5q0 106 65.5 170t169.5 64q47 0 92 -18.5t73 -51.5l-13 -20q-58 63 -152 63q-87 0 -144 -51t-63 -139h251z"/>
<glyph glyph-name="afii10102" horiz-adv-x="409" unicode="ѕ" d="M323 114q0 31 -19 51.5t-47 30.5t-61 22t-61 24t-47 38.5t-19 65.5q0 50 37.5 81.5t99.5 31.5q39 0 74.5 -13.5t54.5 -34.5l-14 -21q-41 43 -116 43q-48 0 -77.5 -25t-29.5 -61q0 -33 19 -55t47 -32.5t61 -22t61 -23t47 -37t19 -61.5q0 -61 -43 -93t-108 -32 q-42 0 -85.5 19t-59.5 43l18 18q17 -24 55 -39t73 -15q50 0 85.5 25t35.5 72z"/>
<glyph glyph-name="afii10103" horiz-adv-x="255" unicode="і" d="M105 629q0 9 7 15.5t16 6.5q8 0 14.5 -6.5t6.5 -15.5q0 -10 -6.5 -16.5t-14.5 -6.5q-9 0 -16 6.5t-7 16.5zM113 0v450h28v-450h-28z"/>
<glyph glyph-name="afii10104" horiz-adv-x="261" unicode="ї" d="M116 0v450h28v-450h-28zM171 625q0 8 6.5 14t14.5 6t14 -6t6 -14q0 -9 -6 -15t-14 -6t-14.5 6t-6.5 15zM51 625q0 8 6 14t15 6q7 0 13 -6t6 -14q0 -9 -6 -15t-13 -6q-9 0 -15 6t-6 15z"/>
<glyph glyph-name="afii10105" horiz-adv-x="255" unicode="ј" d="M106 629q0 9 7 15.5t16 6.5q8 0 14.5 -6.5t6.5 -15.5q0 -10 -6.5 -16.5t-14.5 -6.5q-9 0 -16 6.5t-7 16.5zM143 450v-483q0 -175 -141 -175q-49 0 -85 26l10 23q32 -22 71 -22q117 0 117 149v482h28z"/>
<glyph glyph-name="afii10106" horiz-adv-x="741" unicode="љ" d="M513 258h-75v-231h74q83 0 118.5 29.5t35.5 86.5q0 115 -153 115zM410 0v422h-217l-7 -118q-20 -306 -147 -306l-2 28h1q11 0 22.5 4.5t28 22.5t29.5 46.5t24.5 83.5t15.5 127l8 140h272v-165h79q178 0 178 -142q0 -143 -183 -143h-102z"/>
<glyph glyph-name="afii10107" horiz-adv-x="773" unicode="њ" d="M545 241h-75v-214h74q84 0 118.5 26t34.5 81t-35 81t-117 26zM85 0v450h29v-190h327v190h29v-182h79q98 0 138 -34.5t40 -99.5q0 -134 -183 -134h-103v233h-327v-233h-29z"/>
<glyph glyph-name="afii10108" horiz-adv-x="606" unicode="ћ" d="M1 501v24h149v175h28v-175h213v-24h-213v-201q28 32 76.5 53.5t97.5 21.5q96 0 143 -49.5t47 -154.5v-171h-29v166q0 92 -40.5 137t-125.5 45q-50 0 -97.5 -23.5t-71.5 -54.5v-270h-28v501h-149z"/>
<glyph glyph-name="afii10109" horiz-adv-x="472" unicode="ќ" d="M339 693l-112 -141l-18 12l109 146zM85 0v450h29v-450h-29zM430 450l-241 -215l258 -235h-42l-254 234l239 216h40z"/>
<glyph glyph-name="afii10110" horiz-adv-x="472" unicode="ў" d="M114 687h25q0 -40 29 -66.5t76 -26.5q45 0 73 26.5t28 66.5h25q0 -50 -35.5 -83.5t-90.5 -33.5q-60 0 -95 32.5t-35 84.5zM455 450l-184 -450q-48 -117 -84.5 -158.5t-82.5 -41.5q-32 0 -70 19l10 22q33 -15 56 -15q39 0 70 35t64 115l10 24l-227 450h33l173 -345 q19 -36 35 -73q9 25 29 75l136 343h32z"/>
<glyph glyph-name="afii10193" horiz-adv-x="540" unicode="џ" d="M85 0v450h29v-423h312v423h29v-450h-172v-136h-26v136h-172z"/>
<glyph glyph-name="afii10146" horiz-adv-x="626" unicode="Ѣ" d="M306 382q-70 0 -126 -6v-348q16 0 56.5 -1t64.5 -1q115 0 175.5 47t60.5 139q0 82 -58.5 126t-172.5 44zM180 700v-130h173v-28h-173v-138q72 6 126 6q131 0 196.5 -51.5t65.5 -146.5q0 -106 -71.5 -160t-198.5 -54q-27 0 -77.5 1t-69.5 1v542h-148v28h148v130h29z"/>
<glyph glyph-name="afii10194" horiz-adv-x="491" unicode="ѣ" d="M267 251h-90v-224h89q81 0 115.5 29t34.5 83q0 112 -149 112zM1 423v27h148v250h28v-250h168v-27h-168v-145h90q178 0 178 -140q0 -138 -182 -138h-114v423h-148z"/>
<glyph glyph-name="afii10147" horiz-adv-x="807" unicode="Ѳ" d="M88 350v-8q86 70 177 70q41 0 80.5 -14.5t66.5 -31.5t65 -31.5t77 -14.5q42 0 87 20.5t75 46.5q-13 128 -100.5 210.5t-212.5 82.5q-134 0 -224.5 -94.5t-90.5 -235.5zM263 385q-45 0 -93.5 -23.5t-79.5 -52.5q14 -126 102 -207.5t211 -81.5q135 0 225 94.5t90 235.5 q0 1 -0.5 3t-0.5 4q-82 -64 -165 -64q-62 0 -145.5 46t-143.5 46zM57 350q0 152 99 255.5t247 103.5q147 0 246.5 -102.5t99.5 -256.5q0 -153 -99.5 -256t-246.5 -103t-246.5 102.5t-99.5 256.5z"/>
<glyph glyph-name="afii10195" horiz-adv-x="569" unicode="ѳ" d="M401 201q47 0 86 34q-4 87 -60.5 142t-142.5 55q-85 0 -141.5 -53.5t-61.5 -138.5q50 37 100 37q41 0 112 -38t108 -38zM179 250q-51 0 -98 -41q5 -85 61.5 -138t141.5 -53q84 0 140 52t62 135q-40 -31 -88 -31q-40 0 -111.5 38t-107.5 38zM52 225q0 102 65 168t167 66 t167.5 -66t65.5 -168t-65.5 -168t-167.5 -66t-167 66t-65 168z"/>
<glyph glyph-name="afii10148" horiz-adv-x="655" unicode="Ѵ" d="M525 511l-184 -518h-19l-306 707h32l284 -658l174 499q32 93 60.5 128.5t64.5 35.5q18 0 44 -8l-6 -27q-17 7 -33 7q-33 0 -55.5 -36.5t-55.5 -129.5z"/>
<glyph glyph-name="afii10196" horiz-adv-x="475" unicode="ѵ" d="M381 318l-126 -325h-18l-221 457h33l154 -318q15 -29 43 -93q9 24 36 97l78 200q25 67 46.5 93.5t48.5 26.5q17 0 40 -9l-7 -26q-14 8 -25 8q-22 0 -40 -26.5t-42 -84.5z"/>
<glyph glyph-name="afii10050" horiz-adv-x="501" unicode="Ґ" d="M116 0v700h354v136h29v-164h-353v-672h-30z"/>
<glyph glyph-name="afii10098" horiz-adv-x="346" unicode="ґ" d="M85 0v450h233v116h27v-143h-231v-423h-29z"/>
<glyph glyph-name="endash" horiz-adv-x="587" unicode="–" d="M97 257v26h392v-26h-392z"/>
<glyph glyph-name="emdash" horiz-adv-x="789" unicode="—" d="M97 257v26h595v-26h-595z"/>
<glyph glyph-name="quoteleft" horiz-adv-x="237" unicode="‘" d="M137 554l-23 -16q-23 25 -23 65q0 83 65 116l12 -15q-50 -27 -50 -95q0 -36 19 -55z"/>
<glyph glyph-name="quotesinglbase" horiz-adv-x="237" unicode="‚" d="M99 37l24 17q23 -25 23 -65q0 -83 -65 -117l-12 15q50 28 50 96q0 34 -20 54z"/>
<glyph glyph-name="quotedblleft" horiz-adv-x="356" unicode="“" d="M137 554l-23 -16q-23 25 -23 65q0 83 65 116l12 -15q-50 -27 -50 -95q0 -36 19 -55zM256 554l-23 -16q-23 25 -23 65q0 83 65 116l12 -15q-50 -27 -50 -95q0 -36 19 -55z"/>
<glyph glyph-name="quotedblright" horiz-adv-x="356" unicode="”" d="M99 702l24 17q23 -25 23 -65q0 -83 -65 -117l-12 15q50 28 50 96q0 34 -20 54zM218 702l24 17q23 -25 23 -65q0 -83 -65 -117l-12 15q50 28 50 96q0 34 -20 54z"/>
<glyph glyph-name="dagger" horiz-adv-x="411" unicode="†" d="M40 432v26h152v242h27v-242h152v-26h-152v-532h-27v532h-152z"/>
<glyph glyph-name="daggerdbl" horiz-adv-x="411" unicode="‡" d="M40 432v26h152v242h27v-242h152v-26h-152v-234h152v-26h-152v-272h-27v272h-152v26h152v234h-152z"/>
<glyph glyph-name="ellipsis" horiz-adv-x="832" unicode="…" d="M92 24q0 8 7.5 15t17.5 7q9 0 16 -7t7 -15q0 -10 -7 -17.5t-16 -7.5q-10 0 -17.5 7.5t-7.5 17.5zM392 24q0 8 7.5 15t17.5 7q9 0 16 -7t7 -15q0 -10 -7 -17.5t-16 -7.5q-10 0 -17.5 7.5t-7.5 17.5zM692 24q0 8 7.5 15t17.5 7q9 0 16 -7t7 -15q0 -10 -7 -17.5t-16 -7.5 q-10 0 -17.5 7.5t-7.5 17.5z"/>
<glyph glyph-name="perthousand" horiz-adv-x="1233" unicode="‰" d="M473 156q0 -58 40.5 -95.5t94.5 -37.5q56 0 95.5 37.5t39.5 95.5t-40 95t-95 37t-95 -37t-40 -95zM446 156q0 68 46.5 112t115.5 44t115.5 -44t46.5 -112q0 -69 -46 -113t-116 -44t-116 44t-46 113zM83 546q0 -58 40.5 -95.5t94.5 -37.5q56 0 95.5 37.5t39.5 95.5t-40 95 t-95 37t-95 -37t-40 -95zM56 546q0 68 46.5 112t115.5 44t115.5 -44t46.5 -112q0 -69 -46 -113t-116 -44t-116 44t-46 113zM144 5l527 704l17 -13l-526 -705zM879 156q0 -58 40.5 -95.5t94.5 -37.5q56 0 95.5 37.5t39.5 95.5t-40 95t-95 37t-95 -37t-40 -95zM852 156 q0 68 46.5 112t115.5 44t115.5 -44t46.5 -112q0 -69 -46 -113t-116 -44t-116 44t-46 113z"/>
<glyph glyph-name="guilsinglleft" horiz-adv-x="325" unicode="‹" d="M231 43l-175 205v4l176 203l19 -17l-163 -188l161 -189z"/>
<glyph glyph-name="guilsinglright" horiz-adv-x="325" unicode="›" d="M268 248l-174 -205l-19 18l161 189l-163 188l19 17l176 -203v-4z"/>
<glyph glyph-name="fraction" horiz-adv-x="184" unicode="⁄" d="M-180 5l527 704l17 -13l-526 -705z"/>
<glyph glyph-name="Euro" d="M20 428l10 25h76q29 115 115.5 185.5t208.5 70.5q84 0 137 -29l-11 -27q-58 27 -126 27q-108 0 -186 -62.5t-106 -164.5h366l-9 -25h-363q-7 -35 -7 -78q0 -35 4 -60h332l-8 -24h-320q24 -114 106.5 -180t201.5 -66q71 0 111 23l6 -28q-15 -11 -51.5 -17.5t-66.5 -6.5 q-133 0 -224 74t-115 201h-81l10 24h67q-3 28 -3 60q0 43 7 78h-81z" unicode="€"/>
<glyph glyph-name="trademark" horiz-adv-x="820" unicode="™" d="M11 674v26h311v-26h-142v-289h-27v289h-142zM383 385v315h26l153 -186l148 186h24v-315h-27v279l-145 -184h-2l-150 184v-279h-27z"/>
<glyph glyph-name="arrowleft" horiz-adv-x="643" unicode="←" d="M323 555l20 -20l-248 -247h508v-28h-510l250 -250l-20 -20l-283 283z"/>
<glyph glyph-name="arrowup" horiz-adv-x="645" unicode="↑" d="M60 260l-20 20l282 283l283 -283l-20 -20l-250 250v-510h-28v508z"/>
<glyph glyph-name="arrowright" horiz-adv-x="643" unicode="→" d="M300 535l20 20l283 -282l-283 -283l-20 20l250 250h-510v28h508z"/>
<glyph glyph-name="arrowdown" horiz-adv-x="645" unicode="↓" d="M40 263l20 20l247 -248v508h28v-510l250 250l20 -20l-283 -283z"/>
<glyph glyph-name="partialdiff" horiz-adv-x="578" unicode="∂" d="M81 206q0 -78 51 -133t131 -55q98 0 161.5 85t71.5 192q-56 137 -201 137q-89 0 -151.5 -67t-62.5 -159zM52 204q0 104 70 179.5t172 75.5q82 0 134 -39.5t69 -89.5q0 51 -9 97.5t-30.5 91.5t-54.5 79t-84 56.5t-116 27.5l5 27q151 -10 235 -111.5t84 -267.5 q0 -84 -30.5 -160.5t-93 -127.5t-143.5 -51q-89 0 -148.5 60.5t-59.5 152.5z"/>
<glyph glyph-name="product" horiz-adv-x="876" unicode="∏" d="M731 -200v872h-585v-872h-30v900h644v-900h-29z"/>
<glyph glyph-name="summation" horiz-adv-x="624" unicode="∑" d="M364 250l-324 434v16h544v-28h-499l315 -422l-317 -422h501v-28h-544v16z"/>
<glyph glyph-name="minus" d="M73 347v26h440v-26h-440z" unicode="−"/>
<glyph glyph-name="radical" horiz-adv-x="573" unicode="√" d="M1 422v28h135l194 -402l142 652h256v-28h-231l-151 -679h-20l-209 429h-116z"/>
<glyph glyph-name="infinity" horiz-adv-x="731" unicode="∞" d="M201 231q47 0 79 28t69 83q-28 37 -45.5 56t-45 37t-55.5 18q-52 0 -85.5 -33t-33.5 -79q0 -50 37.5 -80t79.5 -30zM534 453q-49 0 -83 -28t-71 -81q29 -37 48 -57t49.5 -38t62.5 -18q51 0 79 33t28 73q0 50 -30 83t-83 33zM540 205q-52 0 -92 30.5t-84 86.5 q-26 -37 -44.5 -58.5t-50.5 -40t-69 -18.5q-54 0 -98.5 37.5t-44.5 98.5q0 56 41.5 97t104.5 41q46 0 82 -29.5t80 -85.5q38 55 76.5 85t97.5 30q62 0 98.5 -39.5t36.5 -102.5q0 -51 -35.5 -91.5t-98.5 -40.5z"/>
<glyph glyph-name="approxequal" d="M79 418l-16 19q60 57 121 57q42 0 117 -37t113 -37q48 0 95 46l14 -20q-55 -52 -110 -52q-40 0 -115.5 37.5t-114.5 37.5q-51 0 -104 -51zM79 252l-16 19q60 57 121 57q42 0 117 -37t113 -37q48 0 95 46l14 -20q-55 -52 -110 -52q-40 0 -115.5 37.5t-114.5 37.5 q-51 0 -104 -51z" unicode="≈"/>
<glyph glyph-name="notequal" d="M73 430v26h236l95 253l23 -9l-91 -244h177v-26h-186l-52 -140h238v-26h-248l-101 -273l-23 10l97 263h-165v26h175l52 140h-227z" unicode="≠"/>
<glyph glyph-name="lessequal" d="M473 180l-403 259v12l403 256v-31l-363 -231l363 -233v-32zM70 273v29l403 -258v-29z" unicode="≤"/>
<glyph glyph-name="greaterequal" d="M516 439l-403 -259v32l363 233l-363 231v31l403 -256v-12zM516 302v-29l-403 -258v29z" unicode="≥"/>
<glyph glyph-name="lozenge" horiz-adv-x="463" unicode="◊" d="M84 250l148 -226l147 236l-147 227zM222 -7l-167 256l168 269h18l167 -258l-168 -267h-18z"/>
<glyph glyph-name="spade" horiz-adv-x="632" unicode="♠" d="M316 510q88 -55 172 -151t84 -160q0 -42 -30 -73t-87 -31q-79 0 -131 72q28 -119 107 -167h-230q73 52 105 164q-51 -69 -129 -69q-58 0 -87.5 31t-29.5 74q0 63 84 159t172 151z"/>
<glyph glyph-name="club" horiz-adv-x="612" unicode="♣" d="M177 381q0 53 38 91t91 38t91 -38t38 -91q0 -7 -2 -19q50 -4 84.5 -41t34.5 -87q0 -53 -38 -91t-91 -38q-66 0 -104 53q31 -115 102 -158h-230q63 44 100 156q-40 -51 -102 -51q-53 0 -91 38t-38 91q0 50 34 87t84 41q-1 6 -1 19z"/>
<glyph glyph-name="heart" horiz-adv-x="649" unicode="♥" d="M325 0q-93 70 -179 181.5t-86 188.5q0 53 30.5 91.5t90.5 38.5q88 0 144 -104q54 104 143 104q59 0 90 -38t31 -91q0 -77 -85.5 -188.5t-178.5 -182.5z"/>
<glyph glyph-name="diamond" horiz-adv-x="583" unicode="♦" d="M523 249q-109 -109 -232 -268q-103 136 -231 268q108 113 231 269q120 -153 232 -269z"/>
</font>
</defs>
</svg>
