<?xml version="1.0" encoding="UTF-8" standalone="no"?>
<!DOCTYPE svg  PUBLIC '-//W3C//DTD SVG 1.1//EN'  'http://www.w3.org/Graphics/SVG/1.1/DTD/svg11.dtd'>
<svg xmlns="http://www.w3.org/2000/svg">
<defs>
<font id="FuturaNewHeavy-Reg" horiz-adv-x="500">
<font-face underline-position="-50" font-weight="600" descent="-200" panose-1="2 11 8 2 2 2 4 2 2 3" units-per-em="1000" unicode-range="U+0020-25CA" bbox="-100 -250 1215 937" x-height="446" underline-thickness="50" font-family="FuturaNewHeavy" ascent="800" cap-height="667"/>
<missing-glyph horiz-adv-x="1000"/>
<glyph glyph-name=".notdef" horiz-adv-x="1000"/>
<glyph glyph-name=".null" horiz-adv-x="0"/>
<glyph glyph-name="nonmarkingreturn" horiz-adv-x="333"/>
<glyph glyph-name="space" horiz-adv-x="233" unicode=" "/>
<glyph glyph-name="exclam" horiz-adv-x="278" unicode="!" d="M48 75q0 38 26.5 64.5t64.5 26.5t64.5 -26.5t26.5 -64.5t-26.5 -64.5t-64.5 -26.5t-64.5 26.5t-26.5 64.5zM213 215h-148v452h148v-452z"/>
<glyph glyph-name="quotedbl" horiz-adv-x="407" unicode='&quot;' d="M365 667l-23 -268h-93l-24 268h140zM182 667l-24 -268h-93l-23 268h140z"/>
<glyph glyph-name="numbersign" horiz-adv-x="600" unicode="#" d="M343 295l15 92h-89l-15 -92h89zM471 295h102l-17 -111h-102l-30 -184h-128l30 184h-89l-30 -184h-128l30 184h-101l18 111h100l15 92h-100l17 110h100l28 170h128l-28 -170h89l28 170h128l-28 -170h101l-17 -110h-101z"/>
<glyph glyph-name="dollar" horiz-adv-x="600" unicode="$" d="M263 775h90v-101q82 -6 152 -64l-67 -107q-52 47 -109 47q-42 0 -63 -19q-20 -18 -20 -42q0 -23 19 -39q7 -7 67 -33l56 -24q66 -29 94 -57q47 -48 47 -123q0 -91 -55 -149q-47 -50 -121 -62v-114h-90v110q-63 3 -120 33q-53 28 -90 68l74 110q32 -32 65 -52 q44 -27 93 -27q42 0 67 21q24 20 24 51q0 33 -30 54q-11 7 -69 30l-35 14q-67 27 -101 61q-45 46 -45 110q0 91 57 148q44 44 110 55v101z"/>
<glyph glyph-name="percent" horiz-adv-x="830" unicode="%" d="M800 153q0 -69 -43 -112q-48 -50 -132 -50t-132 50q-43 43 -43 112t43 112q48 50 132 50t132 -50q43 -43 43 -112zM625 234q-36 0 -57 -23q-22 -22 -22 -58t22 -58q21 -23 57 -23t57 23q22 22 22 58t-22 58q-21 23 -57 23zM380 514q0 -69 -43 -112q-48 -50 -132 -50 t-132 50q-43 43 -43 112t43 112q48 50 132 50t132 -50q43 -43 43 -112zM205 595q-36 0 -57 -23q-22 -22 -22 -58t22 -58q21 -23 57 -23t57 23q22 22 22 58t-22 58q-21 23 -57 23zM185 2l391 676l70 -15l-392 -677z"/>
<glyph glyph-name="ampersand" horiz-adv-x="744" unicode="&amp;" d="M291 519q0 -23 17 -49q13 -19 38 -44q29 14 47 36q21 24 21 55q0 26 -17 43q-18 16 -45 16q-26 0 -42 -14q-19 -16 -19 -43zM402 162l-115 129q-37 -20 -54 -39q-23 -25 -23 -60q0 -30 24 -52q25 -22 65 -22q52 0 103 44zM596 337l87 -85q-42 -54 -89 -96l142 -156h-188 l-60 65q-42 -42 -85 -60q-47 -20 -125 -20q-113 0 -169 53q-57 54 -57 138q0 79 52 133q41 42 108 62q-32 32 -46 59q-18 35 -18 78q0 73 47 120q56 54 147 54q95 0 149 -54q46 -46 46 -114q0 -67 -51 -117q-31 -29 -72 -46l97 -107q44 40 85 93z"/>
<glyph glyph-name="quotesingle" horiz-adv-x="224" unicode="&apos;" d="M182 667l-24 -268h-93l-23 268h140z"/>
<glyph glyph-name="parenleft" horiz-adv-x="335" unicode="(" d="M182 740l97 -54q-42 -85 -64 -175q-27 -109 -27 -234q0 -123 27 -232q22 -90 64 -175l-97 -54q-51 93 -79 192q-35 120 -35 269q0 146 35 271q28 99 79 192z"/>
<glyph glyph-name="parenright" horiz-adv-x="335" unicode=")" d="M68 686l97 54q51 -93 79 -192q35 -125 35 -271q0 -149 -35 -269q-28 -99 -79 -192l-97 54q42 85 64 175q27 109 27 232q0 125 -27 234q-22 90 -64 175z"/>
<glyph glyph-name="asterisk" horiz-adv-x="585" unicode="*" d="M147 659l104 -44l-8 114h99l-9 -114l105 44l31 -93l-111 -26l73 -87l-78 -58l-61 97l-60 -97l-78 58l73 86l-111 26z"/>
<glyph glyph-name="plus" d="M33 282v116h154v154h126v-154h154v-116h-154v-155h-126v155h-154z" unicode="+"/>
<glyph glyph-name="comma" horiz-adv-x="351" unicode="," d="M24 -128l110 282l131 -7l-151 -279z"/>
<glyph glyph-name="hyphen" horiz-adv-x="356" unicode="-" d="M50 190v126h256v-126h-256z"/>
<glyph glyph-name="period" horiz-adv-x="278" unicode="." d="M48 75q0 38 26.5 64.5t64.5 26.5t64.5 -26.5t26.5 -64.5t-26.5 -64.5t-64.5 -26.5t-64.5 26.5t-26.5 64.5z"/>
<glyph glyph-name="slash" horiz-adv-x="700" unicode="/" d="M15 -184l527 933l113 -20l-527 -933z"/>
<glyph glyph-name="zero" horiz-adv-x="600" unicode="0" d="M300 550q-36 0 -62 -25q-56 -55 -56 -191q0 -137 56 -192q26 -25 62 -25t62 25q56 55 56 192q0 136 -56 191q-26 25 -62 25zM574 333q0 -184 -96 -279q-71 -69 -179 -69q-106 0 -177 69q-96 95 -96 279q0 187 96 280q71 69 177 69q108 0 179 -69q96 -93 96 -280z"/>
<glyph glyph-name="one" horiz-adv-x="600" unicode="1" d="M231 0v537h-95v130h249v-667h-154z"/>
<glyph glyph-name="two" horiz-adv-x="600" unicode="2" d="M534 130v-130h-510l200 218q73 82 109 136q40 64 40 113q0 42 -26 66q-21 19 -61 19q-39 0 -61 -24q-28 -31 -28 -82h-154q9 104 69 167q65 69 184 69q107 0 173 -63q62 -62 62 -160q0 -77 -50 -147q-30 -42 -107 -115l-70 -67h230z"/>
<glyph glyph-name="three" horiz-adv-x="600" unicode="3" d="M193 467h-148q10 93 66 151q61 63 169 63q116 0 175 -59q51 -49 51 -136q0 -54 -27 -91q-19 -27 -50 -42q50 -18 76 -54q31 -42 31 -105q0 -91 -67 -152q-64 -58 -176 -58q-126 0 -195 69q-64 65 -74 165h154q4 -47 32 -75q27 -27 74 -27q42 0 67 23q27 25 27 68 q0 40 -29 64q-27 21 -82 21h-12v106h9q44 0 67 19q25 21 25 60q0 34 -22 54t-57 20q-38 0 -60 -22q-22 -24 -24 -62z"/>
<glyph glyph-name="four" horiz-adv-x="600" unicode="4" d="M181 248h164v259zM493 667v-419h80v-122h-80v-126h-148v126h-326v88l294 453h180z"/>
<glyph glyph-name="five" horiz-adv-x="600" unicode="5" d="M493 667v-130h-225l-18 -89q28 5 55 5q107 0 170 -65q61 -61 61 -161q0 -104 -68 -172q-71 -70 -202 -70q-128 0 -222 73l35 143q31 -35 64 -55q45 -29 101 -29q61 0 95 27q39 30 39 84q0 48 -34 78q-40 35 -111 35q-72 0 -136 -35l68 361h328z"/>
<glyph glyph-name="six" horiz-adv-x="600" unicode="6" d="M297 111q48 0 80 30q35 33 35 88q0 51 -35 82q-32 28 -80 28q-51 0 -81 -29q-34 -31 -34 -85q0 -52 34 -83q33 -31 81 -31zM288 682l165 -17l-176 -219q31 11 70 11q103 0 165 -64q58 -60 58 -154q0 -110 -63 -179q-69 -75 -205 -75q-145 0 -216 78q-58 62 -58 162 q0 72 27.5 129.5t79.5 126.5z"/>
<glyph glyph-name="seven" horiz-adv-x="600" unicode="7" d="M50 20l302 517h-294v130h530l-395 -682z"/>
<glyph glyph-name="eight" horiz-adv-x="600" unicode="8" d="M298 288q-39 0 -63 -24q-26 -26 -26 -66q0 -42 26 -67q25 -24 65 -24t65 24q26 24 26 68q0 41 -26 65q-24 24 -67 24zM300 568q-34 0 -59 -22q-25 -24 -25 -57q0 -34 25 -57q25 -22 59 -22q35 0 58 22q25 24 25 57t-25 58q-24 21 -58 21zM299 -15q-38 0 -62.5 2.5 t-58 15.5t-61.5 38q-64 58 -64 145q0 67 45 114q33 34 83 50q-36 15 -61 41q-41 42 -41 106q0 75 49 124q60 61 173 61q111 0 171 -61q49 -49 49 -124q0 -64 -41 -106q-25 -26 -61 -41q50 -16 83 -50q45 -47 45 -114q0 -87 -64 -145q-40 -36 -82 -46t-102 -10z"/>
<glyph glyph-name="nine" horiz-adv-x="600" unicode="9" d="M301 556q-48 0 -80 -30q-35 -32 -35 -84q0 -56 34 -86q31 -28 81 -28q49 0 81 29q34 32 34 88q0 48 -34 81q-32 30 -81 30zM310 -15l-165 17l176 218q-33 -10 -67 -10q-106 0 -168 62q-58 58 -58 161q0 106 65 174q72 75 209 75q127 0 200 -67q68 -64 68 -169 q0 -68 -30 -136q-24 -53 -78 -124z"/>
<glyph glyph-name="colon" horiz-adv-x="278" unicode=":" d="M48 370q0 38 26.5 64.5t64.5 26.5t64.5 -26.5t26.5 -64.5t-26.5 -64.5t-64.5 -26.5t-64.5 26.5t-26.5 64.5zM48 76q0 38 26.5 64.5t64.5 26.5t64.5 -26.5t26.5 -64.5t-26.5 -64.5t-64.5 -26.5t-64.5 26.5t-26.5 64.5z"/>
<glyph glyph-name="semicolon" horiz-adv-x="354" unicode=";" d="M84 370q0 38 26.5 64.5t64.5 26.5t64.5 -26.5t26.5 -64.5t-26.5 -64.5t-64.5 -26.5t-64.5 26.5t-26.5 64.5zM4 -128l110 282l131 -7l-151 -279z"/>
<glyph glyph-name="less" d="M33 388l434 219v-124l-301 -149l301 -149v-124l-434 219v108z" unicode="&lt;"/>
<glyph glyph-name="equal" d="M33 199v110h434v-110h-434zM33 371v110h434v-110h-434z" unicode="="/>
<glyph glyph-name="greater" d="M467 388v-108l-434 -219v124l301 149l-301 149v124z" unicode="&gt;"/>
<glyph glyph-name="question" horiz-adv-x="525" unicode="?" d="M159 76q0 38 26.5 64.5t64.5 26.5t64.5 -26.5t26.5 -64.5t-26.5 -64.5t-64.5 -26.5t-64.5 26.5t-26.5 64.5zM319 214h-146v184q23 -5 43 -5q55 0 85 26q30 27 30 69q0 30 -19 51q-18 19 -48 19q-32 0 -51 -19q-19 -20 -17 -56h-154q1 82 55 138q59 61 165 61 q103 0 165 -60q56 -55 56 -138q0 -73 -50 -127q-45 -49 -114 -59v-84z"/>
<glyph glyph-name="at" horiz-adv-x="734" unicode="@" d="M358 225q31 0 54 23q34 34 34 86q0 41 -22 61q-16 15 -43 15q-33 0 -56 -23q-35 -33 -35 -86q0 -37 21 -58q18 -18 47 -18zM468 445l8 42h84l-40 -203q-4 -16 -4 -34q0 -20 9 -28q6 -6 17 -6q15 0 32 15q25 21 39 64.5t14 79.5q0 93 -58 153q-67 70 -182 70 q-117 0 -193 -78q-79 -81 -79 -198q0 -58 23 -111.5t63 -89.5q71 -63 193 -63q90 0 180 33l19 -76q-92 -32 -196 -32q-177 0 -271 99q-45 47 -69 112t-24 132q0 153 101 250q100 97 254 97q143 0 230 -86q83 -81 83 -206q0 -58 -19 -109.5t-53 -83.5q-41 -40 -93 -40 q-32 0 -54 19q-17 13 -23 37q-41 -64 -122 -64q-61 0 -100 40q-42 43 -42 117q0 91 55 149q48 51 119 51t99 -52z"/>
<glyph glyph-name="A" horiz-adv-x="677" unicode="A" d="M258 244h165l-82 224zM515 0l-50 126h-252l-51 -126h-160l269 667h141l263 -667h-160z"/>
<glyph glyph-name="B" horiz-adv-x="594" unicode="B" d="M225 282v-162h37q85 0 114 27q22 20 22 56q0 35 -21 54q-27 25 -110 25h-42zM225 547v-151h25q52 0 78 19q27 19 27 59q0 36 -26 56q-22 17 -80 17h-24zM73 667h204q116 0 170 -51q48 -46 48 -126q0 -50 -22 -85q-20 -33 -56 -49q56 -9 92 -45q43 -43 43 -119 q0 -83 -52 -135q-59 -57 -176 -57h-251v667z"/>
<glyph glyph-name="C" horiz-adv-x="605" unicode="C" d="M555 198v-177q-71 -36 -147 -36q-163 0 -262 97q-104 101 -104 253q0 150 104 251q99 96 249 96q74 0 160 -37v-178q-67 71 -156 71q-82 0 -136 -52q-63 -61 -63 -154q0 -91 58 -147q56 -56 144 -56q83 0 153 69z"/>
<glyph glyph-name="D" horiz-adv-x="685" unicode="D" d="M227 537v-407h41q98 0 152 45q65 54 65 161q0 89 -55 144q-57 57 -162 57h-41zM73 667h211q168 0 263 -92q96 -93 96 -239q0 -145 -91 -236q-99 -100 -263 -100h-216v667z"/>
<glyph glyph-name="E" horiz-adv-x="502" unicode="E" d="M450 667v-130h-223v-129h212v-130h-212v-148h223v-130h-377v667h377z"/>
<glyph glyph-name="F" horiz-adv-x="483" unicode="F" d="M443 667v-130h-216v-129h200v-130h-200v-278h-154v667h370z"/>
<glyph glyph-name="G" horiz-adv-x="767" unicode="G" d="M394 240v124h331v-7q0 -69 -26 -148.5t-77 -132.5q-87 -91 -238 -91q-71 0 -131 19t-113 74q-98 101 -98 254q0 155 96 253q94 97 262 97q111 0 187 -50q65 -43 108 -119l-139 -75q-23 46 -59 72q-44 32 -102 32q-87 0 -138 -54q-57 -60 -57 -158q0 -97 56 -153 q51 -52 135 -52q74 0 116 36q34 27 48 79h-161z"/>
<glyph glyph-name="H" horiz-adv-x="720" unicode="H" d="M227 667v-254h266v254h154v-667h-154v283h-266v-283h-154v667h154z"/>
<glyph glyph-name="I" horiz-adv-x="306" unicode="I" d="M76 667h154v-667h-154v667z"/>
<glyph glyph-name="J" horiz-adv-x="415" unicode="J" d="M188 667h154v-454q0 -121 -58 -178q-50 -50 -141 -50q-66 0 -106 24q-35 22 -63 56l96 108q13 -26 24 -37q15 -15 38 -15q22 0 36 14q20 20 20 79v453z"/>
<glyph glyph-name="K" horiz-adv-x="670" unicode="K" d="M227 667v-278l228 278h188l-270 -316l291 -351h-198l-239 296v-296h-154v667h154z"/>
<glyph glyph-name="L" horiz-adv-x="448" unicode="L" d="M73 667h154v-537h207v-130h-361v667z"/>
<glyph glyph-name="M" horiz-adv-x="886" unicode="M" d="M196 0h-154l107 667h128l166 -399l166 399h128l107 -667h-154l-53 398l-167 -398h-54l-167 398z"/>
<glyph glyph-name="N" horiz-adv-x="796" unicode="N" d="M227 0h-154v667h134l362 -430v430h154v-667h-134l-362 432v-432z"/>
<glyph glyph-name="O" horiz-adv-x="810" unicode="O" d="M405 540q-89 0 -146 -57q-59 -57 -59 -151q0 -90 61 -150q58 -55 143 -55q91 0 148 57q58 56 58 149q0 92 -58 150q-59 57 -147 57zM406 682q158 0 258 -97q104 -101 104 -252q0 -149 -104 -250q-101 -98 -258 -98q-158 0 -260 98q-49 46 -76.5 110.5t-27.5 137.5 q0 70 28.5 138.5t74.5 114.5q98 98 261 98z"/>
<glyph glyph-name="P" horiz-adv-x="572" unicode="P" d="M227 541v-181h55q57 0 83 25q25 25 25 66q0 42 -25 65q-26 25 -86 25h-52zM73 667h235q113 0 175 -55q65 -57 65 -162q0 -98 -57 -157q-58 -59 -170 -59h-94v-234h-154v667z"/>
<glyph glyph-name="Q" horiz-adv-x="813" unicode="Q" d="M509 278l60 -64q39 53 39 120q0 90 -57 147q-57 59 -147 59q-89 0 -146 -59q-58 -60 -58 -150q0 -86 56 -145q57 -59 144 -59q43 0 80 17l-120 118zM644 -31l-65 68q-71 -52 -187 -52q-149 0 -245 95q-105 104 -105 254q0 72 27.5 137t73.5 111q100 100 261 100 q155 0 258 -96q104 -97 104 -254q0 -66 -28 -129q-23 -53 -65 -90l116 -126z"/>
<glyph glyph-name="R" horiz-adv-x="607" unicode="R" d="M227 547v-183h35q63 0 92 29q25 25 25 65q0 44 -31 68q-28 21 -85 21h-36zM73 667h234q108 0 170 -58q58 -56 58 -149q0 -85 -52 -136q-40 -38 -93 -51l205 -273h-188l-180 263v-263h-154v667z"/>
<glyph glyph-name="S" horiz-adv-x="550" unicode="S" d="M486 616l-69 -112q-53 48 -112 48q-44 0 -65 -23q-17 -17 -17 -42q0 -24 15 -37q5 -4 10 -7.5t14 -7.5t15 -6.5t21 -8t24 -8.5l50 -19q63 -24 91 -51q49 -46 49 -124q0 -104 -59 -165q-65 -68 -189 -68q-76 0 -132 28q-50 25 -98 73l80 110q34 -34 62 -51q39 -24 84 -24 q43 0 70 23q24 20 24 54q0 28 -23 48q-18 15 -78 37l-55 19q-65 23 -93 53q-40 42 -40 116q0 91 58 150q60 61 165 61q109 0 198 -66z"/>
<glyph glyph-name="T" horiz-adv-x="460" unicode="T" d="M452 537h-146v-537h-154v537h-144v130h444v-130z"/>
<glyph glyph-name="U" horiz-adv-x="710" unicode="U" d="M637 667v-395q0 -135 -74 -211t-208 -76t-208 76t-74 211v395h154v-391q0 -76 35 -112q33 -35 93 -35t93 35q35 36 35 112v391h154z"/>
<glyph glyph-name="V" horiz-adv-x="678" unicode="V" d="M4 667h166l169 -427l169 427h166l-283 -667h-104z"/>
<glyph glyph-name="W" horiz-adv-x="1002" unicode="W" d="M4 667h160l142 -442l142 442h106l142 -442l142 442h160l-227 -667h-130l-140 405l-140 -405h-130z"/>
<glyph glyph-name="X" horiz-adv-x="686" unicode="X" d="M10 0l245 354l-207 313h185l110 -190l110 190h185l-207 -313l245 -354h-185l-148 231l-148 -231h-185z"/>
<glyph glyph-name="Y" horiz-adv-x="632" unicode="Y" d="M239 0v311l-239 356h182l134 -207l134 207h182l-239 -356v-311h-154z"/>
<glyph glyph-name="Z" horiz-adv-x="616" unicode="Z" d="M594 667l-319 -537h286v-130h-539l320 537h-268v130h520z"/>
<glyph glyph-name="bracketleft" horiz-adv-x="354" unicode="[" d="M304 631h-92v-717h92v-98h-214v913h214v-98z"/>
<glyph glyph-name="backslash" horiz-adv-x="700" unicode="\" d="M685 -184l-113 -20l-527 933l113 20z"/>
<glyph glyph-name="bracketright" horiz-adv-x="354" unicode="]" d="M50 631v98h214v-913h-214v98h92v717h-92z"/>
<glyph glyph-name="asciicircum" d="M249 570l-111 -237h-132l161 334h165l161 -334h-132z" unicode="^"/>
<glyph glyph-name="underscore" d="M0 -184v118h500v-118h-500z" unicode="_"/>
<glyph glyph-name="grave" d="M240 515l-152 135l95 65l122 -152z" unicode="`"/>
<glyph glyph-name="a" horiz-adv-x="598" unicode="a" d="M294 337q-47 0 -79 -32q-33 -33 -33 -81t30 -80q33 -35 85 -35q44 0 75 31q35 33 35 84t-33 82q-32 31 -80 31zM398 396v50h144v-446h-144v54q-45 -69 -132 -69q-103 0 -167 68q-65 69 -65 167q0 111 69 180q61 61 155 61q92 0 140 -65z"/>
<glyph glyph-name="b" horiz-adv-x="602" unicode="b" d="M308 337q-49 0 -81 -33q-32 -34 -32 -82q0 -49 33 -80q35 -33 82 -33q43 0 75 31q35 33 35 82q0 52 -35 85q-31 30 -77 30zM60 729h144v-333q48 65 139 65q92 0 155 -60q70 -67 70 -176t-70 -179q-59 -61 -153 -61t-141 69v-54h-144v729z"/>
<glyph glyph-name="c" horiz-adv-x="431" unicode="c" d="M391 436v-131q-41 34 -94 34q-50 0 -82 -32q-33 -33 -33 -84q0 -48 30 -80q33 -36 87 -36q51 0 92 35v-130q-49 -27 -114 -27q-104 0 -173 67q-70 68 -70 170q0 106 74 176q67 63 170 63q60 0 113 -25z"/>
<glyph glyph-name="d" horiz-adv-x="602" unicode="d" d="M294 337q-46 0 -77 -30q-35 -33 -35 -85q0 -49 35 -82q32 -31 75 -31q48 0 82 33q33 31 33 80q0 48 -32 82q-32 33 -81 33zM542 729v-729h-144v54q-47 -69 -141 -69t-153 61q-70 70 -70 179t70 176q63 60 155 60q91 0 139 -65v333h144z"/>
<glyph glyph-name="e" horiz-adv-x="547" unicode="e" d="M513 213v-15h-333q0 -46 27 -76q26 -28 74 -28q36 0 58 13q17 9 31 37l136 -14q-23 -73 -86 -112q-55 -33 -141 -33q-114 0 -178 64q-67 67 -67 172q0 106 68 176q64 64 171 64q113 0 177 -67q63 -67 63 -181zM185 284h195q-8 32 -29 52q-27 25 -68 25q-44 0 -73 -29 q-20 -21 -25 -48z"/>
<glyph glyph-name="f" horiz-adv-x="326" unicode="f" d="M326 330h-114v-330h-144v330h-52v116h52v88q0 102 50 155q48 51 125 51q42 0 82 -15v-126q-27 17 -55 17t-42 -18q-16 -21 -16 -77v-75h114v-116z"/>
<glyph glyph-name="g" horiz-adv-x="595" unicode="g" d="M295 336q-48 0 -79 -29q-34 -32 -34 -83q0 -47 31 -80q30 -32 81 -32q47 0 78 29q35 33 35 85q0 50 -34 82q-31 28 -78 28zM395 394v52h144v-419q0 -40 -2.5 -66.5t-15.5 -62t-37 -61.5q-62 -66 -188 -66q-120 0 -186 57q-54 46 -67 118h157q7 -27 32 -44q23 -15 62 -15 q45 0 72 24q29 28 29 93v51q-41 -67 -133 -67q-100 0 -163 63q-65 67 -65 168q0 110 66 178q62 64 162 64q88 0 133 -67z"/>
<glyph glyph-name="h" horiz-adv-x="571" unicode="h" d="M60 0v729h144v-336q25 31 54 46q36 19 87 19q82 0 126 -45q44 -44 44 -130v-283h-144v229q0 66 -24 89q-20 20 -56 20q-35 0 -57 -22q-30 -29 -30 -93v-223h-144z"/>
<glyph glyph-name="i" horiz-adv-x="276" unicode="i" d="M54 636q0 35 24.5 59.5t59.5 24.5t59.5 -24.5t24.5 -59.5t-24.5 -59.5t-59.5 -24.5t-59.5 24.5t-24.5 59.5zM66 446h144v-446h-144v446z"/>
<glyph glyph-name="j" horiz-adv-x="276" unicode="j" d="M54 636q0 35 24.5 59.5t59.5 24.5t59.5 -24.5t24.5 -59.5t-24.5 -59.5t-59.5 -24.5t-59.5 24.5t-24.5 59.5zM66 446h144v-675h-144v675z"/>
<glyph glyph-name="k" horiz-adv-x="566" unicode="k" d="M60 729h144v-447l162 164h189l-212 -202l227 -244h-194l-172 192v-192h-144v729z"/>
<glyph glyph-name="l" horiz-adv-x="264" unicode="l" d="M60 729h144v-729h-144v729z"/>
<glyph glyph-name="m" horiz-adv-x="843" unicode="m" d="M56 0v446h144v-52q42 63 125 63q51 0 84 -20q35 -20 54 -62q21 35 57 57q41 25 95 25q81 0 125 -42q46 -44 46 -133v-282h-144v226q0 63 -19 87t-52 24q-36 0 -56 -27q-22 -28 -22 -88v-222h-144v232q0 64 -23 87q-18 18 -48 18q-31 0 -50 -18q-28 -27 -28 -91v-228h-144 z"/>
<glyph glyph-name="n" horiz-adv-x="567" unicode="n" d="M56 0v446h144v-53q51 65 138 65q83 0 128 -45t45 -131v-282h-144v229q0 65 -24 89q-20 20 -55 20q-38 0 -60 -24q-28 -28 -28 -85v-229h-144z"/>
<glyph glyph-name="o" horiz-adv-x="592" unicode="o" d="M296 339q-49 0 -81 -32q-33 -33 -33 -84t33 -84q32 -32 82 -32q48 0 80 32q33 33 33 84t-33 84q-32 32 -81 32zM558 223q0 -99 -67 -166q-72 -72 -195 -72t-195 72q-67 67 -67 166t67 166q72 72 195 72t195 -72q67 -67 67 -166z"/>
<glyph glyph-name="p" horiz-adv-x="598" unicode="p" d="M304 337q-47 0 -80 -33q-34 -34 -34 -82q0 -45 32 -79q34 -34 82 -34q44 0 77 31q35 33 35 85q0 49 -34 81q-33 31 -78 31zM200 51v-280h-144v675h144v-53q52 68 139 68q95 0 158 -63q67 -67 67 -174q0 -108 -71 -179q-60 -60 -151 -60q-95 0 -142 66z"/>
<glyph glyph-name="q" horiz-adv-x="598" unicode="q" d="M294 337q-45 0 -78 -31q-34 -32 -34 -81q0 -52 35 -85q33 -31 77 -31q48 0 82 34q32 34 32 79q0 48 -34 82q-33 33 -80 33zM398 -229v280q-53 -66 -142 -66q-91 0 -151 60q-71 71 -71 179q0 104 67 174q61 63 156 63q87 0 141 -68v53h144v-675h-144z"/>
<glyph glyph-name="r" horiz-adv-x="384" unicode="r" d="M56 0v446h144v-70q21 41 56 62q30 19 77 19q25 0 47 -7l-8 -135q-30 16 -65 16q-44 0 -72 -30q-35 -37 -35 -120v-181h-144z"/>
<glyph glyph-name="s" horiz-adv-x="434" unicode="s" d="M386 423l-57 -91q-42 25 -79 25q-28 0 -41 -13q-9 -9 -9 -20q0 -12 14 -20q3 -1 43 -15l38 -12q48 -15 74 -39q35 -32 35 -85q0 -71 -46 -117q-51 -51 -145 -51q-110 0 -183 64l61 97q26 -22 49 -33q28 -14 60 -14t45 10q15 12 15 29q0 16 -16 26q-11 7 -44 16l-36 11 q-45 14 -72 41q-32 34 -32 81q0 63 43 103q49 45 135 45q83 0 148 -38z"/>
<glyph glyph-name="t" horiz-adv-x="299" unicode="t" d="M293 330h-89v-330h-144v330h-50v116h50v144h144v-144h89v-116z"/>
<glyph glyph-name="u" horiz-adv-x="570" unicode="u" d="M56 446h144v-246q0 -49 25 -72q23 -21 60 -21q38 0 61 21q24 23 24 72v246h144v-260q0 -46 -9.5 -79.5t-40.5 -63.5q-59 -58 -179 -58q-121 0 -180 58q-49 48 -49 134v269z"/>
<glyph glyph-name="v" horiz-adv-x="546" unicode="v" d="M2 446h158l113 -239l113 239h158l-226 -446h-90z"/>
<glyph glyph-name="w" horiz-adv-x="852" unicode="w" d="M426 254l-112 -254h-90l-222 446h158l115 -237l113 243h76l113 -243l115 237h158l-222 -446h-90z"/>
<glyph glyph-name="x" horiz-adv-x="620" unicode="x" d="M2 0l218 243l-177 203h184l83 -103l83 103h184l-177 -203l218 -243h-186l-122 144l-122 -144h-186z"/>
<glyph glyph-name="y" horiz-adv-x="585" unicode="y" d="M58 -229l157 286l-213 389h166l126 -242l123 242h162l-359 -675h-162z"/>
<glyph glyph-name="z" horiz-adv-x="499" unicode="z" d="M487 446l-231 -326h211v-120h-455l232 326h-197v120h440z"/>
<glyph glyph-name="braceleft" horiz-adv-x="504" unicode="{" d="M242 272q31 -12 46 -42q14 -28 14 -84v-160q0 -33 12 -45q14 -14 71 -14h19v-109q-34 -2 -73 -2q-81 0 -116 32q-17 15 -25.5 36t-9.5 35t-1 41v189q0 39 -17 56q-16 16 -38 17v106q22 1 38 17q17 17 17 56v184q0 27 1 41t9.5 35t25.5 36q35 32 116 32q39 0 73 -2v-109 h-19q-57 0 -71 -14q-12 -12 -12 -45v-161q0 -56 -14 -84q-15 -30 -46 -42z"/>
<glyph glyph-name="bar" horiz-adv-x="504" unicode="|" d="M189 -250v1000h126v-1000h-126z"/>
<glyph glyph-name="braceright" horiz-adv-x="504" unicode="}" d="M202 -14v160q0 56 14 84q15 30 46 42q-31 12 -46 42q-14 28 -14 84v161q0 33 -12 45q-14 14 -71 14h-19v109q34 2 73 2q81 0 116 -32q17 -15 25.5 -36t9.5 -35t1 -41v-184q0 -39 17 -56q16 -16 38 -17v-106q-22 -1 -38 -17q-17 -17 -17 -56v-189q0 -27 -1 -41t-9.5 -35 t-25.5 -36q-35 -32 -116 -32q-39 0 -73 2v109h19q57 0 71 14q12 12 12 45z"/>
<glyph glyph-name="asciitilde" d="M254 225l-36 14q-41 16 -64 16q-31 0 -49 -18t-28 -43l-71 43l5 11q31 68 56 93q36 36 90 36q36 0 87 -20l38 -14q41 -16 68 -16q29 0 48 18q17 17 24 34l72 -42l-4 -8q-27 -54 -53 -81q-40 -43 -96 -43q-34 0 -87 20z" unicode="~"/>
<glyph glyph-name="uni00A0" horiz-adv-x="233" unicode=" "/>
<glyph glyph-name="exclamdown" horiz-adv-x="278" unicode="¡" d="M48 362q0 38 26.5 64.5t64.5 26.5t64.5 -26.5t26.5 -64.5t-26.5 -64.5t-64.5 -26.5t-64.5 26.5t-26.5 64.5zM213 222v-452h-148v452h148z"/>
<glyph glyph-name="cent" horiz-adv-x="600" unicode="¢" d="M309 660h90v-94q34 -3 63 -19v-133q-35 38 -86 38q-48 0 -82 -32t-34 -86t34 -86q31 -28 80 -28q55 0 88 37v-134q-31 -14 -63 -17v-93h-90v89q-76 10 -130 63q-67 66 -67 164q0 107 69 176q52 52 128 65v90z"/>
<glyph glyph-name="sterling" horiz-adv-x="600" unicode="£" d="M159 248h-112v92h68q-30 52 -30 114q0 97 63 158q70 69 188 69q113 0 175 -60q62 -59 62 -165q0 -16 -1 -24h-153q0 69 -25 95q-26 26 -65 26t-63 -23q-32 -30 -32 -80q0 -44 33 -110h149v-92h-125q8 -28 8 -47q0 -25 -10 -59l58 -19q55 -18 83 -18q26 0 39 14 q11 11 15 34l98 -12q-9 -72 -49 -115q-39 -41 -103 -41q-46 0 -115 23l-39 13q-42 14 -76 14q-33 0 -49 -13q-13 -9 -19 -27l-104 9q16 67 54 105q35 35 83 43q8 26 8 46q0 26 -14 50z"/>
<glyph glyph-name="currency" horiz-adv-x="667" unicode="¤" d="M333 237q59 0 97 38q40 40 40 101t-39 100t-98 39q-61 0 -98 -39q-39 -39 -39 -100q0 -58 38 -98q38 -41 99 -41zM89 67l-68 68l103 103q-44 56 -44 138q0 77 45 138l-104 104l68 68l104 -103q58 44 140 44q83 0 139 -44l103 103l68 -68l-102 -103q45 -56 45 -139 q0 -85 -44 -138l103 -103l-68 -68l-103 103q-55 -45 -141 -45t-141 44z"/>
<glyph glyph-name="yen" horiz-adv-x="600" unicode="¥" d="M202 347h-140v97h82l-134 223h174l117 -212l114 212h176l-138 -223h86v-97h-146l-23 -35v-28h169v-97h-169v-187h-146v187h-162v97h162v28z"/>
<glyph glyph-name="brokenbar" horiz-adv-x="504" unicode="¦" d="M189 -250v386h126v-386h-126zM189 365v385h126v-385h-126z"/>
<glyph glyph-name="section" horiz-adv-x="574" unicode="§" d="M288 356q-35 0 -57 -22t-22 -57q0 -36 22 -58t57 -22q33 0 55 22t22 58q0 35 -22 57t-55 22zM481 545h-130q0 40 -19 59q-18 18 -47 18q-26 0 -43 -15t-17 -39q0 -32 31 -53q14 -10 81 -40l31 -14q61 -27 89 -58q44 -46 44 -114q0 -63 -33 -109q-29 -41 -76 -60 q38 -19 59 -50q24 -35 24 -79q0 -78 -50 -126q-50 -49 -135 -49q-95 0 -147 56q-51 54 -54 137h130q0 -37 18 -60q17 -23 50 -23q28 0 44 16q20 18 20 51q0 27 -21 47q-16 14 -84 39q-92 32 -126 68q-47 48 -47 129q0 60 28 99q27 40 78 59q-34 18 -55 46q-26 34 -26 83 q0 70 44 116q49 50 139 50q98 0 146 -50q22 -22 36.5 -59.5t17.5 -74.5z"/>
<glyph glyph-name="dieresis" d="M62 599q0 32 23.5 55.5t55.5 23.5t55.5 -23.5t23.5 -55.5t-23.5 -55.5t-55.5 -23.5t-55.5 23.5t-23.5 55.5zM280 599q0 32 23.5 55.5t55.5 23.5t55.5 -23.5t23.5 -55.5t-23.5 -55.5t-55.5 -23.5t-55.5 23.5t-23.5 55.5z" unicode="¨"/>
<glyph glyph-name="copyright" horiz-adv-x="762" unicode="©" d="M728 333q0 -146 -103 -249q-101 -99 -244 -99t-244 99q-103 103 -103 249q0 147 103 250q101 99 244 99t244 -99q103 -103 103 -250zM381 620q-49 0 -101.5 -21t-89.5 -57q-38 -37 -62 -93t-24 -115q0 -60 24 -116.5t62 -92.5q37 -36 89.5 -57t101.5 -21t101.5 21 t89.5 57q38 36 62 92.5t24 116.5q0 59 -24 115t-62 93q-37 36 -89.5 57t-101.5 21zM507 518v-122q-44 50 -102 50q-49 0 -80 -30q-32 -31 -32 -84q0 -48 28 -78q32 -34 85 -34q55 0 101 49v-120q-57 -25 -111 -25q-100 0 -157 59q-58 60 -58 148q0 90 59 149q60 62 160 62 q56 0 107 -24z"/>
<glyph glyph-name="ordfeminine" horiz-adv-x="352" unicode="ª" d="M174 593q-30 0 -49 -21q-17 -18 -17 -47q0 -28 17 -45q20 -20 49 -20t49 20q17 18 17 45q0 31 -17 48q-20 20 -49 20zM32 291v66h288v-66h-288zM236 629v30h84v-264h-84v32q-28 -41 -82 -41q-56 0 -91 35q-41 39 -41 106q0 65 41 105q37 35 90 35t83 -38z"/>
<glyph glyph-name="guillemotleft" horiz-adv-x="534" unicode="«" d="M366 224l118 -159l-81 -57l-155 216l155 215l79 -55zM158 224l118 -159l-81 -57l-155 216l155 215l79 -55z"/>
<glyph glyph-name="logicalnot" d="M468 0h-126v149h-310v118h436v-267z" unicode="¬"/>
<glyph glyph-name="uni00AD" horiz-adv-x="356" unicode="­" d="M50 190v126h256v-126h-256z"/>
<glyph glyph-name="registered" horiz-adv-x="761" unicode="®" d="M727 333q0 -146 -103 -249q-101 -99 -244 -99t-244 99q-103 103 -103 249q0 147 103 250q101 99 244 99t244 -99q103 -103 103 -250zM380 620q-49 0 -101.5 -21t-89.5 -57q-38 -37 -62 -93t-24 -115q0 -60 24 -116.5t62 -92.5q37 -36 89.5 -57t101.5 -21t101.5 21 t89.5 57q38 36 62 92.5t24 116.5q0 59 -24 115t-62 93q-37 36 -89.5 57t-101.5 21zM335 449v-88h15q31 0 45 9q19 12 19 37q0 22 -14 32t-51 10h-14zM227 529h142q82 0 120 -39q31 -33 31 -82q0 -45 -29 -76q-22 -23 -54 -30l107 -152h-133l-76 128v-128h-108v379z"/>
<glyph glyph-name="macron" d="M60 543v90h380v-90h-380z" unicode="¯"/>
<glyph glyph-name="degree" horiz-adv-x="502" unicode="°" d="M97 515q0 64 44.5 108t109.5 44t109.5 -44t44.5 -108t-44.5 -108t-109.5 -44t-109.5 44t-44.5 108zM175 515q0 -30 22.5 -52t53.5 -22t53.5 22t22.5 52t-22.5 52t-53.5 22t-53.5 -22t-22.5 -52z"/>
<glyph glyph-name="plusminus" d="M33 51v116h434v-116h-434zM33 356v116h154v155h126v-155h154v-116h-154v-155h-126v155h-154z" unicode="±"/>
<glyph glyph-name="twosuperior" horiz-adv-x="395" unicode="²" d="M29 275l105 119q71 81 80 97q16 26 16 55q0 23 -13 39q-12 14 -37 14q-23 0 -36 -18q-11 -16 -13 -42h-94q5 64 43 102t107 38q67 0 107 -38q36 -35 36 -92q0 -47 -24 -86q-13 -22 -55 -64l-48 -46h131v-78h-305z"/>
<glyph glyph-name="threesuperior" horiz-adv-x="395" unicode="³" d="M30 397h94q2 -25 18 -40q14 -14 41 -14q25 0 41 13q17 14 17 39q0 23 -17 36q-15 12 -46 12h-6h-11v70h10q28 0 41 10q16 12 16 36q0 21 -15 34q-13 10 -32 10q-21 0 -35 -14q-12 -13 -12 -34h-94q7 53 38 86q36 38 104 38q71 0 108 -33q32 -30 32 -78q0 -32 -13 -52 q-13 -19 -32 -30q23 -10 36 -23q28 -28 28 -71q0 -54 -36 -90q-39 -39 -111 -39q-79 0 -120 40q-38 37 -44 94z"/>
<glyph glyph-name="acute" d="M317 715l94 -65l-152 -135l-65 48z" unicode="´"/>
<glyph glyph-name="mu" horiz-adv-x="566" unicode="µ" d="M224 -229h-141v675h144v-215q0 -92 35 -121q19 -16 48 -16t48 16q35 29 35 121v215h144v-446h-141v58q-12 -33 -31 -50q-20 -18 -55 -18t-55 18q-21 18 -31 50v-287z"/>
<glyph glyph-name="paragraph" horiz-adv-x="659" unicode="¶" d="M324 -94h-108v415h-8q-89 0 -138 51q-44 45 -44 119q0 76 49 124q32 31 72.5 41.5t108.5 10.5h331v-98h-72v-663h-108v663h-83v-663z"/>
<glyph glyph-name="periodcentered" horiz-adv-x="256" unicode="·" d="M20 334q0 46 31 77t77 31t77 -31t31 -77t-31 -77t-77 -31t-77 31t-31 77z"/>
<glyph glyph-name="cedilla" d="M264 -46l94 -44l-118 -146l-74 40z" unicode="¸"/>
<glyph glyph-name="onesuperior" horiz-adv-x="395" unicode="¹" d="M163 275v314h-67v78h159v-392h-92z"/>
<glyph glyph-name="ordmasculine" horiz-adv-x="346" unicode="º" d="M325 527q0 -57 -39 -98q-43 -43 -113 -43t-113 43q-39 41 -39 98q0 58 39 97q43 43 113 43t113 -43q39 -39 39 -97zM173 593q-31 0 -49 -20q-17 -19 -17 -47q0 -29 17 -46q20 -20 49 -20q31 0 49 20q17 19 17 46q0 28 -17 47q-18 20 -49 20zM29 291v66h288v-66h-288z"/>
<glyph glyph-name="guillemotright" horiz-adv-x="534" unicode="»" d="M376 224l-116 160l79 55l155 -215l-155 -216l-81 57zM168 224l-116 160l79 55l155 -215l-155 -216l-81 57z"/>
<glyph glyph-name="onequarter" horiz-adv-x="860" unicode="¼" d="M173 10l390 668l68 -23l-390 -669zM153 267v322h-67v78h159v-400h-92zM552 150h94v148zM734 400v-250h46v-74h-46v-76h-88v76h-192v50l174 274h106z"/>
<glyph glyph-name="onehalf" horiz-adv-x="860" unicode="½" d="M490 0l104 119q11 12 26.5 29.5t23 26t16 20t14.5 21.5q16 26 16 55q0 23 -13 39q-14 14 -34 14q-25 0 -38 -18q-12 -16 -14 -42h-94q5 64 43 102q40 38 104 38q69 0 109 -37q37 -35 37 -93q0 -47 -26 -88q-17 -28 -53 -62l-48 -46h131v-78h-304zM162 10l390 668l68 -23 l-390 -669zM142 275v314h-66v78h158v-392h-92z"/>
<glyph glyph-name="threequarters" horiz-adv-x="859" unicode="¾" d="M783 400v-250h46v-74h-46v-76h-88v76h-192v50l174 274h106zM601 150h94v148zM222 10l390 668l68 -23l-390 -669zM28 399h94q2 -25 18 -40q14 -14 41 -14q28 0 41 13q17 15 17 38q0 25 -17 38q-16 12 -52 12h-11v70h10q28 0 41 10q16 12 16 36q0 21 -15 34q-13 10 -32 10 q-21 0 -35 -14q-12 -14 -12 -34h-90q7 53 38 86q36 38 104 38q67 0 104 -33q32 -30 32 -78q0 -32 -13 -52q-13 -19 -32 -30q23 -10 36 -23q28 -28 28 -73q0 -53 -36 -89q-39 -39 -111 -39q-79 0 -120 40q-38 37 -44 94z"/>
<glyph glyph-name="questiondown" horiz-adv-x="525" unicode="¿" d="M366 362q0 -38 -26.5 -64.5t-64.5 -26.5t-64.5 26.5t-26.5 64.5t26.5 64.5t64.5 26.5t64.5 -26.5t26.5 -64.5zM206 226h146v-184q-23 5 -43 5q-55 0 -85 -26q-30 -27 -30 -69q0 -30 19 -51q18 -19 48 -19q32 0 51 19q17 19 17 56h154q-1 -82 -55 -138q-59 -61 -165 -61 q-103 0 -165 60q-56 55 -56 138q0 73 50 127q45 49 114 59v84z"/>
<glyph glyph-name="Agrave" horiz-adv-x="677" unicode="À" d="M354 724l-164 129l96 72l133 -148zM258 244h165l-82 224zM515 0l-50 126h-252l-51 -126h-160l269 667h141l263 -667h-160z"/>
<glyph glyph-name="Aacute" horiz-adv-x="677" unicode="Á" d="M394 925l95 -72l-164 -129l-65 53zM258 244h165l-82 224zM515 0l-50 126h-252l-51 -126h-160l269 667h141l263 -667h-160z"/>
<glyph glyph-name="Acircumflex" horiz-adv-x="677" unicode="Â" d="M205 726l-64 71l188 140l189 -140l-66 -71l-123 93zM258 244h165l-82 224zM515 0l-50 126h-252l-51 -126h-160l269 667h141l263 -667h-160z"/>
<glyph glyph-name="Atilde" horiz-adv-x="677" unicode="Ã" d="M464 867l71 -50q-16 -32 -42 -58q-31 -31 -71 -31q-23 0 -62 16l-41 16q-29 11 -37 11q-31 0 -46 -39l-71 50q18 39 37 59q29 30 73 30q26 0 60 -14l40 -16q33 -12 41 -12q32 0 48 38zM258 244h165l-82 224zM515 0l-50 126h-252l-51 -126h-160l269 667h141l263 -667h-160 z"/>
<glyph glyph-name="Adieresis" horiz-adv-x="677" unicode="Ä" d="M364 811q0 32 23.5 55.5t55.5 23.5t55.5 -23.5t23.5 -55.5t-23.5 -55.5t-55.5 -23.5t-55.5 23.5t-23.5 55.5zM146 811q0 32 23.5 55.5t55.5 23.5t55.5 -23.5t23.5 -55.5t-23.5 -55.5t-55.5 -23.5t-55.5 23.5t-23.5 55.5zM258 244h165l-82 224zM515 0l-50 126h-252 l-51 -126h-160l269 667h141l263 -667h-160z"/>
<glyph glyph-name="Aring" horiz-adv-x="677" unicode="Å" d="M316 866q-22 0 -34 -12t-12 -27t12 -27t34 -12t34 12t12 27t-12 27t-34 12zM432 827q0 -39 -27 -66q-34 -32 -89 -32t-89 32q-27 27 -27 66t27 66q34 32 89 32t89 -32q27 -27 27 -66zM258 244h165l-82 224zM515 0l-50 126h-252l-51 -126h-160l269 667h141l263 -667h-160z "/>
<glyph glyph-name="AE" horiz-adv-x="920" unicode="Æ" d="M261 247h168l-82 219zM522 0l-51 129h-255l-50 -129h-160l273 667h379l48 -130h-232l51 -129h230l50 -130h-231l59 -148h232l49 -130h-392z"/>
<glyph glyph-name="Ccedilla" horiz-adv-x="605" unicode="Ç" d="M385 -46l100 -44l-112 -146l-80 40zM555 198v-177q-71 -36 -147 -36q-163 0 -262 97q-104 101 -104 253q0 150 104 251q99 96 249 96q74 0 160 -37v-178q-67 71 -156 71q-82 0 -136 -52q-63 -61 -63 -154q0 -91 58 -147q56 -56 144 -56q83 0 153 69z"/>
<glyph glyph-name="Egrave" horiz-adv-x="502" unicode="È" d="M285 724l-164 129l96 72l133 -148zM450 667v-130h-223v-129h212v-130h-212v-148h223v-130h-377v667h377z"/>
<glyph glyph-name="Eacute" horiz-adv-x="502" unicode="É" d="M325 925l95 -72l-164 -129l-65 53zM450 667v-130h-223v-129h212v-130h-212v-148h223v-130h-377v667h377z"/>
<glyph glyph-name="Ecircumflex" horiz-adv-x="502" unicode="Ê" d="M129 726l-64 71l188 140l189 -140l-66 -71l-123 93zM449 667v-130h-223v-129h212v-130h-212v-148h223v-130h-377v667h377z"/>
<glyph glyph-name="Edieresis" horiz-adv-x="502" unicode="Ë" d="M285 811q0 32 23.5 55.5t55.5 23.5t55.5 -23.5t23.5 -55.5t-23.5 -55.5t-55.5 -23.5t-55.5 23.5t-23.5 55.5zM67 811q0 32 23.5 55.5t55.5 23.5t55.5 -23.5t23.5 -55.5t-23.5 -55.5t-55.5 -23.5t-55.5 23.5t-23.5 55.5zM450 667v-130h-223v-129h212v-130h-212v-148h223 v-130h-377v667h377z"/>
<glyph glyph-name="Igrave" horiz-adv-x="306" unicode="Ì" d="M169 724l-164 129l96 72l133 -148zM76 667h154v-667h-154v667z"/>
<glyph glyph-name="Iacute" horiz-adv-x="306" unicode="Í" d="M209 925l95 -72l-164 -129l-65 53zM76 667h154v-667h-154v667z"/>
<glyph glyph-name="Icircumflex" horiz-adv-x="306" unicode="Î" d="M20 726l-64 71l188 140l189 -140l-66 -71l-123 93zM76 667h154v-667h-154v667z"/>
<glyph glyph-name="Idieresis" horiz-adv-x="306" unicode="Ï" d="M179 811q0 32 23.5 55.5t55.5 23.5t55.5 -23.5t23.5 -55.5t-23.5 -55.5t-55.5 -23.5t-55.5 23.5t-23.5 55.5zM-39 811q0 32 23.5 55.5t55.5 23.5t55.5 -23.5t23.5 -55.5t-23.5 -55.5t-55.5 -23.5t-55.5 23.5t-23.5 55.5zM76 667h154v-667h-154v667z"/>
<glyph glyph-name="Eth" horiz-adv-x="712" unicode="Ð" d="M254 537v-124h120v-110h-120v-173h41q98 0 152 45q65 54 65 161q0 89 -55 144q-57 57 -162 57h-41zM100 413v254h211q168 0 263 -92q96 -93 96 -239q0 -145 -91 -236q-99 -100 -263 -100h-216v303h-90v110h90z"/>
<glyph glyph-name="Ntilde" horiz-adv-x="796" unicode="Ñ" d="M519 867l71 -50q-16 -32 -42 -58q-31 -31 -71 -31q-23 0 -62 16l-41 16q-29 11 -37 11q-31 0 -46 -39l-71 50q18 39 37 59q29 30 73 30q26 0 60 -14l40 -16q33 -12 41 -12q32 0 48 38zM227 0h-154v667h134l362 -430v430h154v-667h-134l-362 432v-432z"/>
<glyph glyph-name="Ograve" horiz-adv-x="810" unicode="Ò" d="M420 724l-164 129l96 72l133 -148zM405 540q-89 0 -146 -57q-59 -57 -59 -151q0 -90 61 -150q58 -55 143 -55q91 0 148 57q58 56 58 149q0 92 -58 150q-59 57 -147 57zM406 682q158 0 258 -97q104 -101 104 -252q0 -149 -104 -250q-101 -98 -258 -98q-158 0 -260 98 q-49 46 -76.5 110.5t-27.5 137.5q0 70 28.5 138.5t74.5 114.5q98 98 261 98z"/>
<glyph glyph-name="Oacute" horiz-adv-x="810" unicode="Ó" d="M460 925l95 -72l-164 -129l-65 53zM405 540q-89 0 -146 -57q-59 -57 -59 -151q0 -90 61 -150q58 -55 143 -55q91 0 148 57q58 56 58 149q0 92 -58 150q-59 57 -147 57zM406 682q158 0 258 -97q104 -101 104 -252q0 -149 -104 -250q-101 -98 -258 -98q-158 0 -260 98 q-49 46 -76.5 110.5t-27.5 137.5q0 70 28.5 138.5t74.5 114.5q98 98 261 98z"/>
<glyph glyph-name="Ocircumflex" horiz-adv-x="810" unicode="Ô" d="M271 726l-64 71l188 140l189 -140l-66 -71l-123 93zM405 540q-89 0 -146 -57q-59 -57 -59 -151q0 -90 61 -150q58 -55 143 -55q91 0 148 57q58 56 58 149q0 92 -58 150q-59 57 -147 57zM406 682q158 0 258 -97q104 -101 104 -252q0 -149 -104 -250q-101 -98 -258 -98 q-158 0 -260 98q-49 46 -76.5 110.5t-27.5 137.5q0 70 28.5 138.5t74.5 114.5q98 98 261 98z"/>
<glyph glyph-name="Otilde" horiz-adv-x="810" unicode="Õ" d="M532 867l71 -50q-16 -32 -42 -58q-31 -31 -71 -31q-23 0 -62 16l-41 16q-29 11 -37 11q-31 0 -46 -39l-71 50q18 39 37 59q29 30 73 30q26 0 60 -14l40 -16q33 -12 41 -12q32 0 48 38zM405 540q-89 0 -146 -57q-59 -57 -59 -151q0 -90 61 -150q58 -55 143 -55 q91 0 148 57q58 56 58 149q0 92 -58 150q-59 57 -147 57zM406 682q158 0 258 -97q104 -101 104 -252q0 -149 -104 -250q-101 -98 -258 -98q-158 0 -260 98q-49 46 -76.5 110.5t-27.5 137.5q0 70 28.5 138.5t74.5 114.5q98 98 261 98z"/>
<glyph glyph-name="Odieresis" horiz-adv-x="810" unicode="Ö" d="M431 811q0 32 23.5 55.5t55.5 23.5t55.5 -23.5t23.5 -55.5t-23.5 -55.5t-55.5 -23.5t-55.5 23.5t-23.5 55.5zM213 811q0 32 23.5 55.5t55.5 23.5t55.5 -23.5t23.5 -55.5t-23.5 -55.5t-55.5 -23.5t-55.5 23.5t-23.5 55.5zM405 540q-89 0 -146 -57q-59 -57 -59 -151 q0 -90 61 -150q58 -55 143 -55q91 0 148 57q58 56 58 149q0 92 -58 150q-59 57 -147 57zM406 682q158 0 258 -97q104 -101 104 -252q0 -149 -104 -250q-101 -98 -258 -98q-158 0 -260 98q-49 46 -76.5 110.5t-27.5 137.5q0 70 28.5 138.5t74.5 114.5q98 98 261 98z"/>
<glyph glyph-name="multiply" d="M47 218l118 118l-118 119l87 87l118 -119l118 119l84 -84l-118 -118l118 -119l-87 -87l-118 119l-119 -118z" unicode="×"/>
<glyph glyph-name="Oslash" horiz-adv-x="822" unicode="Ø" d="M593 434l-284 -283q48 -24 101 -24q91 0 148 57q58 57 58 155q0 53 -23 95zM229 233l283 283q-50 24 -101 24q-89 0 -146 -57q-59 -59 -59 -153q0 -54 23 -97zM30 35l88 87q-70 89 -70 205q0 74 28 142t75 115q98 98 261 98q119 0 209 -58l88 88l83 -80l-87 -87 q69 -93 69 -209q0 -152 -104 -253q-102 -98 -258 -98q-117 0 -210 59l-89 -89z"/>
<glyph glyph-name="Ugrave" horiz-adv-x="710" unicode="Ù" d="M370 724l-164 129l96 72l133 -148zM637 667v-395q0 -135 -74 -211t-208 -76t-208 76t-74 211v395h154v-391q0 -76 35 -112q33 -35 93 -35t93 35q35 36 35 112v391h154z"/>
<glyph glyph-name="Uacute" horiz-adv-x="710" unicode="Ú" d="M410 925l95 -72l-164 -129l-65 53zM637 667v-395q0 -135 -74 -211t-208 -76t-208 76t-74 211v395h154v-391q0 -76 35 -112q33 -35 93 -35t93 35q35 36 35 112v391h154z"/>
<glyph glyph-name="Ucircumflex" horiz-adv-x="710" unicode="Û" d="M221 726l-64 71l188 140l189 -140l-66 -71l-123 93zM637 667v-395q0 -135 -74 -211t-208 -76t-208 76t-74 211v395h154v-391q0 -76 35 -112q33 -35 93 -35t93 35q35 36 35 112v391h154z"/>
<glyph glyph-name="Udieresis" horiz-adv-x="710" unicode="Ü" d="M381 811q0 32 23.5 55.5t55.5 23.5t55.5 -23.5t23.5 -55.5t-23.5 -55.5t-55.5 -23.5t-55.5 23.5t-23.5 55.5zM163 811q0 32 23.5 55.5t55.5 23.5t55.5 -23.5t23.5 -55.5t-23.5 -55.5t-55.5 -23.5t-55.5 23.5t-23.5 55.5zM637 667v-395q0 -135 -74 -211t-208 -76t-208 76 t-74 211v395h154v-391q0 -76 35 -112q33 -35 93 -35t93 35q35 36 35 112v391h154z"/>
<glyph glyph-name="Yacute" horiz-adv-x="632" unicode="Ý" d="M381 925l95 -72l-164 -129l-65 53zM239 0v311l-239 356h182l134 -207l134 207h182l-239 -356v-311h-154z"/>
<glyph glyph-name="Thorn" horiz-adv-x="572" unicode="Þ" d="M227 449v-181h53q59 0 85 25q25 25 25 66q0 42 -25 65q-26 25 -88 25h-50zM73 667h154v-92h79q115 0 177 -55q65 -57 65 -159q0 -103 -57 -160q-59 -59 -172 -59h-92v-142h-154v667z"/>
<glyph glyph-name="germandbls" horiz-adv-x="585" unicode="ß" d="M204 0h-144v510q0 113 55 170q58 60 165 60t165 -56q53 -51 53 -136q0 -53 -27 -94q-21 -30 -55 -46q61 -19 97 -67q38 -51 38 -125q0 -100 -66 -165q-30 -29 -71.5 -44t-70.5 -18t-70 -3h-6v124q64 0 98 30t34 81q0 48 -30 78q-37 37 -102 37v122q46 0 70 21 q25 22 25 60q0 34 -21 55q-22 22 -57 22q-34 0 -57 -24q-23 -25 -23 -82v-510z"/>
<glyph glyph-name="agrave" horiz-adv-x="598" unicode="à" d="M295 515l-152 135l95 65l122 -152zM294 337q-47 0 -79 -32q-33 -33 -33 -81t30 -80q33 -35 85 -35q44 0 75 31q35 33 35 84t-33 82q-32 31 -80 31zM398 396v50h144v-446h-144v54q-45 -69 -132 -69q-103 0 -167 68q-65 69 -65 167q0 111 69 180q61 61 155 61q92 0 140 -65 z"/>
<glyph glyph-name="aacute" horiz-adv-x="598" unicode="á" d="M347 715l94 -65l-152 -135l-65 48zM294 337q-47 0 -79 -32q-33 -33 -33 -81t30 -80q33 -35 85 -35q44 0 75 31q35 33 35 84t-33 82q-32 31 -80 31zM398 396v50h144v-446h-144v54q-45 -69 -132 -69q-103 0 -167 68q-65 69 -65 167q0 111 69 180q61 61 155 61q92 0 140 -65 z"/>
<glyph glyph-name="acircumflex" horiz-adv-x="598" unicode="â" d="M269 610l-119 -95l-64 69l183 142l184 -142l-66 -69zM294 337q-47 0 -79 -32q-33 -33 -33 -81t30 -80q33 -35 85 -35q44 0 75 31q35 33 35 84t-33 82q-32 31 -80 31zM398 396v50h144v-446h-144v54q-45 -69 -132 -69q-103 0 -167 68q-65 69 -65 167q0 111 69 180 q61 61 155 61q92 0 140 -65z"/>
<glyph glyph-name="atilde" horiz-adv-x="598" unicode="ã" d="M404 657l66 -44q-15 -37 -39 -63q-30 -30 -70 -30q-19 0 -59 14l-35 13q-33 13 -49 13q-29 0 -43 -37l-65 44q12 39 34 63q27 30 71 30q29 0 62 -13l34 -13q37 -14 53 -14q31 0 40 37zM294 337q-47 0 -79 -32q-33 -33 -33 -81t30 -80q33 -35 85 -35q44 0 75 31 q35 33 35 84t-33 82q-32 31 -80 31zM398 396v50h144v-446h-144v54q-45 -69 -132 -69q-103 0 -167 68q-65 69 -65 167q0 111 69 180q61 61 155 61q92 0 140 -65z"/>
<glyph glyph-name="adieresis" horiz-adv-x="598" unicode="ä" d="M92 599q0 32 23.5 55.5t55.5 23.5t55.5 -23.5t23.5 -55.5t-23.5 -55.5t-55.5 -23.5t-55.5 23.5t-23.5 55.5zM310 599q0 32 23.5 55.5t55.5 23.5t55.5 -23.5t23.5 -55.5t-23.5 -55.5t-55.5 -23.5t-55.5 23.5t-23.5 55.5zM294 337q-47 0 -79 -32q-33 -33 -33 -81t30 -80 q33 -35 85 -35q44 0 75 31q35 33 35 84t-33 82q-32 31 -80 31zM398 396v50h144v-446h-144v54q-45 -69 -132 -69q-103 0 -167 68q-65 69 -65 167q0 111 69 180q61 61 155 61q92 0 140 -65z"/>
<glyph glyph-name="aring" horiz-adv-x="598" unicode="å" d="M270 650q-19 0 -31 -9q-13 -11 -13 -27t13 -27q12 -9 31 -9t31 9q13 11 13 27t-13 27q-12 9 -31 9zM384 614q0 -38 -27 -65q-33 -31 -87 -31t-87 31q-27 27 -27 65t27 65q33 31 87 31t87 -31q27 -27 27 -65zM294 337q-47 0 -79 -32q-33 -33 -33 -81t30 -80q33 -35 85 -35 q44 0 75 31q35 33 35 84t-33 82q-32 31 -80 31zM398 396v50h144v-446h-144v54q-45 -69 -132 -69q-103 0 -167 68q-65 69 -65 167q0 111 69 180q61 61 155 61q92 0 140 -65z"/>
<glyph glyph-name="ae" horiz-adv-x="840" unicode="æ" d="M484 284h187q-6 33 -29 54q-25 23 -64 23q-40 0 -62 -21q-22 -20 -32 -56zM247 191q-45 0 -66 -23q-13 -13 -13 -31q0 -17 13 -31q23 -23 65 -23q47 0 70 23q13 13 13 31q0 17 -13 31q-23 23 -69 23zM666 144l135 -9q-25 -76 -87 -116q-52 -34 -136 -34q-69 0 -109 20 q-32 16 -64 53q-29 -39 -75 -57q-41 -16 -107 -16q-101 0 -150 49q-39 39 -39 100q0 56 37 93q52 52 157 52q60 0 105 -27v9q0 40 -26 66q-28 28 -87 28q-49 0 -115 -22v110q64 18 131 18q118 0 165 -77q59 77 171 77q111 0 174 -68q60 -65 60 -181v-14h-326q2 -47 30 -77 q25 -28 73 -28q31 0 51 12q22 13 32 39z"/>
<glyph glyph-name="ccedilla" horiz-adv-x="431" unicode="ç" d="M255 -46l94 -44l-118 -146l-74 40zM391 436v-131q-41 34 -94 34q-50 0 -82 -32q-33 -33 -33 -84q0 -48 30 -80q33 -36 87 -36q51 0 92 35v-130q-49 -27 -114 -27q-104 0 -173 67q-70 68 -70 170q0 106 74 176q67 63 170 63q60 0 113 -25z"/>
<glyph glyph-name="egrave" horiz-adv-x="547" unicode="è" d="M265 515l-152 135l95 65l122 -152zM513 213v-15h-333q0 -46 27 -76q26 -28 74 -28q36 0 58 13q17 9 31 37l136 -14q-23 -73 -86 -112q-55 -33 -141 -33q-114 0 -178 64q-67 67 -67 172q0 106 68 176q64 64 171 64q113 0 177 -67q63 -67 63 -181zM185 284h195 q-8 32 -29 52q-27 25 -68 25q-44 0 -73 -29q-20 -21 -25 -48z"/>
<glyph glyph-name="eacute" horiz-adv-x="547" unicode="é" d="M327 715l94 -65l-152 -135l-65 48zM513 213v-15h-333q0 -46 27 -76q26 -28 74 -28q36 0 58 13q17 9 31 37l136 -14q-23 -73 -86 -112q-55 -33 -141 -33q-114 0 -178 64q-67 67 -67 172q0 106 68 176q64 64 171 64q113 0 177 -67q63 -67 63 -181zM185 284h195 q-8 32 -29 52q-27 25 -68 25q-44 0 -73 -29q-20 -21 -25 -48z"/>
<glyph glyph-name="ecircumflex" horiz-adv-x="547" unicode="ê" d="M259 610l-119 -95l-64 69l183 142l184 -142l-66 -69zM513 213v-15h-333q0 -46 27 -76q26 -28 74 -28q36 0 58 13q17 9 31 37l136 -14q-23 -73 -86 -112q-55 -33 -141 -33q-114 0 -178 64q-67 67 -67 172q0 106 68 176q64 64 171 64q113 0 177 -67q63 -67 63 -181z M185 284h195q-8 32 -29 52q-27 25 -68 25q-44 0 -73 -29q-20 -21 -25 -48z"/>
<glyph glyph-name="edieresis" horiz-adv-x="547" unicode="ë" d="M73 599q0 32 23.5 55.5t55.5 23.5t55.5 -23.5t23.5 -55.5t-23.5 -55.5t-55.5 -23.5t-55.5 23.5t-23.5 55.5zM291 599q0 32 23.5 55.5t55.5 23.5t55.5 -23.5t23.5 -55.5t-23.5 -55.5t-55.5 -23.5t-55.5 23.5t-23.5 55.5zM513 213v-15h-333q0 -46 27 -76q26 -28 74 -28 q36 0 58 13q17 9 31 37l136 -14q-23 -73 -86 -112q-55 -33 -141 -33q-114 0 -178 64q-67 67 -67 172q0 106 68 176q64 64 171 64q113 0 177 -67q63 -67 63 -181zM185 284h195q-8 32 -29 52q-27 25 -68 25q-44 0 -73 -29q-20 -21 -25 -48z"/>
<glyph glyph-name="igrave" horiz-adv-x="276" unicode="ì" d="M139 515l-133 135l96 65l102 -152zM66 446h144v-446h-144v446z"/>
<glyph glyph-name="iacute" horiz-adv-x="276" unicode="í" d="M175 715l94 -65l-132 -135l-65 48zM66 446h144v-446h-144v446z"/>
<glyph glyph-name="icircumflex" horiz-adv-x="276" unicode="î" d="M138 602l-94 -87l-65 69l159 142l159 -142l-66 -69zM66 446h144v-446h-144v446z"/>
<glyph glyph-name="idieresis" horiz-adv-x="276" unicode="ï" d="M-27 599q0 32 21 55.5t50 23.5q27 0 49 -21.5t22 -57.5t-22 -57.5t-49 -21.5q-29 0 -50 23.5t-21 55.5zM161 599q0 36 22 57.5t49 21.5q29 0 50 -23.5t21 -55.5t-21 -55.5t-50 -23.5q-27 0 -49 21.5t-22 57.5zM66 446h144v-446h-144v446z"/>
<glyph glyph-name="eth" horiz-adv-x="580" unicode="ð" d="M286 327q-44 0 -73 -29q-31 -31 -31 -81t31 -81q29 -29 73 -29t73 29q31 31 31 81t-31 81q-29 29 -73 29zM71 596l36 96q135 -3 230 -53l151 60l35 -72l-109 -43q62 -51 94 -128t32 -173q0 -155 -80 -234q-65 -64 -174 -64q-110 0 -180 66q-72 68 -72 172q0 94 59 155 q61 65 169 65q79 0 132 -47q-9 50 -37 84q-25 32 -63 53l-197 -85l-32 69l143 60q-60 19 -127 19h-10z"/>
<glyph glyph-name="ntilde" horiz-adv-x="567" unicode="ñ" d="M404 657l66 -44q-15 -37 -39 -63q-30 -30 -70 -30q-19 0 -59 14l-35 13q-33 13 -49 13q-29 0 -43 -37l-65 44q12 39 34 63q27 30 71 30q29 0 62 -13l34 -13q37 -14 53 -14q31 0 40 37zM56 0v446h144v-53q51 65 138 65q83 0 128 -45t45 -131v-282h-144v229q0 65 -24 89 q-20 20 -55 20q-38 0 -60 -24q-28 -28 -28 -85v-229h-144z"/>
<glyph glyph-name="ograve" horiz-adv-x="592" unicode="ò" d="M280 515l-152 135l95 65l122 -152zM296 339q-49 0 -81 -32q-33 -33 -33 -84t33 -84q32 -32 82 -32q48 0 80 32q33 33 33 84t-33 84q-32 32 -81 32zM558 223q0 -99 -67 -166q-72 -72 -195 -72t-195 72q-67 67 -67 166t67 166q72 72 195 72t195 -72q67 -67 67 -166z"/>
<glyph glyph-name="oacute" horiz-adv-x="592" unicode="ó" d="M347 715l94 -65l-152 -135l-65 48zM296 339q-49 0 -81 -32q-33 -33 -33 -84t33 -84q32 -32 82 -32q48 0 80 32q33 33 33 84t-33 84q-32 32 -81 32zM558 223q0 -99 -67 -166q-72 -72 -195 -72t-195 72q-67 67 -67 166t67 166q72 72 195 72t195 -72q67 -67 67 -166z"/>
<glyph glyph-name="ocircumflex" horiz-adv-x="592" unicode="ô" d="M281 610l-119 -95l-64 69l183 142l184 -142l-66 -69zM296 339q-49 0 -81 -32q-33 -33 -33 -84t33 -84q32 -32 82 -32q48 0 80 32q33 33 33 84t-33 84q-32 32 -81 32zM558 223q0 -99 -67 -166q-72 -72 -195 -72t-195 72q-67 67 -67 166t67 166q72 72 195 72t195 -72 q67 -67 67 -166z"/>
<glyph glyph-name="otilde" horiz-adv-x="592" unicode="õ" d="M412 657l66 -44q-15 -37 -39 -63q-30 -30 -70 -30q-19 0 -59 14l-35 13q-33 13 -49 13q-29 0 -43 -37l-65 44q12 39 34 63q27 30 71 30q29 0 62 -13l34 -13q37 -14 53 -14q31 0 40 37zM296 339q-49 0 -81 -32q-33 -33 -33 -84t33 -84q32 -32 82 -32q48 0 80 32 q33 33 33 84t-33 84q-32 32 -81 32zM558 223q0 -99 -67 -166q-72 -72 -195 -72t-195 72q-67 67 -67 166t67 166q72 72 195 72t195 -72q67 -67 67 -166z"/>
<glyph glyph-name="odieresis" horiz-adv-x="592" unicode="ö" d="M96 599q0 32 23.5 55.5t55.5 23.5t55.5 -23.5t23.5 -55.5t-23.5 -55.5t-55.5 -23.5t-55.5 23.5t-23.5 55.5zM314 599q0 32 23.5 55.5t55.5 23.5t55.5 -23.5t23.5 -55.5t-23.5 -55.5t-55.5 -23.5t-55.5 23.5t-23.5 55.5zM296 339q-49 0 -81 -32q-33 -33 -33 -84t33 -84 q32 -32 82 -32q48 0 80 32q33 33 33 84t-33 84q-32 32 -81 32zM558 223q0 -99 -67 -166q-72 -72 -195 -72t-195 72q-67 67 -67 166t67 166q72 72 195 72t195 -72q67 -67 67 -166z"/>
<glyph glyph-name="divide" d="M177 168q0 30 21.5 51.5t51.5 21.5t51.5 -21.5t21.5 -51.5t-21.5 -51.5t-51.5 -21.5t-51.5 21.5t-21.5 51.5zM177 510q0 30 21.5 51.5t51.5 21.5t51.5 -21.5t21.5 -51.5t-21.5 -51.5t-51.5 -21.5t-51.5 21.5t-21.5 51.5zM33 282v116h434v-116h-434z" unicode="÷"/>
<glyph glyph-name="oslash" horiz-adv-x="616" unicode="ø" d="M416 274l-155 -155q25 -12 53 -12q46 0 80 32q33 33 33 84q0 30 -11 51zM210 171l156 156q-24 12 -53 12q-50 0 -81 -32q-33 -33 -33 -84q0 -28 11 -52zM582 440l-63 -63q56 -65 56 -152q0 -101 -67 -168q-72 -72 -197 -72q-82 0 -147 37l-77 -77l-53 50l74 74 q-57 63 -57 152q0 101 67 168q74 72 195 72q80 0 149 -37l67 67z"/>
<glyph glyph-name="ugrave" horiz-adv-x="570" unicode="ù" d="M269 515l-152 135l95 65l122 -152zM56 446h144v-246q0 -49 25 -72q23 -21 60 -21q38 0 61 21q24 23 24 72v246h144v-260q0 -46 -9.5 -79.5t-40.5 -63.5q-59 -58 -179 -58q-121 0 -180 58q-49 48 -49 134v269z"/>
<glyph glyph-name="uacute" horiz-adv-x="570" unicode="ú" d="M346 715l94 -65l-152 -135l-65 48zM56 446h144v-246q0 -49 25 -72q23 -21 60 -21q38 0 61 21q24 23 24 72v246h144v-260q0 -46 -9.5 -79.5t-40.5 -63.5q-59 -58 -179 -58q-121 0 -180 58q-49 48 -49 134v269z"/>
<glyph glyph-name="ucircumflex" horiz-adv-x="570" unicode="û" d="M270 610l-119 -95l-64 69l183 142l184 -142l-66 -69zM56 446h144v-246q0 -49 25 -72q23 -21 60 -21q38 0 61 21q24 23 24 72v246h144v-260q0 -46 -9.5 -79.5t-40.5 -63.5q-59 -58 -179 -58q-121 0 -180 58q-49 48 -49 134v269z"/>
<glyph glyph-name="udieresis" horiz-adv-x="570" unicode="ü" d="M85 599q0 32 23.5 55.5t55.5 23.5t55.5 -23.5t23.5 -55.5t-23.5 -55.5t-55.5 -23.5t-55.5 23.5t-23.5 55.5zM303 599q0 32 23.5 55.5t55.5 23.5t55.5 -23.5t23.5 -55.5t-23.5 -55.5t-55.5 -23.5t-55.5 23.5t-23.5 55.5zM56 446h144v-246q0 -49 25 -72q23 -21 60 -21 q38 0 61 21q24 23 24 72v246h144v-260q0 -46 -9.5 -79.5t-40.5 -63.5q-59 -58 -179 -58q-121 0 -180 58q-49 48 -49 134v269z"/>
<glyph glyph-name="yacute" horiz-adv-x="585" unicode="ý" d="M354 715l94 -65l-152 -135l-65 48zM58 -229l157 286l-213 389h166l126 -242l123 242h162l-359 -675h-162z"/>
<glyph glyph-name="thorn" horiz-adv-x="598" unicode="þ" d="M304 337q-47 0 -80 -33q-34 -34 -34 -82q0 -45 32 -79q34 -34 82 -34q44 0 77 31q35 33 35 85q0 49 -34 81q-33 31 -78 31zM200 51v-280h-144v958h144v-336q52 68 139 68q95 0 158 -63q67 -67 67 -174q0 -108 -71 -179q-60 -60 -151 -60q-95 0 -142 66z"/>
<glyph glyph-name="OE" horiz-adv-x="1032" unicode="Œ" d="M400 540q-81 0 -139 -55q-61 -58 -61 -152q0 -92 61 -151q58 -55 139 -55t139 55q61 59 61 151q0 94 -61 152q-58 55 -139 55zM980 667v-130h-217v-129h206v-130h-206v-148h217v-130h-369v82q-84 -97 -224 -97q-144 0 -238 91q-107 105 -107 255q0 154 108 258 q98 93 247 93q136 0 214 -95v80h369z"/>
<glyph glyph-name="oe" horiz-adv-x="904" unicode="œ" d="M544 284h195q-8 32 -29 52q-27 25 -68 25q-44 0 -73 -29q-20 -21 -25 -48zM289 339q-42 0 -72 -28q-35 -33 -35 -88q0 -54 34 -88q30 -28 73 -28t73 28q34 34 34 88q0 55 -35 88q-30 28 -72 28zM732 144l132 -9q-18 -72 -78 -112q-55 -38 -144 -38q-125 0 -181 82 q-62 -82 -182 -82q-110 0 -176 64q-69 66 -69 169q0 112 67 177q66 66 183 66q118 0 182 -73q58 73 170 73q111 0 171 -62q63 -64 63 -189v-12h-330q3 -47 29 -76q26 -28 74 -28q68 0 89 50z"/>
<glyph glyph-name="Scaron" horiz-adv-x="550" unicode="Š" d="M279 844l123 93l66 -70l-189 -141l-188 141l64 70zM486 616l-69 -112q-53 48 -112 48q-44 0 -65 -23q-17 -17 -17 -42q0 -24 15 -37q5 -4 10 -7.5t14 -7.5t15 -6.5t21 -8t24 -8.5l50 -19q63 -24 91 -51q49 -46 49 -124q0 -104 -59 -165q-65 -68 -189 -68q-76 0 -132 28 q-50 25 -98 73l80 110q34 -34 62 -51q39 -24 84 -24q43 0 70 23q24 20 24 54q0 28 -23 48q-18 15 -78 37l-55 19q-65 23 -93 53q-40 42 -40 116q0 91 58 150q60 61 165 61q109 0 198 -66z"/>
<glyph glyph-name="scaron" horiz-adv-x="434" unicode="š" d="M229 631l118 95l66 -68l-184 -143l-183 143l64 68zM386 423l-57 -91q-42 25 -79 25q-28 0 -41 -13q-9 -9 -9 -20q0 -12 14 -20q3 -1 43 -15l38 -12q48 -15 74 -39q35 -32 35 -85q0 -71 -46 -117q-51 -51 -145 -51q-110 0 -183 64l61 97q26 -22 49 -33q28 -14 60 -14 t45 10q15 12 15 29q0 16 -16 26q-11 7 -44 16l-36 11q-45 14 -72 41q-32 34 -32 81q0 63 43 103q49 45 135 45q83 0 148 -38z"/>
<glyph glyph-name="Ydieresis" horiz-adv-x="632" unicode="Ÿ" d="M342 811q0 32 23.5 55.5t55.5 23.5t55.5 -23.5t23.5 -55.5t-23.5 -55.5t-55.5 -23.5t-55.5 23.5t-23.5 55.5zM124 811q0 32 23.5 55.5t55.5 23.5t55.5 -23.5t23.5 -55.5t-23.5 -55.5t-55.5 -23.5t-55.5 23.5t-23.5 55.5zM239 0v311l-239 356h182l134 -207l134 207h182 l-239 -356v-311h-154z"/>
<glyph glyph-name="circumflex" d="M249 610l-119 -95l-64 69l183 142l184 -142l-66 -69z" unicode="ˆ"/>
<glyph glyph-name="tilde" d="M364 657l66 -44q-15 -37 -39 -63q-30 -30 -70 -30q-19 0 -59 14l-35 13q-33 13 -49 13q-29 0 -43 -37l-65 44q12 39 34 63q27 30 71 30q29 0 62 -13l34 -13q37 -14 53 -14q31 0 40 37z" unicode="˜"/>
<glyph glyph-name="uni0394" horiz-adv-x="669" unicode="Δ" d="M334 484l-129 -368h257zM651 0h-633l247 667h136z"/>
<glyph glyph-name="uni03BC" horiz-adv-x="566" unicode="μ" d="M224 -229h-141v675h144v-215q0 -92 35 -121q19 -16 48 -16t48 16q35 29 35 121v215h144v-446h-141v58q-12 -33 -31 -50q-20 -18 -55 -18t-55 18q-21 18 -31 50v-287z"/>
<glyph glyph-name="pi" horiz-adv-x="676" unicode="π" d="M286 0h-144v330h-76v116h604v-116h-76v-330h-144v330h-164v-330z"/>
<glyph glyph-name="afii10023" horiz-adv-x="502" unicode="Ё" d="M292 799q0 31 22 53t53 22t53 -22t22 -53t-22 -53t-53 -22t-53 22t-22 53zM83 799q0 31 21.5 53t53.5 22t53.5 -22t21.5 -53t-21.5 -53t-53.5 -22t-53.5 22t-21.5 53zM450 667v-130h-223v-129h212v-130h-212v-148h223v-130h-377v667h377z"/>
<glyph glyph-name="afii10051" horiz-adv-x="676" unicode="Ђ" d="M138 0v537h-130v130h504v-130h-220v-145q61 23 120 23q84 0 141 -31q97 -53 97 -181q0 -119 -81 -172q-57 -37 -156 -37q-21 0 -57 6v122q27 -6 54 -6q35 0 56 16q26 20 26 66q0 55 -37 75q-22 12 -63 12q-48 0 -100 -23v-262h-154z"/>
<glyph glyph-name="afii10052" horiz-adv-x="459" unicode="Ѓ" d="M325 925l95 -72l-164 -129l-65 53zM447 667v-130h-220v-537h-154v667h374z"/>
<glyph glyph-name="afii10053" horiz-adv-x="623" unicode="Є" d="M573 194v-162q-80 -47 -198 -47q-71 0 -129 18t-109 70q-95 97 -95 262q0 164 96 258q90 89 244 89q99 0 191 -48v-164q-37 32 -69 47q-50 25 -110 25q-84 0 -133 -44q-42 -37 -54 -99h256v-124h-257q9 -69 61 -111q48 -39 131 -39q62 0 107 22q34 16 68 47z"/>
<glyph glyph-name="afii10054" horiz-adv-x="550" unicode="Ѕ" d="M486 616l-69 -112q-53 48 -112 48q-44 0 -65 -23q-17 -17 -17 -42q0 -24 15 -37q5 -4 10 -7.5t14 -7.5t15 -6.5t21 -8t24 -8.5l50 -19q63 -24 91 -51q49 -46 49 -124q0 -104 -59 -165q-65 -68 -189 -68q-76 0 -132 28q-50 25 -98 73l80 110q34 -34 62 -51q39 -24 84 -24 q43 0 70 23q24 20 24 54q0 28 -23 48q-18 15 -78 37l-55 19q-65 23 -93 53q-40 42 -40 116q0 91 58 150q60 61 165 61q109 0 198 -66z"/>
<glyph glyph-name="afii10055" horiz-adv-x="306" unicode="І" d="M76 667h154v-667h-154v667z"/>
<glyph glyph-name="afii10056" horiz-adv-x="337" unicode="Ї" d="M9 811q0 32 20.5 55.5t49.5 23.5t49.5 -23.5t20.5 -55.5t-20.5 -55.5t-49.5 -23.5t-49.5 23.5t-20.5 55.5zM188 811q0 32 20.5 55.5t49.5 23.5t49.5 -23.5t20.5 -55.5t-20.5 -55.5t-49.5 -23.5t-49.5 23.5t-20.5 55.5zM92 667h154v-667h-154v667z"/>
<glyph glyph-name="afii10057" horiz-adv-x="415" unicode="Ј" d="M188 667h154v-454q0 -121 -58 -178q-50 -50 -141 -50q-66 0 -106 24q-35 22 -63 56l96 108q13 -26 24 -37q15 -15 38 -15q22 0 36 14q20 20 20 79v453z"/>
<glyph glyph-name="afii10058" horiz-adv-x="983" unicode="Љ" d="M624 283v-159h68q55 0 80 18q29 19 29 62q0 46 -28 63q-22 16 -80 16h-69zM470 0v537h-181v-229q0 -195 -67 -263q-53 -53 -150 -53q-32 0 -62 8v138q17 -6 38 -6q39 0 61 22q30 30 30 140v373h485v-260h94q124 0 183 -56q56 -53 56 -148t-54 -147q-59 -56 -190 -56h-243 z"/>
<glyph glyph-name="afii10059" horiz-adv-x="1006" unicode="Њ" d="M647 283v-159h68q55 0 80 18q29 19 29 62q0 46 -28 63q-22 16 -80 16h-69zM493 0v283h-266v-283h-154v667h154v-254h266v254h154v-260h94q124 0 183 -56q56 -53 56 -148t-54 -147q-59 -56 -190 -56h-243z"/>
<glyph glyph-name="afii10060" horiz-adv-x="721" unicode="Ћ" d="M138 0v537h-130v130h504v-130h-220v-132q72 10 133 10q139 0 198 -56q50 -47 50 -136v-223h-154v176q0 59 -24 82q-27 27 -105 27q-53 0 -98 -8v-277h-154z"/>
<glyph glyph-name="afii10061" horiz-adv-x="670" unicode="Ќ" d="M390 925l95 -72l-164 -129l-65 53zM227 667v-278l228 278h188l-270 -316l291 -351h-198l-239 296v-296h-154v667h154z"/>
<glyph glyph-name="afii10062" horiz-adv-x="622" unicode="Ў" d="M381 887l106 -45q-24 -57 -76 -90q-47 -28 -123 -28q-75 0 -122 28q-52 33 -76 90l106 45q13 -32 33 -48q23 -17 61 -17q36 0 59 17q23 18 32 48zM4 667h172l140 -308l134 308h166l-305 -667h-166l97 192z"/>
<glyph glyph-name="afii10145" horiz-adv-x="701" unicode="Џ" d="M73 0v667h154v-537h247v537h154v-667h-208v-166h-138v166h-209z"/>
<glyph glyph-name="afii10017" horiz-adv-x="677" unicode="А" d="M258 244h165l-82 224zM515 0l-50 126h-252l-51 -126h-160l269 667h141l263 -667h-160z"/>
<glyph glyph-name="afii10018" horiz-adv-x="597" unicode="Б" d="M227 124h61q56 0 83 21q26 23 26 59q0 41 -30 62q-25 18 -79 18h-61v-160zM73 0v667h412v-130h-258v-133h86q125 0 188 -62q54 -54 54 -139q0 -89 -54 -143q-60 -60 -201 -60h-227z"/>
<glyph glyph-name="afii10019" horiz-adv-x="594" unicode="В" d="M225 282v-162h37q85 0 114 27q22 20 22 56q0 35 -21 54q-27 25 -110 25h-42zM225 547v-151h25q52 0 78 19q27 19 27 59q0 36 -26 56q-22 17 -80 17h-24zM73 667h204q116 0 170 -51q48 -46 48 -126q0 -50 -22 -85q-20 -33 -56 -49q56 -9 92 -45q43 -43 43 -119 q0 -83 -52 -135q-59 -57 -176 -57h-251v667z"/>
<glyph glyph-name="afii10020" horiz-adv-x="459" unicode="Г" d="M447 667v-130h-220v-537h-154v667h374z"/>
<glyph glyph-name="afii10021" horiz-adv-x="701" unicode="Д" d="M286 539v-149q0 -108 -13 -156q-17 -62 -60 -106h251v411h-178zM138 667h478v-539h75v-278h-138v150h-409v-150h-138v278q47 9 75 37q26 24 39.5 66.5t15.5 73t2 80.5v282z"/>
<glyph glyph-name="afii10022" horiz-adv-x="502" unicode="Е" d="M450 667v-130h-223v-129h212v-130h-212v-148h223v-130h-377v667h377z"/>
<glyph glyph-name="afii10024" horiz-adv-x="941" unicode="Ж" d="M393 0v299l-201 -299h-186l250 346l-236 321h176l197 -286v286h154v-286l197 286h176l-236 -321l251 -346h-186l-202 299v-299h-154z"/>
<glyph glyph-name="afii10025" horiz-adv-x="590" unicode="З" d="M128 489l-68 118q40 33 91 51q63 24 130 24q117 0 179 -61q51 -50 51 -131q0 -50 -26 -87q-23 -33 -64 -49q51 -15 82 -47q45 -45 45 -119q0 -78 -54 -134q-68 -69 -201 -69q-96 0 -160 29q-52 22 -103 70l86 113q30 -35 68 -55q41 -21 91 -21q48 0 77 20q32 23 32 62 q0 33 -24 53q-32 25 -127 25h-25v124h23q82 0 110 26q19 17 19 45q0 32 -27 52q-24 18 -70 18q-39 0 -75 -17q-30 -13 -60 -40z"/>
<glyph glyph-name="afii10026" horiz-adv-x="745" unicode="И" d="M73 667h154v-436l309 444h136v-675h-154v437l-309 -445h-136v675z"/>
<glyph glyph-name="afii10027" horiz-adv-x="745" unicode="Й" d="M465 887l106 -45q-24 -57 -76 -90q-47 -28 -123 -28q-75 0 -122 28q-52 33 -76 90l106 45q13 -32 33 -48q23 -17 61 -17q36 0 59 17q23 18 32 48zM73 667h154v-436l309 444h136v-675h-154v437l-309 -445h-136v675z"/>
<glyph glyph-name="afii10028" horiz-adv-x="670" unicode="К" d="M227 667v-278l228 278h188l-270 -316l291 -351h-198l-239 296v-296h-154v667h154z"/>
<glyph glyph-name="afii10029" horiz-adv-x="697" unicode="Л" d="M139 667h485v-667h-154v537h-181v-229q0 -195 -67 -263q-53 -53 -150 -53q-32 0 -62 8v138q17 -6 38 -6q39 0 61 22q30 30 30 140v373z"/>
<glyph glyph-name="afii10030" horiz-adv-x="886" unicode="М" d="M196 0h-154l107 667h128l166 -399l166 399h128l107 -667h-154l-53 398l-167 -398h-54l-167 398z"/>
<glyph glyph-name="afii10031" horiz-adv-x="720" unicode="Н" d="M227 667v-254h266v254h154v-667h-154v283h-266v-283h-154v667h154z"/>
<glyph glyph-name="afii10032" horiz-adv-x="810" unicode="О" d="M405 540q-89 0 -146 -57q-59 -57 -59 -151q0 -90 61 -150q58 -55 143 -55q91 0 148 57q58 56 58 149q0 92 -58 150q-59 57 -147 57zM406 682q158 0 258 -97q104 -101 104 -252q0 -149 -104 -250q-101 -98 -258 -98q-158 0 -260 98q-49 46 -76.5 110.5t-27.5 137.5 q0 70 28.5 138.5t74.5 114.5q98 98 261 98z"/>
<glyph glyph-name="afii10033" horiz-adv-x="707" unicode="П" d="M73 667h561v-667h-154v537h-253v-537h-154v667z"/>
<glyph glyph-name="afii10034" horiz-adv-x="572" unicode="Р" d="M227 541v-181h55q57 0 83 25q25 25 25 66q0 42 -25 65q-26 25 -86 25h-52zM73 667h235q113 0 175 -55q65 -57 65 -162q0 -98 -57 -157q-58 -59 -170 -59h-94v-234h-154v667z"/>
<glyph glyph-name="afii10035" horiz-adv-x="605" unicode="С" d="M555 198v-177q-71 -36 -147 -36q-163 0 -262 97q-104 101 -104 253q0 150 104 251q99 96 249 96q74 0 160 -37v-178q-67 71 -156 71q-82 0 -136 -52q-63 -61 -63 -154q0 -91 58 -147q56 -56 144 -56q83 0 153 69z"/>
<glyph glyph-name="afii10036" horiz-adv-x="460" unicode="Т" d="M452 537h-146v-537h-154v537h-144v130h444v-130z"/>
<glyph glyph-name="afii10037" horiz-adv-x="622" unicode="У" d="M4 667h172l140 -308l134 308h166l-305 -667h-166l97 192z"/>
<glyph glyph-name="afii10038" horiz-adv-x="852" unicode="Ф" d="M497 498v-281h6q78 0 117 39q36 36 36 101q0 66 -36 102q-39 39 -117 39h-6zM355 498h-6q-78 0 -117 -39q-36 -36 -36 -102q0 -65 36 -101q39 -39 117 -39h6v281zM349 0v93h-8q-158 0 -236 83q-63 68 -63 183q0 110 65 179q47 49 113.5 66.5t120.5 17.5h8v92h154v-92h8 q31 0 64.5 -4.5t85 -24.5t84.5 -55q65 -69 65 -179q0 -115 -63 -183q-78 -83 -236 -83h-8v-93h-154z"/>
<glyph glyph-name="afii10039" horiz-adv-x="686" unicode="Х" d="M10 0l245 354l-207 313h185l110 -190l110 190h185l-207 -313l245 -354h-185l-148 231l-148 -231h-185z"/>
<glyph glyph-name="afii10040" horiz-adv-x="728" unicode="Ц" d="M73 0v667h154v-537h247v537h154v-537h90v-280h-138v150h-507z"/>
<glyph glyph-name="afii10041" horiz-adv-x="646" unicode="Ч" d="M419 0v266q-58 -10 -113 -10q-145 0 -207 59q-51 49 -51 147v205h154v-174q0 -58 29 -81q27 -22 97 -22q48 0 91 8v269h154v-667h-154z"/>
<glyph glyph-name="afii10042" horiz-adv-x="986" unicode="Ш" d="M73 0v667h154v-537h189v537h154v-537h189v537h154v-667h-840z"/>
<glyph glyph-name="afii10043" horiz-adv-x="1013" unicode="Щ" d="M865 0h-792v667h154v-537h189v537h154v-537h189v537h154v-537h90v-280h-138v150z"/>
<glyph glyph-name="afii10044" horiz-adv-x="660" unicode="Ъ" d="M301 283v-159h68q55 0 80 18q29 19 29 62q0 46 -28 63q-22 16 -80 16h-69zM147 0v537h-139v130h293v-260h94q124 0 183 -56q56 -52 56 -147t-54 -148q-59 -56 -190 -56h-243z"/>
<glyph glyph-name="afii10045" horiz-adv-x="847" unicode="Ы" d="M227 283v-159h68q55 0 80 18q29 19 29 62q0 46 -28 63q-22 16 -80 16h-69zM73 0v667h154v-260h92q124 0 183 -56q56 -53 56 -148t-54 -147q-59 -56 -190 -56h-241zM620 667h154v-667h-154v667z"/>
<glyph glyph-name="afii10046" horiz-adv-x="586" unicode="Ь" d="M227 283v-159h68q55 0 80 18q29 19 29 62q0 46 -28 63q-22 16 -80 16h-69zM73 0v667h154v-260h94q124 0 183 -56q56 -53 56 -148t-54 -147q-59 -56 -190 -56h-243z"/>
<glyph glyph-name="afii10047" horiz-adv-x="623" unicode="Э" d="M50 32v162q34 -31 68 -47q45 -22 107 -22q83 0 131 39q52 41 63 111h-259v124h258q-12 61 -56 99q-49 44 -133 44q-60 0 -110 -25q-32 -15 -69 -47v164q92 48 191 48q154 0 244 -89q96 -94 96 -258q0 -165 -95 -262q-51 -52 -109 -70t-129 -18q-118 0 -198 47z"/>
<glyph glyph-name="afii10048" horiz-adv-x="1058" unicode="Ю" d="M662 540q-84 0 -137 -53q-61 -61 -61 -154q0 -89 54 -146q56 -60 146 -60q78 0 131 50q63 59 63 159q0 91 -56 149q-53 55 -140 55zM227 412h89q20 105 94 177q94 93 250 93q158 0 255 -96q101 -99 101 -248q0 -157 -101 -256q-97 -97 -256 -97q-155 0 -253 99 q-82 83 -92 198h-87v-282h-154v667h154v-255z"/>
<glyph glyph-name="afii10049" horiz-adv-x="602" unicode="Я" d="M375 361v180h-36q-62 0 -91 -24q-29 -26 -29 -67q0 -40 26 -64q28 -25 94 -25h36zM529 667v-667h-154v243h-20l-157 -243h-178l192 261q-57 10 -95 47q-56 52 -56 148q0 89 54 146q63 65 185 65h229z"/>
<glyph glyph-name="afii10065" horiz-adv-x="598" unicode="а" d="M294 337q-47 0 -79 -32q-33 -33 -33 -81t30 -80q33 -35 85 -35q44 0 75 31q35 33 35 84t-33 82q-32 31 -80 31zM398 396v50h144v-446h-144v54q-45 -69 -132 -69q-103 0 -167 68q-65 69 -65 167q0 111 69 180q61 61 155 61q92 0 140 -65z"/>
<glyph glyph-name="afii10066" horiz-adv-x="601" unicode="б" d="M304 338q-48 0 -80 -32q-34 -34 -34 -84q0 -48 33 -81q32 -32 83 -32q43 0 75 29q38 35 38 88q0 44 -33 79q-33 33 -82 33zM422 730h126q-7 -73 -53 -117q-33 -33 -108 -54l-50 -14q-92 -26 -121 -52q-40 -37 -46 -94h5q56 61 153 61q108 0 173 -63q66 -64 66 -164 q0 -109 -72 -179q-70 -69 -190 -69q-115 0 -184 66q-79 78 -79 230q0 207 88 301q52 55 160 79l27 6q78 17 94 35q11 12 11 28z"/>
<glyph glyph-name="afii10067" horiz-adv-x="502" unicode="в" d="M200 96h65q30 0 43 12q14 12 14 35q0 19 -14 31t-49 12h-59v-90zM200 268h59q23 0 36 9q15 11 15 33q0 20 -13 31q-12 9 -40 9h-57v-82zM56 446h239q77 0 111 -29q36 -31 36 -87q0 -45 -27 -72q-14 -16 -37 -24q39 -8 65 -32q29 -29 29 -76q0 -53 -33 -86 q-40 -40 -111 -40h-272v446z"/>
<glyph glyph-name="afii10068" horiz-adv-x="366" unicode="г" d="M56 0v446h300v-118h-156v-328h-144z"/>
<glyph glyph-name="afii10069" horiz-adv-x="573" unicode="д" d="M355 110v226h-119v-85q0 -49 -10 -82q-10 -32 -40 -59h169zM104 446h395v-336h66v-236h-128v126h-305v-126h-128v236q35 4 61 28q25 23 32 55t7 80v173z"/>
<glyph glyph-name="afii10070" horiz-adv-x="547" unicode="е" d="M513 213v-15h-333q0 -46 27 -76q26 -28 74 -28q36 0 58 13q17 9 31 37l136 -14q-23 -73 -86 -112q-55 -33 -141 -33q-114 0 -178 64q-67 67 -67 172q0 106 68 176q64 64 171 64q113 0 177 -67q63 -67 63 -181zM185 284h195q-8 32 -29 52q-27 25 -68 25q-44 0 -73 -29 q-20 -21 -25 -48z"/>
<glyph glyph-name="afii10072" horiz-adv-x="762" unicode="ж" d="M311 446h140v-179l127 179h164l-162 -209l180 -237h-176l-133 193v-193h-140v193l-133 -193h-176l180 237l-162 209h164l127 -179v179z"/>
<glyph glyph-name="afii10073" horiz-adv-x="463" unicode="з" d="M96 312l-55 96q36 23 74 37q45 16 105 16q104 0 151 -46q33 -32 33 -82q0 -48 -27 -76q-18 -18 -38 -25q37 -9 60 -32q30 -29 30 -74q0 -54 -39 -93q-49 -48 -164 -48q-69 0 -122 20q-44 17 -80 47l61 95q27 -23 55 -36q33 -14 69 -14q33 0 52 11q20 12 20 34 q0 20 -21 30q-19 8 -52 8h-54v98h41q35 0 54 8q21 10 21 30q0 19 -22 29q-19 8 -45 8q-31 0 -59 -12t-48 -29z"/>
<glyph glyph-name="afii10074" horiz-adv-x="580" unicode="и" d="M56 446h144v-255l190 255h134v-446h-144v259l-190 -259h-134v446z"/>
<glyph glyph-name="afii10075" horiz-adv-x="580" unicode="й" d="M371 665l100 -39q-19 -56 -64 -85q-43 -28 -117 -28t-117 28q-45 29 -64 85l100 39q6 -29 26 -46q21 -18 55 -18t55 18q20 17 26 46zM56 446h144v-255l190 255h134v-446h-144v259l-190 -259h-134v446z"/>
<glyph glyph-name="afii10076" horiz-adv-x="540" unicode="к" d="M56 0v446h144v-177l146 177h179l-191 -207l204 -239h-186l-152 198v-198h-144z"/>
<glyph glyph-name="afii10077" horiz-adv-x="548" unicode="л" d="M492 446v-446h-144v330h-117v-137q0 -102 -44 -152q-43 -47 -123 -47q-29 0 -56 7v114q10 -3 25 -3q29 0 44 16q18 24 18 71v247h397z"/>
<glyph glyph-name="afii10078" horiz-adv-x="664" unicode="м" d="M24 0l78 446h114l116 -248l116 248h114l78 -446h-138l-36 237l-110 -237h-48l-110 237l-36 -237h-138z"/>
<glyph glyph-name="afii10079" horiz-adv-x="561" unicode="н" d="M56 0v446h144v-155h161v155h144v-446h-144v175h-161v-175h-144z"/>
<glyph glyph-name="afii10080" horiz-adv-x="592" unicode="о" d="M296 339q-49 0 -81 -32q-33 -33 -33 -84t33 -84q32 -32 82 -32q48 0 80 32q33 33 33 84t-33 84q-32 32 -81 32zM558 223q0 -99 -67 -166q-72 -72 -195 -72t-195 72q-67 67 -67 166t67 166q72 72 195 72t195 -72q67 -67 67 -166z"/>
<glyph glyph-name="afii10081" horiz-adv-x="555" unicode="п" d="M56 0v446h443v-446h-144v330h-155v-330h-144z"/>
<glyph glyph-name="afii10082" horiz-adv-x="598" unicode="р" d="M304 337q-47 0 -80 -33q-34 -34 -34 -82q0 -45 32 -79q34 -34 82 -34q44 0 77 31q35 33 35 85q0 49 -34 81q-33 31 -78 31zM200 51v-280h-144v675h144v-53q52 68 139 68q95 0 158 -63q67 -67 67 -174q0 -108 -71 -179q-60 -60 -151 -60q-95 0 -142 66z"/>
<glyph glyph-name="afii10083" horiz-adv-x="431" unicode="с" d="M391 436v-131q-41 34 -94 34q-50 0 -82 -32q-33 -33 -33 -84q0 -48 30 -80q33 -36 87 -36q51 0 92 35v-130q-49 -27 -114 -27q-104 0 -173 67q-70 68 -70 170q0 106 74 176q67 63 170 63q60 0 113 -25z"/>
<glyph glyph-name="afii10084" horiz-adv-x="400" unicode="т" d="M392 330h-120v-330h-144v330h-120v116h384v-116z"/>
<glyph glyph-name="afii10085" horiz-adv-x="585" unicode="у" d="M58 -229l157 286l-213 389h166l126 -242l123 242h162l-359 -675h-162z"/>
<glyph glyph-name="afii10086" horiz-adv-x="718" unicode="ф" d="M294 109v228h-7q-52 0 -83 -31q-29 -29 -29 -81q0 -51 29 -82q31 -34 86 -34h4zM424 337v-228h4q55 0 86 34q29 31 29 82q0 52 -29 81q-31 31 -83 31h-7zM431 -229h-144v222h-6q-113 0 -183 67q-64 62 -64 165q0 112 77 174q68 54 169 54h7v214h144v-214h7q101 0 169 -54 q77 -62 77 -174q0 -103 -64 -165q-70 -67 -183 -67h-6v-222z"/>
<glyph glyph-name="afii10087" horiz-adv-x="620" unicode="х" d="M2 0l218 243l-177 203h184l83 -103l83 103h184l-177 -203l218 -243h-186l-122 144l-122 -144h-186z"/>
<glyph glyph-name="afii10088" horiz-adv-x="575" unicode="ц" d="M56 0v446h144v-330h152v330h144v-330h73v-242h-128v126h-385z"/>
<glyph glyph-name="afii10089" horiz-adv-x="518" unicode="ч" d="M318 0v150q-44 -11 -90 -11q-102 0 -147 43q-41 39 -41 115v149h142v-129q0 -33 18 -49q17 -15 58 -15q34 0 60 9v184h144v-446h-144z"/>
<glyph glyph-name="afii10090" horiz-adv-x="804" unicode="ш" d="M56 0v446h144v-330h130v330h144v-330h130v330h144v-446h-692z"/>
<glyph glyph-name="afii10091" horiz-adv-x="827" unicode="щ" d="M693 0h-637v446h144v-330h130v330h144v-330h130v330h144v-330h73v-242h-128v126z"/>
<glyph glyph-name="afii10092" horiz-adv-x="552" unicode="ъ" d="M265 102h59q31 0 44 12q14 12 14 34q0 21 -14 32t-43 11h-60v-89zM265 293h104q81 0 123 -42q36 -36 36 -101q0 -72 -40 -111t-125 -39h-242v330h-115v116h259v-153z"/>
<glyph glyph-name="afii10093" horiz-adv-x="703" unicode="ы" d="M200 102h59q31 0 44 12q14 12 14 34q0 21 -14 32t-43 11h-60v-89zM200 293h99q79 0 121 -42q37 -37 37 -102q0 -71 -40 -110t-123 -39h-238v446h144v-153zM505 446h142v-446h-142v446z"/>
<glyph glyph-name="afii10094" horiz-adv-x="487" unicode="ь" d="M200 102h59q31 0 44 12q14 12 14 34q0 21 -14 32t-43 11h-60v-89zM200 293h106q79 0 121 -42q36 -36 36 -101q0 -72 -40 -111t-123 -39h-244v446h144v-153z"/>
<glyph glyph-name="afii10095" horiz-adv-x="460" unicode="э" d="M38 12v134q50 -45 122 -45q48 0 76 18q30 19 40 57h-170v98h170q-13 35 -44 54q-28 17 -73 17q-68 0 -121 -46v131q69 31 145 31q115 0 179 -64q64 -66 64 -169q0 -113 -68 -181q-62 -62 -181 -62q-75 0 -139 27z"/>
<glyph glyph-name="afii10096" horiz-adv-x="789" unicode="ю" d="M496 339q-47 0 -77 -28q-35 -33 -35 -89q0 -48 31 -81q33 -34 81 -34q46 0 76 29q35 34 35 89q0 51 -32 83q-31 31 -79 31zM200 285h56q11 60 54 104q70 72 186 72q118 0 191 -71q68 -66 68 -166q0 -105 -67 -172t-187 -67t-184 62q-50 46 -63 122h-54v-169h-144v446h144 v-161z"/>
<glyph glyph-name="afii10097" horiz-adv-x="492" unicode="я" d="M292 243v101h-51q-31 0 -45 -11q-17 -14 -17 -41q0 -21 14 -35q16 -14 51 -14h48zM18 0l128 161q-46 8 -77 39q-34 33 -34 90q0 69 41 110q47 46 147 46h213v-446h-144v149h-14l-104 -149h-156z"/>
<glyph glyph-name="afii10071" horiz-adv-x="547" unicode="ё" d="M302 609q0 33 22.5 55.5t55.5 22.5t55.5 -22.5t22.5 -55.5t-22.5 -55.5t-55.5 -22.5t-55.5 22.5t-22.5 55.5zM88 609q0 33 22.5 55.5t55.5 22.5t55.5 -22.5t22.5 -55.5t-22.5 -55.5t-55.5 -22.5t-55.5 22.5t-22.5 55.5zM185 284h195q-8 32 -29 52q-27 25 -68 25 q-44 0 -73 -29q-20 -21 -25 -48zM513 213v-15h-333q0 -46 27 -76q26 -28 74 -28q36 0 58 13q17 9 31 37l136 -14q-23 -73 -86 -112q-55 -33 -141 -33q-114 0 -178 64q-67 67 -67 172q0 106 68 176q64 64 171 64q113 0 177 -67q63 -67 63 -181z"/>
<glyph glyph-name="afii10099" horiz-adv-x="583" unicode="ђ" d="M70 0v502h-80v94h80v133h144v-133h192v-94h-192v-149q25 31 54 46q36 19 87 19q82 0 126 -45q44 -44 44 -130v-293q0 -98 -37 -137q-40 -42 -126 -42q-36 0 -80 10v114q14 -6 37 -6q29 0 45 16q17 17 17 73v211q0 66 -24 89q-20 20 -56 20q-35 0 -57 -22q-30 -29 -30 -93 v-183h-144z"/>
<glyph glyph-name="afii10100" horiz-adv-x="366" unicode="ѓ" d="M255 715l94 -65l-152 -135l-65 48zM56 0v446h300v-118h-156v-328h-144z"/>
<glyph glyph-name="afii10101" horiz-adv-x="460" unicode="є" d="M422 146v-134q-64 -27 -139 -27q-119 0 -181 62q-68 68 -68 181q0 103 64 169q64 64 179 64q76 0 145 -31v-131q-53 46 -121 46q-45 0 -73 -17q-31 -19 -44 -54h170v-98h-170q10 -38 40 -57q28 -18 76 -18q72 0 122 45z"/>
<glyph glyph-name="afii10102" horiz-adv-x="434" unicode="ѕ" d="M386 423l-57 -91q-42 25 -79 25q-28 0 -41 -13q-9 -9 -9 -20q0 -12 14 -20q3 -1 43 -15l38 -12q48 -15 74 -39q35 -32 35 -85q0 -71 -46 -117q-51 -51 -145 -51q-110 0 -183 64l61 97q26 -22 49 -33q28 -14 60 -14t45 10q15 12 15 29q0 16 -16 26q-11 7 -44 16l-36 11 q-45 14 -72 41q-32 34 -32 81q0 63 43 103q49 45 135 45q83 0 148 -38z"/>
<glyph glyph-name="afii10103" horiz-adv-x="276" unicode="і" d="M54 636q0 35 24.5 59.5t59.5 24.5t59.5 -24.5t24.5 -59.5t-24.5 -59.5t-59.5 -24.5t-59.5 24.5t-24.5 59.5zM66 446h144v-446h-144v446z"/>
<glyph glyph-name="afii10104" horiz-adv-x="340" unicode="ї" d="M82 720q27 0 48.5 -21.5t21.5 -57.5t-21.5 -57.5t-48.5 -21.5t-48.5 21.5t-21.5 57.5t21.5 57.5t48.5 21.5zM258 720q27 0 48.5 -21.5t21.5 -57.5t-21.5 -57.5t-48.5 -21.5t-48.5 21.5t-21.5 57.5t21.5 57.5t48.5 21.5zM97 446h144v-446h-144v446z"/>
<glyph glyph-name="afii10105" horiz-adv-x="276" unicode="ј" d="M54 636q0 35 24.5 59.5t59.5 24.5t59.5 -24.5t24.5 -59.5t-24.5 -59.5t-59.5 -24.5t-59.5 24.5t-24.5 59.5zM66 446h144v-675h-144v675z"/>
<glyph glyph-name="afii10106" horiz-adv-x="779" unicode="љ" d="M492 102h59q31 0 44 12q14 12 14 34q0 21 -14 32t-43 11h-60v-89zM492 293h106q79 0 121 -42q36 -36 36 -101q0 -72 -40 -111t-123 -39h-244v330h-117v-137q0 -102 -44 -152q-43 -47 -123 -47q-29 0 -56 7v114q10 -3 25 -3q29 0 44 16q18 24 18 71v247h397v-153z"/>
<glyph glyph-name="afii10107" horiz-adv-x="792" unicode="њ" d="M505 102h59q31 0 44 12q14 12 14 34q0 21 -14 32t-43 11h-60v-89zM505 293h106q79 0 121 -42q36 -36 36 -101q0 -72 -40 -111t-123 -39h-244v191h-161v-191h-144v446h144v-153h161v153h144v-153z"/>
<glyph glyph-name="afii10108" horiz-adv-x="581" unicode="ћ" d="M70 0v502h-80v94h80v133h144v-133h192v-94h-192v-149q25 31 54 46q36 19 87 19q82 0 126 -45q44 -44 44 -130v-243h-144v189q0 66 -24 89q-20 20 -56 20q-35 0 -57 -22q-30 -29 -30 -93v-183h-144z"/>
<glyph glyph-name="afii10109" horiz-adv-x="540" unicode="ќ" d="M331 715l94 -65l-152 -135l-65 48zM56 0v446h144v-177l146 177h179l-191 -207l204 -239h-186l-152 198v-198h-144z"/>
<glyph glyph-name="afii10110" horiz-adv-x="585" unicode="ў" d="M386 665l100 -39q-19 -56 -64 -85q-43 -28 -117 -28t-117 28q-45 29 -64 85l100 39q6 -29 26 -46q21 -18 55 -18t55 18q20 17 26 46zM58 -229l157 286l-213 389h166l126 -242l123 242h162l-359 -675h-162z"/>
<glyph glyph-name="afii10193" horiz-adv-x="552" unicode="џ" d="M56 0v446h144v-330h152v330h144v-446h-156v-136h-128v136h-156z"/>
<glyph glyph-name="afii10146" horiz-adv-x="641" unicode="Ѣ" d="M282 283v-159h68q55 0 80 18q29 19 29 62q0 46 -28 63q-22 16 -80 16h-69zM128 0v481h-120v120h120v113h154v-113h166v-120h-166v-74h94q124 0 183 -56q56 -53 56 -148t-54 -147q-59 -56 -190 -56h-243z"/>
<glyph glyph-name="afii10194" horiz-adv-x="533" unicode="ѣ" d="M246 102h59q31 0 44 12q14 12 14 34q0 21 -14 32t-43 11h-60v-89zM246 352v-65h106q79 0 121 -42q36 -36 36 -101q0 -66 -40 -105t-123 -39h-244v352h-96v94h96v221h144v-221h154v-94h-154z"/>
<glyph glyph-name="afii10147" horiz-adv-x="810" unicode="Ѳ" d="M601 269h-393q18 -66 66 -102q50 -40 132 -40q79 0 129 38q51 39 66 104zM210 399h390q-16 66 -69 104q-50 37 -127 37q-76 0 -129 -43q-46 -37 -65 -98zM406 682q158 0 258 -97q104 -101 104 -252q0 -149 -104 -250q-101 -98 -258 -98q-158 0 -260 98 q-49 46 -76.5 110.5t-27.5 137.5q0 70 28.5 138.5t74.5 114.5q98 98 261 98z"/>
<glyph glyph-name="afii10195" horiz-adv-x="592" unicode="ѳ" d="M405 188h-218q8 -38 33 -61q28 -26 76 -26q44 0 72 23t37 64zM189 266h214q-11 36 -36 57q-28 22 -71 22q-50 0 -79 -29q-19 -19 -28 -50zM558 223q0 -99 -67 -166q-72 -72 -195 -72t-195 72q-67 67 -67 166t67 166q72 72 195 72t195 -72q67 -67 67 -166z"/>
<glyph glyph-name="afii10148" horiz-adv-x="678" unicode="Ѵ" d="M4 667h166l169 -427l169 427h166l-283 -667h-104z"/>
<glyph glyph-name="afii10196" horiz-adv-x="546" unicode="ѵ" d="M2 446h158l113 -239l113 239h158l-226 -446h-90z"/>
<glyph glyph-name="afii10050" horiz-adv-x="482" unicode="Ґ" d="M73 667h256v150h138v-279v-1h-240v-537h-154v667z"/>
<glyph glyph-name="afii10098" horiz-adv-x="411" unicode="ґ" d="M56 0v446h212v126h128v-244h-196v-328h-144z"/>
<glyph glyph-name="uni0492" horiz-adv-x="502" unicode="Ғ" d="M472 667v-130h-220v-129h162v-124h-162v-284h-154v284h-98v124h98v259h374z"/>
<glyph glyph-name="uni0493" horiz-adv-x="388" unicode="ғ" d="M78 0v142h-73v96h73v208h300v-118h-156v-90h107v-96h-107v-142h-144z"/>
<glyph glyph-name="uni0494" horiz-adv-x="611" unicode="Ҕ" d="M467 667v-130h-240v-145q59 23 117 23q86 0 144 -31q97 -52 97 -181q0 -119 -81 -172q-57 -37 -156 -37q-21 0 -57 6v122q27 -6 54 -6q35 0 56 16q26 20 26 66q0 55 -37 75q-22 12 -63 12q-48 0 -100 -23v-262h-154v667h394z"/>
<glyph glyph-name="uni0495" horiz-adv-x="484" unicode="ҕ" d="M56 0v446h300v-118h-156v-90h14q63 0 108 -12.5t79 -47.5q53 -54 53 -142q0 -110 -70 -176q-67 -62 -175 -68v112q37 3 67 31q34 34 34 91q0 51 -29 78q-26 24 -76 24h-5v-128h-144z"/>
<glyph glyph-name="uni0496" horiz-adv-x="942" unicode="Җ" d="M393 0v299l-201 -299h-186l250 346l-236 321h176l197 -286v286h154v-286l197 286h176l-236 -321l158 -216h90v-280h-138v150h-45l-202 299v-299h-154z"/>
<glyph glyph-name="uni0497" horiz-adv-x="767" unicode="җ" d="M311 446h140v-179l127 179h164l-162 -209l88 -121h79v-242h-128v126h-35l-133 193v-193h-140v193l-133 -193h-176l180 237l-162 209h164l127 -179v179z"/>
<glyph glyph-name="uni0498" horiz-adv-x="590" unicode="Ҙ" d="M128 489l-68 118q40 33 91 51q63 24 130 24q117 0 179 -61q51 -50 51 -131q0 -50 -26 -87q-23 -33 -64 -49q51 -15 82 -47q45 -45 45 -117q0 -80 -54 -136q-53 -56 -133 -64v-156h-138v154q-104 12 -193 96l86 113q30 -35 68 -55q41 -21 91 -21q48 0 77 20q32 23 32 62 q0 33 -24 53q-32 25 -127 25h-25v124h23q82 0 110 26q19 17 19 45q0 32 -27 52q-24 18 -70 18q-39 0 -75 -17q-30 -13 -60 -40z"/>
<glyph glyph-name="uni0499" horiz-adv-x="463" unicode="ҙ" d="M96 312l-55 96q36 23 74 37q45 16 105 16q92 0 139 -37q45 -35 45 -96q0 -43 -27 -71q-15 -17 -38 -25q36 -8 60 -32q30 -30 30 -73q0 -55 -39 -94q-38 -39 -95 -43v-126h-128v125q-79 8 -143 63l61 95q27 -23 55 -36q33 -14 69 -14q33 0 52 11q20 12 20 34q0 20 -21 30 q-19 8 -52 8h-54v98h41q35 0 54 8q21 10 21 30q0 19 -22 29q-19 8 -45 8q-31 0 -59 -12t-48 -29z"/>
<glyph glyph-name="uni049A" horiz-adv-x="654" unicode="Қ" d="M227 667v-278l228 278h188l-270 -316l181 -221h90v-280h-138v150h-40l-239 296v-296h-154v667h154z"/>
<glyph glyph-name="uni049B" horiz-adv-x="527" unicode="қ" d="M56 0v446h144v-177l146 177h179l-191 -207l105 -123h79v-242h-128v126h-38l-152 198v-198h-144z"/>
<glyph glyph-name="uni049C" horiz-adv-x="771" unicode="Ҝ" d="M73 667h154v-266h59v150h104v-150l188 266h174l-229 -312l242 -355h-184l-191 299v-155h-104v155h-59v-299h-154v667z"/>
<glyph glyph-name="uni049D" horiz-adv-x="614" unicode="ҝ" d="M56 446h144v-175h48v99h82v-104l118 180h158l-155 -210l161 -236h-164l-118 194v-120h-82v113h-48v-187h-144v446z"/>
<glyph glyph-name="uni04A0" horiz-adv-x="747" unicode="Ҡ" d="M304 667v-278l228 278h188l-270 -316l291 -351h-198l-239 296v-296h-154v537h-144v130h298z"/>
<glyph glyph-name="uni04A1" horiz-adv-x="600" unicode="ҡ" d="M116 0v328h-110v118h254v-177l146 177h179l-191 -207l204 -239h-186l-152 198v-198h-144z"/>
<glyph glyph-name="uni04A2" horiz-adv-x="747" unicode="Ң" d="M227 667v-254h266v254h154v-537h90v-280h-138v150h-106v283h-266v-283h-154v667h154z"/>
<glyph glyph-name="uni04A3" horiz-adv-x="584" unicode="ң" d="M56 0v446h144v-155h161v155h144v-330h73v-242h-128v126h-89v175h-161v-175h-144z"/>
<glyph glyph-name="uni04A4" horiz-adv-x="864" unicode="Ҥ" d="M852 667v-130h-205v-537h-154v283h-266v-283h-154v667h154v-254h266v254h359z"/>
<glyph glyph-name="uni04A5" horiz-adv-x="655" unicode="ҥ" d="M361 0v175h-161v-175h-144v446h144v-155h161v155h286v-118h-142v-328h-144z"/>
<glyph glyph-name="uni04AA" horiz-adv-x="605" unicode="Ҫ" d="M555 198v-177q-41 -21 -84 -30v-157h-138v157q-110 15 -187 91q-104 101 -104 253q0 150 104 251q99 96 249 96q74 0 160 -37v-178q-67 71 -156 71q-82 0 -136 -52q-63 -61 -63 -154q0 -91 58 -147q56 -56 144 -56q83 0 153 69z"/>
<glyph glyph-name="uni04AB" horiz-adv-x="431" unicode="ҫ" d="M391 436v-131q-41 34 -94 34q-50 0 -82 -32q-33 -33 -33 -84q0 -48 30 -80q33 -36 87 -36q51 0 92 35v-130q-24 -15 -50 -20v-128h-128v129q-63 13 -109 59q-70 70 -70 170q0 106 74 176q67 63 170 63q60 0 113 -25z"/>
<glyph glyph-name="uni04AE" horiz-adv-x="632" unicode="Ү" d="M239 0v311l-239 356h182l134 -207l134 207h182l-239 -356v-311h-154z"/>
<glyph glyph-name="uni04AF" horiz-adv-x="520" unicode="ү" d="M2 446h152l106 -247l106 247h152l-186 -395v-280h-144v279z"/>
<glyph glyph-name="uni04B0" horiz-adv-x="632" unicode="Ұ" d="M239 0v179h-179v120h179v12l-239 356h182l134 -207l134 207h182l-239 -356v-12h179v-120h-179v-179h-154z"/>
<glyph glyph-name="uni04B1" horiz-adv-x="520" unicode="ұ" d="M2 446h152l106 -247l106 247h152l-186 -395v-30h140v-100h-140v-150h-144v150h-139v100h139v29z"/>
<glyph glyph-name="uni04B2" horiz-adv-x="684" unicode="Ҳ" d="M10 0l245 354l-207 313h185l110 -190l110 190h185l-207 -313l153 -224h90v-280h-138v150h-45l-148 231l-148 -231h-185z"/>
<glyph glyph-name="uni04B3" horiz-adv-x="595" unicode="ҳ" d="M2 0l218 243l-177 203h184l83 -103l83 103h184l-177 -203l114 -127h79v-242h-128v126h-37l-118 144l-122 -144h-186z"/>
<glyph glyph-name="uni04B6" horiz-adv-x="673" unicode="Ҷ" d="M202 667v-174q0 -58 29 -81q27 -22 97 -22q48 0 91 8v269h154v-537h90v-280h-138v150h-106v266q-58 -10 -113 -10q-145 0 -207 59q-51 49 -51 147v205h154z"/>
<glyph glyph-name="uni04B7" horiz-adv-x="541" unicode="ҷ" d="M407 0h-89v150q-44 -11 -90 -11q-102 0 -147 43q-41 39 -41 115v149h142v-129q0 -33 18 -49q17 -15 58 -15q34 0 60 9v184h144v-330h73v-242h-128v126z"/>
<glyph glyph-name="uni04B8" horiz-adv-x="701" unicode="Ҹ" d="M474 0v274q-42 -8 -77 -8v-141h-104v139h-8q-125 0 -187 62q-50 50 -50 141v200h154v-174q0 -59 23 -83q22 -24 61 -24h7v165h104v-166h13q31 0 64 6v276h154v-667h-154z"/>
<glyph glyph-name="uni04B9" horiz-adv-x="573" unicode="ҹ" d="M373 0v162q-22 -5 -52 -7v-88h-82v82h-11q-100 0 -148 45q-40 36 -40 99v153h140v-134q0 -34 18 -49q16 -13 41 -13v115h82v-115q22 0 52 7v189h144v-446h-144z"/>
<glyph glyph-name="uni04BA" horiz-adv-x="656" unicode="Һ" d="M227 667v-255q72 10 133 10q139 0 198 -56q50 -47 50 -136v-230h-154v183q0 59 -24 82q-27 27 -105 27q-53 0 -98 -8v-284h-154v667h154z"/>
<glyph glyph-name="uni04BB" horiz-adv-x="571" unicode="һ" d="M60 0v729h144v-336q25 31 54 46q36 19 87 19q82 0 126 -45q44 -44 44 -130v-283h-144v229q0 66 -24 89q-20 20 -56 20q-35 0 -57 -22q-30 -29 -30 -93v-223h-144z"/>
<glyph glyph-name="uni04C0" horiz-adv-x="306" unicode="Ӏ" d="M76 667h154v-667h-154v667z"/>
<glyph glyph-name="uni04C1" horiz-adv-x="941" unicode="Ӂ" d="M541 887l106 -45q-24 -57 -76 -90q-47 -28 -123 -28q-75 0 -122 28q-52 33 -76 90l106 45q13 -32 33 -48q23 -17 61 -17q36 0 59 17q23 18 32 48zM393 0v299l-201 -299h-186l250 346l-236 321h176l197 -286v286h154v-286l197 286h176l-236 -321l251 -346h-186l-202 299 v-299h-154z"/>
<glyph glyph-name="uni04C2" horiz-adv-x="762" unicode="ӂ" d="M475 665l100 -39q-19 -56 -64 -85q-43 -28 -117 -28t-117 28q-45 29 -64 85l100 39q6 -29 26 -46q21 -18 55 -18t55 18q20 17 26 46zM311 446h140v-179l127 179h164l-162 -209l180 -237h-176l-133 193v-193h-140v193l-133 -193h-176l180 237l-162 209h164l127 -179v179z "/>
<glyph glyph-name="uni04C3" horiz-adv-x="643" unicode="Ӄ" d="M227 667v-278l228 278h182l-231 -267q97 0 156 -59q50 -50 50 -135q0 -98 -54 -155q-55 -58 -150 -58q-48 0 -92 17l17 118q20 -13 46 -13q38 0 58 25q17 21 17 54q0 47 -31 72t-92 25q-44 0 -104 -12v-279h-154v667h154z"/>
<glyph glyph-name="uni04C4" horiz-adv-x="511" unicode="ӄ" d="M56 0v446h144v-177l138 177h171l-187 -221q67 -10 110 -55q48 -49 48 -134q0 -112 -70 -176q-67 -62 -175 -68v112q37 2 67 32q34 34 34 90q0 54 -31 83q-29 29 -80 29h-25v-138h-144z"/>
<glyph glyph-name="uni04C7" horiz-adv-x="720" unicode="Ӈ" d="M227 667v-254h266v254h154v-736q0 -85 -40 -123q-38 -37 -128 -37q-48 0 -84 10v116q15 -8 38 -8q32 0 46 15t14 57v322h-266v-283h-154v667h154z"/>
<glyph glyph-name="uni04C8" horiz-adv-x="561" unicode="ӈ" d="M56 0v446h144v-155h161v155h144v-496q0 -98 -37 -137q-40 -42 -126 -42q-36 0 -80 10v114q21 -6 37 -6q29 0 45 16q17 17 17 73v197h-161v-175h-144z"/>
<glyph glyph-name="uni04D0" horiz-adv-x="677" unicode="Ӑ" d="M409 887l106 -45q-24 -57 -76 -90q-47 -28 -123 -28q-75 0 -122 28q-52 33 -76 90l106 45q13 -32 33 -48q23 -17 61 -17q36 0 59 17q23 18 32 48zM258 244h165l-82 224zM515 0l-50 126h-252l-51 -126h-160l269 667h141l263 -667h-160z"/>
<glyph glyph-name="uni04D1" horiz-adv-x="598" unicode="ӑ" d="M381 665l100 -39q-19 -56 -64 -85q-43 -28 -117 -28t-117 28q-45 29 -64 85l100 39q6 -29 26 -46q21 -18 55 -18t55 18q20 17 26 46zM294 337q-47 0 -79 -32q-33 -33 -33 -81t30 -80q33 -35 85 -35q44 0 75 31q35 33 35 84t-33 82q-32 31 -80 31zM398 396v50h144v-446 h-144v54q-45 -69 -132 -69q-103 0 -167 68q-65 69 -65 167q0 111 69 180q61 61 155 61q92 0 140 -65z"/>
<glyph glyph-name="uni04D2" horiz-adv-x="677" unicode="Ӓ" d="M364 811q0 32 23.5 55.5t55.5 23.5t55.5 -23.5t23.5 -55.5t-23.5 -55.5t-55.5 -23.5t-55.5 23.5t-23.5 55.5zM146 811q0 32 23.5 55.5t55.5 23.5t55.5 -23.5t23.5 -55.5t-23.5 -55.5t-55.5 -23.5t-55.5 23.5t-23.5 55.5zM258 244h165l-82 224zM515 0l-50 126h-252 l-51 -126h-160l269 667h141l263 -667h-160z"/>
<glyph glyph-name="uni04D3" horiz-adv-x="598" unicode="ӓ" d="M99 599q0 32 23.5 55.5t55.5 23.5t55.5 -23.5t23.5 -55.5t-23.5 -55.5t-55.5 -23.5t-55.5 23.5t-23.5 55.5zM317 599q0 32 23.5 55.5t55.5 23.5t55.5 -23.5t23.5 -55.5t-23.5 -55.5t-55.5 -23.5t-55.5 23.5t-23.5 55.5zM294 337q-47 0 -79 -32q-33 -33 -33 -81t30 -80 q33 -35 85 -35q44 0 75 31q35 33 35 84t-33 82q-32 31 -80 31zM398 396v50h144v-446h-144v54q-45 -69 -132 -69q-103 0 -167 68q-65 69 -65 167q0 111 69 180q61 61 155 61q92 0 140 -65z"/>
<glyph glyph-name="uni04D4" horiz-adv-x="920" unicode="Ӕ" d="M261 247h168l-82 219zM522 0l-51 129h-255l-50 -129h-160l273 667h379l48 -130h-232l51 -129h230l50 -130h-231l59 -148h232l49 -130h-392z"/>
<glyph glyph-name="uni04D5" horiz-adv-x="840" unicode="ӕ" d="M484 284h187q-6 33 -29 54q-25 23 -64 23q-40 0 -62 -21q-22 -20 -32 -56zM247 191q-45 0 -66 -23q-13 -13 -13 -31q0 -17 13 -31q23 -23 65 -23q47 0 70 23q13 13 13 31q0 17 -13 31q-23 23 -69 23zM666 144l135 -9q-25 -76 -87 -116q-52 -34 -136 -34q-69 0 -109 20 q-32 16 -64 53q-29 -39 -75 -57q-41 -16 -107 -16q-101 0 -150 49q-39 39 -39 100q0 56 37 93q52 52 157 52q60 0 105 -27v9q0 40 -26 66q-28 28 -87 28q-49 0 -115 -22v110q64 18 131 18q118 0 165 -77q59 77 171 77q111 0 174 -68q60 -65 60 -181v-14h-326q2 -47 30 -77 q25 -28 73 -28q31 0 51 12q22 13 32 39z"/>
<glyph glyph-name="uni04D6" horiz-adv-x="502" unicode="Ӗ" d="M327 887l106 -45q-24 -57 -76 -90q-47 -28 -123 -28q-75 0 -122 28q-52 33 -76 90l106 45q13 -32 33 -48q23 -17 61 -17q36 0 59 17q23 18 32 48zM445 667v-130h-223v-129h212v-130h-212v-148h223v-130h-377v667h377z"/>
<glyph glyph-name="uni04D7" horiz-adv-x="547" unicode="ӗ" d="M367 665l100 -39q-19 -56 -64 -85q-43 -28 -117 -28t-117 28q-45 29 -64 85l100 39q6 -29 26 -46q21 -18 55 -18t55 18q20 17 26 46zM513 213v-15h-333q0 -46 27 -76q26 -28 74 -28q36 0 58 13q17 9 31 37l136 -14q-23 -73 -86 -112q-55 -33 -141 -33q-114 0 -178 64 q-67 67 -67 172q0 106 68 176q64 64 171 64q113 0 177 -67q63 -67 63 -181zM185 284h195q-8 32 -29 52q-27 25 -68 25q-44 0 -73 -29q-20 -21 -25 -48z"/>
<glyph glyph-name="uni04D8" horiz-adv-x="765" unicode="Ә" d="M559 267h-346q7 -59 44 -97q45 -47 127 -47q75 0 122 42q44 40 53 102zM42 375h520q-7 69 -52 115q-49 50 -134 50q-59 0 -100 -23q-40 -22 -66 -65l-142 55q45 78 115 122q84 53 206 53q146 0 237 -90q97 -95 97 -255q0 -165 -102 -265q-52 -50 -109 -68.5t-130 -18.5 t-126 18.5t-101 66.5q-58 59 -85.5 142.5t-27.5 158.5v4z"/>
<glyph glyph-name="afii10846" horiz-adv-x="547" unicode="ә" d="M34 233v18h332q0 43 -26 72t-72 29q-40 0 -60 -13q-17 -9 -31 -37l-136 14q23 73 86 112q53 33 142 33q113 0 177 -64q67 -69 67 -170q0 -110 -68 -178q-64 -64 -173 -64q-112 0 -175 67t-63 181zM362 168h-195q6 -34 29 -55q27 -25 69 -25q44 0 72 29q20 22 25 51z"/>
<glyph glyph-name="uni04DA" horiz-adv-x="765" unicode="Ӛ" d="M420 811q0 32 23.5 55.5t55.5 23.5t55.5 -23.5t23.5 -55.5t-23.5 -55.5t-55.5 -23.5t-55.5 23.5t-23.5 55.5zM202 811q0 32 23.5 55.5t55.5 23.5t55.5 -23.5t23.5 -55.5t-23.5 -55.5t-55.5 -23.5t-55.5 23.5t-23.5 55.5zM559 267h-346q7 -59 44 -97q45 -47 127 -47 q75 0 122 42q44 40 53 102zM42 375h520q-7 69 -52 115q-49 50 -134 50q-59 0 -100 -23q-40 -22 -66 -65l-142 55q45 78 115 122q84 53 206 53q146 0 237 -90q97 -95 97 -255q0 -165 -102 -265q-52 -50 -109 -68.5t-130 -18.5t-126 18.5t-101 66.5q-58 59 -85.5 142.5 t-27.5 158.5v4z"/>
<glyph glyph-name="uni04DB" horiz-adv-x="547" unicode="ӛ" d="M72 599q0 32 23.5 55.5t55.5 23.5t55.5 -23.5t23.5 -55.5t-23.5 -55.5t-55.5 -23.5t-55.5 23.5t-23.5 55.5zM290 599q0 32 23.5 55.5t55.5 23.5t55.5 -23.5t23.5 -55.5t-23.5 -55.5t-55.5 -23.5t-55.5 23.5t-23.5 55.5zM34 233v18h332q0 43 -26 72t-72 29q-40 0 -60 -13 q-17 -9 -31 -37l-136 14q23 73 86 112q53 33 142 33q113 0 177 -64q67 -69 67 -170q0 -110 -68 -178q-64 -64 -173 -64q-112 0 -175 67t-63 181zM362 168h-195q6 -34 29 -55q27 -25 69 -25q44 0 72 29q20 22 25 51z"/>
<glyph glyph-name="uni04DC" horiz-adv-x="941" unicode="Ӝ" d="M490 811q0 32 23.5 55.5t55.5 23.5t55.5 -23.5t23.5 -55.5t-23.5 -55.5t-55.5 -23.5t-55.5 23.5t-23.5 55.5zM272 811q0 32 23.5 55.5t55.5 23.5t55.5 -23.5t23.5 -55.5t-23.5 -55.5t-55.5 -23.5t-55.5 23.5t-23.5 55.5zM393 0v299l-201 -299h-186l250 346l-236 321h176 l197 -286v286h154v-286l197 286h176l-236 -321l251 -346h-186l-202 299v-299h-154z"/>
<glyph glyph-name="uni04DD" horiz-adv-x="762" unicode="ӝ" d="M181 599q0 32 23.5 55.5t55.5 23.5t55.5 -23.5t23.5 -55.5t-23.5 -55.5t-55.5 -23.5t-55.5 23.5t-23.5 55.5zM399 599q0 32 23.5 55.5t55.5 23.5t55.5 -23.5t23.5 -55.5t-23.5 -55.5t-55.5 -23.5t-55.5 23.5t-23.5 55.5zM311 446h140v-179l127 179h164l-162 -209 l180 -237h-176l-133 193v-193h-140v193l-133 -193h-176l180 237l-162 209h164l127 -179v179z"/>
<glyph glyph-name="uni04DE" horiz-adv-x="590" unicode="Ӟ" d="M310 811q0 32 23.5 55.5t55.5 23.5t55.5 -23.5t23.5 -55.5t-23.5 -55.5t-55.5 -23.5t-55.5 23.5t-23.5 55.5zM92 811q0 32 23.5 55.5t55.5 23.5t55.5 -23.5t23.5 -55.5t-23.5 -55.5t-55.5 -23.5t-55.5 23.5t-23.5 55.5zM128 489l-68 118q40 33 91 51q63 24 130 24 q117 0 179 -61q51 -50 51 -131q0 -50 -26 -87q-23 -33 -64 -49q51 -15 82 -47q45 -45 45 -119q0 -78 -54 -134q-68 -69 -201 -69q-96 0 -160 29q-52 22 -103 70l86 113q30 -35 68 -55q41 -21 91 -21q48 0 77 20q32 23 32 62q0 33 -24 53q-32 25 -127 25h-25v124h23 q82 0 110 26q19 17 19 45q0 32 -27 52q-24 18 -70 18q-39 0 -75 -17q-30 -13 -60 -40z"/>
<glyph glyph-name="uni04DF" horiz-adv-x="463" unicode="ӟ" d="M22 599q0 32 23.5 55.5t55.5 23.5t55.5 -23.5t23.5 -55.5t-23.5 -55.5t-55.5 -23.5t-55.5 23.5t-23.5 55.5zM240 599q0 32 23.5 55.5t55.5 23.5t55.5 -23.5t23.5 -55.5t-23.5 -55.5t-55.5 -23.5t-55.5 23.5t-23.5 55.5zM96 312l-55 96q36 23 74 37q45 16 105 16 q104 0 151 -46q33 -32 33 -82q0 -48 -27 -76q-18 -18 -38 -25q37 -9 60 -32q30 -29 30 -74q0 -54 -39 -93q-49 -48 -164 -48q-69 0 -122 20q-44 17 -80 47l61 95q27 -23 55 -36q33 -14 69 -14q33 0 52 11q20 12 20 34q0 20 -21 30q-19 8 -52 8h-54v98h41q35 0 54 8 q21 10 21 30q0 19 -22 29q-19 8 -45 8q-31 0 -59 -12t-48 -29z"/>
<glyph glyph-name="uni04E2" horiz-adv-x="745" unicode="Ӣ" d="M174 753v92h388v-92h-388zM73 667h154v-436l309 444h136v-675h-154v437l-309 -445h-136v675z"/>
<glyph glyph-name="uni04E3" horiz-adv-x="580" unicode="ӣ" d="M92 543v90h380v-90h-380zM56 446h144v-255l190 255h134v-446h-144v259l-190 -259h-134v446z"/>
<glyph glyph-name="uni04E4" horiz-adv-x="745" unicode="Ӥ" d="M406 811q0 32 23.5 55.5t55.5 23.5t55.5 -23.5t23.5 -55.5t-23.5 -55.5t-55.5 -23.5t-55.5 23.5t-23.5 55.5zM188 811q0 32 23.5 55.5t55.5 23.5t55.5 -23.5t23.5 -55.5t-23.5 -55.5t-55.5 -23.5t-55.5 23.5t-23.5 55.5zM73 667h154v-436l309 444h136v-675h-154v437 l-309 -445h-136v675z"/>
<glyph glyph-name="uni04E5" horiz-adv-x="580" unicode="ӥ" d="M92 599q0 32 23.5 55.5t55.5 23.5t55.5 -23.5t23.5 -55.5t-23.5 -55.5t-55.5 -23.5t-55.5 23.5t-23.5 55.5zM310 599q0 32 23.5 55.5t55.5 23.5t55.5 -23.5t23.5 -55.5t-23.5 -55.5t-55.5 -23.5t-55.5 23.5t-23.5 55.5zM56 446h144v-255l190 255h134v-446h-144v259 l-190 -259h-134v446z"/>
<glyph glyph-name="uni04E6" horiz-adv-x="810" unicode="Ӧ" d="M431 811q0 32 23.5 55.5t55.5 23.5t55.5 -23.5t23.5 -55.5t-23.5 -55.5t-55.5 -23.5t-55.5 23.5t-23.5 55.5zM213 811q0 32 23.5 55.5t55.5 23.5t55.5 -23.5t23.5 -55.5t-23.5 -55.5t-55.5 -23.5t-55.5 23.5t-23.5 55.5zM405 540q-89 0 -146 -57q-59 -57 -59 -151 q0 -90 61 -150q58 -55 143 -55q91 0 148 57q58 56 58 149q0 92 -58 150q-59 57 -147 57zM406 682q158 0 258 -97q104 -101 104 -252q0 -149 -104 -250q-101 -98 -258 -98q-158 0 -260 98q-49 46 -76.5 110.5t-27.5 137.5q0 70 28.5 138.5t74.5 114.5q98 98 261 98z"/>
<glyph glyph-name="uni04E7" horiz-adv-x="592" unicode="ӧ" d="M96 599q0 32 23.5 55.5t55.5 23.5t55.5 -23.5t23.5 -55.5t-23.5 -55.5t-55.5 -23.5t-55.5 23.5t-23.5 55.5zM314 599q0 32 23.5 55.5t55.5 23.5t55.5 -23.5t23.5 -55.5t-23.5 -55.5t-55.5 -23.5t-55.5 23.5t-23.5 55.5zM296 339q-49 0 -81 -32q-33 -33 -33 -84t33 -84 q32 -32 82 -32q48 0 80 32q33 33 33 84t-33 84q-32 32 -81 32zM558 223q0 -99 -67 -166q-72 -72 -195 -72t-195 72q-67 67 -67 166t67 166q72 72 195 72t195 -72q67 -67 67 -166z"/>
<glyph glyph-name="uni04E8" horiz-adv-x="810" unicode="Ө" d="M601 269h-393q18 -66 66 -102q50 -40 132 -40q79 0 129 38q51 39 66 104zM210 399h390q-16 66 -69 104q-50 37 -127 37q-76 0 -129 -43q-46 -37 -65 -98zM406 682q158 0 258 -97q104 -101 104 -252q0 -149 -104 -250q-101 -98 -258 -98q-158 0 -260 98 q-49 46 -76.5 110.5t-27.5 137.5q0 70 28.5 138.5t74.5 114.5q98 98 261 98z"/>
<glyph glyph-name="uni04E9" horiz-adv-x="592" unicode="ө" d="M405 188h-218q8 -38 33 -61q28 -26 76 -26q44 0 72 23t37 64zM189 266h214q-11 36 -36 57q-28 22 -71 22q-50 0 -79 -29q-19 -19 -28 -50zM558 223q0 -99 -67 -166q-72 -72 -195 -72t-195 72q-67 67 -67 166t67 166q72 72 195 72t195 -72q67 -67 67 -166z"/>
<glyph glyph-name="uni04EA" horiz-adv-x="810" unicode="Ӫ" d="M440 811q0 32 23.5 55.5t55.5 23.5t55.5 -23.5t23.5 -55.5t-23.5 -55.5t-55.5 -23.5t-55.5 23.5t-23.5 55.5zM222 811q0 32 23.5 55.5t55.5 23.5t55.5 -23.5t23.5 -55.5t-23.5 -55.5t-55.5 -23.5t-55.5 23.5t-23.5 55.5zM601 269h-393q18 -66 66 -102q50 -40 132 -40 q79 0 129 38q51 39 66 104zM210 399h390q-16 66 -69 104q-50 37 -127 37q-76 0 -129 -43q-46 -37 -65 -98zM406 682q158 0 258 -97q104 -101 104 -252q0 -149 -104 -250q-101 -98 -258 -98q-158 0 -260 98q-49 46 -76.5 110.5t-27.5 137.5q0 70 28.5 138.5t74.5 114.5 q98 98 261 98z"/>
<glyph glyph-name="uni04EB" horiz-adv-x="592" unicode="ӫ" d="M92 599q0 32 23.5 55.5t55.5 23.5t55.5 -23.5t23.5 -55.5t-23.5 -55.5t-55.5 -23.5t-55.5 23.5t-23.5 55.5zM310 599q0 32 23.5 55.5t55.5 23.5t55.5 -23.5t23.5 -55.5t-23.5 -55.5t-55.5 -23.5t-55.5 23.5t-23.5 55.5zM405 188h-218q8 -38 33 -61q28 -26 76 -26 q44 0 72 23t37 64zM189 266h214q-11 36 -36 57q-28 22 -71 22q-50 0 -79 -29q-19 -19 -28 -50zM558 223q0 -99 -67 -166q-72 -72 -195 -72t-195 72q-67 67 -67 166t67 166q72 72 195 72t195 -72q67 -67 67 -166z"/>
<glyph glyph-name="uni04EE" horiz-adv-x="622" unicode="Ӯ" d="M113 753v92h388v-92h-388zM4 667h172l140 -308l134 308h166l-305 -667h-166l97 192z"/>
<glyph glyph-name="uni04EF" horiz-adv-x="585" unicode="ӯ" d="M94 543v90h380v-90h-380zM58 -229l157 286l-213 389h166l126 -242l123 242h162l-359 -675h-162z"/>
<glyph glyph-name="uni04F0" horiz-adv-x="622" unicode="Ӱ" d="M337 811q0 32 23.5 55.5t55.5 23.5t55.5 -23.5t23.5 -55.5t-23.5 -55.5t-55.5 -23.5t-55.5 23.5t-23.5 55.5zM119 811q0 32 23.5 55.5t55.5 23.5t55.5 -23.5t23.5 -55.5t-23.5 -55.5t-55.5 -23.5t-55.5 23.5t-23.5 55.5zM4 667h172l140 -308l134 308h166l-305 -667h-166 l97 192z"/>
<glyph glyph-name="uni04F1" horiz-adv-x="585" unicode="ӱ" d="M92 599q0 32 23.5 55.5t55.5 23.5t55.5 -23.5t23.5 -55.5t-23.5 -55.5t-55.5 -23.5t-55.5 23.5t-23.5 55.5zM310 599q0 32 23.5 55.5t55.5 23.5t55.5 -23.5t23.5 -55.5t-23.5 -55.5t-55.5 -23.5t-55.5 23.5t-23.5 55.5zM58 -229l157 286l-213 389h166l126 -242l123 242 h162l-359 -675h-162z"/>
<glyph glyph-name="uni04F2" horiz-adv-x="622" unicode="Ӳ" d="M462 925l87 -66l-140 -135l-56 48zM276 925l86 -66l-140 -135l-55 48zM4 667h172l140 -308l134 308h166l-305 -667h-166l97 192z"/>
<glyph glyph-name="uni04F3" horiz-adv-x="585" unicode="ӳ" d="M424 709l83 -65l-134 -135l-53 48zM244 710l82 -66l-134 -135l-52 48zM58 -229l157 286l-213 389h166l126 -242l123 242h162l-359 -675h-162z"/>
<glyph glyph-name="uni04F4" horiz-adv-x="646" unicode="Ӵ" d="M340 811q0 32 23.5 55.5t55.5 23.5t55.5 -23.5t23.5 -55.5t-23.5 -55.5t-55.5 -23.5t-55.5 23.5t-23.5 55.5zM122 811q0 32 23.5 55.5t55.5 23.5t55.5 -23.5t23.5 -55.5t-23.5 -55.5t-55.5 -23.5t-55.5 23.5t-23.5 55.5zM419 0v266q-58 -10 -113 -10q-145 0 -207 59 q-51 49 -51 147v205h154v-174q0 -58 29 -81q27 -22 97 -22q48 0 91 8v269h154v-667h-154z"/>
<glyph glyph-name="uni04F5" horiz-adv-x="518" unicode="ӵ" d="M47 599q0 32 23.5 55.5t55.5 23.5t55.5 -23.5t23.5 -55.5t-23.5 -55.5t-55.5 -23.5t-55.5 23.5t-23.5 55.5zM265 599q0 32 23.5 55.5t55.5 23.5t55.5 -23.5t23.5 -55.5t-23.5 -55.5t-55.5 -23.5t-55.5 23.5t-23.5 55.5zM318 0v150q-44 -11 -90 -11q-102 0 -147 43 q-41 39 -41 115v149h142v-129q0 -33 18 -49q17 -15 58 -15q34 0 60 9v184h144v-446h-144z"/>
<glyph glyph-name="uni04F8" horiz-adv-x="847" unicode="Ӹ" d="M449 811q0 32 23.5 55.5t55.5 23.5t55.5 -23.5t23.5 -55.5t-23.5 -55.5t-55.5 -23.5t-55.5 23.5t-23.5 55.5zM231 811q0 32 23.5 55.5t55.5 23.5t55.5 -23.5t23.5 -55.5t-23.5 -55.5t-55.5 -23.5t-55.5 23.5t-23.5 55.5zM227 283v-159h68q55 0 80 18q29 19 29 62 q0 46 -28 63q-22 16 -80 16h-69zM73 0v667h154v-260h92q124 0 183 -56q56 -53 56 -148t-54 -147q-59 -56 -190 -56h-241zM620 667h154v-667h-154v667z"/>
<glyph glyph-name="uni04F9" horiz-adv-x="703" unicode="ӹ" d="M151 599q0 32 23.5 55.5t55.5 23.5t55.5 -23.5t23.5 -55.5t-23.5 -55.5t-55.5 -23.5t-55.5 23.5t-23.5 55.5zM369 599q0 32 23.5 55.5t55.5 23.5t55.5 -23.5t23.5 -55.5t-23.5 -55.5t-55.5 -23.5t-55.5 23.5t-23.5 55.5zM200 102h59q31 0 44 12q14 12 14 34q0 21 -14 32 t-43 11h-60v-89zM200 293h99q79 0 121 -42q37 -37 37 -102q0 -71 -40 -110t-123 -39h-238v446h144v-153zM505 446h142v-446h-142v446z"/>
<glyph glyph-name="endash" horiz-adv-x="607" unicode="–" d="M70 194v118h467v-118h-467z"/>
<glyph glyph-name="emdash" horiz-adv-x="874" unicode="—" d="M70 194v118h734v-118h-734z"/>
<glyph glyph-name="quoteleft" horiz-adv-x="327" unicode="‘" d="M283 667l-110 -282l-131 7l151 279z"/>
<glyph glyph-name="quotesinglbase" horiz-adv-x="394" unicode="‚" d="M42 -128l110 282l132 -7l-152 -279z"/>
<glyph glyph-name="quotedblleft" horiz-adv-x="535" unicode="“" d="M283 667l-110 -282l-131 7l151 279zM491 667l-111 -282l-131 7l152 279z"/>
<glyph glyph-name="quotedblright" horiz-adv-x="613" unicode="”" d="M269 392l111 282l131 -7l-152 -279zM62 392l110 282l132 -7l-152 -279z"/>
<glyph glyph-name="dagger" horiz-adv-x="582" unicode="†" d="M225 527v202h132v-202h157v-116h-157v-595h-132v595h-157v116h157z"/>
<glyph glyph-name="daggerdbl" horiz-adv-x="581" unicode="‡" d="M225 527v202h131v-202h157v-116h-157v-229h157v-115h-157v-251h-131v251h-157v115h157v229h-157v116h157z"/>
<glyph glyph-name="ellipsis" horiz-adv-x="894" unicode="…" d="M649 76q0 38 26.5 64.5t64.5 26.5t64.5 -26.5t26.5 -64.5t-26.5 -64.5t-64.5 -26.5t-64.5 26.5t-26.5 64.5zM356 76q0 38 26.5 64.5t64.5 26.5t64.5 -26.5t26.5 -64.5t-26.5 -64.5t-64.5 -26.5t-64.5 26.5t-26.5 64.5zM63 76q0 38 26.5 64.5t64.5 26.5t64.5 -26.5 t26.5 -64.5t-26.5 -64.5t-64.5 -26.5t-64.5 26.5t-26.5 64.5z"/>
<glyph glyph-name="perthousand" horiz-adv-x="1245" unicode="‰" d="M1215 153q0 -69 -43 -112q-48 -50 -132 -50t-132 50q-43 43 -43 112t43 112q48 50 132 50t132 -50q43 -43 43 -112zM1040 234q-36 0 -57 -23q-22 -22 -22 -58t22 -58q21 -23 57 -23t57 23q22 22 22 58t-22 58q-21 23 -57 23zM800 153q0 -69 -43 -112q-48 -50 -132 -50 t-132 50q-43 43 -43 112t43 112q48 50 132 50t132 -50q43 -43 43 -112zM625 234q-36 0 -57 -23q-22 -22 -22 -58t22 -58q21 -23 57 -23t57 23q22 22 22 58t-22 58q-21 23 -57 23zM380 514q0 -69 -43 -112q-48 -50 -132 -50t-132 50q-43 43 -43 112t43 112q48 50 132 50 t132 -50q43 -43 43 -112zM205 595q-36 0 -57 -23q-22 -22 -22 -58t22 -58q21 -23 57 -23t57 23q22 22 22 58t-22 58q-21 23 -57 23zM185 2l391 676l70 -15l-392 -677z"/>
<glyph glyph-name="guilsinglleft" horiz-adv-x="326" unicode="‹" d="M274 384l-116 -160l118 -159l-81 -57l-155 216l155 215z"/>
<glyph glyph-name="guilsinglright" horiz-adv-x="326" unicode="›" d="M168 224l-116 160l79 55l155 -215l-155 -216l-81 57z"/>
<glyph glyph-name="fraction" horiz-adv-x="258" unicode="⁄" d="M-100 10l390 668l68 -23l-390 -669z"/>
<glyph glyph-name="Euro" horiz-adv-x="600" unicode="€" d="M546 181v-153q-71 -43 -176 -43q-127 0 -204 59q-80 63 -99 169h-87l36 90h40q0 4 -0.5 13.5t-0.5 14.5t0.5 14.5t0.5 14.5h-76l36 90h51q21 84 78 141q91 91 252 91q91 0 169 -39l-54 -129q-55 33 -124 33q-61 0 -104 -27q-39 -26 -53 -70h264l-36 -90h-243 q-2 -16 -2 -25q0 -17 3 -32h223l-36 -90h-170q16 -47 56 -70q39 -23 100 -23q98 0 156 61z"/>
<glyph glyph-name="trademark" horiz-adv-x="766" unicode="™" d="M375 287h-94l65 380h83l82 -209l88 209h82l59 -380h-94l-28 208l-87 -208h-40l-85 208zM265 585h-82v-298h-94v298h-81v82h257v-82z"/>
<glyph glyph-name="partialdiff" horiz-adv-x="561" unicode="∂" d="M281 110q40 0 68 27q34 34 34 82q0 52 -35 82q-27 24 -71 24q-42 0 -70 -25q-35 -32 -35 -81q0 -47 32 -79q30 -30 77 -30zM87 567l17 110q85 -6 167.5 -35t140.5 -84q63 -59 89 -136t26 -147q0 -137 -76 -218q-65 -69 -175 -69q-105 0 -172 64q-70 69 -70 169 q0 96 67 161q58 57 145 57q71 0 123 -40q-34 80 -106 120q-73 41 -176 48z"/>
<glyph glyph-name="product" horiz-adv-x="738" unicode="∏" d="M40 634v116h658v-116h-82v-768h82v-116h-292v116h80v768h-234v-768h80v-116h-292v116h82v768h-82z"/>
<glyph glyph-name="summation" horiz-adv-x="672" unicode="∑" d="M22 750h599v-247h-117l-13 131h-323l250 -367l-250 -401h332l8 134h122v-250h-608v130l243 387l-243 353v130z"/>
<glyph glyph-name="minus" d="M33 282v116h434v-116h-434z" unicode="−"/>
<glyph glyph-name="radical" horiz-adv-x="668" unicode="√" d="M378 827h290v-114h-180l-169 -713h-166l-59 272h-94v114h198l11 -52q14 -65 17 -94q6 -58 6 -87h11q8 95 17 149q13 78 29 145z"/>
<glyph glyph-name="infinity" horiz-adv-x="674" unicode="∞" d="M202 391q-24 0 -41 -15q-15 -14 -15 -34q0 -24 15 -39t41 -15q24 0 50 22q17 15 25 29q-13 21 -30 35q-20 17 -45 17zM337 258q-25 -34 -63 -56q-45 -25 -95 -25q-64 0 -108 41q-51 49 -51 125q0 69 47 114t118 45q45 0 86 -24q36 -21 66 -56q30 35 66 56q41 24 86 24 q71 0 118 -45t47 -114q0 -76 -51 -125q-43 -41 -108 -41q-45 0 -95 27q-37 20 -63 54zM472 391q-25 0 -45 -17q-17 -14 -30 -35q15 -20 25 -29q25 -22 50 -22q26 0 41 15t15 39q0 20 -15 34q-17 15 -41 15z"/>
<glyph glyph-name="approxequal" d="M257 371l-41 15q-46 17 -65 17q-28 0 -46 -18q-15 -13 -29 -44l-70 44q25 67 58 100q39 39 94 39q30 0 81 -19l43 -16q45 -16 66 -16q24 0 41 13q18 13 32 40l72 -41q-21 -53 -58 -92q-40 -41 -96 -41q-29 0 -82 19zM257 170l-41 15q-46 17 -65 17q-28 0 -46 -18 q-15 -13 -29 -44l-70 44q22 64 58 100q37 39 94 39q28 0 81 -19l43 -16q45 -16 66 -16q24 0 41 13q18 13 32 40l72 -41q-21 -53 -58 -92q-40 -41 -96 -41q-29 0 -82 19z" unicode="≈"/>
<glyph glyph-name="notequal" d="M33 366v110h232l52 106h99l-51 -106h101v-110h-153l-33 -70h186v-110h-237l-51 -104h-99l50 104h-96v110h147l34 70h-181z" unicode="≠"/>
<glyph glyph-name="lessequal" d="M33 122h434v-114h-434v114zM33 458l434 207v-117l-305 -143l305 -136v-118l-434 202v105z" unicode="≤"/>
<glyph glyph-name="greaterequal" d="M467 122v-114h-434v114h434zM467 458v-105l-434 -202v118l305 136l-305 143v117z" unicode="≥"/>
<glyph glyph-name="dotmath" horiz-adv-x="256" unicode="⋅" d="M20 334q0 46 31 77t77 31t77 -31t31 -77t-31 -77t-77 -31t-77 31t-31 77z"/>
<glyph glyph-name="lozenge" horiz-adv-x="700" unicode="◊" d="M463 334l-113 155l-113 -155l113 -155zM90 334l260 360l260 -360l-260 -360z"/>
</font>
</defs>
</svg>
