<?xml version="1.0" encoding="UTF-8" standalone="no"?>
<!DOCTYPE svg  PUBLIC '-//W3C//DTD SVG 1.1//EN'  'http://www.w3.org/Graphics/SVG/1.1/DTD/svg11.dtd'>
<svg xmlns="http://www.w3.org/2000/svg">
<defs>
<font id="FuturaNewMedium-Obl" horiz-adv-x="500">
<font-face slope="-12" underline-position="-50" font-weight="450" descent="-200" panose-1="2 11 6 2 2 2 4 9 3 3" units-per-em="1000" unicode-range="U+0020-25CA" bbox="-98 -250 1188 920" x-height="421" underline-thickness="50" font-family="FuturaNewMedium" ascent="800" font-style="italic" cap-height="667"/>
<missing-glyph horiz-adv-x="1000"/>
<glyph glyph-name=".notdef" horiz-adv-x="1000"/>
<glyph glyph-name=".null" horiz-adv-x="0"/>
<glyph glyph-name="nonmarkingreturn" horiz-adv-x="333"/>
<glyph glyph-name="space" horiz-adv-x="233" unicode=" "/>
<glyph glyph-name="exclam" horiz-adv-x="254" unicode="!" d="M72 42q0 26 18 46t49 20q24 0 39 -15q16 -15 16 -40q0 -27 -20 -47q-18 -18 -46 -18q-26 0 -40 14q-16 15 -16 40zM197 165h-98l62 502h98z"/>
<glyph glyph-name="quotedbl" horiz-adv-x="366" unicode='&quot;' d="M400 667l-51 -268h-72l15 268h108zM238 667l-51 -268h-72l15 268h108z"/>
<glyph glyph-name="numbersign" horiz-adv-x="600" unicode="#" d="M389 284l32 112h-114l-32 -112h114zM407 0h-98l55 196h-114l-55 -196h-98l55 196h-108l25 88h108l32 112h-108l24 88h108l52 183h98l-52 -183h114l52 183h98l-52 -183h108l-24 -88h-108l-32 -112h108l-25 -88h-108z"/>
<glyph glyph-name="dollar" horiz-adv-x="568" unicode="$" d="M546 567l-88 -48q-8 30 -30 47q-25 19 -67 19q-45 0 -75 -26q-28 -25 -28 -60q0 -29 24 -51q7 -7 16 -12.5t14.5 -8t17.5 -7.5t17 -7l54 -24q55 -24 84 -61q35 -43 35 -109q0 -100 -61 -165q-54 -57 -134 -64l-13 -100h-74l13 99q-59 6 -100 45q-59 57 -62 150l103 22 q0 -61 23 -90q28 -35 77 -35q60 0 95 40q30 35 30 87q0 34 -26 62q-19 20 -68 42l-51 23q-52 24 -79 53q-37 42 -37 98q0 73 53 129q51 53 126 62l10 88h74l-10 -89q46 -7 82 -34q39 -28 55 -75z"/>
<glyph glyph-name="percent" horiz-adv-x="810" unicode="%" d="M253 431q39 0 62 25q27 27 27 69q0 36 -24 57q-21 19 -53 19q-40 0 -64 -26q-26 -26 -26 -67q0 -34 22 -56q21 -21 56 -21zM268 673q68 0 112 -44q40 -42 40 -102q0 -73 -50 -122q-47 -46 -120 -46q-71 0 -113 42t-42 104q0 66 50 118q48 50 123 50zM629 65q39 0 62 25 q27 27 27 69q0 36 -24 57q-21 19 -53 19q-40 0 -64 -26q-26 -26 -26 -67q0 -34 22 -56q21 -21 56 -21zM644 307q68 0 112 -44q40 -40 40 -102q0 -73 -50 -123q-46 -45 -119 -45q-72 0 -114 42t-42 104q0 66 50 118q48 50 123 50zM193 18l462 660l44 -27l-462 -662z"/>
<glyph glyph-name="ampersand" horiz-adv-x="646" unicode="&amp;" d="M338 442l36 23q26 16 40 36q13 19 13 41q0 25 -19 40q-16 13 -40 13q-32 0 -53 -21q-18 -18 -18 -47q0 -28 16 -49zM414 154l-112 160q-55 -26 -85 -55q-42 -41 -42 -94q0 -36 25 -63q27 -29 67 -29q39 0 79 25q38 24 68 56zM575 313l57 -68l-90 -91l104 -154h-124 l-56 82q-45 -43 -83 -64q-56 -31 -124 -31q-85 0 -135 50q-49 49 -49 126q0 82 59 143q25 25 96 68l21 13l-21 32q-30 46 -30 97q0 66 45 113q48 50 132 50q64 0 105 -40q40 -38 40 -101q0 -47 -28 -84q-20 -26 -69 -59l-36 -24l100 -144z"/>
<glyph glyph-name="quotesingle" horiz-adv-x="204" unicode="&apos;" d="M238 667l-51 -268h-72l15 268h108z"/>
<glyph glyph-name="parenleft" horiz-adv-x="325" unicode="(" d="M247 -142l-95 -35q-50 153 -50 304q0 204 64 393q40 118 99 220l86 -35q-57 -115 -88 -208q-60 -177 -60 -349q0 -152 44 -290z"/>
<glyph glyph-name="parenright" horiz-adv-x="329" unicode=")" d="M146 705l94 35q52 -148 52 -290q0 -209 -66 -410q-40 -123 -99 -217l-85 35q53 94 89 205q60 189 60 384q0 118 -45 258z"/>
<glyph glyph-name="asterisk" horiz-adv-x="550" unicode="*" d="M216 655l101 -45l9 119h78l-24 -118l114 44l15 -72l-118 -28l61 -90l-66 -47l-51 97l-77 -97l-54 47l87 88l-110 28z"/>
<glyph glyph-name="plus" d="M75 291v90h170v170h94v-170h170v-90h-170v-170h-94v170h-170z" unicode="+"/>
<glyph glyph-name="comma" horiz-adv-x="320" unicode="," d="M-6 -129l133 254l84 -34l-154 -247z"/>
<glyph glyph-name="hyphen" horiz-adv-x="340" unicode="-" d="M70 162l12 102h240l-12 -102h-240z"/>
<glyph glyph-name="period" horiz-adv-x="252" unicode="." d="M71 42q0 26 18 46t49 20q24 0 39 -15q16 -15 16 -40q0 -27 -20 -47q-18 -18 -46 -18q-26 0 -40 14q-16 15 -16 40z"/>
<glyph glyph-name="slash" horiz-adv-x="687" unicode="/" d="M-18 -177l635 942l78 -36l-635 -942z"/>
<glyph glyph-name="zero" horiz-adv-x="568" unicode="0" d="M356 588q-48 0 -82 -36q-41 -41 -65 -123.5t-24 -164.5q0 -113 47 -160q24 -24 61 -24q47 0 82 35q45 46 67.5 128.5t22.5 157.5q0 120 -49 165q-25 22 -60 22zM287 -11q-88 0 -140 62q-63 74 -63 205q0 95 28 193t94 162q67 67 161 67q72 0 124 -49q75 -70 75 -215 q0 -237 -118 -357q-68 -68 -161 -68z"/>
<glyph glyph-name="one" horiz-adv-x="568" unicode="1" d="M250 0l70 573h-116l68 94h162l-82 -667h-102z"/>
<glyph glyph-name="two" horiz-adv-x="568" unicode="2" d="M494 94l-12 -94h-448l265 280q78 83 93 101q48 60 48 110q0 45 -32 72q-30 25 -77 25q-50 0 -82 -30q-34 -34 -41 -91h-98q13 90 64 146q59 65 163 65q93 0 148 -49q56 -49 56 -127q0 -75 -55 -149q-32 -42 -122 -136l-119 -123h249z"/>
<glyph glyph-name="three" horiz-adv-x="568" unicode="3" d="M227 497h-98q13 75 58 123q55 58 153 58q89 0 139 -49q47 -45 47 -122q0 -59 -27 -100q-27 -43 -72 -59q35 -17 55 -49q21 -35 21 -82q0 -106 -63 -169q-59 -59 -166 -59q-98 0 -149 53q-52 56 -55 139h98q2 -47 31 -75q27 -27 78 -27q55 0 86 30q38 38 38 102 q0 58 -39 83q-22 16 -71 16h-13l11 86h21q63 0 90 27q28 28 28 76q0 44 -30 69q-23 20 -66 20q-45 0 -71 -24q-27 -27 -34 -67z"/>
<glyph glyph-name="four" horiz-adv-x="568" unicode="4" d="M226 220h147l25 207zM532 716l-61 -496h72l-11 -94h-72l-16 -126h-98l16 126h-331z"/>
<glyph glyph-name="five" horiz-adv-x="568" unicode="5" d="M557 667l-12 -94h-206l-47 -115q20 2 30 2q84 0 138 -54q57 -56 57 -153q0 -124 -72 -196q-67 -68 -185 -68q-84 0 -140 35q-46 29 -74 76l75 60q21 -38 55 -59q36 -22 85 -22q68 0 111 40q43 43 43 118q0 71 -42 107q-33 30 -95 30q-68 0 -139 -44l142 337h276z"/>
<glyph glyph-name="six" horiz-adv-x="568" unicode="6" d="M339 351q-64 0 -106 -42q-41 -43 -41 -105q0 -52 35 -89q34 -36 90 -36q58 0 101 41q45 45 45 111q0 58 -38 91q-32 29 -86 29zM450 690l74 -55l-190 -204q18 2 27 2q90 0 148 -60q54 -54 54 -142q0 -106 -72 -175q-70 -67 -178 -67q-97 0 -158 58q-66 63 -66 157 q0 69 44 140q27 43 100 118z"/>
<glyph glyph-name="seven" horiz-adv-x="568" unicode="7" d="M81 27l369 546h-326l12 94h496l-475 -690z"/>
<glyph glyph-name="eight" horiz-adv-x="568" unicode="8" d="M297 79q55 0 87 33q33 35 33 91q0 43 -27 71q-27 29 -75 29q-51 0 -85 -32q-34 -33 -34 -87q0 -44 26 -74q28 -31 75 -31zM336 387q51 0 80 29q30 30 30 81q0 41 -28 67q-26 24 -66 24q-48 0 -80 -32q-30 -30 -30 -77q0 -39 26 -65q26 -27 68 -27zM435 347q37 -18 60 -51 q24 -36 24 -85q0 -105 -64 -166q-58 -56 -163 -56q-87 0 -141 50q-56 53 -56 143q0 64 33 109q34 47 91 64q-27 17 -43 39q-26 34 -26 86q0 76 51 133q59 65 157 65q78 0 129 -48q52 -49 52 -129q0 -55 -26 -95q-28 -42 -78 -59z"/>
<glyph glyph-name="nine" horiz-adv-x="568" unicode="9" d="M364 316q61 0 101 37q45 40 45 108q0 58 -37 93q-36 34 -91 34q-58 0 -98 -37q-45 -41 -45 -110q0 -57 36 -91t89 -34zM251 -23l-74 55l185 200q-15 -3 -31 -3q-78 0 -135 59q-59 61 -59 147q0 101 69 170q75 73 184 73t169 -63q53 -55 53 -141q0 -74 -44 -144 q-29 -46 -99 -120z"/>
<glyph glyph-name="colon" horiz-adv-x="254" unicode=":" d="M112 366q0 26 18 46t49 20q24 0 39 -15q16 -15 16 -40q0 -27 -20 -47q-18 -18 -46 -18q-26 0 -40 14q-16 15 -16 40zM72 41q0 26 18 46t49 20q24 0 39 -15q16 -15 16 -40q0 -27 -20 -47q-18 -18 -46 -18q-26 0 -40 14q-16 15 -16 40z"/>
<glyph glyph-name="semicolon" horiz-adv-x="321" unicode=";" d="M135 366q0 26 18 46t49 20q24 0 39 -15q16 -15 16 -40q0 -27 -20 -47q-18 -18 -46 -18q-26 0 -40 14q-16 15 -16 40zM-6 -129l133 254l84 -34l-154 -247z"/>
<glyph glyph-name="less" d="M191 332l330 -156v-96l-434 211v82l434 211v-96z" unicode="&lt;"/>
<glyph glyph-name="equal" d="M75 218v84h434v-84h-434zM75 380v84h434v-84h-434z" unicode="="/>
<glyph glyph-name="greater" d="M391 332l-330 156v96l434 -211v-82l-434 -211v96z" unicode="&gt;"/>
<glyph glyph-name="question" horiz-adv-x="436" unicode="?" d="M164 41q0 26 18 46t49 20q24 0 39 -15q16 -15 16 -40q0 -27 -20 -47q-18 -18 -46 -18q-26 0 -40 14q-16 15 -16 40zM219 485h-102v9q0 88 52 140q45 45 127 45q72 0 113 -40q38 -37 38 -98q0 -57 -26 -95q-29 -42 -91 -68l-21 -9q-20 -8 -30 -11q-29 -11 -32 -12 q-44 -20 -44 -57q0 -19 11 -30q12 -13 36 -13t39 15q16 17 18 53h98q-2 -70 -45 -115q-42 -43 -116 -43q-67 0 -103 35q-38 36 -38 94t39 99q30 32 99 56q72 25 87 41q19 21 19 52q0 24 -14 40q-13 16 -43 16q-35 0 -53 -24q-18 -23 -18 -72v-8z"/>
<glyph glyph-name="at" horiz-adv-x="732" unicode="@" d="M379 212q42 0 70 27q22 21 35 54t13 62q0 36 -21 59q-17 19 -50 19q-46 0 -78 -35q-41 -44 -41 -108q0 -40 23 -61q18 -17 49 -17zM528 439l16 52h68l-67 -213q-9 -27 -9 -39q0 -14 8 -24q9 -10 24 -10q28 0 53 22q30 26 45.5 74.5t15.5 94.5q0 97 -61 158 q-65 63 -171 63q-136 0 -225 -95q-41 -43 -65 -105.5t-24 -125.5q0 -107 66 -173q68 -70 188 -70q106 0 208 41l9 -62q-99 -39 -218 -39q-146 0 -232 81q-85 81 -85 211q0 175 113 290q105 107 267 107q138 0 218 -78q77 -77 77 -197q0 -131 -73 -204q-51 -50 -113 -50 q-35 0 -56 20q-18 18 -20 42q-16 -28 -45 -46q-34 -22 -79 -22q-57 0 -92 35q-40 40 -40 109q0 99 66 164q53 53 129 53q42 0 70 -21q22 -16 34 -43z"/>
<glyph glyph-name="A" horiz-adv-x="656" unicode="A" d="M263 257h202l-72 226zM544 0l-50 161h-285l-93 -161h-112l419 706l229 -706h-108z"/>
<glyph glyph-name="B" horiz-adv-x="526" unicode="B" d="M218 296l-24 -200h62q81 0 117 34q31 29 31 77q0 41 -30 65t-92 24h-64zM252 571l-23 -191h31q59 0 90 27q33 30 33 81q0 36 -22 58q-25 25 -81 25h-28zM162 667h101q122 0 174 -52q42 -43 42 -113q0 -51 -19 -87q-20 -37 -59 -58q45 -16 73 -52q29 -38 29 -92 q0 -91 -53 -146q-64 -67 -214 -67h-57h-99z"/>
<glyph glyph-name="C" horiz-adv-x="622" unicode="C" d="M653 631l-14 -120q-74 74 -183 74q-110 0 -181 -68q-38 -36 -61 -93t-23 -123q0 -95 58 -157q58 -63 157 -63t189 77l-14 -121q-92 -50 -184 -50q-136 0 -219 83q-89 89 -89 231q0 168 110 276q105 102 264 102q93 0 190 -48z"/>
<glyph glyph-name="D" horiz-adv-x="646" unicode="D" d="M252 571l-58 -475h44q171 0 243 85q56 65 56 171q0 103 -55 160q-58 59 -186 59h-44zM162 667h140q169 0 256 -83q81 -76 81 -218q0 -166 -94 -260q-64 -64 -150 -85t-191 -21h-22h-102z"/>
<glyph glyph-name="E" d="M530 667l-12 -96h-266l-20 -169h258l-12 -96h-258l-26 -210h266l-12 -96h-368l82 667h368z" unicode="E"/>
<glyph glyph-name="F" horiz-adv-x="450" unicode="F" d="M496 667l-12 -96h-232l-20 -169h224l-12 -96h-224l-38 -306h-102l82 667h334z"/>
<glyph glyph-name="G" horiz-adv-x="751" unicode="G" d="M459 253l12 94h275q-13 -177 -110 -273q-88 -87 -238 -87q-137 0 -222 89q-87 89 -87 222q0 79 30 151.5t83 124.5q107 105 273 105q93 0 162 -41q62 -38 105 -97l-82 -61q-33 45 -73 71q-54 34 -122 34q-116 0 -191 -75q-82 -81 -82 -202q0 -102 63 -167q60 -60 155 -60 q90 0 148 53q52 47 67 119h-166z"/>
<glyph glyph-name="H" horiz-adv-x="650" unicode="H" d="M264 667l-32 -264h286l32 264h102l-82 -667h-102l38 307h-286l-38 -307h-102l82 667h102z"/>
<glyph glyph-name="I" horiz-adv-x="262" unicode="I" d="M162 667h102l-82 -667h-102z"/>
<glyph glyph-name="J" horiz-adv-x="359" unicode="J" d="M259 667h102l-53 -432q-6 -51 -10.5 -77.5t-20 -64.5t-39.5 -61q-46 -45 -132 -45q-73 0 -121 36l57 84q25 -24 64 -24q35 0 59 22q28 26 41 130z"/>
<glyph glyph-name="K" horiz-adv-x="586" unicode="K" d="M264 667l-33 -258l288 258h137l-340 -302l258 -365h-134l-202 296l-22 -20l-34 -276h-102l82 667h102z"/>
<glyph glyph-name="L" horiz-adv-x="394" unicode="L" d="M162 667h102l-70 -571h196l-12 -96h-197h-101z"/>
<glyph glyph-name="M" horiz-adv-x="852" unicode="M" d="M166 0h-106l228 717l168 -518l298 518l38 -717h-102l-19 402l-247 -433l-139 434z"/>
<glyph glyph-name="N" horiz-adv-x="746" unicode="N" d="M182 0h-102l87 712l422 -507l57 462h102l-87 -708l-422 507z"/>
<glyph glyph-name="O" horiz-adv-x="796" unicode="O" d="M410 81q124 0 196 72q38 37 59.5 92.5t21.5 114.5q0 95 -60 157q-66 68 -169 68q-110 0 -185 -74q-83 -81 -83 -204q0 -98 62 -162q60 -64 158 -64zM478 679q138 0 225 -87q86 -85 86 -226q0 -169 -105 -276q-102 -103 -275 -103q-148 0 -231 86q-89 91 -89 227 q0 79 29 151.5t80 122.5q105 105 280 105z"/>
<glyph glyph-name="P" horiz-adv-x="481" unicode="P" d="M252 573l-25 -208h38q83 0 118 31q34 29 34 83q0 45 -31 71q-28 23 -91 23h-43zM162 667h143q107 0 161 -52q49 -47 49 -130q0 -93 -57 -150q-64 -64 -209 -64h-34l-33 -271h-102z"/>
<glyph glyph-name="Q" horiz-adv-x="796" unicode="Q" d="M511 264l92 -102q37 31 58 74q26 54 26 117q0 109 -68 173q-63 59 -161 59q-116 0 -190 -78q-77 -82 -77 -207q0 -95 60 -157q59 -62 155 -62q66 0 121 25l-140 158h124zM633 -13l-41 48q-76 -48 -193 -48q-139 0 -220 80q-90 88 -90 232q0 165 101 271q102 109 267 109 q152 0 242 -86q90 -87 90 -224q0 -90 -36 -165q-32 -66 -88 -113l91 -104h-123z"/>
<glyph glyph-name="R" horiz-adv-x="534" unicode="R" d="M252 573l-26 -212h32q76 0 116 32q41 32 41 86q0 50 -37 75q-28 19 -91 19h-35zM162 667h119q115 0 168 -41q64 -48 64 -141q0 -90 -58 -144q-46 -43 -114 -56l173 -285h-123l-157 273h-18l-34 -273h-102z"/>
<glyph glyph-name="S" horiz-adv-x="516" unicode="S" d="M520 567l-88 -48q-8 30 -30 47q-26 19 -66 19q-48 0 -76 -26q-28 -25 -28 -60q0 -29 24 -51q7 -7 16 -12.5t14.5 -8t17.5 -7.5t17 -7l54 -24q55 -24 84 -61q35 -43 35 -109q0 -100 -61 -165q-65 -67 -174 -67q-86 0 -134 47q-59 57 -62 150l103 22v-6q0 -54 23 -84 q27 -35 85 -35q48 0 79 28q38 34 38 98q0 35 -26 63q-19 20 -68 42l-51 23q-52 24 -79 53q-37 42 -37 98q0 73 53 129q61 64 159 64q69 0 115 -31q45 -30 63 -81z"/>
<glyph glyph-name="T" horiz-adv-x="428" unicode="T" d="M488 571h-153l-70 -571h-102l70 571h-153l12 96h408z"/>
<glyph glyph-name="U" horiz-adv-x="656" unicode="U" d="M164 667h102l-46 -375q-7 -70 -7 -76q0 -64 35 -99q36 -36 94 -36q66 0 111 43q20 20 31.5 45.5t15 44t7.5 51.5l49 402h102l-53 -429q-16 -128 -94 -194q-69 -57 -177 -57q-119 0 -181 78q-44 54 -44 137q0 25 11 111z"/>
<glyph glyph-name="V" horiz-adv-x="600" unicode="V" d="M86 667h108l129 -465l243 465h112l-383 -710z"/>
<glyph glyph-name="W" horiz-adv-x="940" unicode="W" d="M86 667h108l121 -446l239 478l115 -478l237 446h112l-385 -710l-116 473l-234 -473z"/>
<glyph glyph-name="X" horiz-adv-x="540" unicode="X" d="M10 0l253 348l-145 319h108l102 -226l161 226h114l-231 -319l158 -348h-108l-115 255l-183 -255h-114z"/>
<glyph glyph-name="Y" horiz-adv-x="540" unicode="Y" d="M219 0l35 288l-172 379h114l121 -267l187 267h118l-266 -379l-35 -288h-102z"/>
<glyph glyph-name="Z" horiz-adv-x="554" unicode="Z" d="M606 667l-398 -571h320l-12 -96h-486l398 571h-274l12 96h440z"/>
<glyph glyph-name="bracketleft" horiz-adv-x="316" unicode="[" d="M348 639h-84l-89 -726h84l-11 -90h-85h-97l112 906h182z"/>
<glyph glyph-name="backslash" horiz-adv-x="671" unicode="\" d="M653 -177l-79 -36l-410 942l78 36z"/>
<glyph glyph-name="bracketright" horiz-adv-x="316" unicode="]" d="M35 -87h84l89 726h-84l12 90h182l-112 -906h-102h-80z"/>
<glyph glyph-name="asciicircum" d="M293 590l-130 -240h-104l171 317h126l171 -317h-104z" unicode="^"/>
<glyph glyph-name="underscore" horiz-adv-x="400" unicode="_" d="M0 -144v86h400v-86h-400z"/>
<glyph glyph-name="grave" d="M301 485l-139 144l96 46l101 -156z" unicode="`"/>
<glyph glyph-name="a" horiz-adv-x="532" unicode="a" d="M298 344q-49 0 -84 -33q-47 -45 -47 -118q0 -53 33 -88q28 -30 71 -30q55 0 92 37q43 45 43 115q0 56 -33 89q-28 28 -75 28zM418 372l6 49h98l-52 -421h-98l5 44q-28 -30 -56 -42q-35 -15 -77 -15q-72 0 -120 46q-58 56 -58 152q0 115 73 188q59 59 154 59q44 0 77 -18 q28 -15 48 -42z"/>
<glyph glyph-name="b" horiz-adv-x="532" unicode="b" d="M314 344q-57 0 -92 -38q-43 -46 -43 -115q0 -54 34 -88q28 -28 72 -28q52 0 89 38q44 46 44 113q0 57 -33 90q-28 28 -71 28zM250 729l-44 -357q21 27 49 42q33 18 85 18q77 0 125 -48q53 -53 53 -144q0 -115 -69 -189q-60 -64 -158 -64q-48 0 -83 20q-25 14 -43 37 l-5 -44h-98l90 729h98z"/>
<glyph glyph-name="c" horiz-adv-x="422" unicode="c" d="M439 396l-13 -106q-25 25 -50 38q-31 16 -62 16q-67 0 -107 -42t-40 -104q0 -58 36 -92q33 -31 87 -31q36 0 68 15q32 18 48 36l-13 -110q-44 -29 -125 -29q-89 0 -143 54q-59 57 -59 153q0 103 70 173q66 65 172 65q75 0 131 -36z"/>
<glyph glyph-name="d" horiz-adv-x="532" unicode="d" d="M296 344q-52 0 -85 -33q-45 -44 -45 -114q0 -57 32 -91q28 -31 76 -31q54 0 88 34q43 43 43 116q0 53 -32 87q-31 32 -77 32zM418 372l44 357h98l-90 -729h-98l5 44q-24 -28 -54 -42q-30 -15 -72 -15q-77 0 -125 48q-60 60 -60 158q0 52 20.5 103t56.5 84q57 52 144 52 q47 0 81 -17q28 -13 50 -43z"/>
<glyph glyph-name="e" horiz-adv-x="489" unicode="e" d="M181 267h196q-5 37 -25 58q-21 23 -61 23t-71 -25q-25 -20 -39 -56zM377 142l77 -46q-30 -50 -78 -79q-51 -30 -118 -30q-83 0 -135 53q-57 57 -57 150q0 109 73 180q64 62 154 62q80 0 127 -49q52 -54 52 -147q0 -25 -5 -49h-301q0 -52 31 -85q25 -27 69 -27q37 0 67 19 q27 18 44 48z"/>
<glyph glyph-name="f" horiz-adv-x="263" unicode="f" d="M310 331h-106l-41 -331h-98l41 331h-42l11 90h42l20 161q10 81 47 118q40 40 107 40q35 0 67 -14l-12 -96q-24 16 -49 16q-54 0 -64 -79l-18 -146h106z"/>
<glyph glyph-name="g" horiz-adv-x="529" unicode="g" d="M297 344q-58 0 -93 -37q-40 -42 -40 -111q0 -54 31 -87q32 -34 77 -34q49 0 85 36q45 45 45 117q0 54 -32 86q-30 30 -73 30zM415 375l6 46h98l-51 -410q-15 -128 -62 -180q-55 -61 -162 -61q-76 0 -124 40q-60 51 -64 143h95q2 -44 27 -71q24 -24 71 -24q50 0 79 29 q30 30 40 106l7 54q-42 -60 -122 -60q-79 0 -133 54q-58 58 -58 150q0 110 75 183q59 58 154 58q80 0 124 -57z"/>
<glyph glyph-name="h" horiz-adv-x="486" unicode="h" d="M62 0l90 729h98l-43 -344q16 18 42 31q32 16 72 16q64 0 100 -36q38 -38 38 -102q0 -18 -9 -87l-26 -207h-98l27 217q5 37 5 56q0 36 -19 54q-18 17 -50 17q-40 0 -63 -23q-30 -29 -41 -118l-25 -203h-98z"/>
<glyph glyph-name="i" horiz-adv-x="223" unicode="i" d="M120 585q0 31 21 52t51 21q25 0 40 -15q16 -16 16 -38q0 -29 -20 -51t-53 -22q-24 0 -39 15q-16 14 -16 38zM114 421h98l-52 -421h-98z"/>
<glyph glyph-name="j" horiz-adv-x="223" unicode="j" d="M120 585q0 31 21 52t51 21q25 0 40 -15q16 -16 16 -38q0 -29 -20 -51t-53 -22q-24 0 -39 15q-16 14 -16 38zM114 421h98l-80 -650h-98z"/>
<glyph glyph-name="k" horiz-adv-x="442" unicode="k" d="M152 729h98l-56 -449l155 141h130l-205 -176l164 -245h-122l-116 180l-20 -18l-20 -162h-98z"/>
<glyph glyph-name="l" horiz-adv-x="222" unicode="l" d="M152 729h98l-90 -729h-98z"/>
<glyph glyph-name="m" horiz-adv-x="702" unicode="m" d="M62 0l52 421h98l-5 -39q21 23 41 34q29 16 69 16q35 0 60 -16q26 -16 41 -46q19 26 48 44q30 18 71 18q63 0 99 -34q38 -35 38 -101q0 -26 -8 -85l-26 -212h-98l26 212q6 54 6 59q0 39 -17 56q-15 17 -43 17q-26 0 -46 -18q-31 -29 -41 -109l-27 -217h-98l27 221 q5 38 5 53q0 37 -17 54q-16 16 -42 16q-31 0 -52 -21q-27 -27 -36 -106l-27 -217h-98z"/>
<glyph glyph-name="n" horiz-adv-x="485" unicode="n" d="M61 0l52 421h98l-5 -38q16 20 42 33q33 16 72 16q64 0 100 -36q38 -38 38 -100q0 -18 -9 -89l-26 -207h-98l27 217q5 37 5 56q0 36 -19 54q-18 17 -50 17q-40 0 -63 -23q-30 -29 -41 -118l-25 -203h-98z"/>
<glyph glyph-name="o" horiz-adv-x="534" unicode="o" d="M287 75q56 0 93 40q40 43 40 109q0 54 -33 88q-31 32 -80 32q-58 0 -95 -35q-46 -43 -46 -110q0 -51 31 -87q34 -37 90 -37zM313 432q94 0 150 -56q57 -59 57 -146q0 -107 -73 -178q-68 -65 -173 -65q-94 0 -150 57q-58 60 -58 147q0 106 73 176q68 65 174 65z"/>
<glyph glyph-name="p" horiz-adv-x="532" unicode="p" d="M308 344q-52 0 -84 -31q-46 -44 -46 -122q0 -54 28 -83q31 -33 80 -33t83 34q48 48 48 118q0 52 -30 85q-29 32 -79 32zM166 49l-34 -278h-98l80 650h98l-6 -46q19 26 50 40q35 17 75 17q82 0 134 -54q53 -55 53 -143q0 -53 -19.5 -103.5t-51.5 -84.5q-58 -61 -140 -61 q-56 0 -95 23q-25 15 -46 40z"/>
<glyph glyph-name="q" horiz-adv-x="532" unicode="q" d="M297 344q-51 0 -84 -33q-46 -47 -46 -124q0 -53 32 -84q28 -28 74 -28q53 0 86 33q21 20 34 54t13 65q0 55 -32 87q-30 30 -77 30zM418 375l6 46h98l-80 -650h-98l34 276q-18 -27 -49 -43q-33 -17 -73 -17q-81 0 -131 47q-59 56 -59 146q0 54 19.5 106t54.5 87 q59 59 154 59q37 0 73 -16q34 -15 51 -41z"/>
<glyph glyph-name="r" horiz-adv-x="332" unicode="r" d="M62 0l52 421h98l-5 -38q19 23 45 36t64 13q39 0 72 -20l-48 -89q-22 15 -52 15q-40 0 -65 -25q-26 -27 -36 -95l-27 -218h-98z"/>
<glyph glyph-name="s" horiz-adv-x="364" unicode="s" d="M354 358l-76 -48q-7 16 -20 26q-12 10 -30 10q-22 0 -34 -12q-9 -9 -9 -22q0 -15 12 -24q4 -4 41 -22l28 -14q34 -17 53 -36q32 -34 32 -87q0 -62 -42 -102q-43 -40 -118 -40q-58 0 -94 27q-37 28 -52 77l85 38q7 -26 23 -41q17 -15 41 -15t39 13q16 13 16 37 q0 21 -14 35q-8 8 -40 24l-27 14q-35 19 -48 32q-29 27 -29 73q0 55 38 93t104 38q42 0 73 -20q28 -19 48 -54z"/>
<glyph glyph-name="t" horiz-adv-x="242" unicode="t" d="M279 331h-75l-41 -331h-98l41 331h-41l11 90h41l19 154h98l-19 -154h75z"/>
<glyph glyph-name="u" horiz-adv-x="485" unicode="u" d="M115 421h98l-27 -219q-5 -37 -5 -49q0 -38 20 -58t55 -20q37 0 61 22q21 20 30 83l30 241h98l-30 -244q-12 -102 -57 -145q-47 -45 -133 -45q-90 0 -134 46q-39 41 -39 102q0 14 5 57z"/>
<glyph glyph-name="v" horiz-adv-x="448" unicode="v" d="M58 421h108l78 -240l138 240h112l-274 -451z"/>
<glyph glyph-name="w" horiz-adv-x="686" unicode="w" d="M58 421h108l79 -241l152 277l84 -277l139 241h112l-275 -451l-85 269l-151 -269z"/>
<glyph glyph-name="x" horiz-adv-x="496" unicode="x" d="M6 0l214 228l-126 193h114l78 -123l109 123h122l-179 -193l152 -228h-116l-102 157l-144 -157h-122z"/>
<glyph glyph-name="y" horiz-adv-x="482" unicode="y" d="M3 -229l200 307l-145 343h116l95 -237l147 237h112l-415 -650h-110z"/>
<glyph glyph-name="z" horiz-adv-x="480" unicode="z" d="M524 421l-312 -331h250l-11 -90h-443l314 331h-215l11 90h406z"/>
<glyph glyph-name="braceleft" horiz-adv-x="502" unicode="{" d="M353 565l-20 -168q-7 -56 -24 -81q-18 -27 -53 -40q20 -7 32 -24q17 -24 17 -62q0 -9 -2 -35l-20 -168q-2 -16 -2 -27q0 -31 18 -43q15 -10 62 -10h8l-10 -84h-47q-65 0 -95 21q-37 27 -37 85q0 11 2 33l23 191q1 6 1 21q0 34 -13 48q-12 14 -34 14l10 80q29 2 46 22 q16 17 20 61l23 191q8 72 43 105q37 34 121 34h47l-10 -84h-14h-13q-38 0 -54 -14q-19 -16 -25 -66z"/>
<glyph glyph-name="bar" horiz-adv-x="377" unicode="|" d="M171 -250v1000h96v-1000h-96z"/>
<glyph glyph-name="braceright" horiz-adv-x="503" unicode="}" d="M227 -13l21 168q7 55 25 81q18 27 52 40q-22 11 -36 31t-14 50q0 19 3 40l20 168q2 20 2 28q0 30 -17 42q-17 10 -63 10h-8l10 84h47q68 0 96 -19q37 -25 37 -84q0 -18 -3 -36l-23 -191q-2 -16 -2 -24q0 -28 15 -43q13 -13 33 -16l-10 -80q-28 -3 -43 -20 q-18 -19 -23 -63l-24 -191q-8 -71 -39 -102q-36 -37 -114 -37h-58l10 84h14q50 0 69 17q18 16 23 63z"/>
<glyph glyph-name="asciitilde" d="M477 361l53 -33q-25 -50 -70 -87q-43 -34 -90 -34q-38 0 -101 27l-17 8q-16 7 -25 11t-24.5 8t-27.5 4q-30 0 -54 -22q-22 -20 -35 -45l-51 36q27 51 60 83q42 42 99 42q39 0 99 -29q64 -30 96 -30q29 0 51 18q20 16 37 43z" unicode="~"/>
<glyph glyph-name="uni00A0" horiz-adv-x="233" unicode=" "/>
<glyph glyph-name="exclamdown" horiz-adv-x="254" unicode="¡" d="M123 383q0 26 18 46t49 20q24 0 39 -15q16 -15 16 -40q0 -27 -20 -47q-18 -18 -46 -18q-26 0 -40 14q-16 15 -16 40zM120 272h98l-62 -502h-98z"/>
<glyph glyph-name="cent" horiz-adv-x="568" unicode="¢" d="M503 524l-13 -107q-48 52 -117 52q-61 0 -98 -35q-44 -42 -44 -111q0 -61 36 -93q32 -30 83 -30q69 0 119 49l-13 -106q-45 -27 -98 -29l-12 -101h-74l12 102q-60 11 -100 53q-54 56 -54 145q0 109 70 179q55 55 137 63l13 100h74l-13 -101q49 -3 92 -30z"/>
<glyph glyph-name="sterling" horiz-adv-x="568" unicode="£" d="M570 444h-97q2 12 2 32q0 47 -28 75q-33 33 -85 33q-53 0 -86 -33q-35 -35 -35 -90q0 -42 34 -131h130l-9 -72h-101q5 -21 5 -41q0 -47 -23 -89l39 -15q63 -24 87 -24q26 0 45 19q18 20 30 44l76 -48q-28 -53 -67 -82q-39 -31 -95 -31q-42 0 -95 20l-39 15q-48 18 -64 18 q-32 0 -54 -22q-15 -14 -26 -37l-81 44q24 44 56 73q35 31 86 36q24 42 24 79q0 20 -9 41h-114l9 72h78q-25 63 -25 125q0 100 65 163q61 60 165 60q99 0 151 -51q54 -53 54 -142q0 -11 -3 -41z"/>
<glyph glyph-name="currency" horiz-adv-x="667" unicode="¤" d="M379 211q65 0 109 45q43 44 43 111t-44 112q-44 44 -108 44t-108 -44t-44 -112q0 -66 43 -111t109 -45zM137 660l99 -99q59 48 143 48t143 -48l99 99l54 -54l-99 -99q45 -58 45 -140t-45 -140l99 -99l-54 -54l-99 99q-59 -48 -143 -48t-143 48l-99 -99l-54 54l99 99 q-45 58 -45 140t45 140l-99 99z"/>
<glyph glyph-name="yen" horiz-adv-x="568" unicode="¥" d="M569 377h-143l-50 -74h184l-8 -70h-192l-29 -233h-94l29 233h-192l8 70h184l-32 74h-143l9 70h104l-94 220h108l113 -267l179 267h112l-148 -220h104z"/>
<glyph glyph-name="brokenbar" horiz-adv-x="377" unicode="¦" d="M171 -250v360h96v-360h-96zM171 390v360h96v-360h-96z"/>
<glyph glyph-name="section" horiz-adv-x="567" unicode="§" d="M324 377q-43 0 -73 -30q-29 -31 -29 -78q0 -41 24 -64q24 -24 64 -24q49 0 77 29q29 29 29 80q0 42 -27 65q-25 22 -65 22zM548 525h-94q2 10 2 27q0 44 -24 68q-24 23 -66 23q-45 0 -70 -25q-25 -23 -25 -61q0 -41 30 -65q13 -10 81 -37q65 -25 97 -60q39 -44 39 -109 q0 -60 -35 -104q-30 -38 -73 -54q54 -44 54 -120q0 -78 -52 -130q-55 -55 -145 -55q-82 0 -128 45q-54 52 -54 146v4h94v-5q0 -54 26 -80q24 -24 68 -24q40 0 63 21q28 25 28 67q0 31 -25 56q-7 7 -17.5 14t-17 10t-20.5 9t-18 8l-18 8q-64 28 -88 54q-40 42 -40 104t31 106 q30 42 83 63q-59 43 -59 116q0 79 51 130q54 54 141 54q91 0 140 -49q43 -43 43 -119q0 -23 -2 -36z"/>
<glyph glyph-name="dieresis" d="M164 561q0 27 21 48q21 22 51 22q21 0 38 -15q16 -15 16 -39q0 -25 -20 -48q-20 -22 -47 -22q-25 0 -43 16q-16 14 -16 38zM344 561q0 27 21 48q21 22 51 22q21 0 38 -15q16 -15 16 -39q0 -25 -20 -48q-20 -22 -47 -22q-25 0 -43 16q-16 14 -16 38z" unicode="¨"/>
<glyph glyph-name="copyright" horiz-adv-x="751" unicode="©" d="M761 333q0 -151 -98 -249t-248 -98t-248 98t-98 249t98 249t248 98t248 -98t98 -249zM415 630q-122 0 -206 -84t-84 -213t84 -213t206 -84t206 84t84 213t-84 213t-206 84zM548 510v-87q-52 50 -117 50q-61 0 -101 -40q-39 -39 -39 -102q0 -59 37 -96q41 -41 106 -41 t114 51v-88q-56 -31 -121 -31q-93 0 -155 62q-57 59 -57 145q0 84 56 144q62 64 161 64q65 0 116 -31z"/>
<glyph glyph-name="ordfeminine" horiz-adv-x="368" unicode="ª" d="M90 343h267l-6 -52h-267zM249 610q-31 0 -54 -23q-28 -28 -28 -73q0 -33 20 -53q18 -18 48 -18q33 0 55 22q28 28 28 73q0 34 -18 52q-18 20 -51 20zM327 632l3 29h65l-32 -267h-66l3 25q-32 -32 -79 -32q-53 0 -88 36q-33 34 -33 87q0 69 45 114q43 43 103 43 q51 0 79 -35z"/>
<glyph glyph-name="guillemotleft" horiz-adv-x="512" unicode="«" d="M353 215l106 -165l-71 -43l-135 212l193 216l59 -51zM167 215l106 -165l-71 -43l-135 212l193 216l59 -51z"/>
<glyph glyph-name="logicalnot" d="M478 0h-98v179h-336v88h434v-267z" unicode="¬"/>
<glyph glyph-name="uni00AD" horiz-adv-x="340" unicode="­" d="M70 162l12 102h240l-12 -102h-240z"/>
<glyph glyph-name="registered" horiz-adv-x="758" unicode="®" d="M766 333q0 -151 -98 -249t-248 -98t-248 98t-98 249t98 249t248 98t248 -98t98 -249zM420 630q-122 0 -206 -84t-84 -213t84 -213t206 -84t206 84t84 213t-84 213t-206 84zM386 464v-104h14q42 0 60 15q18 16 18 41q0 28 -19 39q-13 9 -49 9h-24zM589 153h-87l-116 148 v-148h-71v374h110q64 0 95 -31q28 -28 28 -77q0 -47 -27 -77q-20 -23 -56 -33z"/>
<glyph glyph-name="macron" d="M147 508l10 78h330l-10 -78h-330z" unicode="¯"/>
<glyph glyph-name="degree" horiz-adv-x="502" unicode="°" d="M230 515q0 -36 23 -59q21 -21 56 -21q40 0 64 24q27 26 27 70q0 37 -22 59q-21 21 -57 21q-40 0 -65 -25q-26 -26 -26 -69zM168 510q0 64 41 109q44 48 115 48q59 0 98 -35q40 -36 40 -98q0 -72 -43 -115q-42 -42 -112 -42q-64 0 -104 40q-35 35 -35 93z"/>
<glyph glyph-name="plusminus" d="M64 60v90h434v-90h-434zM64 350v90h170v163h94v-163h170v-90h-170v-163h-94v163h-170z" unicode="±"/>
<glyph glyph-name="twosuperior" horiz-adv-x="371" unicode="²" d="M355 333l-8 -66h-290l166 162q36 34 58 61q28 35 28 63q0 25 -17 40q-16 15 -45 15q-33 0 -52 -19q-20 -20 -24 -54h-70q9 57 45 96q39 43 106 43q66 0 100 -36q30 -30 30 -78q0 -45 -32 -88q-22 -28 -69 -74l-67 -65h141z"/>
<glyph glyph-name="threesuperior" horiz-adv-x="372" unicode="³" d="M79 386h70q2 -28 18 -44t50 -16q32 0 51 17q20 18 20 51q0 29 -21 42q-15 10 -51 10h-14l8 66h24q37 0 53 13q17 13 17 37q0 22 -15 34q-16 12 -41 12q-31 0 -46 -16q-14 -14 -19 -39h-70q8 52 43 86q37 35 96 35q63 0 96 -33q28 -28 28 -73q0 -38 -20 -62 q-17 -21 -44 -28q21 -6 35 -24q17 -22 17 -55q0 -59 -36 -96q-40 -43 -113 -43q-66 0 -101 35t-35 91z"/>
<glyph glyph-name="acute" d="M408 675l84 -46l-173 -144l-50 34z" unicode="´"/>
<glyph glyph-name="mu" horiz-adv-x="524" unicode="µ" d="M132 -230h-98l80 651h98l-22 -181q-6 -55 -6 -67q0 -46 26 -73q24 -24 65 -24q47 0 75 28q30 29 41 118l25 199h98l-52 -421h-98l8 63q-13 -34 -43 -57q-25 -18 -63 -18q-42 0 -66 25q-21 21 -31 60z"/>
<glyph glyph-name="paragraph" horiz-adv-x="618" unicode="¶" d="M291 -96h-83l51 413h-7q-84 0 -128 45q-40 41 -40 110q0 83 49 136q34 36 82 47.5t117 11.5h297l-9 -76h-66l-85 -687h-82l85 687h-96z"/>
<glyph glyph-name="periodcentered" horiz-adv-x="200" unicode="·" d="M63 329q0 38 29 65q25 24 59 24q31 0 51 -20q19 -21 19 -47q0 -36 -26 -64q-24 -25 -60 -25q-32 0 -52 19q-20 18 -20 48z"/>
<glyph glyph-name="cedilla" d="M251 -53l79 -32l-119 -134l-60 32z" unicode="¸"/>
<glyph glyph-name="onesuperior" horiz-adv-x="370" unicode="¹" d="M195 267l41 334h-78l50 66h110l-49 -400h-74z"/>
<glyph glyph-name="ordmasculine" horiz-adv-x="369" unicode="º" d="M90 343h268l-6 -52h-268zM254 610q-39 0 -63 -24q-25 -27 -25 -68q0 -35 21 -56q20 -20 53 -20q37 0 61 24q25 27 25 70q0 34 -20 54t-52 20zM232 386q-64 0 -100 37q-34 34 -34 91q0 65 44 109t117 44q61 0 97 -35q37 -36 37 -94q0 -66 -42 -108q-44 -44 -119 -44z"/>
<glyph glyph-name="guillemotright" horiz-adv-x="504" unicode="»" d="M390 222l-109 165l71 44l139 -212l-185 -212l-59 50zM203 222l-109 165l71 44l139 -212l-185 -212l-59 50z"/>
<glyph glyph-name="onequarter" horiz-adv-x="802" unicode="¼" d="M778 430l-36 -288h43l-8 -66h-43l-9 -76h-72l9 76h-209zM592 138h78l13 103zM227 17l463 661l45 -28l-463 -661zM195 267l41 334h-78l50 66h108l-49 -400h-72z"/>
<glyph glyph-name="onehalf" horiz-adv-x="800" unicode="½" d="M752 66l-8 -66h-290l166 162q36 34 58 61q28 35 28 63q0 25 -17 40t-45 15q-33 0 -52 -19q-20 -20 -24 -54h-70q9 57 45 96q39 43 106 43q66 0 100 -36q30 -30 30 -78q0 -45 -32 -88q-22 -28 -69 -74l-67 -65h141zM167 17l463 661l45 -28l-463 -661zM195 267l41 334h-78 l50 66h108l-49 -400h-72z"/>
<glyph glyph-name="threequarters" horiz-adv-x="802" unicode="¾" d="M778 430l-36 -288h43l-8 -66h-43l-9 -76h-72l9 76h-209zM592 138h78l13 103zM227 17l463 661l45 -28l-463 -661zM79 386h70q2 -28 18 -44t50 -16q32 0 51 17q20 18 20 51q0 29 -21 42q-15 10 -51 10h-14l8 66h24q37 0 53 13q17 13 17 38q0 21 -15 33q-16 12 -41 12 q-31 0 -46 -16q-14 -14 -19 -39h-70q8 52 43 86q37 35 96 35q63 0 96 -33q28 -28 28 -73q0 -38 -20 -62q-17 -21 -44 -28q21 -6 35 -24q17 -22 17 -55q0 -59 -36 -96q-40 -43 -113 -43q-66 0 -101 35t-35 91z"/>
<glyph glyph-name="questiondown" horiz-adv-x="434" unicode="¿" d="M211 383q0 26 18 46t49 20q24 0 39 -15q16 -15 16 -40q0 -27 -20 -47q-18 -18 -46 -18q-26 0 -40 14q-16 15 -16 40zM280 -48h102v-5q0 -96 -49 -144q-47 -45 -130 -45q-70 0 -112 42q-39 39 -39 99q0 66 44 113q33 35 106 61q65 23 76 34q18 15 18 39q0 21 -13 33 t-35 12q-28 0 -43 -21q-11 -17 -13 -47h-98q7 75 49 117q41 41 112 41q65 0 102 -35q38 -34 38 -97q0 -58 -37 -95q-31 -31 -82 -50q-83 -29 -101 -46q-23 -22 -23 -53q0 -25 16 -41t45 -16q34 0 53 23q6 7 9 19t3.5 18t1 24t0.5 20z"/>
<glyph glyph-name="Agrave" horiz-adv-x="656" unicode="À" d="M433 727l-161 119l93 60l121 -139zM263 257h202l-72 226zM544 0l-50 161h-285l-93 -161h-112l419 706l229 -706h-108z"/>
<glyph glyph-name="Aacute" horiz-adv-x="656" unicode="Á" d="M401 727l-43 40l155 139l79 -60zM263 257h202l-72 226zM544 0l-50 161h-285l-93 -161h-112l419 706l229 -706h-108z"/>
<glyph glyph-name="Acircumflex" horiz-adv-x="656" unicode="Â" d="M429 812l-109 -82l-62 56l181 134l149 -134l-70 -56zM263 257h202l-72 226zM544 0l-50 161h-285l-93 -161h-112l419 706l229 -706h-108z"/>
<glyph glyph-name="Atilde" horiz-adv-x="656" unicode="Ã" d="M558 863l52 -46q-22 -37 -48 -58q-31 -26 -76 -26q-25 0 -61 16l-21 10q-32 16 -49 16q-18 0 -34 -14q-12 -10 -22 -28l-54 41q26 35 49 54q33 27 74 27q32 0 60 -15l19 -10q36 -19 50 -19q21 0 38 19q11 12 23 33zM263 257h202l-72 226zM544 0l-50 161h-285l-93 -161 h-112l419 706l229 -706h-108z"/>
<glyph glyph-name="Adieresis" horiz-adv-x="656" unicode="Ä" d="M268 788q0 28 21 49q20 20 50 20q24 0 38 -15q16 -16 16 -41q0 -30 -21 -49t-49 -19q-24 0 -39 15q-16 15 -16 40zM463 788q0 28 21 49q20 20 50 20q24 0 38 -15q16 -16 16 -41q0 -30 -21 -49t-49 -19q-24 0 -39 15q-16 15 -16 40zM263 257h202l-72 226zM544 0l-50 161 h-285l-93 -161h-112l419 706l229 -706h-108z"/>
<glyph glyph-name="Aring" horiz-adv-x="656" unicode="Å" d="M388 819q0 -18 11 -29q10 -10 27 -10q21 0 35 14q13 13 13 34q0 16 -11 27t-27 11q-19 0 -34 -13q-14 -14 -14 -34zM333 815q0 42 27 71q31 34 80 34q40 0 64 -24q25 -24 25 -64q0 -47 -29 -76q-30 -30 -78 -30q-39 0 -63 24q-26 26 -26 65zM263 257h202l-72 226zM544 0 l-50 161h-285l-93 -161h-112l419 706l229 -706h-108z"/>
<glyph glyph-name="AE" horiz-adv-x="926" unicode="Æ" d="M269 255h198l-68 217zM546 0l-50 159h-283l-93 -159h-110l402 667h295l30 -96h-265l51 -159h258l30 -96h-258l68 -220h265l30 -96h-370z"/>
<glyph glyph-name="Ccedilla" horiz-adv-x="622" unicode="Ç" d="M343 -53l82 -38l-129 -133l-60 32zM653 631l-14 -120q-74 74 -183 74q-110 0 -181 -68q-38 -36 -61 -93t-23 -123q0 -95 58 -157q58 -63 157 -63t189 77l-14 -121q-92 -50 -184 -50q-136 0 -219 83q-89 89 -89 231q0 168 110 276q105 102 264 102q93 0 190 -48z"/>
<glyph glyph-name="Egrave" d="M375 727l-161 119l93 60l121 -139zM530 667l-12 -96h-266l-20 -169h258l-12 -96h-258l-26 -210h266l-12 -96h-368l82 667h368z" unicode="È"/>
<glyph glyph-name="Eacute" d="M323 727l-43 40l155 139l79 -60zM530 667l-12 -96h-266l-20 -169h258l-12 -96h-258l-26 -210h266l-12 -96h-368l82 667h368z" unicode="É"/>
<glyph glyph-name="Ecircumflex" d="M373 812l-109 -82l-62 56l181 134l149 -134l-70 -56zM530 667l-12 -96h-266l-20 -169h258l-12 -96h-258l-26 -210h266l-12 -96h-368l82 667h368z" unicode="Ê"/>
<glyph glyph-name="Edieresis" d="M208 788q0 28 21 49q20 20 50 20q24 0 38 -15q16 -16 16 -41q0 -30 -21 -49t-49 -19q-24 0 -39 15q-16 15 -16 40zM403 788q0 28 21 49q20 20 50 20q24 0 38 -15q16 -16 16 -41q0 -30 -21 -49t-49 -19q-24 0 -39 15q-16 15 -16 40zM530 667l-12 -96h-266l-20 -169h258 l-12 -96h-258l-26 -210h266l-12 -96h-368l82 667h368z" unicode="Ë"/>
<glyph glyph-name="Igrave" horiz-adv-x="262" unicode="Ì" d="M217 713l-120 161l103 35l77 -169zM162 667h102l-82 -667h-102z"/>
<glyph glyph-name="Iacute" horiz-adv-x="262" unicode="Í" d="M286 909l93 -35l-158 -161l-54 27zM162 667h102l-82 -667h-102z"/>
<glyph glyph-name="Icircumflex" horiz-adv-x="262" unicode="Î" d="M231 812l-89 -77l-53 49l154 131l122 -131l-65 -49zM162 667h102l-82 -667h-102z"/>
<glyph glyph-name="Idieresis" horiz-adv-x="262" unicode="Ï" d="M112 788q0 27 19 46q16 17 38 17q19 0 32 -15q12 -14 12 -33q0 -26 -18 -46q-15 -18 -38 -18q-17 0 -31 14q-14 16 -14 35zM245 789q0 27 19 46q18 16 38 16t32 -15q12 -14 12 -33q0 -26 -18 -46q-15 -18 -38 -18q-17 0 -31 14q-14 16 -14 36zM162 667h102l-82 -667h-102 z"/>
<glyph glyph-name="Eth" horiz-adv-x="646" unicode="Ð" d="M252 571l-20 -161h140l-10 -86h-140l-28 -228h44q171 0 243 85q56 65 56 171q0 103 -55 160q-58 59 -186 59h-44zM130 410l32 257h140q169 0 256 -83q81 -76 81 -218q0 -166 -94 -260q-64 -64 -150 -85t-191 -21h-25h-99l40 324h-80l10 86h80z"/>
<glyph glyph-name="Ntilde" horiz-adv-x="746" unicode="Ñ" d="M598 863l52 -46q-22 -37 -48 -58q-31 -26 -76 -26q-25 0 -61 16l-21 10q-32 16 -49 16q-18 0 -34 -14q-12 -10 -22 -28l-54 41q26 35 49 54q33 27 74 27q32 0 60 -15l19 -10q36 -19 50 -19q21 0 38 19q11 12 23 33zM182 0h-102l87 712l422 -507l57 462h102l-87 -708 l-422 507z"/>
<glyph glyph-name="Ograve" horiz-adv-x="796" unicode="Ò" d="M525 727l-161 119l93 60l121 -139zM410 81q124 0 196 72q38 37 59.5 92.5t21.5 114.5q0 95 -60 157q-66 68 -169 68q-110 0 -185 -74q-83 -81 -83 -204q0 -98 62 -162q60 -64 158 -64zM478 679q138 0 225 -87q86 -85 86 -226q0 -169 -105 -276q-102 -103 -275 -103 q-148 0 -231 86q-89 91 -89 227q0 79 29 151.5t80 122.5q105 105 280 105z"/>
<glyph glyph-name="Oacute" horiz-adv-x="796" unicode="Ó" d="M443 727l-43 40l155 139l79 -60zM410 81q124 0 196 72q38 37 59.5 92.5t21.5 114.5q0 95 -60 157q-66 68 -169 68q-110 0 -185 -74q-83 -81 -83 -204q0 -98 62 -162q60 -64 158 -64zM478 679q138 0 225 -87q86 -85 86 -226q0 -169 -105 -276q-102 -103 -275 -103 q-148 0 -231 86q-89 91 -89 227q0 79 29 151.5t80 122.5q105 105 280 105z"/>
<glyph glyph-name="Ocircumflex" horiz-adv-x="796" unicode="Ô" d="M498 812l-109 -82l-62 56l181 134l149 -134l-70 -56zM410 81q124 0 196 72q38 37 59.5 92.5t21.5 114.5q0 95 -60 157q-66 68 -169 68q-110 0 -185 -74q-83 -81 -83 -204q0 -98 62 -162q60 -64 158 -64zM478 679q138 0 225 -87q86 -85 86 -226q0 -169 -105 -276 q-102 -103 -275 -103q-148 0 -231 86q-89 91 -89 227q0 79 29 151.5t80 122.5q105 105 280 105z"/>
<glyph glyph-name="Otilde" horiz-adv-x="796" unicode="Õ" d="M623 863l52 -46q-22 -37 -48 -58q-31 -26 -76 -26q-25 0 -61 16l-21 10q-32 16 -49 16q-18 0 -34 -14q-12 -10 -22 -28l-54 41q26 35 49 54q33 27 74 27q31 0 60 -15l19 -10q36 -19 50 -19q21 0 38 19q11 12 23 33zM410 81q124 0 196 72q38 37 59.5 92.5t21.5 114.5 q0 95 -60 157q-66 68 -169 68q-110 0 -185 -74q-83 -81 -83 -204q0 -98 62 -162q60 -64 158 -64zM478 679q138 0 225 -87q86 -85 86 -226q0 -169 -105 -276q-102 -103 -275 -103q-148 0 -231 86q-89 91 -89 227q0 79 29 151.5t80 122.5q105 105 280 105z"/>
<glyph glyph-name="Odieresis" horiz-adv-x="796" unicode="Ö" d="M328 788q0 28 21 49q20 20 50 20q24 0 38 -15q16 -16 16 -41q0 -30 -21 -49t-49 -19q-24 0 -39 15q-16 15 -16 40zM523 788q0 28 21 49q20 20 50 20q24 0 38 -15q16 -16 16 -41q0 -30 -21 -49t-49 -19q-24 0 -39 15q-16 15 -16 40zM410 81q124 0 196 72q38 37 59.5 92.5 t21.5 114.5q0 95 -60 157q-66 68 -169 68q-110 0 -185 -74q-83 -81 -83 -204q0 -98 62 -162q60 -64 158 -64zM478 679q138 0 225 -87q86 -85 86 -226q0 -169 -105 -276q-102 -103 -275 -103q-148 0 -231 86q-89 91 -89 227q0 79 29 151.5t80 122.5q105 105 280 105z"/>
<glyph glyph-name="multiply" d="M86 193l142 143l-142 143l63 63l143 -142l143 142l63 -63l-142 -143l142 -143l-63 -63l-143 142l-143 -142z" unicode="×"/>
<glyph glyph-name="Oslash" horiz-adv-x="796" unicode="Ø" d="M212 192l387 344q-66 49 -148 49q-110 0 -185 -74q-83 -82 -83 -201q0 -62 29 -118zM649 479l-391 -347q63 -51 149 -51q120 0 192 72q81 79 81 211q0 64 -31 115zM26 27l107 95q-51 82 -51 178q0 79 29 151.5t80 122.5q107 105 275 105q122 0 213 -72l109 97l50 -57 l-108 -96q52 -81 52 -184q0 -170 -105 -277q-102 -103 -275 -103q-72 0 -123 17.5t-98 59.5l-105 -94z"/>
<glyph glyph-name="Ugrave" horiz-adv-x="656" unicode="Ù" d="M432 727l-161 119l93 60l121 -139zM164 667h102l-46 -375q-7 -70 -7 -76q0 -64 35 -99q36 -36 94 -36q66 0 111 43q20 20 31.5 45.5t15 44t7.5 51.5l49 402h102l-53 -429q-16 -128 -94 -194q-69 -57 -177 -57q-119 0 -181 78q-44 54 -44 137q0 25 11 111z"/>
<glyph glyph-name="Uacute" horiz-adv-x="656" unicode="Ú" d="M400 727l-43 40l155 139l79 -60zM164 667h102l-46 -375q-7 -70 -7 -76q0 -64 35 -99q36 -36 94 -36q66 0 111 43q20 20 31.5 45.5t15 44t7.5 51.5l49 402h102l-53 -429q-16 -128 -94 -194q-69 -57 -177 -57q-119 0 -181 78q-44 54 -44 137q0 25 11 111z"/>
<glyph glyph-name="Ucircumflex" horiz-adv-x="656" unicode="Û" d="M430 812l-109 -82l-62 56l181 134l149 -134l-70 -56zM164 667h102l-46 -375q-7 -70 -7 -76q0 -64 35 -99q36 -36 94 -36q66 0 111 43q20 20 31.5 45.5t15 44t7.5 51.5l49 402h102l-53 -429q-16 -128 -94 -194q-69 -57 -177 -57q-119 0 -181 78q-44 54 -44 137 q0 25 11 111z"/>
<glyph glyph-name="Udieresis" horiz-adv-x="656" unicode="Ü" d="M265 788q0 28 21 49q20 20 50 20q24 0 38 -15q16 -16 16 -41q0 -30 -21 -49t-49 -19q-24 0 -39 15q-16 15 -16 40zM460 788q0 28 21 49q20 20 50 20q24 0 38 -15q16 -16 16 -41q0 -30 -21 -49t-49 -19q-24 0 -39 15q-16 15 -16 40zM164 667h102l-46 -375q-7 -70 -7 -76 q0 -64 35 -99q36 -36 94 -36q66 0 111 43q20 20 31.5 45.5t15 44t7.5 51.5l49 402h102l-53 -429q-16 -128 -94 -194q-69 -57 -177 -57q-119 0 -181 78q-44 54 -44 137q0 25 11 111z"/>
<glyph glyph-name="Yacute" horiz-adv-x="540" unicode="Ý" d="M343 727l-43 40l155 139l79 -60zM219 0l35 288l-172 379h114l121 -267l187 267h118l-266 -379l-35 -288h-102z"/>
<glyph glyph-name="Thorn" horiz-adv-x="482" unicode="Þ" d="M240 473l-25 -208h38q83 0 118 31q34 29 34 83q0 45 -31 71q-28 23 -91 23h-43zM162 667h102l-12 -100h41q107 0 161 -52q49 -47 49 -130q0 -93 -57 -150q-64 -64 -209 -64h-34l-21 -171h-102z"/>
<glyph glyph-name="germandbls" horiz-adv-x="559" unicode="ß" d="M167 0h-98l41 334h-70l11 87h70l13 106q13 103 64 155q57 59 154 59q85 0 134 -48q48 -46 48 -122q0 -50 -25 -93q-24 -38 -63 -57q41 -21 64 -49q37 -43 37 -115q0 -110 -71 -184q-83 -87 -226 -87l12 94q83 0 136 50q49 46 49 114q0 54 -34 86q-38 36 -116 36l11 89h13 q59 0 90 34q27 30 27 76q0 39 -26 65q-24 23 -66 23q-45 0 -74 -28q-33 -32 -40 -93z"/>
<glyph glyph-name="agrave" horiz-adv-x="532" unicode="à" d="M326 485l-139 144l96 46l101 -156zM298 344q-49 0 -84 -33q-47 -45 -47 -118q0 -53 33 -88q28 -30 71 -30q55 0 92 37q43 45 43 115q0 56 -33 89q-28 28 -75 28zM418 372l6 49h98l-52 -421h-98l5 44q-28 -30 -56 -42q-35 -15 -77 -15q-72 0 -120 46q-58 56 -58 152 q0 115 73 188q59 59 154 59q44 0 77 -18q28 -15 48 -42z"/>
<glyph glyph-name="aacute" horiz-adv-x="532" unicode="á" d="M388 675l84 -46l-173 -144l-50 34zM298 344q-49 0 -84 -33q-47 -45 -47 -118q0 -53 33 -88q28 -30 71 -30q55 0 92 37q43 45 43 115q0 56 -33 89q-28 28 -75 28zM418 372l6 49h98l-52 -421h-98l5 44q-28 -30 -56 -42q-35 -15 -77 -15q-72 0 -120 46q-58 56 -58 152 q0 115 73 188q59 59 154 59q44 0 77 -18q28 -15 48 -42z"/>
<glyph glyph-name="acircumflex" horiz-adv-x="532" unicode="â" d="M322 571l-98 -86l-62 52l171 138l137 -138l-70 -52zM298 344q-49 0 -84 -33q-47 -45 -47 -118q0 -53 33 -88q28 -30 71 -30q55 0 92 37q43 45 43 115q0 56 -33 89q-28 28 -75 28zM418 372l6 49h98l-52 -421h-98l5 44q-28 -30 -56 -42q-35 -15 -77 -15q-72 0 -120 46 q-58 56 -58 152q0 115 73 188q59 59 154 59q44 0 77 -18q28 -15 48 -42z"/>
<glyph glyph-name="atilde" horiz-adv-x="532" unicode="ã" d="M448 622l53 -46q-18 -32 -45 -55q-37 -31 -80 -31q-30 0 -60 18l-20 12q-31 18 -50 18q-21 0 -36 -17q-9 -9 -21 -29l-54 41q26 36 49 54q35 27 75 27q35 0 67 -20l15 -10q26 -18 47 -18q22 0 39 21q13 16 21 35zM298 344q-49 0 -84 -33q-47 -45 -47 -118q0 -53 33 -88 q28 -30 71 -30q55 0 92 37q43 45 43 115q0 56 -33 89q-28 28 -75 28zM418 372l6 49h98l-52 -421h-98l5 44q-28 -30 -56 -42q-35 -15 -77 -15q-72 0 -120 46q-58 56 -58 152q0 115 73 188q59 59 154 59q44 0 77 -18q28 -15 48 -42z"/>
<glyph glyph-name="adieresis" horiz-adv-x="532" unicode="ä" d="M164 561q0 27 21 48q21 22 51 22q21 0 38 -15q16 -15 16 -39q0 -25 -20 -48q-20 -22 -47 -22q-25 0 -43 16q-16 14 -16 38zM344 561q0 27 21 48q21 22 51 22q21 0 38 -15q16 -15 16 -39q0 -25 -20 -48q-20 -22 -47 -22q-25 0 -43 16q-16 14 -16 38zM298 344 q-49 0 -84 -33q-47 -45 -47 -118q0 -53 33 -88q28 -30 71 -30q55 0 92 37q43 45 43 115q0 56 -33 89q-28 28 -75 28zM418 372l6 49h98l-52 -421h-98l5 44q-28 -30 -56 -42q-35 -15 -77 -15q-72 0 -120 46q-58 56 -58 152q0 115 73 188q59 59 154 59q44 0 77 -18 q28 -15 48 -42z"/>
<glyph glyph-name="aring" horiz-adv-x="532" unicode="å" d="M277 575q0 -17 11 -28t29 -11q21 0 33 12q14 12 14 36q0 18 -13 29q-10 9 -28 9q-20 0 -34 -14q-12 -14 -12 -33zM226 573q0 42 26 70q28 30 75 30q39 0 64 -23q25 -24 25 -62q0 -46 -29 -75q-28 -28 -70 -28q-41 0 -67 26q-24 26 -24 62zM298 344q-49 0 -84 -33 q-47 -45 -47 -118q0 -53 33 -88q28 -30 71 -30q55 0 92 37q43 45 43 115q0 56 -33 89q-28 28 -75 28zM418 372l6 49h98l-52 -421h-98l5 44q-28 -30 -56 -42q-35 -15 -77 -15q-72 0 -120 46q-58 56 -58 152q0 115 73 188q59 59 154 59q44 0 77 -18q28 -15 48 -42z"/>
<glyph glyph-name="ae" horiz-adv-x="762" unicode="æ" d="M454 267h196q-5 37 -25 58q-21 23 -61 23t-71 -25q-25 -20 -39 -56zM244 187q-48 0 -75 -23q-18 -15 -18 -39q0 -23 24 -39q23 -15 57 -15q42 0 67 16q28 18 28 47q0 23 -22 38t-61 15zM140 328l11 91q62 13 119 13q56 0 91 -15q34 -16 53 -43q26 25 57 38q45 20 95 20 q79 0 127 -49q52 -55 52 -147q0 -25 -5 -49h-301q0 -52 31 -85q25 -27 69 -27q37 0 67 19q27 18 44 48l77 -46q-30 -50 -78 -79q-50 -30 -118 -30q-52 0 -93 19q-34 16 -59 49q-27 -34 -66 -51q-38 -17 -97 -17q-68 0 -110 32q-50 37 -50 105q0 60 43 101q48 46 135 46 q71 0 113 -28q2 9 2 24q0 39 -27 60q-23 17 -70 17q-53 0 -112 -16z"/>
<glyph glyph-name="ccedilla" horiz-adv-x="422" unicode="ç" d="M231 -53l79 -32l-119 -134l-60 32zM439 396l-13 -106q-25 25 -50 38q-31 16 -62 16q-67 0 -107 -42t-40 -104q0 -58 36 -92q33 -31 87 -31q36 0 68 15q32 18 48 36l-13 -110q-44 -29 -125 -29q-89 0 -143 54q-59 57 -59 153q0 103 70 173q66 65 172 65q75 0 131 -36z"/>
<glyph glyph-name="egrave" horiz-adv-x="489" unicode="è" d="M331 485l-139 144l96 46l101 -156zM181 267h196q-5 37 -25 58q-21 23 -61 23t-71 -25q-25 -20 -39 -56zM377 142l77 -46q-30 -50 -78 -79q-51 -30 -118 -30q-83 0 -135 53q-57 57 -57 150q0 109 73 180q64 62 154 62q80 0 127 -49q52 -54 52 -147q0 -25 -5 -49h-301 q0 -52 31 -85q25 -27 69 -27q37 0 67 19q27 18 44 48z"/>
<glyph glyph-name="eacute" horiz-adv-x="489" unicode="é" d="M388 675l84 -46l-173 -144l-50 34zM181 267h196q-5 37 -25 58q-21 23 -61 23t-71 -25q-25 -20 -39 -56zM377 142l77 -46q-30 -50 -78 -79q-51 -30 -118 -30q-83 0 -135 53q-57 57 -57 150q0 109 73 180q64 62 154 62q80 0 127 -49q52 -54 52 -147q0 -25 -5 -49h-301 q0 -52 31 -85q25 -27 69 -27q37 0 67 19q27 18 44 48z"/>
<glyph glyph-name="ecircumflex" horiz-adv-x="489" unicode="ê" d="M308 571l-98 -86l-62 52l171 138l137 -138l-70 -52zM181 267h196q-5 37 -25 58q-21 23 -61 23t-71 -25q-25 -20 -39 -56zM377 142l77 -46q-30 -50 -78 -79q-51 -30 -118 -30q-83 0 -135 53q-57 57 -57 150q0 109 73 180q64 62 154 62q80 0 127 -49q52 -54 52 -147 q0 -25 -5 -49h-301q0 -52 31 -85q25 -27 69 -27q37 0 67 19q27 18 44 48z"/>
<glyph glyph-name="edieresis" horiz-adv-x="489" unicode="ë" d="M150 561q0 27 21 48q21 22 51 22q21 0 38 -15q16 -15 16 -39q0 -25 -20 -48q-20 -22 -47 -22q-25 0 -43 16q-16 14 -16 38zM330 561q0 27 21 48q21 22 51 22q21 0 38 -15q16 -15 16 -39q0 -25 -20 -48q-20 -22 -47 -22q-25 0 -43 16q-16 14 -16 38zM181 267h196 q-5 37 -25 58q-21 23 -61 23t-71 -25q-25 -20 -39 -56zM377 142l77 -46q-30 -50 -78 -79q-51 -30 -118 -30q-83 0 -135 53q-57 57 -57 150q0 109 73 180q64 62 154 62q80 0 127 -49q52 -54 52 -147q0 -25 -5 -49h-301q0 -52 31 -85q25 -27 69 -27q37 0 67 19q27 18 44 48z "/>
<glyph glyph-name="igrave" horiz-adv-x="223" unicode="ì" d="M169 475l-93 178l104 23l52 -183zM115 421h98l-52 -421h-98z"/>
<glyph glyph-name="iacute" horiz-adv-x="223" unicode="í" d="M210 676l98 -23l-137 -178l-57 18zM115 421h98l-52 -421h-98z"/>
<glyph glyph-name="icircumflex" horiz-adv-x="223" unicode="î" d="M182 568l-79 -73l-49 46l140 125l108 -125l-59 -46zM115 421h98l-52 -421h-98z"/>
<glyph glyph-name="idieresis" horiz-adv-x="233" unicode="ï" d="M137 658q20 0 32 -17q10 -13 10 -33q0 -27 -15 -50q-16 -24 -41 -24q-18 0 -31 13t-13 38q0 37 23 58q17 15 35 15zM257 658q20 0 32 -17q10 -13 10 -33q0 -28 -15 -50q-16 -24 -41 -24q-18 0 -31 13t-13 38q0 37 23 58q17 15 35 15zM119 421h98l-52 -421h-98z"/>
<glyph glyph-name="eth" horiz-adv-x="527" unicode="ð" d="M273 75q64 0 102 42q40 43 40 109q0 62 -38 93q-31 25 -77 25q-58 0 -95 -39q-40 -43 -40 -113q0 -59 32 -89q28 -28 76 -28zM156 593l40 77q110 -6 195 -66l133 42l17 -58l-103 -32q41 -38 64 -94q23 -58 23 -145q0 -188 -86 -270q-62 -60 -162 -60q-102 0 -157 56 q-55 57 -55 145q0 106 66 176q63 68 166 68q82 0 127 -47q-9 88 -84 139l-185 -59l-17 59l141 45q-55 24 -116 24h-7z"/>
<glyph glyph-name="ntilde" horiz-adv-x="485" unicode="ñ" d="M441 622l53 -46q-18 -32 -45 -55q-37 -31 -80 -31q-30 0 -60 18l-20 12q-31 18 -50 18q-21 0 -36 -17q-9 -9 -21 -29l-54 41q26 36 49 54q35 27 75 27q34 0 67 -20l15 -10q26 -18 47 -18t39 21q13 16 21 35zM61 0l52 421h98l-5 -38q16 20 42 33q33 16 72 16q64 0 100 -36 q38 -38 38 -100q0 -18 -9 -89l-26 -207h-98l27 217q5 37 5 56q0 36 -19 54q-18 17 -50 17q-40 0 -63 -23q-30 -29 -41 -118l-25 -203h-98z"/>
<glyph glyph-name="ograve" horiz-adv-x="534" unicode="ò" d="M331 485l-139 144l96 46l101 -156zM287 75q56 0 93 40q40 43 40 109q0 54 -33 88q-31 32 -80 32q-58 0 -95 -35q-46 -43 -46 -110q0 -51 31 -87q34 -37 90 -37zM313 432q94 0 150 -56q57 -59 57 -146q0 -107 -73 -178q-68 -65 -173 -65q-94 0 -150 57q-58 60 -58 147 q0 106 73 176q68 65 174 65z"/>
<glyph glyph-name="oacute" horiz-adv-x="534" unicode="ó" d="M403 675l84 -46l-173 -144l-50 34zM287 75q56 0 93 40q40 43 40 109q0 54 -33 88q-31 32 -80 32q-58 0 -95 -35q-46 -43 -46 -110q0 -51 31 -87q34 -37 90 -37zM313 432q94 0 150 -56q57 -59 57 -146q0 -107 -73 -178q-68 -65 -173 -65q-94 0 -150 57q-58 60 -58 147 q0 106 73 176q68 65 174 65z"/>
<glyph glyph-name="ocircumflex" horiz-adv-x="534" unicode="ô" d="M327 571l-98 -86l-62 52l171 138l137 -138l-70 -52zM287 75q56 0 93 40q40 43 40 109q0 54 -33 88q-31 32 -80 32q-58 0 -95 -35q-46 -43 -46 -110q0 -51 31 -87q34 -37 90 -37zM313 432q94 0 150 -56q57 -59 57 -146q0 -107 -73 -178q-68 -65 -173 -65q-94 0 -150 57 q-58 60 -58 147q0 106 73 176q68 65 174 65z"/>
<glyph glyph-name="otilde" horiz-adv-x="534" unicode="õ" d="M453 622l53 -46q-18 -32 -45 -55q-37 -31 -80 -31q-30 0 -60 18l-20 12q-31 18 -50 18q-21 0 -36 -17q-9 -9 -21 -29l-54 41q26 36 49 54q35 27 75 27q34 0 67 -20l15 -10q26 -18 47 -18t39 21q13 16 21 35zM287 75q56 0 93 40q40 43 40 109q0 54 -33 88q-31 32 -80 32 q-58 0 -95 -35q-46 -43 -46 -110q0 -51 31 -87q34 -37 90 -37zM313 432q94 0 150 -56q57 -59 57 -146q0 -107 -73 -178q-68 -65 -173 -65q-94 0 -150 57q-58 60 -58 147q0 106 73 176q68 65 174 65z"/>
<glyph glyph-name="odieresis" horiz-adv-x="534" unicode="ö" d="M169 561q0 27 21 48q21 22 51 22q21 0 38 -15q16 -15 16 -39q0 -25 -20 -48q-20 -22 -47 -22q-25 0 -43 16q-16 14 -16 38zM349 561q0 27 21 48q21 22 51 22q21 0 38 -15q16 -15 16 -39q0 -25 -20 -48q-20 -22 -47 -22q-25 0 -43 16q-16 14 -16 38zM287 75q56 0 93 40 q40 43 40 109q0 54 -33 88q-31 32 -80 32q-58 0 -95 -35q-46 -43 -46 -110q0 -51 31 -87q34 -37 90 -37zM313 432q94 0 150 -56q57 -59 57 -146q0 -107 -73 -178q-68 -65 -173 -65q-94 0 -150 57q-58 60 -58 147q0 106 73 176q68 65 174 65z"/>
<glyph glyph-name="divide" d="M75 291v90h434v-90h-434zM232 159q0 25 17.5 42.5t42.5 17.5t42.5 -17.5t17.5 -42.5t-17.5 -42.5t-42.5 -17.5t-42.5 17.5t-17.5 42.5zM232 513q0 25 17.5 42.5t42.5 17.5t42.5 -17.5t17.5 -42.5t-17.5 -42.5t-42.5 -17.5t-42.5 17.5t-17.5 42.5z" unicode="÷"/>
<glyph glyph-name="oslash" horiz-adv-x="534" unicode="ø" d="M174 147l198 176q-26 21 -65 21q-59 0 -97 -35q-46 -43 -46 -110q0 -27 10 -52zM409 274l-198 -177q31 -22 72 -22q58 0 95 40q40 42 40 107q0 30 -9 52zM15 7l81 73q-32 53 -32 111q0 106 73 176q68 65 173 65q80 0 137 -43l82 72l38 -46l-80 -72q31 -52 31 -113 q0 -107 -73 -178q-66 -65 -175 -65q-79 0 -133 43l-78 -69z"/>
<glyph glyph-name="ugrave" horiz-adv-x="485" unicode="ù" d="M301 485l-139 144l96 46l101 -156zM115 421h98l-27 -219q-5 -37 -5 -49q0 -38 20 -58t55 -20q37 0 61 22q21 20 30 83l30 241h98l-30 -244q-12 -102 -57 -145q-47 -45 -133 -45q-90 0 -134 46q-39 41 -39 102q0 14 5 57z"/>
<glyph glyph-name="uacute" horiz-adv-x="485" unicode="ú" d="M388 675l84 -46l-173 -144l-50 34zM115 421h98l-27 -219q-5 -37 -5 -49q0 -38 20 -58t55 -20q37 0 61 22q21 20 30 83l30 241h98l-30 -244q-12 -102 -57 -145q-47 -45 -133 -45q-90 0 -134 46q-39 41 -39 102q0 14 5 57z"/>
<glyph glyph-name="ucircumflex" horiz-adv-x="485" unicode="û" d="M314 571l-98 -86l-62 52l171 138l137 -138l-70 -52zM115 421h98l-27 -219q-5 -37 -5 -49q0 -38 20 -58t55 -20q37 0 61 22q21 20 30 83l30 241h98l-30 -244q-12 -102 -57 -145q-47 -45 -133 -45q-90 0 -134 46q-39 41 -39 102q0 14 5 57z"/>
<glyph glyph-name="udieresis" horiz-adv-x="485" unicode="ü" d="M156 561q0 27 21 48q21 22 51 22q21 0 38 -15q16 -15 16 -39q0 -25 -20 -48q-20 -22 -47 -22q-25 0 -43 16q-16 14 -16 38zM336 561q0 27 21 48q21 22 51 22q21 0 38 -15q16 -15 16 -39q0 -25 -20 -48q-20 -22 -47 -22q-25 0 -43 16q-16 14 -16 38zM115 421h98l-27 -219 q-5 -37 -5 -49q0 -38 20 -58t55 -20q37 0 61 22q21 20 30 83l30 241h98l-30 -244q-12 -102 -57 -145q-47 -45 -133 -45q-90 0 -134 46q-39 41 -39 102q0 14 5 57z"/>
<glyph glyph-name="yacute" horiz-adv-x="482" unicode="ý" d="M399 675l84 -46l-173 -144l-50 34zM3 -229l200 307l-145 343h116l95 -237l147 237h112l-415 -650h-110z"/>
<glyph glyph-name="thorn" horiz-adv-x="532" unicode="þ" d="M308 344q-52 0 -84 -31q-46 -44 -46 -122q0 -54 28 -83q31 -33 80 -33t83 34q48 48 48 118q0 52 -30 85q-29 32 -79 32zM166 49l-34 -278h-98l119 958h98l-45 -354q19 26 50 40q35 17 75 17q82 0 134 -54q53 -55 53 -143q0 -53 -19.5 -103.5t-51.5 -84.5 q-58 -61 -140 -61q-56 0 -95 23q-25 15 -46 40z"/>
<glyph glyph-name="OE" horiz-adv-x="1061" unicode="Œ" d="M413 81q118 0 192 72q38 37 59.5 92.5t21.5 114.5q0 95 -60 157q-66 68 -169 68q-108 0 -182 -74q-83 -81 -83 -204q0 -98 62 -162q60 -64 159 -64zM1091 667l-12 -96h-266l-19 -159h258l-12 -96h-258l-27 -220h266l-12 -96h-262h-106l10 81q-44 -45 -94 -67 q-59 -27 -141 -27q-72 0 -130 17.5t-108 68.5q-89 91 -89 227q0 79 29 151.5t80 122.5q107 105 276 105q79 0 146 -35q57 -29 90 -80l13 103h368z"/>
<glyph glyph-name="oe" horiz-adv-x="845" unicode="œ" d="M537 267h196q-3 38 -30 62q-23 19 -56 19q-43 0 -71 -25q-25 -20 -39 -56zM287 75q56 0 93 40q40 44 40 109q0 54 -33 88q-32 32 -82 32q-55 0 -92 -35q-46 -43 -46 -110q0 -51 31 -87q34 -37 89 -37zM733 142l77 -46q-30 -50 -78 -79q-51 -30 -120 -30q-58 0 -101 25 q-35 21 -58 58q-27 -35 -71 -59q-50 -24 -110 -24q-92 0 -148 57q-58 58 -58 147q0 108 71 176q67 65 176 65q59 0 103 -22q41 -20 66 -56q26 34 66 56q42 22 101 22q80 0 127 -49q52 -55 52 -147q0 -25 -5 -49h-301q0 -52 31 -85q25 -27 69 -27q37 0 67 19q27 18 44 48z "/>
<glyph glyph-name="Scaron" horiz-adv-x="516" unicode="Š" d="M361 838l109 82l61 -56l-181 -134l-149 134l71 56zM520 567l-88 -48q-8 30 -30 47q-26 19 -66 19q-48 0 -76 -26q-28 -25 -28 -60q0 -29 24 -51q7 -7 16 -12.5t14.5 -8t17.5 -7.5t17 -7l54 -24q55 -24 84 -61q35 -43 35 -109q0 -100 -61 -165q-65 -67 -174 -67 q-86 0 -134 47q-59 57 -62 150l103 22v-6q0 -54 23 -84q27 -35 85 -35q48 0 79 28q38 34 38 98q0 35 -26 63q-19 20 -68 42l-51 23q-52 24 -79 53q-37 42 -37 98q0 73 53 129q61 64 159 64q69 0 115 -31q45 -30 63 -81z"/>
<glyph glyph-name="scaron" horiz-adv-x="364" unicode="š" d="M250 589l99 86l62 -52l-170 -138l-138 138l70 52zM354 358l-76 -48q-7 16 -20 26q-12 10 -30 10q-22 0 -34 -12q-9 -9 -9 -22q0 -15 12 -24q4 -4 41 -22l28 -14q34 -17 53 -36q32 -34 32 -87q0 -62 -42 -102q-43 -40 -118 -40q-58 0 -94 27q-37 28 -52 77l85 38 q7 -26 23 -41q17 -15 41 -15t39 13q16 13 16 37q0 21 -14 35q-8 8 -40 24l-27 14q-35 19 -48 32q-29 27 -29 73q0 55 38 93t104 38q42 0 73 -20q28 -19 48 -54z"/>
<glyph glyph-name="Ydieresis" horiz-adv-x="540" unicode="Ÿ" d="M198 788q0 28 21 49q20 20 50 20q24 0 38 -15q16 -16 16 -41q0 -30 -21 -49t-49 -19q-24 0 -39 15q-16 15 -16 40zM393 788q0 28 21 49q20 20 50 20q24 0 38 -15q16 -16 16 -41q0 -30 -21 -49t-49 -19q-24 0 -39 15q-16 15 -16 40zM219 0l35 288l-172 379h114l121 -267 l187 267h118l-266 -379l-35 -288h-102z"/>
<glyph glyph-name="circumflex" d="M322 571l-98 -86l-62 52l171 138l137 -138l-70 -52z" unicode="ˆ"/>
<glyph glyph-name="tilde" d="M448 622l53 -46q-18 -32 -45 -55q-37 -31 -80 -31q-30 0 -60 18l-20 12q-31 18 -50 18q-21 0 -36 -17q-9 -9 -21 -29l-54 41q26 36 49 54q35 27 75 27q35 0 67 -20l15 -10q26 -18 47 -18q22 0 39 21q13 16 21 35z" unicode="˜"/>
<glyph glyph-name="uni0394" horiz-adv-x="668" unicode="Δ" d="M332 529l-160 -433h320zM644 0h-620l256 667h104z"/>
<glyph glyph-name="uni03BC" horiz-adv-x="524" unicode="μ" d="M132 -230h-98l80 651h98l-22 -181q-6 -55 -6 -67q0 -46 26 -73q24 -24 65 -24q47 0 75 28q30 29 41 118l25 199h98l-52 -421h-98l8 63q-13 -34 -43 -57q-25 -18 -63 -18q-42 0 -66 25q-21 21 -31 60z"/>
<glyph glyph-name="pi" horiz-adv-x="543" unicode="π" d="M236 0h-98v331h-75v90h510v-90h-75v-331h-98v331h-164v-331z"/>
<glyph glyph-name="afii10023" d="M202 788q0 28 21 49q20 20 50 20q24 0 38 -15q16 -16 16 -41q0 -30 -21 -49t-49 -19q-24 0 -39 15q-16 15 -16 40zM397 788q0 28 21 49q20 20 50 20q24 0 38 -15q16 -16 16 -41q0 -30 -21 -49t-49 -19q-24 0 -39 15q-16 15 -16 40zM530 667l-12 -96h-266l-20 -169h258 l-12 -96h-258l-26 -210h266l-12 -96h-368l82 667h368z" unicode="Ё"/>
<glyph glyph-name="afii10051" horiz-adv-x="651" unicode="Ђ" d="M556 571h-220l-23 -186q66 23 134 23q98 0 149 -49q55 -53 55 -153q0 -104 -61 -163q-52 -50 -151 -50q-44 0 -95 8l11 93q40 -7 74 -7q59 0 88 27q32 30 32 89q0 54 -26 81q-29 30 -89 30q-69 0 -132 -23l-36 -291h-102l70 571h-154l12 96h476z"/>
<glyph glyph-name="afii10052" horiz-adv-x="428" unicode="Ѓ" d="M323 727l-43 40l155 139l79 -60zM80 0l82 667h334l-12 -96h-232l-70 -571h-102z"/>
<glyph glyph-name="afii10053" horiz-adv-x="622" unicode="Є" d="M653 631l-14 -120q-74 74 -184 74q-111 0 -182 -68q-55 -53 -71 -127h330l-12 -96h-329q0 -90 56 -151q56 -62 159 -62q101 0 189 77l-14 -121q-92 -50 -184 -50q-136 0 -219 83q-89 89 -89 231q0 168 110 276q105 102 264 102q93 0 190 -48z"/>
<glyph glyph-name="afii10054" horiz-adv-x="516" unicode="Ѕ" d="M520 567l-88 -48q-8 30 -30 47q-26 19 -66 19q-48 0 -76 -26q-28 -25 -28 -60q0 -29 24 -51q7 -7 16 -12.5t14.5 -8t17.5 -7.5t17 -7l54 -24q55 -24 84 -61q35 -43 35 -109q0 -100 -61 -165q-65 -67 -174 -67q-86 0 -134 47q-59 57 -62 150l103 22q0 -59 23 -90 q27 -35 85 -35q48 0 79 28q38 34 38 98q0 35 -26 63q-19 20 -68 42l-51 23q-52 24 -79 53q-37 42 -37 98q0 73 53 129q61 64 159 64q69 0 115 -31q45 -30 63 -81z"/>
<glyph glyph-name="afii10055" horiz-adv-x="262" unicode="І" d="M162 667h102l-82 -667h-102z"/>
<glyph glyph-name="afii10056" horiz-adv-x="262" unicode="Ї" d="M112 788q0 27 19 46q16 17 38 17q19 0 32 -15q12 -14 12 -33q0 -26 -18 -46q-15 -18 -38 -18q-17 0 -31 14q-14 16 -14 35zM245 789q0 27 19 46q18 16 38 16t32 -15q12 -14 12 -33q0 -26 -18 -46q-15 -18 -38 -18q-17 0 -31 14q-14 16 -14 36zM162 667h102l-82 -667h-102 z"/>
<glyph glyph-name="afii10057" horiz-adv-x="359" unicode="Ј" d="M259 667h102l-53 -432q-6 -51 -10.5 -77.5t-20 -64.5t-39.5 -61q-46 -45 -132 -45q-73 0 -121 36l57 84q25 -24 64 -24q35 0 59 22q28 26 41 130z"/>
<glyph glyph-name="afii10058" horiz-adv-x="898" unicode="Љ" d="M603 302l-25 -206h72q86 0 118 33q29 29 29 81q0 44 -34 70q-31 22 -99 22h-61zM464 0l71 572l-223 -1l-39 -314q-19 -154 -73 -211q-49 -52 -132 -52q-24 0 -54 7l12 94q14 -7 36 -7q40 0 65 26q20 21 29 55.5t17 99.5l49 398h426l-33 -269h70q105 0 161 -51 q52 -47 52 -127q0 -103 -57 -160q-38 -38 -86 -49t-112 -11h-80h-99z"/>
<glyph glyph-name="afii10059" horiz-adv-x="901" unicode="Њ" d="M606 307l-25 -211h72q86 0 118 33q29 31 29 82q0 50 -34 74q-31 22 -99 22h-61zM468 0l38 307h-286l-38 -307h-102l82 667h102l-32 -264h286l32 264h101l-32 -264h69q105 0 161 -51q52 -46 52 -132q0 -103 -57 -160q-38 -38 -86 -49t-112 -11h-178z"/>
<glyph glyph-name="afii10060" horiz-adv-x="693" unicode="Ћ" d="M556 571h-220l-22 -178q62 7 116 7q125 0 180 -47q47 -41 47 -115q0 -16 -5 -61l-22 -177h-102l21 166q4 26 4 44q0 52 -35 76q-29 20 -113 20q-48 0 -102 -7l-37 -299h-102l70 571h-154l12 96h476z"/>
<glyph glyph-name="afii10061" horiz-adv-x="586" unicode="Ќ" d="M366 727l-43 40l155 139l79 -60zM264 667l-33 -258l288 258h137l-340 -302l258 -365h-134l-202 296l-22 -20l-34 -276h-102l82 667h102z"/>
<glyph glyph-name="afii10062" horiz-adv-x="559" unicode="Ў" d="M203 832l81 36q7 -22 24 -38q21 -18 59 -18q34 0 55 15q23 16 32 41l79 -36q-20 -46 -60 -72q-45 -30 -111 -30t-107 31q-35 25 -52 71zM88 667h109l135 -361l197 361h106l-374 -667h-106l113 203z"/>
<glyph glyph-name="afii10145" horiz-adv-x="640" unicode="Џ" d="M80 0l82 667h102l-70 -571h276l70 571h102l-82 -667h-192l-21 -166h-96l21 166h-192z"/>
<glyph glyph-name="afii10017" horiz-adv-x="656" unicode="А" d="M263 257h202l-72 226zM544 0l-50 161h-285l-93 -161h-112l419 706l229 -706h-108z"/>
<glyph glyph-name="afii10018" horiz-adv-x="527" unicode="Б" d="M219 302l-25 -206h62q47 0 75.5 7.5t48.5 32.5q23 28 23 74q0 40 -20 61q-28 31 -109 31h-55zM80 0l82 667h334l-12 -96h-232l-21 -173h66q100 0 154 -49q52 -47 52 -129q0 -99 -60 -159q-28 -27 -65 -41.5t-61.5 -17t-61.5 -2.5h-76h-99z"/>
<glyph glyph-name="afii10019" horiz-adv-x="526" unicode="В" d="M218 296l-24 -200h62q81 0 117 34q31 29 31 77q0 41 -30 65t-92 24h-64zM252 571l-23 -191h31q59 0 90 27q33 30 33 81q0 36 -22 58q-25 25 -81 25h-28zM162 667h101q122 0 174 -52q42 -43 42 -113q0 -51 -19 -87q-20 -37 -59 -58q45 -16 73 -52q29 -38 29 -92 q0 -91 -53 -146q-64 -67 -214 -67h-57h-99z"/>
<glyph glyph-name="afii10020" horiz-adv-x="428" unicode="Г" d="M80 0l82 667h334l-12 -96h-232l-70 -571h-102z"/>
<glyph glyph-name="afii10021" horiz-adv-x="650" unicode="Д" d="M316 571l-26 -210q-15 -128 -43 -186q-22 -46 -61 -79h284l58 475h-212zM226 667h416l-70 -571h76l-30 -246h-96l18 150h-430l-18 -150h-96l30 246q45 4 79 36q38 35 58 101q15 45 25 128z"/>
<glyph glyph-name="afii10022" d="M530 667l-12 -96h-266l-20 -169h258l-12 -96h-258l-26 -210h266l-12 -96h-368l82 667h368z" unicode="Е"/>
<glyph glyph-name="afii10024" horiz-adv-x="850" unicode="Ж" d="M454 667h102l-33 -269l271 269h128l-319 -310l233 -357h-120l-190 294l-18 -18l-34 -276h-102l34 276l-12 18l-262 -294h-128l329 362l-237 306l120 -1l205 -269z"/>
<glyph glyph-name="afii10025" horiz-adv-x="565" unicode="З" d="M188 516l-63 65q42 45 84 68q53 29 130 29q105 0 159 -56q40 -41 40 -109q0 -53 -26 -93q-27 -41 -76 -61q38 -13 61 -35q44 -41 44 -115q0 -92 -59 -153q-66 -68 -191 -68q-99 0 -159 42q-61 44 -88 118l89 46q12 -46 45 -76q41 -36 109 -36q77 0 115 33q37 32 37 87 q0 52 -39 79q-33 23 -108 23h-60l12 96h56q75 0 110 33q27 25 27 68q0 41 -30 63q-28 20 -80 20q-48 0 -82 -20q-32 -19 -57 -48z"/>
<glyph glyph-name="afii10026" horiz-adv-x="712" unicode="И" d="M530 0l55 449l-509 -479l86 697h102l-55 -451l508 479l-85 -695h-102z"/>
<glyph glyph-name="afii10027" horiz-adv-x="712" unicode="Й" d="M297 832l81 36q7 -22 24 -38q21 -18 59 -18q34 0 55 15q23 16 32 41l79 -36q-20 -46 -60 -72q-45 -30 -111 -30t-107 31q-35 25 -52 71zM530 0l55 449l-509 -479l86 697h102l-55 -451l508 479l-85 -695h-102z"/>
<glyph glyph-name="afii10028" horiz-adv-x="586" unicode="К" d="M264 667l-33 -258l288 258h137l-340 -302l258 -365h-134l-202 296l-22 -20l-34 -276h-102l82 667h102z"/>
<glyph glyph-name="afii10029" horiz-adv-x="646" unicode="Л" d="M222 667h426l-82 -667h-102l70 571h-222l-39 -314q-19 -154 -73 -211q-49 -52 -132 -52q-24 0 -54 7l12 94q14 -7 36 -7q40 0 65 26q20 21 29 55.5t17 99.5z"/>
<glyph glyph-name="afii10030" horiz-adv-x="852" unicode="М" d="M166 0h-106l228 717l168 -518l298 518l38 -717h-102l-19 402l-247 -433l-139 434z"/>
<glyph glyph-name="afii10031" horiz-adv-x="650" unicode="Н" d="M264 667l-32 -264h286l32 264h102l-82 -667h-102l38 307h-286l-38 -307h-102l82 667h102z"/>
<glyph glyph-name="afii10032" horiz-adv-x="796" unicode="О" d="M410 81q124 0 196 72q38 37 59.5 92.5t21.5 114.5q0 95 -60 157q-66 68 -169 68q-110 0 -185 -74q-83 -81 -83 -204q0 -98 62 -162q60 -64 158 -64zM478 679q138 0 225 -87q86 -85 86 -226q0 -169 -105 -276q-102 -103 -275 -103q-148 0 -231 86q-89 91 -89 227 q0 79 29 151.5t80 122.5q105 105 280 105z"/>
<glyph glyph-name="afii10033" horiz-adv-x="650" unicode="П" d="M162 667h490l-82 -667h-102l70 571h-286l-70 -571h-102z"/>
<glyph glyph-name="afii10034" horiz-adv-x="481" unicode="Р" d="M252 573l-25 -208h38q83 0 118 31q34 29 34 83q0 45 -31 71q-28 23 -91 23h-43zM162 667h143q107 0 161 -52q49 -47 49 -130q0 -93 -57 -150q-64 -64 -209 -64h-34l-33 -271h-102z"/>
<glyph glyph-name="afii10035" horiz-adv-x="622" unicode="С" d="M653 631l-14 -120q-74 74 -183 74q-110 0 -181 -68q-38 -36 -61 -93t-23 -123q0 -95 58 -157q58 -63 157 -63t189 77l-14 -121q-92 -50 -184 -50q-136 0 -219 83q-89 89 -89 231q0 168 110 276q105 102 264 102q93 0 190 -48z"/>
<glyph glyph-name="afii10036" horiz-adv-x="428" unicode="Т" d="M488 571h-153l-70 -571h-102l70 571h-153l12 96h408z"/>
<glyph glyph-name="afii10037" horiz-adv-x="559" unicode="У" d="M88 667h109l135 -361l197 361h106l-374 -667h-106l113 203z"/>
<glyph glyph-name="afii10038" horiz-adv-x="831" unicode="Ф" d="M530 520l-41 -332h12q113 0 167 50q55 52 55 136q0 62 -35 99q-46 47 -146 47h-12zM387 188l41 332h-20q-114 0 -169 -60q-46 -50 -46 -126q0 -58 35 -96q48 -50 149 -50h10zM364 0l12 94h-7q-145 0 -220 71q-58 55 -58 153q0 129 78 209q84 87 252 87h18l10 80h102 l-10 -80h7q141 0 214 -71q64 -62 64 -164q0 -61 -20.5 -116t-58.5 -91q-82 -78 -258 -78h-11l-12 -94h-102z"/>
<glyph glyph-name="afii10039" horiz-adv-x="540" unicode="Х" d="M10 0l253 348l-145 319h108l102 -226l161 226h114l-231 -319l158 -348h-108l-115 255l-183 -255h-114z"/>
<glyph glyph-name="afii10040" horiz-adv-x="660" unicode="Ц" d="M80 0l82 667h102l-70 -571h276l70 571h102l-70 -571h86l-30 -246h-96l18 150h-470z"/>
<glyph glyph-name="afii10041" horiz-adv-x="608" unicode="Ч" d="M426 0l34 278q-52 -11 -121 -11q-107 0 -169 44q-52 40 -52 120q0 23 7 80l19 156h102l-19 -151q-6 -52 -6 -68q0 -42 28 -64q29 -23 103 -23q64 0 120 11l36 295h102l-82 -667h-102z"/>
<glyph glyph-name="afii10042" horiz-adv-x="938" unicode="Ш" d="M80 0l82 667h102l-70 -571h236l70 571h102l-70 -571h236l70 571h102l-82 -667h-778z"/>
<glyph glyph-name="afii10043" horiz-adv-x="958" unicode="Щ" d="M80 0l82 667h102l-70 -571h236l70 571h102l-70 -571h236l70 571h102l-70 -571h86l-30 -246h-96l18 150h-768z"/>
<glyph glyph-name="afii10044" horiz-adv-x="594" unicode="Ъ" d="M299 302l-25 -206h72q86 0 118 33q29 29 29 81q0 44 -34 70q-31 22 -99 22h-61zM160 0l70 571h-150l12 96h252l-33 -269h70q105 0 161 -51q52 -47 52 -127q0 -103 -57 -160q-38 -38 -86 -49t-112 -11h-77h-102z"/>
<glyph glyph-name="afii10045" horiz-adv-x="740" unicode="Ы" d="M219 302l-25 -206h72q86 0 118 33q29 29 29 81q0 44 -34 70q-31 22 -99 22h-61zM80 0l83 667h101l-33 -269h70q105 0 161 -51q52 -47 52 -127q0 -103 -57 -160q-38 -38 -86 -49t-112 -11h-78h-101zM640 667h102l-82 -667h-102z"/>
<glyph glyph-name="afii10046" horiz-adv-x="514" unicode="Ь" d="M219 302l-25 -206h72q86 0 118 33q29 29 29 81q0 44 -34 70q-31 22 -99 22h-61zM80 0l83 667h101l-33 -269h70q105 0 161 -51q52 -47 52 -127q0 -103 -57 -160q-38 -38 -86 -49t-112 -11h-78h-101z"/>
<glyph glyph-name="afii10047" horiz-adv-x="621" unicode="Э" d="M107 511l14 120q82 48 190 48q143 0 223 -80t80 -222q0 -75 -25 -156t-86 -142q-91 -92 -256 -92q-104 0 -194 52l14 119q70 -77 186 -77q106 0 169 60q59 56 78 149h-330l12 96h328q-3 92 -64 149q-54 50 -145 50q-116 0 -194 -74z"/>
<glyph glyph-name="afii10048" horiz-adv-x="1007" unicode="Ю" d="M644 81q102 0 173 72q81 81 81 209q0 92 -60 156q-64 67 -159 67q-104 0 -178 -74q-80 -80 -80 -201q0 -102 60 -165q61 -64 163 -64zM231 402h102q25 104 97 174q103 103 262 103q137 0 222 -85q86 -86 86 -227q0 -172 -105 -278q-101 -102 -260 -102q-140 0 -226 86 q-89 89 -89 233h-100l-38 -306h-102l82 667h102z"/>
<glyph glyph-name="afii10049" horiz-adv-x="534" unicode="Я" d="M422 573h-52q-94 0 -130 -36q-28 -28 -28 -79q0 -40 23 -63q34 -34 118 -34h43zM20 0l232 278q-60 13 -97 53q-42 45 -42 116q0 93 49 148q63 72 210 72h164l-82 -667h-102l33 267h-24l-215 -267h-126z"/>
<glyph glyph-name="afii10065" horiz-adv-x="532" unicode="а" d="M298 344q-49 0 -84 -33q-47 -45 -47 -118q0 -53 33 -88q28 -30 71 -30q55 0 92 37q43 45 43 115q0 56 -33 89q-28 28 -75 28zM418 372l6 49h98l-52 -421h-98l5 44q-28 -30 -56 -42q-35 -15 -77 -15q-72 0 -120 46q-58 56 -58 152q0 115 73 188q59 59 154 59q44 0 77 -18 q28 -15 48 -42z"/>
<glyph glyph-name="afii10066" horiz-adv-x="530" unicode="б" d="M279 75q60 0 100 42q43 45 43 113q0 56 -33 86q-29 28 -80 28q-61 0 -98 -41q-41 -44 -41 -111q0 -48 28 -81q31 -36 81 -36zM467 710h100q-9 -35 -28.5 -62t-43.5 -43t-42.5 -24t-37.5 -13l-62 -16q-28 -7 -39.5 -10.5t-32 -15.5t-36.5 -29q-44 -48 -56 -124h1 q52 59 135 59q87 0 143 -53q55 -53 55 -144q0 -114 -70 -182q-66 -66 -177 -66q-91 0 -146 56q-59 61 -59 159q0 78 34 198q33 120 95 178q49 45 111 60l72 17q17 4 23.5 6t21.5 8.5t24 16.5t15 24z"/>
<glyph glyph-name="afii10067" horiz-adv-x="443" unicode="в" d="M170 80h80q31 0 48 11q23 13 23 39t-18 37q-14 10 -45 10h-76zM192 257h50q30 0 44 10q19 12 19 37q0 20 -19 30q-14 7 -41 7h-43zM114 421h148q62 0 97 -20q43 -26 43 -79q0 -33 -18 -59q-17 -23 -43 -33q30 -8 51 -29q26 -27 26 -69q0 -57 -37 -92q-41 -40 -119 -40 h-104h-96z"/>
<glyph glyph-name="afii10068" horiz-adv-x="328" unicode="г" d="M62 0l52 421h258l-11 -90h-160l-41 -331h-98z"/>
<glyph glyph-name="afii10069" horiz-adv-x="486" unicode="д" d="M327 90l30 241h-124l-14 -112q-6 -49 -22 -79q-15 -28 -43 -50h173zM150 421h316l-41 -331h64l-26 -210h-90l15 120h-294l-15 -120h-90l26 210q39 4 65 30q36 36 49 136z"/>
<glyph glyph-name="afii10070" horiz-adv-x="489" unicode="е" d="M181 267h196q-5 37 -25 58q-21 23 -61 23t-71 -25q-25 -20 -39 -56zM377 142l77 -46q-30 -50 -78 -79q-51 -30 -118 -30q-83 0 -135 53q-57 57 -57 150q0 109 73 180q64 62 154 62q80 0 127 -49q52 -54 52 -147q0 -25 -5 -49h-301q0 -52 31 -85q25 -27 69 -27q37 0 67 19 q27 18 44 48z"/>
<glyph glyph-name="afii10072" horiz-adv-x="622" unicode="ж" d="M315 421h98l-19 -156l146 156h116l-187 -194l151 -227h-120l-106 169l-14 -14l-19 -155h-98l19 155l-8 14l-148 -169h-124l209 229l-139 192h116l108 -156z"/>
<glyph glyph-name="afii10073" horiz-adv-x="431" unicode="з" d="M149 309l-58 58q26 27 62 45q40 20 94 20q70 0 110 -29q44 -32 44 -87q0 -36 -19 -59q-18 -23 -50 -30q28 -8 50 -30q25 -26 25 -66q0 -58 -39 -97q-47 -47 -140 -47q-71 0 -113 27q-41 25 -64 73l79 40q13 -27 33 -42q25 -18 63 -18q36 0 57 15q24 18 24 45t-22 40 q-15 10 -49 10h-50l10 80h36q43 0 60 16q13 11 13 33q0 21 -18 34q-16 12 -48 12q-29 0 -52 -12q-20 -11 -38 -31z"/>
<glyph glyph-name="afii10074" horiz-adv-x="510" unicode="и" d="M114 421h98l-30 -239l322 277l-56 -459h-98l30 245l-322 -277z"/>
<glyph glyph-name="afii10075" horiz-adv-x="510" unicode="й" d="M168 603l83 23q5 -28 23 -46q20 -19 53 -19q35 0 57 16q24 18 31 49l77 -23q-16 -56 -63 -88q-45 -30 -107 -30q-60 0 -100 32t-54 86zM114 421h98l-30 -239l322 277l-56 -459h-98l30 245l-322 -277z"/>
<glyph glyph-name="afii10076" horiz-adv-x="442" unicode="к" d="M114 421h98l-18 -144l156 144h132l-209 -184l165 -237h-122l-119 173l-18 -16l-19 -157h-98z"/>
<glyph glyph-name="afii10077" horiz-adv-x="470" unicode="л" d="M460 421l-52 -421h-98l41 331h-124l-19 -151q-5 -34 -7.5 -48.5t-14.5 -42.5t-31 -47q-45 -44 -118 -44q-11 0 -29 2l11 90q12 -2 19 -2q32 0 51 19q18 18 25 69l30 245h316z"/>
<glyph glyph-name="afii10078" horiz-adv-x="580" unicode="м" d="M14 0l158 459l135 -321l213 321l46 -459h-98l-16 211l-164 -243l-104 243l-68 -211h-102z"/>
<glyph glyph-name="afii10079" horiz-adv-x="494" unicode="н" d="M62 0l52 421h98l-19 -156h174l19 156h98l-52 -421h-98l21 175h-174l-21 -175h-98z"/>
<glyph glyph-name="afii10080" horiz-adv-x="534" unicode="о" d="M287 75q56 0 93 40q40 43 40 109q0 54 -33 88q-31 32 -80 32q-58 0 -95 -35q-46 -43 -46 -110q0 -51 31 -87q34 -37 90 -37zM313 432q94 0 150 -56q57 -59 57 -146q0 -107 -73 -178q-68 -65 -173 -65q-94 0 -150 57q-58 60 -58 147q0 106 73 176q68 65 174 65z"/>
<glyph glyph-name="afii10081" horiz-adv-x="490" unicode="п" d="M114 421h366l-52 -421h-98l41 331h-170l-41 -331h-98z"/>
<glyph glyph-name="afii10082" horiz-adv-x="532" unicode="р" d="M308 344q-52 0 -84 -31q-46 -44 -46 -122q0 -54 28 -83q31 -33 80 -33t83 34q48 48 48 118q0 52 -30 85q-29 32 -79 32zM166 49l-34 -278h-98l80 650h98l-6 -46q19 26 50 40q35 17 75 17q82 0 134 -54q53 -55 53 -143q0 -53 -19.5 -103.5t-51.5 -84.5q-58 -61 -140 -61 q-56 0 -95 23q-25 15 -46 40z"/>
<glyph glyph-name="afii10083" horiz-adv-x="422" unicode="с" d="M439 396l-13 -106q-25 25 -50 38q-31 16 -62 16q-67 0 -107 -42t-40 -104q0 -58 36 -92q33 -31 87 -31q36 0 68 15q32 18 48 36l-13 -110q-44 -29 -125 -29q-89 0 -143 54q-59 57 -59 153q0 103 70 173q66 65 172 65q75 0 131 -36z"/>
<glyph glyph-name="afii10084" horiz-adv-x="360" unicode="т" d="M393 331h-123l-41 -331h-98l41 331h-123l11 90h344z"/>
<glyph glyph-name="afii10085" horiz-adv-x="482" unicode="у" d="M3 -229l200 307l-145 343h116l95 -237l147 237h112l-415 -650h-110z"/>
<glyph glyph-name="afii10086" horiz-adv-x="674" unicode="ф" d="M428 340l-32 -259h5q66 0 106 30q51 39 51 113q0 60 -46 92q-36 24 -84 24zM298 81l32 259h-11q-67 0 -111 -42q-39 -39 -39 -96q0 -54 40 -88q35 -30 89 -33zM260 -229l27 222q-111 7 -169 67q-50 51 -50 128q0 101 67 165q76 73 206 75l29 239h98l-29 -239 q107 -8 167 -67q52 -52 52 -135q0 -102 -69 -167q-70 -66 -204 -66l-27 -222h-98z"/>
<glyph glyph-name="afii10087" horiz-adv-x="496" unicode="х" d="M6 0l214 228l-126 193h114l78 -123l109 123h122l-179 -193l152 -228h-116l-102 157l-144 -157h-122z"/>
<glyph glyph-name="afii10088" horiz-adv-x="502" unicode="ц" d="M62 0l52 421h98l-41 -331h166l41 331h98l-41 -331h70l-26 -210h-90l15 120h-342z"/>
<glyph glyph-name="afii10089" horiz-adv-x="449" unicode="ч" d="M289 0l20 166q-36 -12 -80 -12q-66 0 -106 30q-38 29 -38 79q0 19 5 54l13 104h98l-12 -97q-3 -24 -3 -34q0 -28 20 -40q18 -12 57 -12q29 0 57 11l21 172h98l-52 -421h-98z"/>
<glyph glyph-name="afii10090" horiz-adv-x="698" unicode="ш" d="M62 0l52 421h98l-41 -331h140l41 331h98l-41 -331h140l41 331h98l-52 -421h-574z"/>
<glyph glyph-name="afii10091" horiz-adv-x="714" unicode="щ" d="M62 0l52 421h98l-41 -331h140l41 331h98l-41 -331h140l41 331h98l-41 -331h70l-26 -210h-90l15 120h-554z"/>
<glyph glyph-name="afii10092" horiz-adv-x="438" unicode="ъ" d="M206 84h46q41 0 61 15q19 15 19 42q0 26 -21 38q-15 9 -48 9h-44zM98 0l41 331h-90l11 90h188l-19 -149h53q76 0 115 -37q34 -33 34 -83q0 -69 -42 -109q-45 -43 -138 -43h-55h-98z"/>
<glyph glyph-name="afii10093" horiz-adv-x="581" unicode="ы" d="M170 84h46q41 0 61 15q19 15 19 42q0 26 -21 38q-15 9 -48 9h-44zM62 0l51 421h99l-19 -149h53q76 0 115 -37q34 -34 34 -86q0 -66 -42 -106q-45 -43 -138 -43h-57h-96zM421 0l52 421h98l-52 -421h-98z"/>
<glyph glyph-name="afii10094" horiz-adv-x="402" unicode="ь" d="M170 84h46q41 0 61 15q19 15 19 42q0 26 -21 38q-15 9 -48 9h-44zM62 0l51 421h99l-19 -149h53q76 0 115 -37q34 -33 34 -83q0 -69 -42 -109q-45 -43 -138 -43h-57h-96z"/>
<glyph glyph-name="afii10095" horiz-adv-x="429" unicode="э" d="M76 314l11 93q55 25 119 25q101 0 157 -58q52 -53 52 -143q0 -114 -71 -183q-62 -61 -174 -61q-72 0 -129 26l12 93q52 -31 114 -31q57 0 90 25q35 27 43 74h-195l11 82h192q-8 46 -42 68q-31 20 -76 20q-58 0 -114 -30z"/>
<glyph glyph-name="afii10096" horiz-adv-x="702" unicode="ю" d="M480 344q-55 0 -92 -35q-21 -21 -33 -54.5t-12 -65.5q0 -52 28 -83t81 -31q58 0 92 37q44 47 44 122q0 53 -31 82q-28 28 -77 28zM193 265h67q16 70 72 115q63 52 155 52q86 0 142 -52q59 -55 59 -147q0 -111 -70 -181q-65 -65 -171 -65q-108 0 -161 67q-40 51 -40 121 h-65l-21 -175h-98l52 421h98z"/>
<glyph glyph-name="afii10097" horiz-adv-x="411" unicode="я" d="M280 235l12 102h-57q-40 0 -57 -10q-25 -14 -25 -47q0 -25 19 -36q14 -9 50 -9h58zM8 0l146 167q-37 6 -61 30q-28 27 -28 78q0 65 36 102q43 44 145 44h155l-52 -421h-98l19 155h-16l-127 -155h-119z"/>
<glyph glyph-name="afii10071" horiz-adv-x="489" unicode="ё" d="M169 539q0 27 21 48q21 22 51 22q21 0 38 -15q16 -15 16 -39q0 -25 -20 -48q-20 -22 -47 -22q-25 0 -43 16q-16 14 -16 38zM349 539q0 27 21 48q21 22 51 22q21 0 38 -15q16 -15 16 -39q0 -25 -20 -48q-20 -22 -47 -22q-25 0 -43 16q-16 14 -16 38zM181 267h196 q-5 37 -25 58q-21 23 -61 23t-71 -25q-25 -20 -39 -56zM377 142l77 -46q-30 -50 -78 -79q-51 -30 -118 -30q-83 0 -135 53q-57 57 -57 150q0 109 73 180q64 62 154 62q80 0 127 -49q52 -54 52 -147q0 -25 -5 -49h-301q0 -52 31 -85q25 -27 69 -27q37 0 67 19q27 18 44 48z "/>
<glyph glyph-name="afii10099" horiz-adv-x="486" unicode="ђ" d="M62 0l63 512h-96l9 76h96l18 141h98l-18 -141h200l-9 -76h-200l-21 -167q16 18 42 31q32 16 72 16q64 0 100 -36q37 -37 37 -102q0 -27 -8 -87l-32 -253q-6 -43 -16 -70t-36 -47q-35 -27 -98 -27q-37 0 -67 9l11 88q21 -9 46 -9q28 0 44 16q15 16 20 57l31 246q5 35 5 56 q0 36 -19 54q-18 17 -50 17q-39 0 -62 -23q-32 -31 -42 -118l-20 -163h-98z"/>
<glyph glyph-name="afii10100" horiz-adv-x="328" unicode="ѓ" d="M348 675l84 -46l-173 -144l-50 34zM62 0l52 421h258l-11 -90h-160l-41 -331h-98z"/>
<glyph glyph-name="afii10101" horiz-adv-x="429" unicode="є" d="M439 402l-12 -101q-48 43 -117 43q-51 0 -86 -24q-34 -24 -44 -63h195l-10 -80h-195q2 -45 30 -73q31 -29 87 -29q68 0 117 46l-12 -103q-57 -31 -127 -31q-91 0 -145 56t-54 145q0 109 70 179q65 65 170 65q73 0 133 -30z"/>
<glyph glyph-name="afii10102" horiz-adv-x="364" unicode="ѕ" d="M354 358l-76 -48q-7 16 -20 26q-12 10 -30 10q-22 0 -34 -12q-9 -9 -9 -22q0 -15 12 -24q4 -4 41 -22l28 -14q34 -17 53 -36q32 -34 32 -87q0 -62 -42 -102q-43 -40 -118 -40q-58 0 -94 27q-37 28 -52 77l85 38q7 -26 23 -41q17 -15 41 -15t39 13q16 13 16 37 q0 21 -14 35q-8 8 -40 24l-27 14q-35 19 -48 32q-29 27 -29 73q0 55 38 93t104 38q42 0 73 -20q28 -19 48 -54z"/>
<glyph glyph-name="afii10103" horiz-adv-x="223" unicode="і" d="M120 585q0 31 21 52t51 21q25 0 40 -15q16 -16 16 -38q0 -29 -20 -51t-53 -22q-24 0 -39 15q-16 14 -16 38zM114 421h98l-52 -421h-98z"/>
<glyph glyph-name="afii10104" horiz-adv-x="233" unicode="ї" d="M137 658q20 0 32 -17q10 -13 10 -33q0 -27 -15 -50q-16 -24 -41 -24q-18 0 -31 13t-13 38q0 37 23 58q17 15 35 15zM257 658q20 0 32 -17q10 -13 10 -33q0 -28 -15 -50q-16 -24 -41 -24q-18 0 -31 13t-13 38q0 37 23 58q17 15 35 15zM119 421h98l-52 -421h-98z"/>
<glyph glyph-name="afii10105" horiz-adv-x="223" unicode="ј" d="M120 585q0 31 21 52t51 21q25 0 40 -15q16 -16 16 -38q0 -29 -20 -51t-53 -22q-24 0 -39 15q-16 14 -16 38zM114 421h98l-80 -650h-98z"/>
<glyph glyph-name="afii10106" horiz-adv-x="650" unicode="љ" d="M418 84h46q41 0 61 15q19 15 19 42q0 26 -21 38q-15 9 -48 9h-44zM310 0l41 331h-124l-19 -151q-5 -34 -7.5 -48.5t-14.5 -42.5t-31 -47q-45 -44 -118 -44q-11 0 -29 2l11 90q12 -2 19 -2q32 0 51 19q18 18 25 69l30 245h316l-19 -149h53q76 0 115 -37q34 -33 34 -83 q0 -69 -42 -109q-45 -43 -138 -43h-59h-94z"/>
<glyph glyph-name="afii10107" horiz-adv-x="674" unicode="њ" d="M442 84h46q41 0 61 15q19 15 19 42q0 26 -21 38q-15 9 -48 9h-44zM334 0l23 188h-174l-23 -188h-98l52 421h98l-19 -149h174l18 149h99l-19 -149h53q72 0 110 -32q39 -33 39 -89q0 -68 -42 -108q-45 -43 -138 -43h-54h-99z"/>
<glyph glyph-name="afii10108" horiz-adv-x="486" unicode="ћ" d="M62 0l63 512h-96l9 76h96l18 141h98l-18 -141h200l-9 -76h-200l-21 -167q16 18 42 31q32 16 72 16q64 0 100 -36q37 -37 37 -102q0 -27 -8 -87l-21 -167h-98l22 177q5 38 5 56q0 36 -19 54q-18 17 -50 17q-39 0 -62 -23q-32 -31 -42 -118l-20 -163h-98z"/>
<glyph glyph-name="afii10109" horiz-adv-x="442" unicode="ќ" d="M379 675l84 -46l-173 -144l-50 34zM114 421h98l-18 -144l156 144h132l-209 -184l165 -237h-122l-119 173l-18 -16l-19 -157h-98z"/>
<glyph glyph-name="afii10110" horiz-adv-x="482" unicode="ў" d="M147 603l83 23q5 -28 23 -46q20 -19 53 -19q35 0 57 16q24 18 31 49l77 -23q-16 -56 -63 -88q-45 -30 -107 -30q-60 0 -100 32t-54 86zM3 -229l200 307l-145 343h116l95 -237l147 237h112l-415 -650h-110z"/>
<glyph glyph-name="afii10193" horiz-adv-x="486" unicode="џ" d="M62 0l52 421h98l-41 -331h166l41 331h98l-52 -421h-136l-16 -130h-90l16 130h-136z"/>
<glyph glyph-name="afii10146" horiz-adv-x="594" unicode="Ѣ" d="M299 302l-25 -206h72q86 0 118 33q29 29 29 81q0 44 -34 70q-31 22 -99 22h-61zM160 0l62 503h-150l11 94h150l12 97h102l-12 -97h180l-11 -94h-180l-13 -105h70q105 0 161 -51q52 -47 52 -127q0 -103 -57 -160q-38 -38 -86 -49t-112 -11h-179z"/>
<glyph glyph-name="afii10194" horiz-adv-x="438" unicode="ѣ" d="M206 84h46q41 0 61 15q19 15 19 42q0 26 -21 38q-15 9 -48 9h-44zM98 0l41 337h-90l11 84h90l30 246h96l-29 -246h121l-11 -84h-120l-8 -65h53q76 0 115 -37q34 -33 34 -83q0 -69 -42 -109q-45 -43 -138 -43h-58h-95z"/>
<glyph glyph-name="afii10147" horiz-adv-x="796" unicode="Ѳ" d="M199 383h487q-7 81 -59 134q-66 68 -169 68q-108 0 -185 -74q-56 -53 -74 -128zM678 287h-487q4 -82 61 -142q61 -64 158 -64q121 0 196 72q57 54 72 134zM478 679q138 0 225 -87q86 -85 86 -226q0 -169 -105 -276q-102 -103 -275 -103q-148 0 -231 86q-89 91 -89 227 q0 79 29 151.5t80 122.5q107 105 280 105z"/>
<glyph glyph-name="afii10195" horiz-adv-x="534" unicode="ѳ" d="M175 253h242q-6 41 -36 66q-29 25 -77 25q-52 0 -88 -29q-29 -23 -41 -62zM413 173h-244q6 -44 35 -70q31 -28 83 -28q50 0 83 27q33 28 43 71zM313 432q94 0 150 -56q57 -59 57 -146q0 -107 -73 -178q-68 -65 -173 -65q-94 0 -150 57q-58 60 -58 147q0 106 73 176 q68 65 174 65z"/>
<glyph glyph-name="afii10148" horiz-adv-x="600" unicode="Ѵ" d="M86 667h108l129 -465l243 465h112l-383 -710z"/>
<glyph glyph-name="afii10196" horiz-adv-x="448" unicode="ѵ" d="M58 421h108l78 -240l138 240h112l-274 -451z"/>
<glyph glyph-name="afii10050" horiz-adv-x="428" unicode="Ґ" d="M80 0l82 667h238l18 150h96l-30 -246h-232l-70 -571h-102z"/>
<glyph glyph-name="afii10098" horiz-adv-x="328" unicode="ґ" d="M62 0l52 421h168l14 120h90l-25 -210h-160l-41 -331h-98z"/>
<glyph glyph-name="uni0492" horiz-adv-x="428" unicode="Ғ" d="M80 0l40 322h-90l10 86h90l32 259h334l-12 -96h-232l-20 -163h150l-10 -86h-150l-40 -322h-102z"/>
<glyph glyph-name="uni0493" horiz-adv-x="328" unicode="ғ" d="M62 0l21 168h-72l9 80h72l22 173h258l-11 -90h-160l-11 -83h100l-9 -80h-100l-21 -168h-98z"/>
<glyph glyph-name="uni0494" horiz-adv-x="567" unicode="Ҕ" d="M472 571h-220l-23 -186q66 23 134 23q98 0 149 -49q55 -53 55 -153q0 -104 -61 -163q-52 -50 -151 -50q-44 0 -95 8l11 93q40 -7 74 -7q59 0 88 27q32 30 32 89q0 54 -26 81q-29 30 -89 30q-69 0 -132 -23l-36 -291h-102l82 667h322z"/>
<glyph glyph-name="uni0495" horiz-adv-x="480" unicode="ҕ" d="M102 0l52 421h258l-11 -90h-160l-12 -95h17q98 0 149 -49q50 -48 50 -134q0 -126 -97 -201q-69 -53 -157 -60l11 90q48 7 82 36q59 49 59 132q0 51 -28 76q-25 22 -81 22h-16l-18 -148h-98z"/>
<glyph glyph-name="uni0496" horiz-adv-x="860" unicode="Җ" d="M454 667h102l-33 -269l271 269h128l-319 -310l170 -261h75l-30 -246h-96l18 150h-24l-190 294l-18 -18l-34 -276h-102l34 276l-12 18l-262 -294h-128l329 362l-237 305h120l205 -269z"/>
<glyph glyph-name="uni0497" horiz-adv-x="628" unicode="җ" d="M315 421h98l-19 -156l146 156h116l-187 -194l92 -137h70l-26 -210h-90l15 120h-30l-106 169l-14 -14l-19 -155h-98l19 155l-8 14l-148 -169h-124l209 229l-139 192h116l108 -156z"/>
<glyph glyph-name="uni0498" horiz-adv-x="565" unicode="Ҙ" d="M188 516l-63 65q42 45 84 68q53 29 130 29q105 0 159 -56q40 -41 40 -109q0 -53 -26 -93q-27 -41 -76 -61q38 -13 61 -35q44 -41 44 -115q0 -91 -58 -153q-59 -61 -148 -66l-20 -156h-96l20 156q-67 7 -120 52q-53 46 -75 106l89 46q12 -46 45 -76q41 -36 109 -36 q77 0 115 33q37 32 37 87q0 52 -39 79q-33 23 -108 23h-60l12 96h56q75 0 110 33q27 25 27 68q0 41 -30 63q-28 20 -80 20q-48 0 -82 -20q-32 -19 -57 -48z"/>
<glyph glyph-name="uni0499" horiz-adv-x="431" unicode="ҙ" d="M149 309l-58 58q26 27 62 45q40 20 94 20q70 0 110 -29q44 -32 44 -87q0 -36 -19 -59q-18 -23 -50 -30q28 -8 50 -30q25 -26 25 -66q0 -61 -38 -99q-35 -38 -94 -40l-15 -122h-90l15 119q-42 6 -78 31t-56 67l79 40q13 -27 33 -42q25 -18 63 -18q36 0 57 15q24 18 24 45 t-22 40q-15 10 -49 10h-50l10 80h36q43 0 60 16q13 11 13 33q0 21 -18 34q-16 12 -48 12q-29 0 -52 -12q-20 -11 -38 -31z"/>
<glyph glyph-name="uni049A" horiz-adv-x="582" unicode="Қ" d="M264 667l-33 -264l285 264h132l-337 -305l189 -266h80l-30 -246h-96l18 150h-32l-202 296l-22 -20l-34 -276h-102l82 667h102z"/>
<glyph glyph-name="uni049B" horiz-adv-x="448" unicode="қ" d="M114 421h98l-18 -144l156 144h132l-209 -184l103 -147h73l-26 -210h-90l15 120h-32l-119 173l-18 -16l-19 -157h-98z"/>
<glyph glyph-name="uni049C" horiz-adv-x="680" unicode="Ҝ" d="M162 667h102l-33 -264h86l18 140h90l-18 -140l225 264h120l-264 -308l180 -359h-118l-154 313l-18 -150h-90l18 150h-86l-38 -313h-102z"/>
<glyph glyph-name="uni049D" horiz-adv-x="530" unicode="ҝ" d="M114 421h98l-19 -152h60l12 100h80l-13 -106l134 158h114l-169 -190l113 -231h-110l-90 195l-14 -116h-80l13 110h-60l-23 -189h-98z"/>
<glyph glyph-name="uni04A0" horiz-adv-x="692" unicode="Ҡ" d="M680 0h-126l-202 296l-22 -20l-34 -276h-102l70 571h-184l12 96h286l-33 -264l285 264h132l-337 -305z"/>
<glyph glyph-name="uni04A1" horiz-adv-x="510" unicode="ҡ" d="M228 0h-98l41 331h-122l11 90h220l-18 -144l156 144h132l-209 -184l165 -237h-122l-119 173l-18 -16z"/>
<glyph glyph-name="uni04A2" horiz-adv-x="670" unicode="Ң" d="M80 0l82 667h102l-32 -264h285l33 264h102l-70 -571h86l-30 -246h-96l18 150h-92l37 307h-285l-38 -307h-102z"/>
<glyph glyph-name="uni04A3" horiz-adv-x="510" unicode="ң" d="M62 0l52 421h98l-19 -156h174l19 156h98l-41 -331h70l-26 -210h-90l15 120h-78l21 175h-174l-21 -175h-98z"/>
<glyph glyph-name="uni04A4" horiz-adv-x="816" unicode="Ҥ" d="M80 0l82 667h102l-32 -264h286l32 264h334l-12 -96h-232l-70 -571h-102l38 307h-286l-38 -307h-102z"/>
<glyph glyph-name="uni04A5" horiz-adv-x="600" unicode="ҥ" d="M62 0l52 421h98l-19 -156h174l19 156h258l-11 -90h-160l-41 -331h-98l21 175h-174l-21 -175h-98z"/>
<glyph glyph-name="uni04AA" horiz-adv-x="622" unicode="Ҫ" d="M653 631l-14 -120q-74 74 -183 74q-110 0 -181 -68q-38 -36 -61 -93t-23 -123q0 -94 58 -157q59 -63 157 -63q102 0 189 77l-14 -121q-61 -37 -132 -47l-19 -156h-96l19 156q-102 9 -175 80q-89 88 -89 232q0 168 110 275q105 102 264 102q93 0 190 -48z"/>
<glyph glyph-name="uni04AB" horiz-adv-x="422" unicode="ҫ" d="M439 396l-13 -106q-25 25 -50 38q-31 16 -62 16q-67 0 -107 -42t-40 -104q0 -58 36 -92q33 -31 87 -31q36 0 68 15q32 18 48 36l-13 -110q-31 -20 -71 -25l-15 -121h-90l15 120q-72 9 -118 63q-48 57 -48 141q0 103 70 173q66 65 172 65q75 0 131 -36z"/>
<glyph glyph-name="uni04AE" horiz-adv-x="540" unicode="Ү" d="M219 0l35 288l-172 379h114l121 -267l187 267h118l-266 -379l-35 -288h-102z"/>
<glyph glyph-name="uni04AF" horiz-adv-x="448" unicode="ү" d="M58 421h108l79 -237l137 237h112l-212 -350l-37 -300h-98l37 300z"/>
<glyph glyph-name="uni04B0" horiz-adv-x="540" unicode="Ұ" d="M219 0l25 202h-190l10 86h190l-172 379h114l121 -267l187 267h118l-266 -379h190l-10 -86h-190l-25 -202h-102z"/>
<glyph glyph-name="uni04B1" horiz-adv-x="448" unicode="ұ" d="M58 421h108l79 -237l137 237h112l-212 -350l-7 -51h130l-10 -86h-130l-20 -163h-98l20 163h-130l10 86h130l7 51z"/>
<glyph glyph-name="uni04B2" horiz-adv-x="564" unicode="Ҳ" d="M10 0l253 348l-145 319h108l102 -226l161 226h114l-231 -319l117 -252h76l-30 -246h-96l18 150h-35l-115 255l-183 -255h-114z"/>
<glyph glyph-name="uni04B3" horiz-adv-x="498" unicode="ҳ" d="M6 0l214 228l-126 193h114l78 -123l109 123h122l-179 -193l92 -138h71l-26 -210h-90l15 120h-26l-102 157l-144 -157h-122z"/>
<glyph glyph-name="uni04B6" horiz-adv-x="629" unicode="Ҷ" d="M519 0h-93l34 278q-52 -11 -121 -11q-107 0 -169 44q-52 40 -52 120q0 23 7 80l19 156h102l-19 -151q-6 -52 -6 -68q0 -42 28 -64q29 -23 103 -23q64 0 120 11l36 295h102l-69 -571h86l-30 -246h-96z"/>
<glyph glyph-name="uni04B7" horiz-adv-x="464" unicode="ҷ" d="M366 0h-77l20 166q-35 -12 -77 -12q-66 0 -104 26q-43 30 -43 86q0 14 5 51l13 104h98l-12 -97q-3 -24 -3 -35q0 -24 20 -39q19 -12 53 -12q29 0 61 11l21 172h98l-42 -331h70l-26 -210h-90z"/>
<glyph glyph-name="uni04B8" horiz-adv-x="642" unicode="Ҹ" d="M460 0l34 274q-54 -8 -99 -8l-17 -136h-90l17 138q-74 2 -124 33q-63 40 -63 127q0 28 8 88l18 151h102l-20 -164q-5 -46 -5 -59q0 -44 31 -65q26 -17 64 -17l19 148h90l-19 -151q51 0 99 9l37 299h102l-82 -667h-102z"/>
<glyph glyph-name="uni04B9" horiz-adv-x="528" unicode="ҹ" d="M368 0l20 159q-42 -7 -69 -7l-11 -87h-80l11 88h-11q-60 0 -98 25q-45 29 -45 90q0 20 5 57l12 96h98l-11 -91q-4 -37 -4 -40q0 -28 20 -40q15 -9 40 -9h5l14 114h80l-14 -117h12q29 0 56 6l22 177h98l-52 -421h-98z"/>
<glyph glyph-name="uni04BA" horiz-adv-x="609" unicode="Һ" d="M264 667l-33 -264q62 7 116 7q125 0 180 -47q47 -41 47 -115q0 -14 -5 -61l-23 -187h-102l22 176q0 2 2 19t2 26q0 53 -35 75q-29 20 -113 20q-48 0 -102 -7l-38 -309h-102l82 667h102z"/>
<glyph glyph-name="uni04BB" horiz-adv-x="486" unicode="һ" d="M62 0l90 729h98l-43 -344q16 18 42 31q32 16 72 16q64 0 100 -36q38 -38 38 -102q0 -18 -9 -87l-26 -207h-98l27 217q5 37 5 56q0 36 -19 54q-18 17 -50 17q-40 0 -63 -23q-30 -29 -41 -118l-25 -203h-98z"/>
<glyph glyph-name="uni04C0" horiz-adv-x="262" unicode="Ӏ" d="M162 667h102l-82 -667h-102z"/>
<glyph glyph-name="uni04C1" horiz-adv-x="850" unicode="Ӂ" d="M362 832l81 36q7 -22 24 -38q21 -18 59 -18q34 0 55 15q23 16 32 41l79 -36q-20 -46 -60 -72q-45 -30 -111 -30t-107 31q-35 25 -52 71zM454 667h102l-33 -269l271 269h128l-319 -310l233 -357h-120l-190 294l-18 -18l-34 -276h-102l34 276l-12 18l-262 -294h-128 l329 362l-237 306l120 -1l205 -269z"/>
<glyph glyph-name="uni04C2" horiz-adv-x="622" unicode="ӂ" d="M223 603l83 23q5 -28 23 -46q20 -19 53 -19q35 0 57 16q24 18 31 49l77 -23q-16 -56 -63 -88q-45 -30 -107 -30q-60 0 -100 32t-54 86zM315 421h98l-19 -156l146 156h116l-187 -194l151 -227h-120l-106 169l-14 -14l-19 -155h-98l19 155l-8 14l-148 -169h-124l209 229 l-139 192h116l108 -156z"/>
<glyph glyph-name="uni04C3" horiz-adv-x="592" unicode="Ӄ" d="M264 667l-33 -264l285 264h132l-296 -268q8 1 24 1q106 0 166 -57q51 -47 51 -134q0 -111 -62 -170q-53 -50 -155 -50q-36 0 -57 5l11 94q18 -5 44 -5q58 0 86 29q30 32 30 86q0 56 -39 84q-34 24 -112 24q-66 0 -121 -15l-36 -291h-102l82 667h102z"/>
<glyph glyph-name="uni04C4" horiz-adv-x="445" unicode="ӄ" d="M114 421h98l-20 -157l158 157h132l-207 -193q61 -10 98 -56q37 -47 37 -119q0 -126 -97 -201q-69 -53 -157 -60l11 90q49 7 82 36q59 50 59 130q0 52 -31 80q-29 26 -85 26h-12l-20 -154h-98z"/>
<glyph glyph-name="uni04C7" horiz-adv-x="638" unicode="Ӈ" d="M80 0l82 667h102l-32 -264h286l32 264h102l-91 -743q-10 -85 -42 -117q-37 -37 -110 -37q-35 0 -76 9l11 93q21 -8 44 -8q33 0 49 16q24 24 24 72l45 355h-286l-38 -307h-102z"/>
<glyph glyph-name="uni04C8" horiz-adv-x="494" unicode="ӈ" d="M62 0l52 421h98l-19 -156h174l19 156h98l-63 -507q-6 -43 -16 -70t-36 -47q-35 -27 -98 -27q-37 0 -67 9l11 88q21 -9 46 -9q28 0 44 16q15 16 20 57l30 244h-174l-21 -175h-98z"/>
<glyph glyph-name="uni04D0" horiz-adv-x="656" unicode="Ӑ" d="M265 832l81 36q7 -22 24 -38q21 -18 59 -18q34 0 55 15q23 16 32 41l79 -36q-20 -46 -60 -72q-45 -30 -111 -30t-107 31q-35 25 -52 71zM263 257h202l-72 226zM544 0l-50 161h-285l-93 -161h-112l419 706l229 -706h-108z"/>
<glyph glyph-name="uni04D1" horiz-adv-x="532" unicode="ӑ" d="M154 603l83 23q5 -28 23 -46q20 -19 53 -19q35 0 57 16q24 18 31 49l77 -23q-16 -56 -63 -88q-45 -30 -107 -30q-60 0 -100 32t-54 86zM298 344q-49 0 -84 -33q-47 -45 -47 -118q0 -53 33 -88q28 -30 71 -30q55 0 92 37q43 45 43 115q0 56 -33 89q-28 28 -75 28zM418 372 l6 49h98l-52 -421h-98l5 44q-28 -30 -56 -42q-35 -15 -77 -15q-72 0 -120 46q-58 56 -58 152q0 115 73 188q59 59 154 59q44 0 77 -18q28 -15 48 -42z"/>
<glyph glyph-name="uni04D2" horiz-adv-x="656" unicode="Ӓ" d="M266 788q0 28 21 49q20 20 50 20q24 0 38 -15q16 -16 16 -41q0 -30 -21 -49t-49 -19q-24 0 -39 15q-16 15 -16 40zM461 788q0 28 21 49q20 20 50 20q24 0 38 -15q16 -16 16 -41q0 -30 -21 -49t-49 -19q-24 0 -39 15q-16 15 -16 40zM263 257h202l-72 226zM544 0l-50 161 h-285l-93 -161h-112l419 706l229 -706h-108z"/>
<glyph glyph-name="uni04D3" horiz-adv-x="532" unicode="ӓ" d="M164 561q0 27 21 48q21 22 51 22q21 0 38 -15q16 -15 16 -39q0 -25 -20 -48q-20 -22 -47 -22q-25 0 -43 16q-16 14 -16 38zM344 561q0 27 21 48q21 22 51 22q21 0 38 -15q16 -15 16 -39q0 -25 -20 -48q-20 -22 -47 -22q-25 0 -43 16q-16 14 -16 38zM298 344 q-49 0 -84 -33q-47 -45 -47 -118q0 -53 33 -88q28 -30 71 -30q55 0 92 37q43 45 43 115q0 56 -33 89q-28 28 -75 28zM418 372l6 49h98l-52 -421h-98l5 44q-28 -30 -56 -42q-35 -15 -77 -15q-72 0 -120 46q-58 56 -58 152q0 115 73 188q59 59 154 59q44 0 77 -18 q28 -15 48 -42z"/>
<glyph glyph-name="uni04D4" horiz-adv-x="926" unicode="Ӕ" d="M269 255h198l-68 217zM546 0l-50 159h-283l-93 -159h-110l402 667h295l30 -96h-265l51 -159h258l30 -96h-258l68 -220h265l30 -96h-370z"/>
<glyph glyph-name="uni04D5" horiz-adv-x="762" unicode="ӕ" d="M454 267h196q-5 37 -25 58q-21 23 -61 23t-71 -25q-25 -20 -39 -56zM244 187q-48 0 -75 -23q-18 -15 -18 -39q0 -23 24 -39q23 -15 57 -15q42 0 67 16q28 18 28 47q0 23 -22 38t-61 15zM140 328l11 91q62 13 119 13q56 0 91 -15q34 -16 53 -43q26 25 57 38q45 20 95 20 q79 0 127 -49q52 -55 52 -147q0 -25 -5 -49h-301q0 -52 31 -85q25 -27 69 -27q37 0 67 19q27 18 44 48l77 -46q-30 -50 -78 -79q-50 -30 -118 -30q-52 0 -93 19q-34 16 -59 49q-27 -34 -66 -51q-38 -17 -97 -17q-68 0 -110 32q-50 37 -50 105q0 60 43 101q48 46 135 46 q71 0 113 -28q2 9 2 24q0 39 -27 60q-23 17 -70 17q-53 0 -112 -16z"/>
<glyph glyph-name="uni04D6" d="M197 832l81 36q7 -22 24 -38q21 -18 59 -18q34 0 55 15q23 16 32 41l79 -36q-20 -46 -60 -72q-45 -30 -111 -30t-107 31q-35 25 -52 71zM530 667l-12 -96h-266l-20 -169h258l-12 -96h-258l-26 -210h266l-12 -96h-368l82 667h368z" unicode="Ӗ"/>
<glyph glyph-name="uni04D7" horiz-adv-x="489" unicode="ӗ" d="M147 603l83 23q5 -28 23 -46q20 -19 53 -19q35 0 57 16q24 18 31 49l77 -23q-16 -56 -63 -88q-45 -30 -107 -30q-60 0 -100 32t-54 86zM181 267h196q-5 37 -25 58q-21 23 -61 23t-71 -25q-25 -20 -39 -56zM377 142l77 -46q-30 -50 -78 -79q-51 -30 -118 -30 q-83 0 -135 53q-57 57 -57 150q0 109 73 180q64 62 154 62q80 0 127 -49q52 -54 52 -147q0 -25 -5 -49h-301q0 -52 31 -85q25 -27 69 -27q37 0 67 19q27 18 44 48z"/>
<glyph glyph-name="uni04D8" horiz-adv-x="750" unicode="Ә" d="M626 263h-432q5 -81 60 -132q53 -50 149 -50q93 0 150 49q59 51 73 133zM214 484l-81 60q51 58 122 97q73 38 165 38q145 0 229 -81q94 -92 94 -241q0 -164 -95 -269q-93 -101 -246 -101q-149 0 -232 87q-83 86 -83 224q0 8 0.5 19t2 23t1.5 17h549q0 101 -65 168 q-59 60 -158 60q-69 0 -122 -30q-44 -25 -81 -71z"/>
<glyph glyph-name="afii10846" horiz-adv-x="489" unicode="ә" d="M362 162h-199q3 -41 28 -67q24 -24 66 -24t68 22q29 22 37 69zM69 242h304q-2 50 -33 78q-27 23 -68 23q-37 0 -63 -16q-21 -13 -38 -35l-89 30q32 53 82 81q51 29 113 29q86 0 140 -50q58 -54 58 -147q0 -123 -69 -192q-56 -56 -151 -56q-85 0 -132 47q-57 57 -57 160 q0 22 3 48z"/>
<glyph glyph-name="uni04DA" horiz-adv-x="750" unicode="Ӛ" d="M278 788q0 28 21 49q20 20 50 20q24 0 38 -15q16 -16 16 -41q0 -30 -21 -49t-49 -19q-24 0 -39 15q-16 15 -16 40zM473 788q0 28 21 49q20 20 50 20q24 0 38 -15q16 -16 16 -41q0 -30 -21 -49t-49 -19q-24 0 -39 15q-16 15 -16 40zM626 263h-432q5 -81 60 -132 q53 -50 149 -50q93 0 150 49q59 51 73 133zM214 484l-81 60q51 58 122 97q73 38 165 38q145 0 229 -81q94 -92 94 -241q0 -164 -95 -269q-93 -101 -246 -101q-149 0 -232 87q-83 86 -83 224q0 8 0.5 19t2 23t1.5 17h549q0 101 -65 168q-59 60 -158 60q-69 0 -122 -30 q-44 -25 -81 -71z"/>
<glyph glyph-name="uni04DB" horiz-adv-x="489" unicode="ӛ" d="M144 561q0 27 21 48q21 22 51 22q21 0 38 -15q16 -15 16 -39q0 -25 -20 -48q-20 -22 -47 -22q-25 0 -43 16q-16 14 -16 38zM324 561q0 27 21 48q21 22 51 22q21 0 38 -15q16 -15 16 -39q0 -25 -20 -48q-20 -22 -47 -22q-25 0 -43 16q-16 14 -16 38zM362 162h-199 q3 -41 28 -67q24 -24 66 -24t68 22q29 22 37 69zM69 242h304q-2 50 -33 78q-27 23 -68 23q-37 0 -63 -16q-21 -13 -38 -35l-89 30q32 53 82 81q51 29 113 29q86 0 140 -50q58 -54 58 -147q0 -123 -69 -192q-56 -56 -151 -56q-85 0 -132 47q-57 57 -57 160q0 22 3 48z"/>
<glyph glyph-name="uni04DC" horiz-adv-x="850" unicode="Ӝ" d="M354 788q0 28 21 49q20 20 50 20q24 0 38 -15q16 -16 16 -41q0 -30 -21 -49t-49 -19q-24 0 -39 15q-16 15 -16 40zM549 788q0 28 21 49q20 20 50 20q24 0 38 -15q16 -16 16 -41q0 -30 -21 -49t-49 -19q-24 0 -39 15q-16 15 -16 40zM454 667h102l-33 -269l271 269h128 l-319 -310l233 -357h-120l-190 294l-18 -18l-34 -276h-102l34 276l-12 18l-262 -294h-128l329 362l-237 306l120 -1l205 -269z"/>
<glyph glyph-name="uni04DD" horiz-adv-x="622" unicode="ӝ" d="M226 561q0 27 21 48q21 22 51 22q21 0 38 -15q16 -15 16 -39q0 -25 -20 -48q-20 -22 -47 -22q-25 0 -43 16q-16 14 -16 38zM406 561q0 27 21 48q21 22 51 22q21 0 38 -15q16 -15 16 -39q0 -25 -20 -48q-20 -22 -47 -22q-25 0 -43 16q-16 14 -16 38zM315 421h98l-19 -156 l146 156h116l-187 -194l151 -227h-120l-106 169l-14 -14l-19 -155h-98l19 155l-8 14l-148 -169h-124l209 229l-139 192h116l108 -156z"/>
<glyph glyph-name="uni04DE" horiz-adv-x="565" unicode="Ӟ" d="M208 788q0 28 21 49q20 20 50 20q24 0 38 -15q16 -16 16 -41q0 -30 -21 -49t-49 -19q-24 0 -39 15q-16 15 -16 40zM403 788q0 28 21 49q20 20 50 20q24 0 38 -15q16 -16 16 -41q0 -30 -21 -49t-49 -19q-24 0 -39 15q-16 15 -16 40zM188 516l-63 65q42 45 84 68 q53 29 130 29q105 0 159 -56q40 -41 40 -109q0 -53 -26 -93q-27 -41 -76 -61q38 -13 61 -35q44 -41 44 -115q0 -92 -59 -153q-66 -68 -191 -68q-99 0 -159 42q-61 44 -88 118l89 46q12 -46 45 -76q41 -36 109 -36q77 0 115 33q37 32 37 87q0 52 -39 79q-33 23 -108 23h-60 l12 96h56q75 0 110 33q27 25 27 68q0 41 -30 63q-28 20 -80 20q-48 0 -82 -20q-32 -19 -57 -48z"/>
<glyph glyph-name="uni04DF" horiz-adv-x="431" unicode="ӟ" d="M124 561q0 27 21 48q21 22 51 22q21 0 38 -15q16 -15 16 -39q0 -25 -20 -48q-20 -22 -47 -22q-25 0 -43 16q-16 14 -16 38zM304 561q0 27 21 48q21 22 51 22q21 0 38 -15q16 -15 16 -39q0 -25 -20 -48q-20 -22 -47 -22q-25 0 -43 16q-16 14 -16 38zM149 309l-58 58 q26 27 62 45q40 20 94 20q70 0 110 -29q44 -32 44 -87q0 -36 -19 -59q-18 -23 -50 -30q28 -8 50 -30q25 -26 25 -66q0 -58 -39 -97q-47 -47 -140 -47q-71 0 -113 27q-41 25 -64 73l79 40q13 -27 33 -42q25 -18 63 -18q36 0 57 15q24 18 24 45t-22 40q-15 10 -49 10h-50 l10 80h36q43 0 60 16q13 11 13 33q0 21 -18 34q-16 12 -48 12q-29 0 -52 -12q-20 -11 -38 -31z"/>
<glyph glyph-name="uni04E2" horiz-adv-x="712" unicode="Ӣ" d="M274 733l10 80h360l-10 -80h-360zM530 0l55 449l-509 -479l86 697h102l-55 -451l508 479l-85 -695h-102z"/>
<glyph glyph-name="uni04E3" horiz-adv-x="510" unicode="ӣ" d="M147 508l10 78h330l-10 -78h-330zM114 421h98l-30 -239l322 277l-56 -459h-98l30 245l-322 -277z"/>
<glyph glyph-name="uni04E4" horiz-adv-x="712" unicode="Ӥ" d="M302 788q0 28 21 49q20 20 50 20q24 0 38 -15q16 -16 16 -41q0 -30 -21 -49t-49 -19q-24 0 -39 15q-16 15 -16 40zM497 788q0 28 21 49q20 20 50 20q24 0 38 -15q16 -16 16 -41q0 -30 -21 -49t-49 -19q-24 0 -39 15q-16 15 -16 40zM530 0l55 449l-509 -479l86 697h102 l-55 -451l508 479l-85 -695h-102z"/>
<glyph glyph-name="uni04E5" horiz-adv-x="510" unicode="ӥ" d="M169 561q0 27 21 48q21 22 51 22q21 0 38 -15q16 -15 16 -39q0 -25 -20 -48q-20 -22 -47 -22q-25 0 -43 16q-16 14 -16 38zM349 561q0 27 21 48q21 22 51 22q21 0 38 -15q16 -15 16 -39q0 -25 -20 -48q-20 -22 -47 -22q-25 0 -43 16q-16 14 -16 38zM114 421h98l-30 -239 l322 277l-56 -459h-98l30 245l-322 -277z"/>
<glyph glyph-name="uni04E6" horiz-adv-x="796" unicode="Ӧ" d="M318 788q0 28 21 49q20 20 50 20q24 0 38 -15q16 -16 16 -41q0 -30 -21 -49t-49 -19q-24 0 -39 15q-16 15 -16 40zM513 788q0 28 21 49q20 20 50 20q24 0 38 -15q16 -16 16 -41q0 -30 -21 -49t-49 -19q-24 0 -39 15q-16 15 -16 40zM410 81q124 0 196 72q38 37 59.5 92.5 t21.5 114.5q0 95 -60 157q-66 68 -169 68q-110 0 -185 -74q-83 -81 -83 -204q0 -98 62 -162q60 -64 158 -64zM478 679q138 0 225 -87q86 -85 86 -226q0 -169 -105 -276q-102 -103 -275 -103q-148 0 -231 86q-89 91 -89 227q0 79 29 151.5t80 122.5q105 105 280 105z"/>
<glyph glyph-name="uni04E7" horiz-adv-x="534" unicode="ӧ" d="M169 561q0 27 21 48q21 22 51 22q21 0 38 -15q16 -15 16 -39q0 -25 -20 -48q-20 -22 -47 -22q-25 0 -43 16q-16 14 -16 38zM349 561q0 27 21 48q21 22 51 22q21 0 38 -15q16 -15 16 -39q0 -25 -20 -48q-20 -22 -47 -22q-25 0 -43 16q-16 14 -16 38zM287 75q56 0 93 40 q40 43 40 109q0 54 -33 88q-31 32 -80 32q-58 0 -95 -35q-46 -43 -46 -110q0 -51 31 -87q34 -37 90 -37zM313 432q94 0 150 -56q57 -59 57 -146q0 -107 -73 -178q-68 -65 -173 -65q-94 0 -150 57q-58 60 -58 147q0 106 73 176q68 65 174 65z"/>
<glyph glyph-name="uni04E8" horiz-adv-x="796" unicode="Ө" d="M199 383h487q-7 81 -59 134q-66 68 -169 68q-108 0 -185 -74q-56 -53 -74 -128zM678 287h-487q4 -82 61 -142q61 -64 158 -64q121 0 196 72q57 54 72 134zM478 679q138 0 225 -87q86 -85 86 -226q0 -169 -105 -276q-102 -103 -275 -103q-148 0 -231 86q-89 91 -89 227 q0 79 29 151.5t80 122.5q107 105 280 105z"/>
<glyph glyph-name="uni04E9" horiz-adv-x="534" unicode="ө" d="M175 253h242q-6 41 -36 66q-29 25 -77 25q-52 0 -88 -29q-29 -23 -41 -62zM413 173h-244q6 -44 35 -70q31 -28 83 -28q50 0 83 27q33 28 43 71zM313 432q94 0 150 -56q57 -59 57 -146q0 -107 -73 -178q-68 -65 -173 -65q-94 0 -150 57q-58 60 -58 147q0 106 73 176 q68 65 174 65z"/>
<glyph glyph-name="uni04EA" horiz-adv-x="796" unicode="Ӫ" d="M318 788q0 28 21 49q20 20 50 20q24 0 38 -15q16 -16 16 -41q0 -30 -21 -49t-49 -19q-24 0 -39 15q-16 15 -16 40zM513 788q0 28 21 49q20 20 50 20q24 0 38 -15q16 -16 16 -41q0 -30 -21 -49t-49 -19q-24 0 -39 15q-16 15 -16 40zM199 383h487q-7 81 -59 134 q-66 68 -169 68q-108 0 -185 -74q-56 -53 -74 -128zM678 287h-487q4 -82 61 -142q61 -64 158 -64q121 0 196 72q57 54 72 134zM478 679q138 0 225 -87q86 -85 86 -226q0 -169 -105 -276q-102 -103 -275 -103q-148 0 -231 86q-89 91 -89 227q0 79 29 151.5t80 122.5 q107 105 280 105z"/>
<glyph glyph-name="uni04EB" horiz-adv-x="534" unicode="ӫ" d="M169 561q0 27 21 48q21 22 51 22q21 0 38 -15q16 -15 16 -39q0 -25 -20 -48q-20 -22 -47 -22q-25 0 -43 16q-16 14 -16 38zM349 561q0 27 21 48q21 22 51 22q21 0 38 -15q16 -15 16 -39q0 -25 -20 -48q-20 -22 -47 -22q-25 0 -43 16q-16 14 -16 38zM175 253h242 q-6 41 -36 66q-29 25 -77 25q-52 0 -88 -29q-29 -23 -41 -62zM413 173h-244q6 -44 35 -70q31 -28 83 -28q50 0 83 27q33 28 43 71zM313 432q94 0 150 -56q57 -59 57 -146q0 -107 -73 -178q-68 -65 -173 -65q-94 0 -150 57q-58 60 -58 147q0 106 73 176q68 65 174 65z"/>
<glyph glyph-name="uni04EE" horiz-adv-x="559" unicode="Ӯ" d="M184 733l10 80h360l-10 -80h-360zM88 667h109l135 -361l197 361h106l-374 -667h-106l113 203z"/>
<glyph glyph-name="uni04EF" horiz-adv-x="482" unicode="ӯ" d="M131 508l10 78h330l-10 -78h-330zM3 -229l200 307l-145 343h116l95 -237l147 237h112l-415 -650h-110z"/>
<glyph glyph-name="uni04F0" horiz-adv-x="559" unicode="Ӱ" d="M212 788q0 28 21 49q20 20 50 20q24 0 38 -15q16 -16 16 -41q0 -30 -21 -49t-49 -19q-24 0 -39 15q-16 15 -16 40zM407 788q0 28 21 49q20 20 50 20q24 0 38 -15q16 -16 16 -41q0 -30 -21 -49t-49 -19q-24 0 -39 15q-16 15 -16 40zM88 667h109l135 -361l197 361h106 l-374 -667h-106l113 203z"/>
<glyph glyph-name="uni04F1" horiz-adv-x="482" unicode="ӱ" d="M155 561q0 27 21 48q21 22 51 22q21 0 38 -15q16 -15 16 -39q0 -25 -20 -48q-20 -22 -47 -22q-25 0 -43 16q-16 14 -16 38zM335 561q0 27 21 48q21 22 51 22q21 0 38 -15q16 -15 16 -39q0 -25 -20 -48q-20 -22 -47 -22q-25 0 -43 16q-16 14 -16 38zM3 -229l200 307 l-145 343h116l95 -237l147 237h112l-415 -650h-110z"/>
<glyph glyph-name="uni04F2" horiz-adv-x="559" unicode="Ӳ" d="M543 906l72 -52l-172 -127l-39 36zM343 906l72 -52l-172 -127l-39 36zM88 667h109l135 -361l197 361h106l-374 -667h-106l113 203z"/>
<glyph glyph-name="uni04F3" horiz-adv-x="482" unicode="ӳ" d="M475 675l76 -46l-163 -144l-38 34zM295 675l76 -46l-163 -144l-38 34zM3 -229l200 307l-145 343h116l95 -237l147 237h112l-415 -650h-110z"/>
<glyph glyph-name="uni04F4" horiz-adv-x="608" unicode="Ӵ" d="M231 788q0 28 21 49q20 20 50 20q24 0 38 -15q16 -16 16 -41q0 -30 -21 -49t-49 -19q-24 0 -39 15q-16 15 -16 40zM426 788q0 28 21 49q20 20 50 20q24 0 38 -15q16 -16 16 -41q0 -30 -21 -49t-49 -19q-24 0 -39 15q-16 15 -16 40zM426 0l34 278q-52 -11 -121 -11 q-107 0 -169 44q-52 40 -52 120q0 23 7 80l19 156h102l-19 -151q-6 -52 -6 -68q0 -42 28 -64q29 -23 103 -23q64 0 120 11l36 295h102l-82 -667h-102z"/>
<glyph glyph-name="uni04F5" horiz-adv-x="449" unicode="ӵ" d="M134 561q0 27 21 48q21 22 51 22q21 0 38 -15q16 -15 16 -39q0 -25 -20 -48q-20 -22 -47 -22q-25 0 -43 16q-16 14 -16 38zM314 561q0 27 21 48q21 22 51 22q21 0 38 -15q16 -15 16 -39q0 -25 -20 -48q-20 -22 -47 -22q-25 0 -43 16q-16 14 -16 38zM289 0l20 166 q-36 -12 -80 -12q-66 0 -106 30q-38 29 -38 79q0 19 5 54l13 104h98l-12 -97q-3 -24 -3 -34q0 -28 20 -40q18 -12 57 -12q29 0 57 11l21 172h98l-52 -421h-98z"/>
<glyph glyph-name="uni04F8" horiz-adv-x="740" unicode="Ӹ" d="M303 788q0 28 21 49q20 20 50 20q24 0 38 -15q16 -16 16 -41q0 -30 -21 -49t-49 -19q-24 0 -39 15q-16 15 -16 40zM498 788q0 28 21 49q20 20 50 20q24 0 38 -15q16 -16 16 -41q0 -30 -21 -49t-49 -19q-24 0 -39 15q-16 15 -16 40zM219 302l-25 -206h72q86 0 118 33 q29 29 29 81q0 44 -34 70q-31 22 -99 22h-61zM80 0l83 667h101l-33 -269h70q105 0 161 -51q52 -47 52 -127q0 -103 -57 -160q-38 -38 -86 -49t-112 -11h-78h-101zM640 667h102l-82 -667h-102z"/>
<glyph glyph-name="uni04F9" horiz-adv-x="581" unicode="ӹ" d="M199 561q0 27 21 48q21 22 51 22q21 0 38 -15q16 -15 16 -39q0 -25 -20 -48q-20 -22 -47 -22q-25 0 -43 16q-16 14 -16 38zM379 561q0 27 21 48q21 22 51 22q21 0 38 -15q16 -15 16 -39q0 -25 -20 -48q-20 -22 -47 -22q-25 0 -43 16q-16 14 -16 38zM170 84h46q41 0 61 15 q19 15 19 42q0 26 -21 38q-15 9 -48 9h-44zM62 0l51 421h99l-19 -149h53q76 0 115 -37q34 -34 34 -86q0 -66 -42 -106q-45 -43 -138 -43h-57h-96zM421 0l52 421h98l-52 -421h-98z"/>
<glyph glyph-name="endash" horiz-adv-x="620" unicode="–" d="M91 168l11 90h480l-11 -90h-480z"/>
<glyph glyph-name="emdash" horiz-adv-x="840" unicode="—" d="M91 168l11 90h700l-11 -90h-700z"/>
<glyph glyph-name="quoteleft" horiz-adv-x="290" unicode="‘" d="M322 669l-133 -254l-84 34l154 247z"/>
<glyph glyph-name="quotesinglbase" horiz-adv-x="340" unicode="‚" d="M34 -129l133 254l84 -34l-154 -247z"/>
<glyph glyph-name="quotedblleft" horiz-adv-x="462" unicode="“" d="M320 669l-133 -254l-82 34l153 247zM494 669l-133 -254l-82 34l153 247z"/>
<glyph glyph-name="quotedblright" horiz-adv-x="512" unicode="”" d="M278 447l133 254l82 -34l-153 -247zM104 447l133 254l82 -34l-153 -247z"/>
<glyph glyph-name="dagger" horiz-adv-x="567" unicode="†" d="M305 516l27 213h98l-27 -213h138l-11 -94h-138l-74 -599h-98l74 599h-138l11 94h138z"/>
<glyph glyph-name="daggerdbl" horiz-adv-x="566" unicode="‡" d="M304 516l27 213h98l-27 -213h138l-11 -94h-138l-31 -251h138l-12 -94h-138l-31 -254h-98l31 254h-138l12 94h138l31 251h-138l11 94h138z"/>
<glyph glyph-name="ellipsis" horiz-adv-x="801" unicode="…" d="M606 42q0 26 18 46t49 20q24 0 39 -15q16 -15 16 -40q0 -27 -20 -47q-18 -18 -46 -18q-26 0 -40 14q-16 15 -16 40zM346 42q0 26 18 46t49 20q24 0 39 -15q16 -15 16 -40q0 -27 -20 -47q-18 -18 -46 -18q-26 0 -40 14q-16 15 -16 40zM86 42q0 26 18 46t49 20q24 0 39 -15 q16 -15 16 -40q0 -27 -20 -47q-18 -18 -46 -18q-26 0 -40 14q-16 15 -16 40z"/>
<glyph glyph-name="perthousand" horiz-adv-x="1203" unicode="‰" d="M1021 65q39 0 62 25q27 27 27 69q0 36 -24 57q-21 19 -53 19q-40 0 -64 -26q-26 -26 -26 -67q0 -34 22 -56q21 -21 56 -21zM1036 307q68 0 112 -44q40 -40 40 -102q0 -73 -50 -123q-46 -45 -119 -45q-72 0 -114 42t-42 104q0 66 50 118q48 50 123 50zM254 431q39 0 62 25 q27 27 27 69q0 36 -24 57q-21 19 -53 19q-40 0 -64 -26q-26 -26 -26 -67q0 -34 22 -56q21 -21 56 -21zM268 673q69 0 113 -44q40 -40 40 -102q0 -71 -50 -121q-47 -47 -122 -47q-69 0 -111 42t-42 104q0 67 49 118q48 50 123 50zM630 65q39 0 62 25q27 27 27 69q0 36 -24 57 q-21 19 -53 19q-40 0 -64 -26q-26 -26 -26 -67q0 -34 22 -56q21 -21 56 -21zM645 307q68 0 112 -44q40 -40 40 -102q0 -73 -50 -123q-46 -45 -119 -45q-72 0 -114 42t-42 104q0 66 50 118q48 50 123 50zM194 18l462 660l44 -27l-462 -662z"/>
<glyph glyph-name="guilsinglleft" horiz-adv-x="326" unicode="‹" d="M167 215l106 -165l-71 -43l-135 212l193 216l59 -51z"/>
<glyph glyph-name="guilsinglright" horiz-adv-x="317" unicode="›" d="M203 222l-109 165l71 44l139 -212l-185 -212l-59 50z"/>
<glyph glyph-name="fraction" horiz-adv-x="220" unicode="⁄" d="M-98 17l463 661l45 -28l-463 -661z"/>
<glyph glyph-name="Euro" horiz-adv-x="568" unicode="€" d="M601 641l-54 -89q-46 33 -126 33q-20 0 -42 -3.5t-58.5 -15t-68 -42.5t-48.5 -78h289l-39 -70h-274q-9 -31 -11 -74h247l-39 -70h-203q6 -68 54.5 -109.5t128.5 -41.5q93 0 172 57l-13 -109q-87 -42 -173 -42q-140 0 -215 82q-61 68 -62 163h-68l39 70h30q2 43 11 74h-62 l39 70h43q25 86 92 146q98 87 251 87q94 0 160 -38z"/>
<glyph glyph-name="trademark" horiz-adv-x="710" unicode="™" d="M366 287h-71l133 414l92 -280l161 280l30 -414h-71l-9 206l-129 -213l-75 213zM312 601h-84l-39 -314h-70l39 314h-84l8 66h238z"/>
<glyph glyph-name="partialdiff" horiz-adv-x="521" unicode="∂" d="M291 75q56 0 86 30q39 38 39 107q0 65 -40 101q-35 31 -85 31q-52 0 -85 -31q-40 -40 -40 -104q0 -69 40 -105q33 -29 85 -29zM122 586l18 87q123 -15 213 -76q78 -54 118 -135q45 -89 45 -212q0 -137 -66 -204q-59 -59 -157 -59q-100 0 -162 63q-65 66 -65 160 q0 100 64 164q58 58 142 58q78 0 131 -47q-27 96 -114 148q-76 46 -167 53z"/>
<glyph glyph-name="product" horiz-adv-x="728" unicode="∏" d="M80 654v96h638v-96h-80v-808h80v-96h-263v96h81v808h-273v-808h80v-96h-263v96h81v808h-81z"/>
<glyph glyph-name="summation" horiz-adv-x="696" unicode="∑" d="M80 750h598v-245h-94v149h-364l220 -382l-220 -426h372v147h94v-243h-606v46l252 476l-252 432v46z"/>
<glyph glyph-name="minus" d="M75 291v90h434v-90h-434z" unicode="−"/>
<glyph glyph-name="radical" horiz-adv-x="568" unicode="√" d="M444 827h274v-88h-190l-193 -739h-126l-71 286h-88v88h168l50 -251h8z"/>
<glyph glyph-name="infinity" horiz-adv-x="670" unicode="∞" d="M230 410q-29 0 -51 -20q-20 -18 -20 -48q0 -32 20 -52t50 -20t60 24q23 18 39 46q-21 30 -40 46q-27 24 -58 24zM524 410q-31 0 -58 -24q-19 -16 -40 -46q16 -28 39 -46q30 -24 60 -24t50 20t20 52q0 30 -20 48q-22 20 -51 20zM377 275q-23 -34 -57 -59q-48 -34 -105 -34 q-68 0 -111 43q-44 46 -44 115q0 73 46 117q41 41 111 41q54 0 97 -30q34 -24 63 -63q29 39 63 63q43 30 97 30q70 0 111 -41q46 -44 46 -117q0 -69 -44 -115q-43 -43 -111 -43q-57 0 -105 34q-34 25 -57 59z"/>
<glyph glyph-name="approxequal" d="M476 323l57 -33q-19 -45 -51 -79q-41 -42 -98 -42q-40 0 -94 23l-40 17q-43 18 -63 18q-31 0 -53 -22q-17 -17 -29 -45l-56 36q24 59 57 90q35 35 86 35q39 0 86 -21l39 -17q49 -21 77 -21q32 0 55 23q14 14 27 38zM476 505l57 -33q-19 -45 -51 -79q-41 -42 -98 -42 q-40 0 -94 23l-40 17q-43 18 -63 18q-31 0 -53 -22q-17 -17 -29 -45l-56 36q24 59 57 90q35 35 86 35q39 0 86 -21l39 -17q49 -21 77 -21q32 0 55 23q14 14 27 38z" unicode="≈"/>
<glyph glyph-name="notequal" d="M75 380v84h238l52 110h78l-52 -110h118v-84h-158l-37 -78h195v-84h-235l-55 -116h-78l55 116h-121v84h161l37 78h-198z" unicode="≠"/>
<glyph glyph-name="lessequal" d="M508 32h-434v90h434v-90zM178 391l330 -149v-92l-434 200v82l434 200v-92z" unicode="≤"/>
<glyph glyph-name="greaterequal" d="M496 32h-434v90h434v-90zM392 391l-330 149v92l434 -200v-82l-434 -200v92z" unicode="≥"/>
<glyph glyph-name="dotmath" horiz-adv-x="200" unicode="⋅" d="M63 329q0 38 29 65q25 24 59 24q31 0 51 -20q19 -21 19 -47q0 -36 -26 -64q-24 -25 -60 -25q-32 0 -52 19q-20 18 -20 48z"/>
<glyph glyph-name="lozenge" horiz-adv-x="700" unicode="◊" d="M537 334l-146 202l-146 -202l146 -202zM131 334l260 360l260 -360l-260 -360z"/>
</font>
</defs>
</svg>
