<?xml version="1.0" encoding="UTF-8" standalone="no"?>
<!DOCTYPE svg  PUBLIC '-//W3C//DTD SVG 1.1//EN'  'http://www.w3.org/Graphics/SVG/1.1/DTD/svg11.dtd'>
<svg xmlns="http://www.w3.org/2000/svg">
<defs>
<font id="FuturaNewCondBook-Obl" horiz-adv-x="500">
<font-face slope="-12" underline-position="-50" font-weight="400" descent="-200" panose-1="2 11 4 6 2 2 4 9 2 3" units-per-em="1000" unicode-range="U+0020-25CA" bbox="-133 -250 757 874" x-height="447" underline-thickness="50" font-family="FuturaNewCondBook" ascent="800" font-style="italic" cap-height="667"/>
<missing-glyph horiz-adv-x="1000"/>
<glyph glyph-name=".notdef" horiz-adv-x="1000"/>
<glyph glyph-name=".null" horiz-adv-x="0"/>
<glyph glyph-name="nonmarkingreturn" horiz-adv-x="333"/>
<glyph glyph-name="space" horiz-adv-x="233" unicode=" "/>
<glyph glyph-name="exclam" horiz-adv-x="233" unicode="!" d="M138 44q0 -20 -15 -35.5t-35 -15.5q-17 0 -28 11.5t-11 28.5q0 20 15 35t35 15q17 0 28 -11.5t11 -27.5zM200 667l-62 -500h-59l62 500h59z"/>
<glyph glyph-name="quotedbl" horiz-adv-x="302" unicode='&quot;' d="M159 667l-9 -269h-41l-10 269h60zM288 667l-10 -269h-41l-9 269h60z"/>
<glyph glyph-name="numbersign" horiz-adv-x="600" unicode="#" d="M415 414h-150l-41 -149h151zM597 465l-14 -51h-111l-41 -149h112l-14 -50h-113l-58 -215h-57l59 215h-150l-59 -215h-56l59 215h-115l14 50h115l41 149h-115l14 51h115l55 202h56l-55 -202h150l55 202h57l-56 -202h112z"/>
<glyph glyph-name="dollar" horiz-adv-x="366" unicode="$" d="M352 636l-36 -47q-43 30 -83 30q-49 0 -79.5 -34.5t-30.5 -84.5q0 -37 15 -64.5t38 -43.5t49 -34t49 -35.5t38 -49t15 -72.5q0 -77 -42.5 -136t-110.5 -71l-11 -85h-47l10 83q-37 6 -58.5 18t-45.5 39l41 43q48 -44 90 -44q50 0 83 41.5t33 98.5q0 34 -14 59 q-4 6 -9.5 12.5t-11 11.5t-14.5 12t-14 10.5t-15 10t-13 8.5q-41 28 -60.5 45t-36 50.5t-16.5 78.5q0 70 36.5 120.5t104.5 66.5l9 78h48l-9 -76q52 -3 98 -39z"/>
<glyph glyph-name="percent" horiz-adv-x="511" unicode="%" d="M468 242q0 -51 -11 -115q-13 -80 -40 -109q-23 -23 -59 -23t-55 20q-21 23 -21 74q0 50 14 127q12 73 39 98q25 23 62 23q31 0 50 -19q21 -21 21 -76zM392 295q-16 0 -26 -10q-14 -13 -27 -93q-11 -69 -11 -101q0 -27 7 -40q8 -14 26 -14t29 17q14 21 24 94q9 63 9 103 q0 24 -9 34q-8 10 -22 10zM249 576q0 -51 -11 -115q-13 -80 -40 -109q-23 -23 -59 -23t-55 20q-21 23 -21 74q0 50 14 127q12 73 39 98q25 23 62 23q31 0 50 -19q21 -21 21 -76zM173 629q-16 0 -26 -10q-14 -13 -27 -93q-11 -69 -11 -101q0 -27 7 -40q8 -14 26 -14t29 17 q14 22 24 94q9 63 9 103q0 24 -9 34q-8 10 -22 10zM477 667l-371 -667h-46l371 667h46z"/>
<glyph glyph-name="ampersand" horiz-adv-x="437" unicode="&amp;" d="M274 90l-87 220q-86 -82 -86 -154q0 -42 22 -73.5t62 -31.5q41 0 89 39zM319 561q0 26 -14.5 43t-39.5 17q-37 0 -59.5 -27t-22.5 -65q0 -54 32 -128q103 77 104 160zM376 192l35 -42q-31 -36 -66 -69l30 -81h-64l-15 37q-54 -46 -115 -46q-62 0 -99.5 45t-37.5 109 q0 120 122 219q-41 97 -41 162q0 60 44 105t104 45q47 0 75.5 -30.5t28.5 -77.5q0 -46 -24 -89.5t-50 -69t-66 -55.5l87 -218q18 18 52 56z"/>
<glyph glyph-name="quotesingle" horiz-adv-x="174" unicode="&apos;" d="M159 667l-9 -269h-41l-10 269h60z"/>
<glyph glyph-name="parenleft" horiz-adv-x="257" unicode="(" d="M232 737l45 -23q-169 -294 -169 -541q0 -161 62 -331l-51 -23q-67 155 -67 348q0 146 48 295.5t132 274.5z"/>
<glyph glyph-name="parenright" horiz-adv-x="257" unicode=")" d="M99 714l51 23q67 -155 67 -347q0 -146 -48 -296.5t-132 -274.5l-45 23q169 294 169 542q0 167 -62 330z"/>
<glyph glyph-name="asterisk" horiz-adv-x="361" unicode="*" d="M367 596l-116 -23l57 -105l-30 -17l-57 104l-80 -87l-26 24l80 88l-106 50l15 32l106 -50l15 118l34 -4l-14 -118l115 23z"/>
<glyph glyph-name="plus" d="M479 305h-189v-176h-55v176h-189v52h189v176h55v-176h189v-52z" unicode="+"/>
<glyph glyph-name="comma" horiz-adv-x="174" unicode="," d="M114 55l-111 -197l-40 20l93 205z"/>
<glyph glyph-name="hyphen" horiz-adv-x="238" unicode="-" d="M189 233h-138l7 58h138z"/>
<glyph glyph-name="period" horiz-adv-x="174" unicode="." d="M108 44q0 -20 -15 -35.5t-35 -15.5q-39 0 -39 45q0 17 16.5 31t33.5 14t28 -11t11 -28z"/>
<glyph glyph-name="slash" horiz-adv-x="402" unicode="/" d="M490 729l-495 -902h-57l496 902h56z"/>
<glyph glyph-name="zero" horiz-adv-x="366" unicode="0" d="M297 503q0 116 -58 116q-39 0 -69 -53t-44 -128.5t-21 -137.5t-7 -101q0 -151 66 -151q38 0 63 50q31 61 50.5 188.5t19.5 216.5zM356 504q0 -46 -4 -102t-17 -132t-34 -135.5t-59.5 -101.5t-88.5 -42q-114 0 -114 201q0 45 4.5 99.5t19 125t36.5 126t61 94.5t89 39 q107 0 107 -172z"/>
<glyph glyph-name="one" horiz-adv-x="366" unicode="1" d="M277 667l-82 -667h-61l75 609h-85l8 58h145z"/>
<glyph glyph-name="two" horiz-adv-x="366" unicode="2" d="M141 485h-60q7 54 20.5 92.5t48 68.5t87.5 30q56 0 87 -33.5t31 -89.5q0 -46 -20 -102t-40 -91t-55 -91l-131 -210h179l-7 -59h-269l177 295q104 170 104 253q0 32 -14.5 51.5t-45.5 19.5q-80 0 -92 -134z"/>
<glyph glyph-name="three" horiz-adv-x="366" unicode="3" d="M144 511h-57q9 71 44.5 118t101.5 47q53 0 83.5 -31.5t30.5 -85.5q0 -147 -96 -190q38 -17 51 -50t13 -82q0 -45 -7.5 -84.5t-24.5 -78t-51 -61t-81 -22.5q-118 0 -118 128q0 22 6 64h60q0 -6 -2 -24.5t-2 -28.5q0 -79 64 -79q39 0 62 32q16 23 25.5 67.5t9.5 80.5 q0 107 -95 107h-29l7 55h13q68 0 97 29q19 19 28.5 54.5t9.5 68.5q0 71 -62 71q-42 0 -58.5 -28.5t-22.5 -76.5z"/>
<glyph glyph-name="four" horiz-adv-x="366" unicode="4" d="M213 236l26 210q3 27 22 123q-18 -48 -52 -115l-111 -218h115zM326 667l-53 -431h49l-6 -57h-50l-22 -179h-60l22 179h-173l8 63l225 425h60z"/>
<glyph glyph-name="five" horiz-adv-x="366" unicode="5" d="M351 667l-7 -58h-142l-49 -204q18 3 36 3q66 0 96 -48.5t30 -118.5q0 -58 -18 -113t-61 -96t-103 -41q-63 0 -107 31l24 61q40 -32 85 -32q41 0 69 33t38.5 72t10.5 77q0 115 -106 115q-37 0 -70 -12l78 331h196z"/>
<glyph glyph-name="six" horiz-adv-x="366" unicode="6" d="M99 144q0 -99 67 -99q27 0 46 19q21 21 33.5 72.5t12.5 95.5q0 56 -25 79q-14 14 -39 14q-26 0 -48 -22q-23 -22 -35 -68t-12 -91zM317 667l-111 -209q-7 -14 -23 -39.5t-33 -63.5q31 23 68 23q34 0 58 -22q40 -38 40 -125q0 -139 -63 -201q-39 -39 -98 -39q-45 0 -73 26 q-42 37 -42 130q0 80 25 154q19 56 68 147l120 219h64z"/>
<glyph glyph-name="seven" horiz-adv-x="366" unicode="7" d="M381 667l-284 -667h-64l260 609h-189l7 58h270z"/>
<glyph glyph-name="eight" horiz-adv-x="366" unicode="8" d="M262 242q0 99 -64 99q-29 0 -50 -21t-31.5 -54t-15 -63t-4.5 -57q0 -98 63 -98q34 0 57 26q22 25 33.5 75t11.5 93zM293 539q0 80 -59 80q-25 0 -42 -14t-25.5 -37t-11.5 -45t-3 -45q0 -81 56 -81q45 0 65 45t20 97zM352 547q0 -128 -88 -178q33 -20 44.5 -50.5 t11.5 -74.5t-8.5 -85.5t-26.5 -80.5t-53 -63t-82 -24q-59 0 -86 40t-27 102q0 76 25 144.5t83 91.5q-53 36 -53 111q0 78 40 137t115 59q105 0 105 -129z"/>
<glyph glyph-name="nine" horiz-adv-x="366" unicode="9" d="M293 523q0 100 -66 100q-28 0 -47.5 -21t-28.5 -54t-12.5 -61.5t-3.5 -54.5q0 -36 14.5 -63t47.5 -27q27 0 47.5 19.5t30 50t14 58.5t4.5 53zM75 0l167 312q-34 -23 -68 -23q-52 0 -75 42t-23 99q0 43 7 82.5t23.5 78t49.5 62t79 23.5q62 0 90 -40.5t28 -105.5 q0 -127 -86 -288l-128 -242h-64z"/>
<glyph glyph-name="colon" horiz-adv-x="174" unicode=":" d="M108 44q0 -20 -15 -35.5t-35 -15.5q-39 0 -39 45q0 17 16.5 31t33.5 14t28 -11t11 -28zM155 415q0 -20 -15 -35.5t-35 -15.5q-17 0 -28.5 11.5t-11.5 28.5q0 19 15.5 34.5t35.5 15.5q16 0 27.5 -11t11.5 -28z"/>
<glyph glyph-name="semicolon" horiz-adv-x="174" unicode=";" d="M114 55l-111 -197l-40 20l93 205zM158 414q0 -20 -15 -35t-35 -15q-39 0 -39 45q0 17 16 31t34 14q17 0 28 -11.5t11 -28.5z"/>
<glyph glyph-name="less" d="M467 107l-433 198v49l433 197v-56l-374 -166l374 -167v-55z" unicode="&lt;"/>
<glyph glyph-name="equal" d="M481 245h-434v49h434v-49zM481 391h-434v49h434v-49z" unicode="="/>
<glyph glyph-name="greater" d="M491 304l-433 -197v56l374 166l-374 167v55l433 -198v-49z" unicode="&gt;"/>
<glyph glyph-name="question" horiz-adv-x="327" unicode="?" d="M156 44q0 -20 -15.5 -35.5t-35.5 -15.5q-17 0 -28 11.5t-11 28.5q0 19 15 34.5t35 15.5q17 0 28.5 -11t11.5 -28zM86 498l5 47q6 61 38.5 96t91.5 35q46 0 70 -25t24 -71q0 -29 -5 -66q-4 -33 -8 -54t-13.5 -48t-23 -43.5t-37.5 -28.5t-55 -13l-20 -160h-58l26 214h42 q31 0 47 11t25 41q19 62 19 133q0 56 -42 56q-10 0 -18 -2.5t-14.5 -8.5t-11 -11.5t-8 -15t-6 -16.5t-4.5 -19t-2.5 -17.5t-2 -18t-1.5 -15.5h-58z"/>
<glyph glyph-name="at" horiz-adv-x="733" unicode="@" d="M484 376q0 38 -21.5 62t-58.5 24q-64 0 -109.5 -57.5t-45.5 -123.5q0 -44 22 -72.5t65 -28.5q64 0 106 64t42 132zM589 77l8 -37q-114 -53 -235 -53q-143 0 -231 80.5t-88 221.5q0 157 116.5 271.5t273.5 114.5q121 0 201.5 -70t80.5 -190q0 -74 -37 -148 q-26 -50 -67.5 -88t-89.5 -38q-26 0 -44.5 16.5t-18.5 42.5v12q-56 -74 -134 -74q-57 0 -89 39t-32 97q0 86 58.5 158t142.5 72q86 0 104 -84l23 71h41l-68 -216q-13 -39 -13 -55q0 -43 37 -43q36 0 73 39q35 37 55 90t20 106q0 104 -70.5 164t-176.5 60 q-140 0 -242.5 -102.5t-102.5 -242.5q0 -124 77.5 -194.5t203.5 -70.5q113 0 224 51z"/>
<glyph glyph-name="A" horiz-adv-x="320" unicode="A" d="M215 191l-14 235q-3 41 -3 80q0 38 3 77q-8 -47 -22 -103t-24 -91t-31 -104.5t-28 -93.5h119zM291 0h-65l-8 137h-139l-41 -137h-65l211 667h58z"/>
<glyph glyph-name="B" horiz-adv-x="346" unicode="B" d="M93 53h33q47 0 73 20q24 18 35.5 60t11.5 81q0 103 -85 103h-35zM133 372h33q48 0 70 27q34 40 34 142q0 40 -15 56t-54 16h-39zM108 667h96q72 0 100 -30t28 -102q0 -66 -23 -116q-13 -30 -31.5 -47t-48.5 -30q45 -13 62.5 -39.5t17.5 -74.5q0 -146 -75 -200 q-38 -28 -107 -28h-101z"/>
<glyph glyph-name="C" horiz-adv-x="315" unicode="C" d="M350 655l-8 -68q-39 29 -73 29q-59 0 -96 -61q-34 -55 -50.5 -156t-16.5 -188q0 -160 88 -160q39 0 85 30l-7 -62q-44 -28 -89 -28q-54 0 -87.5 36t-44 80.5t-10.5 97.5q0 103 26 221.5t76 182.5q54 67 130 67q48 0 77 -21z"/>
<glyph glyph-name="D" horiz-adv-x="365" unicode="D" d="M94 57h29q50 0 79 28q33 30 49 87q36 129 36 314q0 61 -20.5 92.5t-78.5 31.5h-26zM108 667h76q91 0 129 -40t38 -131q0 -186 -41 -331q-23 -84 -70.5 -124.5t-132.5 -40.5h-81z"/>
<glyph glyph-name="E" horiz-adv-x="297" unicode="E" d="M313 667l-7 -57h-144l-29 -235h140l-6 -57h-141l-32 -261h144l-7 -57h-205l82 667h205z"/>
<glyph glyph-name="F" horiz-adv-x="291" unicode="F" d="M317 667l-7 -57h-148l-29 -235h140l-6 -57h-141l-39 -318h-61l82 667h209z"/>
<glyph glyph-name="G" horiz-adv-x="368" unicode="G" d="M369 550l-63 -24q-4 90 -62 90q-78 0 -110 -150q-32 -142 -32 -287q0 -25 2 -42t8 -39.5t21.5 -34.5t39.5 -12q48 0 71 49q7 15 13.5 44t9 48t7 59.5t4.5 43.5h-89l7 57h150l-16 -134q-8 -64 -17 -97q-16 -59 -55 -94.5t-97 -35.5q-121 0 -121 169q0 199 41 347 q20 73 61.5 121t109.5 48q57 0 83.5 -33t33.5 -93z"/>
<glyph glyph-name="H" horiz-adv-x="380" unicode="H" d="M380 667l-82 -667h-61l42 344h-150l-42 -344h-61l82 667h61l-33 -266h150l33 266h61z"/>
<glyph glyph-name="I" horiz-adv-x="169" unicode="I" d="M169 667l-82 -667h-61l82 667h61z"/>
<glyph glyph-name="J" horiz-adv-x="221" unicode="J" d="M221 667l-68 -553q0 -2 -1.5 -12.5t-2 -13.5t-1.5 -12t-2.5 -13.5l-4 -12t-5 -12t-6.5 -10.5t-9 -10q-29 -28 -79 -28q-32 0 -68 18l8 64q30 -28 57 -28q12 0 21.5 4.5t14 8t8.5 15.5t5 16t3 20.5t2 18.5l67 540h61z"/>
<glyph glyph-name="K" horiz-adv-x="320" unicode="K" d="M365 667l-180 -320l98 -347h-64l-91 336l-41 -336h-61l82 667h61l-37 -303l169 303h64z"/>
<glyph glyph-name="L" horiz-adv-x="259" unicode="L" d="M236 57l-7 -57h-203l82 667h61l-75 -610h142z"/>
<glyph glyph-name="M" horiz-adv-x="492" unicode="M" d="M444 667l-1 -667h-60l7 433q2 61 9 121q-1 -2 -9 -41q-7 -38 -20 -80l-126 -433h-50l-17 434v64q0 10 1.5 28t1.5 28q-10 -82 -20 -120l-107 -434h-60l174 667h53l14 -458q1 -19 1 -58q0 -31 -1 -47q11 56 25 103l133 460h52z"/>
<glyph glyph-name="N" horiz-adv-x="381" unicode="N" d="M381 667l-82 -667h-53l-92 440q-3 15 -7.5 46.5t-7.5 47.5q-4 -80 -9 -118l-51 -416h-53l82 667h53l94 -453q2 -11 6 -38t7 -41q0 49 6 97l54 435h53z"/>
<glyph glyph-name="O" horiz-adv-x="398" unicode="O" d="M321 482q0 134 -73 134q-46 0 -76 -52q-34 -57 -51 -169t-17 -204q0 -140 73 -140q50 0 81 58q29 54 46 171t17 202zM382 477q0 -192 -47 -330q-51 -156 -165 -156q-128 0 -128 215q0 47 4.5 99.5t18.5 121t36 122t62 90.5t91 37q128 0 128 -199z"/>
<glyph glyph-name="P" horiz-adv-x="324" unicode="P" d="M133 376h41q36 0 57 16t31 57.5t10 79.5q0 44 -18 62.5t-62 18.5h-30zM108 667h79q76 0 111.5 -28t35.5 -102q0 -81 -26 -140q-13 -28 -31.5 -44.5t-46.5 -23.5t-48 -8.5t-56 -1.5l-39 -319h-61z"/>
<glyph glyph-name="Q" horiz-adv-x="398" unicode="Q" d="M225 188l37 -72q28 65 43.5 171.5t15.5 195.5q0 133 -73 133q-46 0 -76 -52q-34 -57 -51 -169t-17 -204q0 -140 75 -140q24 0 41 13l-47 92zM278 -49l-31 62q-32 -22 -78 -22q-127 0 -127 215q0 47 4.5 100t18.5 121.5t36 121.5t62 90t91 37q128 0 128 -211 q0 -101 -23 -224.5t-68 -182.5l39 -76z"/>
<glyph glyph-name="R" horiz-adv-x="370" unicode="R" d="M143 375h41q47 0 70 22q38 35 38 132q0 46 -20 63.5t-67 17.5h-33zM112 667h83q84 0 124 -27t40 -107q0 -202 -155 -213l112 -320h-66l-113 326l-40 -326h-66z"/>
<glyph glyph-name="S" horiz-adv-x="342" unicode="S" d="M336 640l-10 -78q-40 54 -91 54q-48 0 -78.5 -38t-30.5 -87q0 -37 19.5 -66t47 -49.5t54.5 -41.5t46.5 -54t19.5 -75q0 -83 -54.5 -149t-135.5 -66q-56 0 -99 35l10 80q45 -54 99 -54q52 0 84.5 42.5t32.5 95.5q0 34 -19.5 61.5t-47 48.5t-55 43t-47 55t-19.5 74 q0 79 49 142t126 63q54 0 99 -36z"/>
<glyph glyph-name="T" horiz-adv-x="261" unicode="T" d="M313 667l-7 -57h-98l-75 -610h-61l75 610h-99l7 57h258z"/>
<glyph glyph-name="U" horiz-adv-x="384" unicode="U" d="M384 667l-57 -467q-11 -84 -23 -116q-17 -45 -55 -69t-87 -24q-59 0 -89 32.5t-30 92.5q0 19 7 84l58 467h61l-57 -462q-7 -61 -7 -78q0 -76 65 -76q14 0 25 2.5t20 10t15.5 13t11.5 19t8 19.5t6 23.5t4 21.5t3.5 23.5t2.5 21.5l57 462h61z"/>
<glyph glyph-name="V" horiz-adv-x="321" unicode="V" d="M374 667l-215 -667h-54l-50 667h63l28 -442q2 -38 2 -57q0 -12 -0.5 -24.5t-1.5 -28t-1 -24.5q24 105 32 132l134 444h63z"/>
<glyph glyph-name="W" horiz-adv-x="498" unicode="W" d="M551 667l-198 -667h-56l-11 433v11q0 37 4 113q-5 -17 -11.5 -50t-8.5 -41q-1 -6 -4.5 -17.5t-5.5 -17.5l-126 -431h-56l-23 667h63l8 -420v-12q0 -15 -2 -45t-2 -46v-9v-13q16 71 34 130l122 415h52q11 -501 11 -545q2 16 6.5 34.5t11 40.5t9.5 34q2 10 4 17l116 419h63 z"/>
<glyph glyph-name="X" horiz-adv-x="313" unicode="X" d="M366 667l-165 -328l83 -339h-65l-41 189q-13 55 -15 95q-4 -17 -39 -97l-85 -187h-66l169 339l-87 328h65l39 -165q14 -59 17 -117q9 33 46 113l79 169h65z"/>
<glyph glyph-name="Y" horiz-adv-x="315" unicode="Y" d="M367 667l-168 -378l-35 -289h-61l35 289l-83 378h66l38 -191q14 -73 17 -123q18 58 44 122l81 192h66z"/>
<glyph glyph-name="Z" horiz-adv-x="275" unicode="Z" d="M321 667l-259 -610h166l-7 -57h-241l257 610h-165l7 57h242z"/>
<glyph glyph-name="bracketleft" horiz-adv-x="263" unicode="[" d="M292 729l-6 -46h-100l-99 -810h100l-6 -46h-158l111 902h158z"/>
<glyph glyph-name="backslash" horiz-adv-x="513" unicode="\" d="M63 729h56l385 -902h-57z"/>
<glyph glyph-name="bracketright" horiz-adv-x="263" unicode="]" d="M253 729l-111 -902h-158l5 46h101l99 810h-100l5 46h159z"/>
<glyph glyph-name="asciicircum" d="M486 373h-61l-158 250l-156 -250h-61l182 294h72z" unicode="^"/>
<glyph glyph-name="underscore" d="M472 -124h-500v50h500v-50z" unicode="_"/>
<glyph glyph-name="grave" horiz-adv-x="493" unicode="`" d="M319 533l-39 -26l-100 103l58 43z"/>
<glyph glyph-name="a" horiz-adv-x="322" unicode="a" d="M231 327q0 82 -48 82q-32 0 -53 -37q-20 -36 -31 -113.5t-11 -134.5q0 -85 48 -85q19 0 32.5 9.5t21.5 27.5t11.5 32t7.5 34q22 112 22 185zM300 447l-55 -447h-55l4 36q-38 -43 -81 -43q-82 0 -82 120q0 70 13 157.5t39 130.5q33 53 93 53q41 0 65 -37l4 30h55z"/>
<glyph glyph-name="b" horiz-adv-x="317" unicode="b" d="M233 325q0 84 -48 84q-53 0 -71 -93q-23 -105 -23 -198q0 -79 49 -79q31 0 50 32t31 115.5t12 138.5zM166 729l-38 -312q33 37 75 37q88 0 88 -119q0 -109 -26 -218q-32 -124 -113 -124q-43 0 -71 43l-4 -36h-56l90 729h55z"/>
<glyph glyph-name="c" horiz-adv-x="242" unicode="c" d="M249 437l-8 -66q-25 31 -51 31q-27 0 -49 -28.5t-32 -58.5t-14 -59q-8 -50 -8 -94q0 -18 2 -35t7.5 -37t18 -32t30.5 -12q28 0 60 40l-8 -70q-31 -23 -66 -23q-38 0 -62.5 28t-32.5 61.5t-8 71.5q0 66 13 122q16 69 53.5 123.5t95.5 54.5q31 0 59 -17z"/>
<glyph glyph-name="d" horiz-adv-x="319" unicode="d" d="M225 327q0 82 -47 82q-31 0 -52 -37q-20 -36 -31.5 -113t-11.5 -135q0 -85 48 -85q19 0 32.5 9.5t21.5 27.5t12 31.5t8 34.5q20 111 20 185zM331 729l-91 -729h-55l4 36q-38 -43 -81 -43q-82 0 -82 120q0 71 13 157.5t39 130.5q33 53 92 53q23 0 37.5 -8.5t28.5 -28.5 l39 312h56z"/>
<glyph glyph-name="e" horiz-adv-x="308" unicode="e" d="M94 260h131q2 32 2 51q0 91 -47 91q-63 0 -86 -142zM207 152h56q-10 -66 -41 -112.5t-90 -46.5q-104 0 -104 160q0 66 13 124q8 41 24 78t48 68t72 31q96 0 96 -155q0 -41 -8 -87h-185q-5 -33 -5 -59q0 -107 54 -107q18 0 31 10t20.5 29.5t11 33t7.5 33.5z"/>
<glyph glyph-name="f" horiz-adv-x="202" unicode="f" d="M261 730l-7 -62q-22 20 -38 20t-26 -11t-12 -20.5t-5 -29.5l-24 -180h76l-7 -52h-75l-49 -395h-56l49 395h-51l7 52h51l22 179q14 114 98 114q26 0 47 -10z"/>
<glyph glyph-name="g" horiz-adv-x="326" unicode="g" d="M234 321q0 87 -51 87q-22 0 -37.5 -16t-21.5 -32t-12 -41q-23 -97 -23 -183q0 -90 52 -90q19 0 32.5 9.5t21.5 29t11.5 31.5t7.5 34q20 102 20 171zM304 447l-58 -476q-1 -4 -2.5 -17.5t-2 -18.5t-3 -15.5t-4.5 -17t-6.5 -15t-9.5 -16.5q-31 -51 -107 -51q-99 0 -99 101 q0 14 4 40h55q-2 -18 -2 -29q0 -59 52 -59q25 0 40.5 14t20 30t7.5 43q1 12 3.5 35.5t4.5 36.5q-34 -32 -75 -32q-90 0 -90 130q0 44 5 90.5t18.5 104t44.5 93.5t76 36q42 0 69 -38l4 31h55z"/>
<glyph glyph-name="h" horiz-adv-x="325" unicode="h" d="M166 729l-39 -318q43 43 91 43q74 0 74 -78q0 -24 -3 -45l-40 -331h-56l39 321q4 26 4 39q0 21 -11 34.5t-31 13.5q-69 0 -80 -107l-37 -301h-56l90 729h55z"/>
<glyph glyph-name="i" horiz-adv-x="154" unicode="i" d="M131 447l-54 -447h-56l55 447h55zM163 593q0 -19 -14 -33t-33 -14q-16 0 -26.5 10.5t-10.5 25.5q0 20 14.5 34t33.5 14q15 0 25.5 -10.5t10.5 -26.5z"/>
<glyph glyph-name="j" horiz-adv-x="159" unicode="j" d="M137 447l-78 -627h-56l78 627h56zM168 593q0 -19 -13.5 -33t-32.5 -14q-16 0 -26.5 10.5t-10.5 25.5q0 19 13.5 33.5t32.5 14.5q16 0 26.5 -10.5t10.5 -26.5z"/>
<glyph glyph-name="k" horiz-adv-x="305" unicode="k" d="M304 447l-155 -207l128 -240h-63l-111 214l-26 -214h-56l90 729h55l-56 -464l131 182h63z"/>
<glyph glyph-name="l" horiz-adv-x="154" unicode="l" d="M166 729l-89 -729h-56l90 729h55z"/>
<glyph glyph-name="m" d="M132 447l-4 -37q44 44 85 44q57 0 75 -52q49 52 98 52q82 0 82 -80q0 -15 -4 -41l-40 -333h-56l41 331q2 16 2 27q0 50 -44 50q-21 0 -39.5 -13t-26.5 -33q-9 -23 -16 -76l-35 -286h-55l40 330q2 18 2 30q0 48 -39 48q-37 0 -58 -29q-20 -27 -29 -102l-34 -277h-56 l55 447h56z" unicode="m"/>
<glyph glyph-name="n" horiz-adv-x="325" unicode="n" d="M131 447l-4 -36q43 43 90 43q37 0 56 -22.5t19 -59.5q0 -22 -3 -41l-40 -331h-56l39 321q4 26 4 39q0 21 -11 34.5t-31 13.5q-69 0 -80 -107l-37 -301h-56l55 447h55z"/>
<glyph glyph-name="o" horiz-adv-x="318" unicode="o" d="M232 298q0 104 -50 104q-29 0 -49.5 -30.5t-30 -76.5t-13.5 -83t-4 -65q0 -101 53 -101q28 0 48 30t29 75.5t13 82t4 64.5zM290 328v-17q0 -47 -6 -93.5t-21 -101.5t-48.5 -89t-81.5 -34q-105 0 -105 162q0 43 7 89.5t23.5 96t50.5 81.5t80 32q51 0 76 -36.5t25 -89.5z "/>
<glyph glyph-name="p" horiz-adv-x="318" unicode="p" d="M234 325q0 84 -49 84q-51 0 -71 -93q-22 -108 -22 -198q0 -79 49 -79q32 0 49 32q20 32 32 115t12 139zM132 447l-3 -30q34 37 74 37q89 0 89 -119q0 -111 -27 -218q-30 -124 -112 -124q-43 0 -71 43l-27 -216h-55l77 627h55z"/>
<glyph glyph-name="q" horiz-adv-x="322" unicode="q" d="M231 327q0 82 -48 82q-32 0 -53 -37q-20 -36 -31 -113.5t-11 -134.5q0 -85 48 -85q19 0 32.5 9.5t21.5 27.5t11.5 32t7.5 34q22 112 22 185zM300 447l-77 -627h-55l26 216q-38 -43 -81 -43q-82 0 -82 120q0 70 13 157.5t39 130.5q33 53 93 53q41 0 65 -37l4 30h55z"/>
<glyph glyph-name="r" horiz-adv-x="192" unicode="r" d="M208 454l-8 -65q-22 0 -37.5 -7t-24 -16.5t-14.5 -28t-8 -30.5t-5 -36l-34 -271h-56l56 447h55l-7 -58q37 63 83 65z"/>
<glyph glyph-name="s" horiz-adv-x="243" unicode="s" d="M238 425l-7 -69q-33 46 -70 46q-27 0 -45 -20t-18 -48q0 -25 18.5 -49t40 -40.5t40 -45t18.5 -61.5q0 -58 -39 -101.5t-95 -43.5q-44 0 -78 31l7 66q35 -44 73 -44q31 0 52 24t21 55q0 21 -12 41t-29 37t-34 34.5t-29 40.5t-12 48q0 53 35.5 90.5t87.5 37.5q41 0 75 -29z "/>
<glyph glyph-name="t" horiz-adv-x="196" unicode="t" d="M222 447l-6 -52h-74l-49 -395h-55l49 395h-47l6 52h48l15 127h55l-15 -127h73z"/>
<glyph glyph-name="u" horiz-adv-x="327" unicode="u" d="M305 447l-41 -338q-7 -54 -41.5 -85t-88.5 -31q-46 0 -73 25.5t-27 71.5q0 13 1 19l41 338h56l-36 -291q-4 -34 -4 -51q0 -59 50 -59q21 0 35 9t20.5 26t9.5 31t6 35q1 6 1 9l36 291h55z"/>
<glyph glyph-name="v" horiz-adv-x="271" unicode="v" d="M293 447l-153 -447h-60l-46 447h58l25 -267q4 -52 4 -77q0 -13 1 -19q6 33 26 94l87 269h58z"/>
<glyph glyph-name="w" horiz-adv-x="433" unicode="w" d="M450 447l-151 -447h-57q-11 341 -11 372q-6 -29 -18 -70l-84 -302h-58l-33 447h56l17 -271q1 -15 1 -46q0 -32 -1 -48q3 13 23 92l79 273h57q11 -266 11 -365q13 46 113 365h56z"/>
<glyph glyph-name="x" horiz-adv-x="275" unicode="x" d="M296 447l-126 -218l71 -229h-63l-33 127q-12 44 -13 66q-9 -28 -28 -67l-63 -126h-62l129 229l-64 218h61q4 -15 12 -45.5t12.5 -49.5t9 -45.5t5.5 -48.5q23 58 29 70q7 13 19 37.5t22.5 44.5t19.5 37h62z"/>
<glyph glyph-name="y" horiz-adv-x="291" unicode="y" d="M312 447l-232 -627h-59l71 192l-52 435h57l25 -248q6 -55 6 -112q6 20 35 103l91 257h58z"/>
<glyph glyph-name="z" horiz-adv-x="267" unicode="z" d="M290 447l-227 -395h149l-6 -52h-229l222 395h-150l6 52h235z"/>
<glyph glyph-name="braceleft" horiz-adv-x="502" unicode="{" d="M418 729l-6 -46q-54 -2 -76.5 -21t-29.5 -72l-24 -199q-3 -28 -16 -59q-14 -33 -60 -54q50 -26 50 -84q0 -11 -2 -31l-24 -193q-2 -13 -2 -38q0 -58 85 -58l-6 -46q-5 -1 -16 -1q-58 0 -88 23.5t-30 79.5q0 24 3 46l23 187q2 18 2 28q0 28 -10.5 43.5t-37.5 23.5l5 43 q34 9 49 31.5t20 60.5l25 201q9 78 47.5 106.5t118.5 28.5z"/>
<glyph glyph-name="bar" d="M280 -250h-55v1000h55v-1000z" unicode="|"/>
<glyph glyph-name="braceright" horiz-adv-x="502" unicode="}" d="M361 299l-5 -42q-34 -11 -49 -33t-20 -60l-25 -201q-9 -70 -44 -103t-105 -33q-11 0 -17 1l6 46q54 2 76.5 20.5t29.5 71.5l24 201q6 45 22 70.5t54 41.5q-28 15 -39 34t-11 51q0 11 2 31l23 191q2 13 2 38q0 35 -22.5 46.5t-62.5 12.5l6 46h16q59 0 88.5 -23.5 t29.5 -80.5q0 -23 -3 -45l-22 -185q-2 -18 -2 -28q0 -53 48 -68z"/>
<glyph glyph-name="asciitilde" horiz-adv-x="667" unicode="~" d="M590 721l35 -21q-53 -106 -137 -106q-37 0 -109.5 35.5t-102.5 35.5q-52 0 -95 -76l-35 22q20 36 33.5 55t40 36t59.5 17q37 0 110 -35.5t104 -35.5q33 0 54.5 18.5t42.5 54.5z"/>
<glyph glyph-name="uni00A0" horiz-adv-x="233" unicode=" "/>
<glyph glyph-name="exclamdown" horiz-adv-x="233" unicode="¡" d="M158 280l-61 -500h-60l62 500h59zM189 415q0 -20 -15 -35.5t-35 -15.5q-17 0 -28 11.5t-11 28.5q0 20 15 35t35 15q16 0 27.5 -11t11.5 -28z"/>
<glyph glyph-name="cent" horiz-adv-x="366" unicode="¢" d="M318 558l-8 -67q-23 30 -51 30q-27 0 -48.5 -27.5t-31.5 -57t-14 -57.5q-9 -49 -9 -97q0 -17 2 -34t7.5 -37t18 -32.5t30.5 -12.5q28 0 61 40l-9 -70q-21 -15 -41 -19l-12 -92h-49l10 92q-78 31 -78 157q0 92 29 176q32 95 106 120l11 83h48l-10 -82q21 -3 38 -13z"/>
<glyph glyph-name="sterling" horiz-adv-x="366" unicode="£" d="M42 340h61q-28 64 -28 130q0 106 61 163q45 43 111 43q54 0 89 -37q32 -34 32 -89q0 -13 -1 -19l-59 -12q1 5 1 17q0 41 -23 63q-19 17 -47 17q-39 0 -65 -26q-36 -34 -36 -109q0 -66 32 -141h103l-6 -42h-82q28 -49 28 -96q0 -32 -17 -68q-14 -30 -34 -53l24 -19 q27 -22 47 -22q17 0 27 15q10 12 14 34l49 -17q-9 -41 -35 -66q-25 -25 -60 -25q-31 0 -58 20l-22 16q-32 23 -46 23q-17 0 -30 -13q-9 -9 -18 -27l-46 30q14 23 30 39q30 30 63 30q9 0 15 -2q36 46 36 96q0 47 -33 105h-82z"/>
<glyph glyph-name="currency" horiz-adv-x="667" unicode="¤" d="M527 354q0 74 -52 126.5t-126 52.5t-126 -52.5t-52 -126.5t52.5 -126t125.5 -52t125.5 52t52.5 126zM619 119l-32 -32l-93 93q-65 -54 -144 -54q-72 0 -145 52l-92 -92l-31 33l91 91q-54 68 -54 145q0 74 52 142l-92 92l32 32l92 -92q69 54 146 54q76 0 145 -53l92 91 l32 -32l-92 -92q52 -68 52 -143q0 -76 -52 -142z"/>
<glyph glyph-name="yen" horiz-adv-x="366" unicode="¥" d="M389 667l-111 -249h93l-5 -42h-106l-29 -65h127l-5 -42h-133l-33 -269h-56l33 269h-141l5 42h135l-15 65h-112l6 42h97l-54 249h63l38 -195q11 -54 16 -119q16 56 44 122l80 192h63z"/>
<glyph glyph-name="brokenbar" d="M275 -250h-53v403h53v-403zM275 337h-53v412h53v-412z" unicode="¦"/>
<glyph glyph-name="section" horiz-adv-x="361" unicode="§" d="M273 325q0 39 -16.5 67t-52.5 28q-29 0 -50 -19t-32 -48.5t-16 -58.5t-5 -55q0 -98 68 -98q32 0 54 18.5t32 49t14 58t4 58.5zM24 -32h58q-1 -8 -1 -23q0 -71 56 -71q39 0 59.5 33.5t20.5 74.5q0 30 -12.5 51.5t-31.5 32t-41.5 25t-41.5 30.5t-31.5 48t-12.5 77 q0 72 30.5 133t92.5 78q-65 46 -65 124q0 64 39.5 111.5t102.5 47.5q50 0 79 -33t29 -83q0 -4 -0.5 -11t-0.5 -10h-58q0 84 -57 84q-37 0 -57.5 -32.5t-20.5 -71.5q0 -32 19.5 -57.5t44 -40t51.5 -36t39 -44.5q15 -30 15 -84q0 -46 -9.5 -87.5t-37 -79t-68.5 -50.5 q59 -40 59 -118q0 -66 -38.5 -116t-102.5 -50q-52 0 -80 35.5t-28 88.5v24z"/>
<glyph glyph-name="dieresis" horiz-adv-x="493" unicode="¨" d="M267 562q0 -20 -14.5 -34.5t-34.5 -14.5q-16 0 -26.5 11.5t-10.5 27.5q0 19 14.5 33.5t33.5 14.5q17 0 27.5 -11t10.5 -27zM393 562q0 -20 -14.5 -34.5t-34.5 -14.5q-16 0 -26.5 11.5t-10.5 27.5q0 19 14.5 33.5t33.5 14.5q17 0 27.5 -11t10.5 -27z"/>
<glyph glyph-name="copyright" horiz-adv-x="756" unicode="©" d="M447 199v-52q-30 -19 -61 -19q-48 0 -81 41q-37 47 -37 160q0 210 122 210q21 0 54 -14l1 -1h2v-55q-37 22 -55 22q-71 0 -71 -156q0 -159 68 -159q20 0 58 23zM696 333q0 127 -88.5 218.5t-215.5 91.5q-128 0 -217 -91t-89 -219q0 -127 89.5 -218t215.5 -91 q127 0 216 91t89 218zM736 333q0 -143 -101 -244t-244 -101t-244 101t-101 244t101.5 244.5t244.5 101.5q142 0 243 -102t101 -244z"/>
<glyph glyph-name="ordfeminine" horiz-adv-x="236" unicode="ª" d="M192 586q0 50 -29 50q-19 0 -31 -22q-12 -23 -19.5 -73t-7.5 -86q0 -52 29 -52q15 0 25 12t13 22.5t7 28.5q13 63 13 120zM202 330l-4 -33h-155l4 33h155zM244 667l-36 -295h-42l2 18q-22 -22 -49 -22q-57 0 -57 80q0 46 8.5 102.5t26.5 84.5q23 36 62 36q25 0 41 -19 l2 15h42z"/>
<glyph glyph-name="guillemotleft" horiz-adv-x="320" unicode="«" d="M199 404l-114 -167l72 -171l-40 -23l-83 194l130 188zM309 404l-114 -167l73 -171l-41 -23l-83 194l130 188z"/>
<glyph glyph-name="logicalnot" d="M455 0h-55v217h-378v50h433v-267z" unicode="¬"/>
<glyph glyph-name="uni00AD" horiz-adv-x="238" unicode="­" d="M189 233h-138l7 58h138z"/>
<glyph glyph-name="registered" horiz-adv-x="756" unicode="®" d="M736 333q0 -143 -101 -244t-244 -101t-244 101t-101 244t101.5 244.5t244.5 101.5q142 0 243 -102t101 -244zM696 333q0 127 -88.5 218.5t-215.5 91.5q-128 0 -217 -91t-89 -219q0 -127 89.5 -218t215.5 -91q127 0 216 91t89 218zM359 363h21q30 0 39.5 15.5t9.5 48.5 q0 35 -10.5 50t-44.5 15h-15v-129zM495 131h-51l-85 176v-176h-49v405h53q63 0 90 -24.5t27 -87.5q0 -43 -18 -72t-58 -32z"/>
<glyph glyph-name="macron" horiz-adv-x="493" unicode="¯" d="M400 575l-7 -55h-221l6 55h222z"/>
<glyph glyph-name="degree" d="M388 538q0 41 -29.5 69.5t-70.5 28.5t-70.5 -28.5t-29.5 -69.5t29.5 -69.5t70.5 -28.5t70.5 28.5t29.5 69.5zM426 538q0 -56 -41 -95.5t-97 -39.5t-97 39.5t-41 95.5t41 95t97 39t97 -39t41 -95z" unicode="°"/>
<glyph glyph-name="plusminus" d="M467 71h-433v52h433v-52zM467 342h-189v-176h-55v176h-189v51h189v177h55v-177h189v-51z" unicode="±"/>
<glyph glyph-name="twosuperior" horiz-adv-x="248" unicode="²" d="M121 553h-44q16 120 101 120q36 0 56.5 -20.5t20.5 -56.5q0 -12 -2 -24.5t-4.5 -22t-9 -23.5t-9.5 -21t-12.5 -22.5t-12 -20t-13.5 -21.5t-13 -19l-74 -115h110l-5 -41h-176l108 172q2 3 10.5 16.5t11.5 18.5t11 18.5t11.5 20.5t9 19.5t8 21.5t4.5 19.5t2 20.5 q0 40 -35 40q-47 0 -54 -80z"/>
<glyph glyph-name="threesuperior" horiz-adv-x="248" unicode="³" d="M122 569h-41q5 45 27.5 74.5t65.5 29.5q35 0 55 -19t20 -54q0 -40 -11.5 -66.5t-42.5 -45.5q22 -14 29 -31.5t7 -47.5q0 -62 -24.5 -104.5t-81.5 -42.5q-36 0 -56 19.5t-20 55.5q0 16 4 44h43q-2 -22 -2 -33q0 -45 36 -45q32 0 46 35q12 31 12 66q0 40 -18 51.5t-60 11.5 l4 38h19q44 0 60 30q12 23 12 56q0 40 -35 40q-26 0 -35 -16t-13 -46z"/>
<glyph glyph-name="acute" horiz-adv-x="493" unicode="´" d="M407 610l-126 -103l-32 26l110 120z"/>
<glyph glyph-name="mu" horiz-adv-x="492" unicode="µ" d="M415 0h-56l9 79q-27 -49 -62 -70q-37 -22 -86 -22q-54 0 -89 30q-28 24 -42 67l-33 -264h-56l77 627h56l-26 -212q-6 -42 -6 -68q0 -59 35 -95q37 -37 92 -37q56 0 97 38q48 46 62 158l27 216h56z"/>
<glyph glyph-name="paragraph" horiz-adv-x="554" unicode="¶" d="M538 667l-5 -44h-56l-89 -723h-48l88 723h-111l-89 -723h-49l51 413q-3 0 -8.5 -0.5t-7.5 -0.5q-73 0 -118.5 40.5t-45.5 112.5q0 93 70 152q60 50 170 50h248z"/>
<glyph glyph-name="periodcentered" horiz-adv-x="201" unicode="·" d="M173 351q0 -26 -19.5 -46t-45.5 -20q-25 0 -38 16t-13 42q0 23 21 41t44 18q22 0 36.5 -14.5t14.5 -36.5z"/>
<glyph glyph-name="cedilla" horiz-adv-x="493" unicode="¸" d="M269 -62l-99 -134l-32 21l89 138z"/>
<glyph glyph-name="onesuperior" horiz-adv-x="250" unicode="¹" d="M207 667l-49 -400h-44l44 359h-54l5 41h98z"/>
<glyph glyph-name="ordmasculine" horiz-adv-x="236" unicode="º" d="M199 566q0 65 -31 65q-32 0 -46 -56t-14 -104q0 -64 33 -64q17 0 29.5 19t18 48t8 52t2.5 40zM213 330l-4 -33h-164l4 33h164zM243 576q0 -31 -4 -62t-14 -66.5t-33 -57.5t-55 -22q-71 0 -71 107q0 29 5 59.5t16 63t33.5 53t53.5 20.5q69 0 69 -95z"/>
<glyph glyph-name="guillemotright" horiz-adv-x="320" unicode="»" d="M178 237l-130 -194l-35 23l114 171l-73 167l41 21zM289 237l-131 -194l-35 23l115 171l-73 167l40 21z"/>
<glyph glyph-name="onequarter" horiz-adv-x="612" unicode="¼" d="M523 667l-371 -667h-46l371 667h46zM429 145h64q19 147 22 165q-11 -22 -86 -165zM207 667l-49 -400h-44l44 359h-54l5 41h98zM569 400l-32 -255h31l-5 -39h-30l-13 -106h-44l13 106h-109l5 40l141 254h43z"/>
<glyph glyph-name="onehalf" horiz-adv-x="612" unicode="½" d="M523 667l-371 -667h-46l371 667h46zM207 667l-49 -400h-44l44 359h-54l6 41h97zM452 287h-43q7 47 14 63q24 56 86 56q36 0 56.5 -20.5t20.5 -56.5q0 -28 -14 -63t-25.5 -54.5t-35.5 -55.5l-75 -115h110l-5 -41h-176l108 173q1 2 11.5 18.5l14 22t12 21t12 24.5t9 22 t7.5 24t2 22q0 40 -35 40q-47 0 -54 -80z"/>
<glyph glyph-name="threequarters" horiz-adv-x="611" unicode="¾" d="M523 667l-371 -667h-46l371 667h46zM427 145h65q11 107 22 165q-2 -5 -21 -40zM122 569h-41q5 45 27.5 74.5t65.5 29.5q35 0 55 -19t20 -54q0 -40 -11.5 -66.5t-42.5 -45.5q22 -14 29 -31.5t7 -47.5q0 -62 -24.5 -104.5t-81.5 -42.5q-36 0 -56 19.5t-20 55.5q0 16 4 44 h43q-2 -22 -2 -33q0 -45 36 -45q32 0 46 35q12 31 12 66q0 40 -18 51.5t-60 11.5l4 38h19q44 0 60 30q12 23 12 56q0 40 -35 40q-26 0 -35 -16t-13 -46zM567 400l-31 -255h30l-5 -39h-30l-13 -106h-44l13 106h-109l5 40l141 254h43z"/>
<glyph glyph-name="questiondown" horiz-adv-x="326" unicode="¿" d="M245 -51l-6 -47q-17 -131 -129 -131q-45 0 -69.5 25.5t-24.5 70.5q0 22 6 66q5 35 8.5 54t13 47.5t22.5 44t36.5 28t55.5 13.5l20 161h58l-26 -215h-42q-32 0 -47 -11t-25 -41q-19 -60 -19 -133q0 -56 42 -56q13 0 23 4t16.5 13t11 17.5t7.5 23t4.5 22.5t3 24t2.5 20h58z M265 415q0 -20 -15 -35.5t-35 -15.5q-17 0 -28.5 11.5t-11.5 28.5q0 20 15.5 35t35.5 15q16 0 27.5 -11t11.5 -28z"/>
<glyph glyph-name="Agrave" horiz-adv-x="320" unicode="À" d="M239 740l-39 -26l-100 103l58 43zM215 191l-14 235q-3 41 -3 80q0 38 3 77q-8 -47 -22 -103t-24 -91t-31 -104.5t-28 -93.5h119zM291 0h-65l-8 137h-139l-41 -137h-65l211 667h58z"/>
<glyph glyph-name="Aacute" horiz-adv-x="320" unicode="Á" d="M347 817l-126 -103l-32 26l110 120zM215 191l-14 235q-3 41 -3 80q0 38 3 77q-8 -47 -22 -103t-24 -91t-31 -104.5t-28 -93.5h119zM291 0h-65l-8 137h-139l-41 -137h-65l211 667h58z"/>
<glyph glyph-name="Acircumflex" horiz-adv-x="320" unicode="Â" d="M331 752l-44 -38l-64 69l-82 -69l-32 38l123 107zM215 191l-14 235q-3 41 -3 80q0 38 3 77q-8 -47 -22 -103t-24 -91t-31 -104.5t-28 -93.5h119zM291 0h-65l-8 137h-139l-41 -137h-65l211 667h58z"/>
<glyph glyph-name="Atilde" horiz-adv-x="320" unicode="Ã" d="M278 802h57q-7 -33 -27 -57.5t-50 -24.5q-20 0 -48 17t-37 17q-17 0 -19 -25h-55q8 33 27.5 55t50.5 22q17 0 45 -16t37 -16q16 0 19 28zM215 191l-14 235q-3 41 -3 80q0 38 3 77q-8 -47 -22 -103t-24 -91t-31 -104.5t-28 -93.5h119zM291 0h-65l-8 137h-139l-41 -137h-65 l211 667h58z"/>
<glyph glyph-name="Adieresis" horiz-adv-x="320" unicode="Ä" d="M197 769q0 -19 -14.5 -34t-34.5 -15q-16 0 -26.5 11.5t-10.5 27.5q0 19 14.5 33.5t33.5 14.5q17 0 27.5 -10.5t10.5 -27.5zM323 769q0 -19 -14.5 -34t-34.5 -15q-16 0 -26.5 11.5t-10.5 27.5q0 19 14.5 33.5t33.5 14.5q17 0 27.5 -10.5t10.5 -27.5zM215 191l-14 235 q-3 41 -3 80q0 38 3 77q-8 -47 -22 -103t-24 -91t-31 -104.5t-28 -93.5h119zM291 0h-65l-8 137h-139l-41 -137h-65l211 667h58z"/>
<glyph glyph-name="Aring" horiz-adv-x="320" unicode="Å" d="M254 794q0 17 -11.5 28.5t-27.5 11.5q-17 0 -28.5 -12t-11.5 -28t11.5 -28t28.5 -12t28 11.5t11 28.5zM294 794q0 -33 -23 -56.5t-56 -23.5t-56 23.5t-23 56.5t23 56.5t56 23.5t56 -23.5t23 -56.5zM215 191l-14 235q-3 41 -3 80q0 38 3 77q-8 -47 -22 -103t-24 -91 t-31 -104.5t-28 -93.5h119zM291 0h-65l-8 137h-139l-41 -137h-65l211 667h58z"/>
<glyph glyph-name="AE" horiz-adv-x="455" unicode="Æ" d="M225 190l-12 282q-1 14 -1 41q0 13 0.5 41t0.5 41q-16 -64 -33 -122l-85 -283h130zM436 0h-204l-5 137h-149l-40 -137h-65l211 667h219l3 -57h-141l13 -235h133l3 -57h-133l15 -261h138z"/>
<glyph glyph-name="Ccedilla" horiz-adv-x="315" unicode="Ç" d="M187 -62l-99 -134l-32 21l89 138zM350 655l-8 -68q-39 29 -73 29q-59 0 -96 -61q-34 -55 -50.5 -156t-16.5 -188q0 -160 88 -160q39 0 85 30l-7 -62q-44 -28 -89 -28q-54 0 -87.5 36t-44 80.5t-10.5 97.5q0 103 26 221.5t76 182.5q54 67 130 67q48 0 77 -21z"/>
<glyph glyph-name="Egrave" horiz-adv-x="297" unicode="È" d="M259 740l-39 -26l-100 103l58 43zM313 667l-7 -57h-144l-29 -235h140l-6 -57h-141l-32 -261h144l-7 -57h-205l82 667h205z"/>
<glyph glyph-name="Eacute" horiz-adv-x="297" unicode="É" d="M327 817l-126 -103l-32 26l110 120zM313 667l-7 -57h-144l-29 -235h140l-6 -57h-141l-32 -261h144l-7 -57h-205l82 667h205z"/>
<glyph glyph-name="Ecircumflex" horiz-adv-x="297" unicode="Ê" d="M336 752l-44 -38l-64 69l-82 -69l-32 38l123 107zM313 667l-7 -57h-144l-29 -235h140l-6 -57h-141l-32 -261h144l-7 -57h-205l82 667h205z"/>
<glyph glyph-name="Edieresis" horiz-adv-x="297" unicode="Ë" d="M207 769q0 -19 -14.5 -34t-34.5 -15q-16 0 -26.5 11.5t-10.5 27.5q0 19 14.5 33.5t33.5 14.5q17 0 27.5 -10.5t10.5 -27.5zM333 769q0 -19 -14.5 -34t-34.5 -15q-16 0 -26.5 11.5t-10.5 27.5q0 19 14.5 33.5t33.5 14.5q17 0 27.5 -10.5t10.5 -27.5zM313 667l-7 -57h-144 l-29 -235h140l-6 -57h-141l-32 -261h144l-7 -57h-205l82 667h205z"/>
<glyph glyph-name="Igrave" horiz-adv-x="169" unicode="Ì" d="M189 740l-39 -26l-100 103l58 43zM169 667l-82 -667h-61l82 667h61z"/>
<glyph glyph-name="Iacute" horiz-adv-x="169" unicode="Í" d="M257 817l-126 -103l-32 26l110 120zM169 667l-82 -667h-61l82 667h61z"/>
<glyph glyph-name="Icircumflex" horiz-adv-x="169" unicode="Î" d="M256 752l-44 -38l-64 69l-82 -69l-32 38l123 107zM169 667l-82 -667h-61l82 667h61z"/>
<glyph glyph-name="Idieresis" horiz-adv-x="169" unicode="Ï" d="M127 769q0 -19 -14.5 -34t-34.5 -15q-16 0 -26.5 11.5t-10.5 27.5q0 19 14.5 33.5t33.5 14.5q17 0 27.5 -10.5t10.5 -27.5zM253 769q0 -19 -14.5 -34t-34.5 -15q-16 0 -26.5 11.5t-10.5 27.5q0 19 14.5 33.5t33.5 14.5q17 0 27.5 -10.5t10.5 -27.5zM169 667l-82 -667h-61 l82 667h61z"/>
<glyph glyph-name="Eth" horiz-adv-x="365" unicode="Ð" d="M94 57h29q44 0 71 21t46 63q22 48 34.5 159t12.5 187q0 59 -21 91t-77 32h-27l-29 -239h88l-6 -50h-88zM108 667h77q75 0 112 -26q54 -40 54 -142q0 -136 -28 -278q-11 -54 -24.5 -90.5t-37.5 -68t-62 -47t-92 -15.5h-81l40 321h-47l6 50h47z"/>
<glyph glyph-name="Ntilde" horiz-adv-x="381" unicode="Ñ" d="M312 802h57q-7 -33 -27 -57.5t-50 -24.5q-20 0 -48 17t-37 17q-17 0 -19 -25h-55q8 33 27.5 55t50.5 22q17 0 45 -16t37 -16q16 0 19 28zM381 667l-82 -667h-53l-92 440q-3 15 -7.5 46.5t-7.5 47.5q-4 -80 -9 -118l-51 -416h-53l82 667h53l94 -453q2 -11 6 -38t7 -41 q0 49 6 97l54 435h53z"/>
<glyph glyph-name="Ograve" horiz-adv-x="398" unicode="Ò" d="M282 740l-39 -26l-100 103l58 43zM321 482q0 134 -73 134q-46 0 -76 -52q-34 -57 -51 -169t-17 -204q0 -140 73 -140q50 0 81 58q29 54 46 171t17 202zM382 477q0 -192 -47 -330q-51 -156 -165 -156q-128 0 -128 215q0 47 4.5 99.5t18.5 121t36 122t62 90.5t91 37 q128 0 128 -199z"/>
<glyph glyph-name="Oacute" horiz-adv-x="398" unicode="Ó" d="M380 817l-126 -103l-32 26l110 120zM321 482q0 134 -73 134q-46 0 -76 -52q-34 -57 -51 -169t-17 -204q0 -140 73 -140q50 0 81 58q29 54 46 171t17 202zM382 477q0 -192 -47 -330q-51 -156 -165 -156q-128 0 -128 215q0 47 4.5 99.5t18.5 121t36 122t62 90.5t91 37 q128 0 128 -199z"/>
<glyph glyph-name="Ocircumflex" horiz-adv-x="398" unicode="Ô" d="M369 752l-44 -38l-64 69l-82 -69l-32 38l123 107zM321 482q0 134 -73 134q-46 0 -76 -52q-34 -57 -51 -169t-17 -204q0 -140 73 -140q50 0 81 58q29 54 46 171t17 202zM382 477q0 -192 -47 -330q-51 -156 -165 -156q-128 0 -128 215q0 47 4.5 99.5t18.5 121t36 122 t62 90.5t91 37q128 0 128 -199z"/>
<glyph glyph-name="Otilde" horiz-adv-x="398" unicode="Õ" d="M321 802h57q-7 -33 -27 -57.5t-50 -24.5q-20 0 -48 17t-37 17q-17 0 -19 -25h-55q8 33 27.5 55t50.5 22q17 0 45 -16t37 -16q16 0 19 28zM321 482q0 134 -73 134q-46 0 -76 -52q-34 -57 -51 -169t-17 -204q0 -140 73 -140q50 0 81 58q29 54 46 171t17 202zM382 477 q0 -192 -47 -330q-51 -156 -165 -156q-128 0 -128 215q0 47 4.5 99.5t18.5 121t36 122t62 90.5t91 37q128 0 128 -199z"/>
<glyph glyph-name="Odieresis" horiz-adv-x="398" unicode="Ö" d="M245 769q0 -19 -14.5 -34t-34.5 -15q-16 0 -26.5 11.5t-10.5 27.5q0 19 14.5 33.5t33.5 14.5q17 0 27.5 -10.5t10.5 -27.5zM371 769q0 -19 -14.5 -34t-34.5 -15q-16 0 -26.5 11.5t-10.5 27.5q0 19 14.5 33.5t33.5 14.5q17 0 27.5 -10.5t10.5 -27.5zM321 482 q0 134 -73 134q-46 0 -76 -52q-34 -57 -51 -169t-17 -204q0 -140 73 -140q50 0 81 58q29 54 46 171t17 202zM382 477q0 -192 -47 -330q-51 -156 -165 -156q-128 0 -128 215q0 47 4.5 99.5t18.5 121t36 122t62 90.5t91 37q128 0 128 -199z"/>
<glyph glyph-name="multiply" d="M422 466l-135 -135l135 -134l-37 -38l-135 135l-135 -135l-37 38l135 134l-135 135l37 38l135 -135l135 135z" unicode="×"/>
<glyph glyph-name="Oslash" horiz-adv-x="421" unicode="Ø" d="M333 486l-209 -372q14 -63 66 -63q75 0 108 141q33 140 35 294zM115 180l211 373q-16 63 -67 63q-72 0 -108 -135q-36 -136 -36 -301zM436 656l-51 -89q9 -37 9 -100q0 -173 -47 -320q-50 -156 -165 -156q-68 0 -99 60l-36 -59l-36 19l53 89q-10 38 -10 105q0 47 4.5 100 t18.5 121.5t36 122t61.5 90.5t90.5 37q69 0 101 -60l35 59z"/>
<glyph glyph-name="Ugrave" horiz-adv-x="384" unicode="Ù" d="M299 740l-39 -26l-100 103l58 43zM384 667l-57 -467q-11 -84 -23 -116q-17 -45 -55 -69t-87 -24q-59 0 -89 32.5t-30 92.5q0 19 7 84l58 467h61l-57 -462q-7 -61 -7 -78q0 -76 65 -76q14 0 25 2.5t20 10t15.5 13t11.5 19t8 19.5t6 23.5t4 21.5t3.5 23.5t2.5 21.5l57 462 h61z"/>
<glyph glyph-name="Uacute" horiz-adv-x="384" unicode="Ú" d="M367 817l-126 -103l-32 26l110 120zM384 667l-57 -467q-11 -84 -23 -116q-17 -45 -55 -69t-87 -24q-59 0 -89 32.5t-30 92.5q0 19 7 84l58 467h61l-57 -462q-7 -61 -7 -78q0 -76 65 -76q14 0 25 2.5t20 10t15.5 13t11.5 19t8 19.5t6 23.5t4 21.5t3.5 23.5t2.5 21.5 l57 462h61z"/>
<glyph glyph-name="Ucircumflex" horiz-adv-x="384" unicode="Û" d="M366 752l-44 -38l-64 69l-82 -69l-32 38l123 107zM384 667l-57 -467q-11 -84 -23 -116q-17 -45 -55 -69t-87 -24q-59 0 -89 32.5t-30 92.5q0 19 7 84l58 467h61l-57 -462q-7 -61 -7 -78q0 -76 65 -76q14 0 25 2.5t20 10t15.5 13t11.5 19t8 19.5t6 23.5t4 21.5t3.5 23.5 t2.5 21.5l57 462h61z"/>
<glyph glyph-name="Udieresis" horiz-adv-x="384" unicode="Ü" d="M237 769q0 -19 -14.5 -34t-34.5 -15q-16 0 -26.5 11.5t-10.5 27.5q0 19 14.5 33.5t33.5 14.5q17 0 27.5 -10.5t10.5 -27.5zM363 769q0 -19 -14.5 -34t-34.5 -15q-16 0 -26.5 11.5t-10.5 27.5q0 19 14.5 33.5t33.5 14.5q17 0 27.5 -10.5t10.5 -27.5zM384 667l-57 -467 q-11 -84 -23 -116q-17 -45 -55 -69t-87 -24q-59 0 -89 32.5t-30 92.5q0 19 7 84l58 467h61l-57 -462q-7 -61 -7 -78q0 -76 65 -76q14 0 25 2.5t20 10t15.5 13t11.5 19t8 19.5t6 23.5t4 21.5t3.5 23.5t2.5 21.5l57 462h61z"/>
<glyph glyph-name="Yacute" horiz-adv-x="315" unicode="Ý" d="M327 817l-126 -103l-32 26l110 120zM367 667l-168 -378l-35 -289h-61l35 289l-83 378h66l38 -191q14 -73 17 -123q18 58 44 122l81 192h66z"/>
<glyph glyph-name="Thorn" horiz-adv-x="324" unicode="Þ" d="M119 260h41q56 0 77 41q21 39 21 112q0 42 -19.5 61t-60.5 19h-30zM169 667l-14 -117q72 0 103 -12q32 -13 47 -47t15 -73q0 -50 -14 -101.5t-44 -78.5q-39 -35 -135 -35h-15l-25 -203h-61l82 667h61z"/>
<glyph glyph-name="germandbls" horiz-adv-x="335" unicode="ß" d="M84 447l15 113q5 39 12 66t21 55.5t40.5 43.5t63.5 15q103 0 103 -132q0 -151 -85 -190q32 -15 41.5 -42.5t9.5 -71.5q0 -34 -2.5 -66.5t-11.5 -78t-25 -78.5t-46.5 -57t-71.5 -24h-20l7 56h16q33 0 49 20.5t25 56.5q24 90 24 172q0 84 -56 84h-17l7 58h17q78 0 78 150 q0 44 -10.5 67.5t-40.5 23.5q-17 0 -30 -9t-19.5 -19t-12 -30.5t-7 -31l-4.5 -31.5l-69 -567h-55l47 389h-50l7 58h50z"/>
<glyph glyph-name="agrave" horiz-adv-x="322" unicode="à" d="M224 533l-39 -26l-100 103l58 43zM231 327q0 82 -48 82q-32 0 -53 -37q-20 -36 -31 -113.5t-11 -134.5q0 -85 48 -85q19 0 32.5 9.5t21.5 27.5t11.5 32t7.5 34q22 112 22 185zM300 447l-55 -447h-55l4 36q-38 -43 -81 -43q-82 0 -82 120q0 70 13 157.5t39 130.5 q33 53 93 53q41 0 65 -37l4 30h55z"/>
<glyph glyph-name="aacute" horiz-adv-x="322" unicode="á" d="M312 610l-126 -103l-32 26l110 120zM231 327q0 82 -48 82q-32 0 -53 -37q-20 -36 -31 -113.5t-11 -134.5q0 -85 48 -85q19 0 32.5 9.5t21.5 27.5t11.5 32t7.5 34q22 112 22 185zM300 447l-55 -447h-55l4 36q-38 -43 -81 -43q-82 0 -82 120q0 70 13 157.5t39 130.5 q33 53 93 53q41 0 65 -37l4 30h55z"/>
<glyph glyph-name="acircumflex" horiz-adv-x="322" unicode="â" d="M306 545l-44 -38l-64 69l-82 -69l-32 38l123 107zM231 327q0 82 -48 82q-32 0 -53 -37q-20 -36 -31 -113.5t-11 -134.5q0 -85 48 -85q19 0 32.5 9.5t21.5 27.5t11.5 32t7.5 34q22 112 22 185zM300 447l-55 -447h-55l4 36q-38 -43 -81 -43q-82 0 -82 120q0 70 13 157.5 t39 130.5q33 53 93 53q41 0 65 -37l4 30h55z"/>
<glyph glyph-name="atilde" horiz-adv-x="322" unicode="ã" d="M258 595h57q-7 -33 -27 -57.5t-50 -24.5q-20 0 -48 17t-37 17q-17 0 -19 -25h-55q8 33 27.5 55t50.5 22q17 0 45 -16t37 -16q16 0 19 28zM231 327q0 82 -48 82q-32 0 -53 -37q-20 -36 -31 -113.5t-11 -134.5q0 -85 48 -85q19 0 32.5 9.5t21.5 27.5t11.5 32t7.5 34 q22 112 22 185zM300 447l-55 -447h-55l4 36q-38 -43 -81 -43q-82 0 -82 120q0 70 13 157.5t39 130.5q33 53 93 53q41 0 65 -37l4 30h55z"/>
<glyph glyph-name="adieresis" horiz-adv-x="322" unicode="ä" d="M177 562q0 -20 -14.5 -34.5t-34.5 -14.5q-16 0 -26.5 11.5t-10.5 27.5q0 19 14.5 33.5t33.5 14.5q17 0 27.5 -11t10.5 -27zM303 562q0 -20 -14.5 -34.5t-34.5 -14.5q-16 0 -26.5 11.5t-10.5 27.5q0 19 14.5 33.5t33.5 14.5q17 0 27.5 -11t10.5 -27zM231 327q0 82 -48 82 q-32 0 -53 -37q-20 -36 -31 -113.5t-11 -134.5q0 -85 48 -85q19 0 32.5 9.5t21.5 27.5t11.5 32t7.5 34q22 112 22 185zM300 447l-55 -447h-55l4 36q-38 -43 -81 -43q-82 0 -82 120q0 70 13 157.5t39 130.5q33 53 93 53q41 0 65 -37l4 30h55z"/>
<glyph glyph-name="aring" horiz-adv-x="322" unicode="å" d="M239 587q0 17 -11.5 28.5t-27.5 11.5t-28 -11.5t-12 -28.5t12 -28.5t28 -11.5q17 0 28 11.5t11 28.5zM279 587q0 -33 -23 -56.5t-56 -23.5t-56 23.5t-23 56.5t23 56.5t56 23.5t56 -23.5t23 -56.5zM231 327q0 82 -48 82q-32 0 -53 -37q-20 -36 -31 -113.5t-11 -134.5 q0 -85 48 -85q19 0 32.5 9.5t21.5 27.5t11.5 32t7.5 34q22 112 22 185zM300 447l-55 -447h-55l4 36q-38 -43 -81 -43q-82 0 -82 120q0 70 13 157.5t39 130.5q33 53 93 53q41 0 65 -37l4 30h55z"/>
<glyph glyph-name="ae" d="M214 167q0 85 -57 85q-43 0 -62.5 -40.5t-19.5 -89.5q0 -76 56 -76q41 0 62 38t21 83zM280 261h136q0 4 1 12t1.5 14t0.5 12q0 23 -3.5 43.5t-17 40t-35.5 19.5q-36 0 -57.5 -47.5t-25.5 -93.5zM76 366l7 62q42 26 83 26q80 0 105 -75q15 31 42.5 53t59.5 22 q38 0 61.5 -28t30.5 -61t7 -71q0 -26 -6 -80h-194q-4 -36 -4 -53q0 -116 60 -116q55 0 72 110h52q-10 -64 -44.5 -113t-91.5 -49q-59 0 -84 74q-18 -33 -48.5 -53.5t-66.5 -20.5q-51 0 -73.5 35t-22.5 89q0 43 12.5 82.5t43.5 69t75 29.5q49 0 74 -37q4 32 4 49 q0 39 -17.5 65.5t-55.5 26.5q-33 0 -81 -36z" unicode="æ"/>
<glyph glyph-name="ccedilla" horiz-adv-x="242" unicode="ç" d="M146 -62l-99 -134l-32 21l89 138zM249 437l-8 -66q-25 31 -51 31q-27 0 -49 -28.5t-32 -58.5t-14 -59q-8 -50 -8 -94q0 -18 2 -35t7.5 -37t18 -32t30.5 -12q28 0 60 40l-8 -70q-31 -23 -66 -23q-38 0 -62.5 28t-32.5 61.5t-8 71.5q0 66 13 122q16 69 53.5 123.5 t95.5 54.5q31 0 59 -17z"/>
<glyph glyph-name="egrave" horiz-adv-x="308" unicode="è" d="M229 533l-39 -26l-100 103l58 43zM94 260h131q2 32 2 51q0 91 -47 91q-63 0 -86 -142zM207 152h56q-10 -66 -41 -112.5t-90 -46.5q-104 0 -104 160q0 66 13 124q8 41 24 78t48 68t72 31q96 0 96 -155q0 -41 -8 -87h-185q-5 -33 -5 -59q0 -107 54 -107q18 0 31 10 t20.5 29.5t11 33t7.5 33.5z"/>
<glyph glyph-name="eacute" horiz-adv-x="308" unicode="é" d="M317 610l-126 -103l-32 26l110 120zM94 260h131q2 32 2 51q0 91 -47 91q-63 0 -86 -142zM207 152h56q-10 -66 -41 -112.5t-90 -46.5q-104 0 -104 160q0 66 13 124q8 41 24 78t48 68t72 31q96 0 96 -155q0 -41 -8 -87h-185q-5 -33 -5 -59q0 -107 54 -107q18 0 31 10 t20.5 29.5t11 33t7.5 33.5z"/>
<glyph glyph-name="ecircumflex" horiz-adv-x="308" unicode="ê" d="M306 545l-44 -38l-64 69l-82 -69l-32 38l123 107zM94 260h131q2 32 2 51q0 91 -47 91q-63 0 -86 -142zM207 152h56q-10 -66 -41 -112.5t-90 -46.5q-104 0 -104 160q0 66 13 124q8 41 24 78t48 68t72 31q96 0 96 -155q0 -41 -8 -87h-185q-5 -33 -5 -59q0 -107 54 -107 q18 0 31 10t20.5 29.5t11 33t7.5 33.5z"/>
<glyph glyph-name="edieresis" horiz-adv-x="308" unicode="ë" d="M177 562q0 -20 -14.5 -34.5t-34.5 -14.5q-16 0 -26.5 11.5t-10.5 27.5q0 19 14.5 33.5t33.5 14.5q17 0 27.5 -11t10.5 -27zM303 562q0 -20 -14.5 -34.5t-34.5 -14.5q-16 0 -26.5 11.5t-10.5 27.5q0 19 14.5 33.5t33.5 14.5q17 0 27.5 -11t10.5 -27zM94 260h131q2 32 2 51 q0 91 -47 91q-63 0 -86 -142zM207 152h56q-10 -66 -41 -112.5t-90 -46.5q-104 0 -104 160q0 66 13 124q8 41 24 78t48 68t72 31q96 0 96 -155q0 -41 -8 -87h-185q-5 -33 -5 -59q0 -107 54 -107q18 0 31 10t20.5 29.5t11 33t7.5 33.5z"/>
<glyph glyph-name="igrave" horiz-adv-x="155" unicode="ì" d="M150 533l-39 -26l-100 103l58 43zM131 447l-54 -447h-56l55 447h55z"/>
<glyph glyph-name="iacute" horiz-adv-x="155" unicode="í" d="M238 610l-126 -103l-32 26l110 120zM131 447l-54 -447h-56l55 447h55z"/>
<glyph glyph-name="icircumflex" horiz-adv-x="155" unicode="î" d="M227 545l-44 -38l-64 69l-82 -69l-32 38l123 107zM131 447l-54 -447h-56l55 447h55z"/>
<glyph glyph-name="idieresis" horiz-adv-x="155" unicode="ï" d="M98 562q0 -20 -15 -34.5t-34 -14.5q-16 0 -26.5 11.5t-10.5 27.5q0 19 14.5 33.5t33.5 14.5q16 0 27 -11t11 -27zM224 562q0 -20 -15 -34.5t-34 -14.5q-16 0 -26.5 11.5t-10.5 27.5q0 19 14.5 33.5t33.5 14.5q16 0 27 -11t11 -27zM131 447l-54 -447h-56l55 447h55z"/>
<glyph glyph-name="eth" horiz-adv-x="318" unicode="ð" d="M232 303q0 99 -51 99q-28 0 -48.5 -31t-30 -76.5t-13.5 -83t-4 -64.5q0 -102 54 -102q28 0 47.5 31.5t28.5 78t13 83.5t4 65zM313 690l-56 -37q27 -36 36 -77t9 -98q0 -121 -17 -254q-15 -121 -54 -176q-41 -55 -97 -55q-105 0 -105 162q0 32 4 68t15.5 78.5t28.5 75.5 t46 55t65 22q39 0 55 -30q3 60 3 78q0 77 -30 127l-67 -42l-21 38l56 35q-27 21 -80 48l25 32q57 -22 97 -52l64 38z"/>
<glyph glyph-name="ntilde" horiz-adv-x="325" unicode="ñ" d="M270 595h57q-7 -33 -27 -57.5t-50 -24.5q-20 0 -48 17t-37 17q-17 0 -19 -25h-55q8 33 27.5 55t50.5 22q17 0 45 -16t37 -16q16 0 19 28zM131 447l-4 -36q43 43 90 43q37 0 56 -22.5t19 -59.5q0 -22 -3 -41l-40 -331h-56l39 321q4 26 4 39q0 21 -11 34.5t-31 13.5 q-69 0 -80 -107l-37 -301h-56l55 447h55z"/>
<glyph glyph-name="ograve" horiz-adv-x="318" unicode="ò" d="M234 533l-39 -26l-100 103l58 43zM232 298q0 104 -50 104q-29 0 -49.5 -30.5t-30 -76.5t-13.5 -83t-4 -65q0 -101 53 -101q28 0 48 30t29 75.5t13 82t4 64.5zM290 328v-17q0 -47 -6 -93.5t-21 -101.5t-48.5 -89t-81.5 -34q-105 0 -105 162q0 43 7 89.5t23.5 96t50.5 81.5 t80 32q51 0 76 -36.5t25 -89.5z"/>
<glyph glyph-name="oacute" horiz-adv-x="318" unicode="ó" d="M322 610l-126 -103l-32 26l110 120zM232 298q0 104 -50 104q-29 0 -49.5 -30.5t-30 -76.5t-13.5 -83t-4 -65q0 -101 53 -101q28 0 48 30t29 75.5t13 82t4 64.5zM290 328v-17q0 -47 -6 -93.5t-21 -101.5t-48.5 -89t-81.5 -34q-105 0 -105 162q0 43 7 89.5t23.5 96 t50.5 81.5t80 32q51 0 76 -36.5t25 -89.5z"/>
<glyph glyph-name="ocircumflex" horiz-adv-x="318" unicode="ô" d="M311 545l-44 -38l-64 69l-82 -69l-32 38l123 107zM232 298q0 104 -50 104q-29 0 -49.5 -30.5t-30 -76.5t-13.5 -83t-4 -65q0 -101 53 -101q28 0 48 30t29 75.5t13 82t4 64.5zM290 328v-17q0 -47 -6 -93.5t-21 -101.5t-48.5 -89t-81.5 -34q-105 0 -105 162q0 43 7 89.5 t23.5 96t50.5 81.5t80 32q51 0 76 -36.5t25 -89.5z"/>
<glyph glyph-name="otilde" horiz-adv-x="318" unicode="õ" d="M263 595h57q-7 -33 -27 -57.5t-50 -24.5q-20 0 -48 17t-37 17q-17 0 -19 -25h-55q8 33 27.5 55t50.5 22q17 0 45 -16t37 -16q16 0 19 28zM232 298q0 104 -50 104q-29 0 -49.5 -30.5t-30 -76.5t-13.5 -83t-4 -65q0 -101 53 -101q28 0 48 30t29 75.5t13 82t4 64.5zM290 328 v-17q0 -47 -6 -93.5t-21 -101.5t-48.5 -89t-81.5 -34q-105 0 -105 162q0 43 7 89.5t23.5 96t50.5 81.5t80 32q51 0 76 -36.5t25 -89.5z"/>
<glyph glyph-name="odieresis" horiz-adv-x="318" unicode="ö" d="M182 562q0 -20 -15 -34.5t-34 -14.5q-16 0 -26.5 11.5t-10.5 27.5q0 19 14.5 33.5t33.5 14.5q16 0 27 -11t11 -27zM308 562q0 -20 -15 -34.5t-34 -14.5q-16 0 -26.5 11.5t-10.5 27.5q0 19 14.5 33.5t33.5 14.5q16 0 27 -11t11 -27zM232 298q0 104 -50 104 q-29 0 -49.5 -30.5t-30 -76.5t-13.5 -83t-4 -65q0 -101 53 -101q28 0 48 30t29 75.5t13 82t4 64.5zM290 328v-17q0 -47 -6 -93.5t-21 -101.5t-48.5 -89t-81.5 -34q-105 0 -105 162q0 43 7 89.5t23.5 96t50.5 81.5t80 32q51 0 76 -36.5t25 -89.5z"/>
<glyph glyph-name="divide" d="M304 145q0 -17 -12 -29t-29 -12t-29.5 12t-12.5 29t12.5 29.5t29.5 12.5t29 -12.5t12 -29.5zM479 305h-433v52h433v-52zM304 517q0 -17 -12 -29.5t-29 -12.5t-29.5 12.5t-12.5 29.5t12.5 29t29.5 12t29 -12t12 -29z" unicode="÷"/>
<glyph glyph-name="oslash" horiz-adv-x="346" unicode="ø" d="M246 304l-140 -214q11 -44 46 -44q29 0 49 30.5t29 78.5t12 83t4 66zM99 141l141 218q-9 43 -44 43q-29 0 -49.5 -31t-30 -79t-13 -84t-4.5 -67zM339 435l-42 -60q8 -37 8 -68q0 -46 -6 -92.5t-21.5 -100.5t-49 -87.5t-81.5 -33.5q-54 0 -83 44l-28 -40l-29 18l43 62 q-7 36 -7 77q0 43 7 89.5t23.5 96.5t50.5 82t80 32q50 0 78 -42l29 42z"/>
<glyph glyph-name="ugrave" horiz-adv-x="327" unicode="ù" d="M238 533l-39 -26l-100 103l58 43zM305 447l-41 -338q-7 -54 -41.5 -85t-88.5 -31q-46 0 -73 25.5t-27 71.5q0 13 1 19l41 338h56l-36 -291q-4 -34 -4 -51q0 -59 50 -59q21 0 35 9t20.5 26t9.5 31t6 35q1 6 1 9l36 291h55z"/>
<glyph glyph-name="uacute" horiz-adv-x="327" unicode="ú" d="M317 610l-126 -103l-32 26l110 120zM305 447l-41 -338q-7 -54 -41.5 -85t-88.5 -31q-46 0 -73 25.5t-27 71.5q0 13 1 19l41 338h56l-36 -291q-4 -34 -4 -51q0 -59 50 -59q21 0 35 9t20.5 26t9.5 31t6 35q1 6 1 9l36 291h55z"/>
<glyph glyph-name="ucircumflex" horiz-adv-x="327" unicode="û" d="M315 545l-44 -38l-64 69l-82 -69l-32 38l123 107zM305 447l-41 -338q-7 -54 -41.5 -85t-88.5 -31q-46 0 -73 25.5t-27 71.5q0 13 1 19l41 338h56l-36 -291q-4 -34 -4 -51q0 -59 50 -59q21 0 35 9t20.5 26t9.5 31t6 35q1 6 1 9l36 291h55z"/>
<glyph glyph-name="udieresis" horiz-adv-x="327" unicode="ü" d="M181 562q0 -20 -14.5 -34.5t-34.5 -14.5q-16 0 -26.5 11.5t-10.5 27.5q0 19 14.5 33.5t33.5 14.5q17 0 27.5 -11t10.5 -27zM307 562q0 -20 -14.5 -34.5t-34.5 -14.5q-16 0 -26.5 11.5t-10.5 27.5q0 19 14.5 33.5t33.5 14.5q17 0 27.5 -11t10.5 -27zM305 447l-41 -338 q-7 -54 -41.5 -85t-88.5 -31q-46 0 -73 25.5t-27 71.5q0 13 1 19l41 338h56l-36 -291q-4 -34 -4 -51q0 -59 50 -59q21 0 35 9t20.5 26t9.5 31t6 35q1 6 1 9l36 291h55z"/>
<glyph glyph-name="yacute" horiz-adv-x="291" unicode="ý" d="M291 610l-126 -103l-32 26l110 120zM312 447l-232 -627h-59l71 192l-52 435h57l25 -248q6 -55 6 -112q6 20 35 103l91 257h58z"/>
<glyph glyph-name="thorn" horiz-adv-x="318" unicode="þ" d="M235 323q0 85 -51 85q-44 0 -65 -74q-27 -96 -27 -221q0 -74 50 -74q20 0 34.5 14.5t20 28t12.5 37.5q26 96 26 204zM167 729l-38 -313q35 38 74 38q89 0 89 -119q0 -65 -12 -147t-33 -128q-33 -67 -96 -67q-42 0 -69 43l-27 -216h-55l111 909h56z"/>
<glyph glyph-name="OE" horiz-adv-x="532" unicode="Œ" d="M312 484q0 132 -68 132q-22 0 -39.5 -12.5t-30 -36t-18.5 -40t-13 -42.5q-42 -153 -42 -292q0 -142 73 -142q43 0 74 51q32 54 48 171t16 211zM549 667l-7 -57h-144l-29 -235h140l-7 -57h-140l-32 -261h144l-7 -57h-203l9 69q-44 -79 -113 -79q-118 0 -118 207 q0 47 4 100t17.5 123.5t35 124.5t60.5 92.5t90 38.5q62 0 90 -69l7 60h203z"/>
<glyph glyph-name="oe" horiz-adv-x="495" unicode="œ" d="M225 298q0 104 -50 104q-25 0 -45 -31.5t-28.5 -62.5t-12.5 -59q-7 -43 -7 -91q0 -112 50 -112q20 0 36 18.5t26.5 47t16 52t8.5 44.5q6 45 6 90zM278 261h135q4 26 4 40q0 22 -3 42t-16 39.5t-35 19.5q-26 0 -46 -27.5t-28 -56.5t-11 -57zM392 154h52q-7 -64 -39 -112.5 t-89 -48.5q-38 0 -60 27.5t-27 67.5q-34 -95 -104 -95q-96 0 -96 161q0 63 12 123q6 29 16.5 57t27 56.5t41.5 46t55 17.5q37 0 57.5 -27t24.5 -67q14 39 43.5 66.5t67.5 27.5q27 0 46.5 -14.5t29 -38.5t14 -48t4.5 -49q0 -30 -8 -90h-189q-3 -28 -3 -56q0 -112 59 -112 q53 0 65 108z"/>
<glyph glyph-name="Scaron" horiz-adv-x="342" unicode="Š" d="M360 821l-126 -107l-96 107l41 38l64 -69l82 69zM336 640l-10 -78q-40 54 -91 54q-48 0 -78.5 -38t-30.5 -87q0 -37 19.5 -66t47 -49.5t54.5 -41.5t46.5 -54t19.5 -75q0 -83 -54.5 -149t-135.5 -66q-56 0 -99 35l10 80q45 -54 99 -54q52 0 84.5 42.5t32.5 95.5 q0 34 -19.5 61.5t-47 48.5t-55 43t-47 55t-19.5 74q0 79 49 142t126 63q54 0 99 -36z"/>
<glyph glyph-name="scaron" horiz-adv-x="243" unicode="š" d="M295 614l-126 -107l-96 107l41 38l64 -69l82 69zM238 425l-7 -69q-33 46 -70 46q-27 0 -45 -20t-18 -48q0 -25 18.5 -49t40 -40.5t40 -45t18.5 -61.5q0 -58 -39 -101.5t-95 -43.5q-44 0 -78 31l7 66q35 -44 73 -44q31 0 52 24t21 55q0 21 -12 41t-29 37t-34 34.5 t-29 40.5t-12 48q0 53 35.5 90.5t87.5 37.5q41 0 75 -29z"/>
<glyph glyph-name="Ydieresis" horiz-adv-x="315" unicode="Ÿ" d="M197 769q0 -19 -14.5 -34t-34.5 -15q-16 0 -26.5 11.5t-10.5 27.5q0 19 14.5 33.5t33.5 14.5q17 0 27.5 -10.5t10.5 -27.5zM323 769q0 -19 -14.5 -34t-34.5 -15q-16 0 -26.5 11.5t-10.5 27.5q0 19 14.5 33.5t33.5 14.5q17 0 27.5 -10.5t10.5 -27.5zM367 667l-168 -378 l-35 -289h-61l35 289l-83 378h66l38 -191q14 -73 17 -123q18 58 44 122l81 192h66z"/>
<glyph glyph-name="circumflex" horiz-adv-x="493" unicode="ˆ" d="M396 545l-44 -38l-64 69l-82 -69l-32 38l123 107z"/>
<glyph glyph-name="tilde" horiz-adv-x="493" unicode="˜" d="M348 595h57q-7 -33 -27 -57.5t-50 -24.5q-20 0 -48 17t-37 17q-17 0 -19 -25h-55q8 33 27.5 55t50.5 22q17 0 45 -16t37 -16q16 0 19 28z"/>
<glyph glyph-name="uni0394" horiz-adv-x="667" unicode="Δ" d="M528 51l-223 549l-223 -549h446zM608 0h-605l272 667h59z"/>
<glyph glyph-name="uni03BC" horiz-adv-x="492" unicode="μ" d="M415 0h-56l9 79q-27 -49 -62 -70q-37 -22 -86 -22q-54 0 -89 30q-28 24 -42 67l-33 -264h-56l77 627h56l-26 -212q-6 -42 -6 -68q0 -59 35 -95q37 -37 92 -37q56 0 97 38q48 46 62 158l27 216h56z"/>
<glyph glyph-name="pi" horiz-adv-x="556" unicode="π" d="M531 396h-72v-396h-57v396h-246v-396h-57v396h-74v51h506v-51z"/>
<glyph glyph-name="afii10023" horiz-adv-x="297" unicode="Ё" d="M325 759q0 -19 -14.5 -34t-34.5 -15q-16 0 -26.5 11.5t-10.5 27.5q0 19 14.5 33.5t33.5 14.5q17 0 27.5 -10.5t10.5 -27.5zM203 759q0 -19 -14.5 -34t-34.5 -15q-16 0 -26.5 11.5t-10.5 27.5q0 19 14.5 33.5t33.5 14.5q17 0 27.5 -10.5t10.5 -27.5zM313 667l-7 -57h-144 l-29 -235h140l-6 -57h-141l-32 -261h144l-7 -57h-205l82 667h205z"/>
<glyph glyph-name="afii10051" horiz-adv-x="407" unicode="Ђ" d="M61 0l75 610h-88l7 57h273l-7 -57h-124l-27 -221q29 16 68 16q64 0 100 -40q39 -43 39 -128q0 -57 -16 -119t-50 -95q-37 -35 -89 -35q-40 0 -72 23l26 59q21 -22 49 -22q24 0 42 18q21 20 33.5 71.5t12.5 95.5q0 61 -26 90q-22 25 -61 25q-33 0 -63 -19l-41 -329h-61z "/>
<glyph glyph-name="afii10052" horiz-adv-x="291" unicode="Ѓ" d="M347 817l-126 -103l-32 26l110 120zM317 667l-7 -57h-148l-75 -610h-61l82 667h209z"/>
<glyph glyph-name="afii10053" horiz-adv-x="319" unicode="Є" d="M288 96l-8 -72q-38 -33 -97 -33q-54 0 -89 36q-53 56 -53 208q0 112 24 210q30 120 80 176q49 55 120 55q49 0 89 -32l-10 -71q-35 43 -79 43q-41 0 -71 -30q-31 -31 -50.5 -92.5t-26.5 -118.5h168l-7 -57h-169q-4 -76 -4 -97q0 -101 31 -142q21 -28 60 -28q52 0 92 45z "/>
<glyph glyph-name="afii10054" horiz-adv-x="342" unicode="Ѕ" d="M336 640l-10 -78q-40 54 -91 54q-48 0 -78.5 -38t-30.5 -87q0 -37 19.5 -66t47 -49.5t54.5 -41.5t46.5 -54t19.5 -75q0 -83 -54.5 -149t-135.5 -66q-56 0 -99 35l10 80q45 -54 99 -54q52 0 84.5 42.5t32.5 95.5q0 34 -19.5 61.5t-47 48.5t-55 43t-47 55t-19.5 74 q0 79 49 142t126 63q54 0 99 -36z"/>
<glyph glyph-name="afii10055" horiz-adv-x="169" unicode="І" d="M169 667l-82 -667h-61l82 667h61z"/>
<glyph glyph-name="afii10056" horiz-adv-x="169" unicode="Ї" d="M133 769q0 -19 -10 -34t-24 -15q-12 0 -19 11.5t-7 27.5q0 19 10 33.5t23 14.5q12 0 19.5 -10.5t7.5 -27.5zM221 769q0 -19 -10 -34t-24 -15q-11 0 -18.5 11.5t-7.5 27.5q0 19 10.5 33.5t23.5 14.5q11 0 18.5 -11t7.5 -27zM169 667l-82 -667h-61l82 667h61z"/>
<glyph glyph-name="afii10057" horiz-adv-x="221" unicode="Ј" d="M221 667l-68 -553q0 -2 -1.5 -12.5t-2 -13.5t-1.5 -12t-2.5 -13.5l-4 -12t-5 -12t-6.5 -10.5t-9 -10q-29 -28 -79 -28q-32 0 -68 18l8 64q30 -28 57 -28q12 0 21.5 4.5t14 8t8.5 15.5t5 16t3 20.5t2 18.5l67 540h61z"/>
<glyph glyph-name="afii10058" horiz-adv-x="575" unicode="Љ" d="M328 53h33q48 0 75 23q46 39 46 148q0 53 -26 77q-22 20 -73 20h-23zM367 378h28q74 0 113 -39q37 -37 37 -111q0 -139 -65 -193q-41 -35 -112 -35h-109l75 610h-138l-42 -344q-10 -80 -20 -128q-16 -79 -50 -113q-31 -31 -77 -31q-22 0 -42 10l7 68q14 -17 34 -17t34 13 q23 20 36 78q8 34 19 115l50 406h258z"/>
<glyph glyph-name="afii10059" horiz-adv-x="553" unicode="Њ" d="M306 53h33q48 0 75 23q46 39 46 148q0 53 -26 77q-22 20 -73 20h-23zM345 378h28q74 0 113 -39q37 -37 37 -111q0 -139 -65 -193q-41 -35 -112 -35h-109l39 321h-149l-40 -321h-61l82 667h61l-35 -289h149l36 289h62z"/>
<glyph glyph-name="afii10060" horiz-adv-x="401" unicode="Ћ" d="M61 0l75 610h-88l7 57h261l-7 -57h-112l-27 -219q42 14 78 14q64 0 95 -28q28 -25 28 -79q0 -15 -4 -55l-30 -243h-61l29 236q4 30 4 45q0 34 -15 49q-18 18 -60 18q-37 0 -71 -17l-41 -331h-61z"/>
<glyph glyph-name="afii10061" horiz-adv-x="320" unicode="Ќ" d="M353 817l-126 -103l-32 26l110 120zM365 667l-180 -320l98 -347h-64l-91 336l-41 -336h-61l82 667h61l-37 -303l169 303h64z"/>
<glyph glyph-name="afii10062" horiz-adv-x="331" unicode="Ў" d="M313 808l54 -21q-17 -43 -51 -64q-31 -19 -78 -19t-76 20q-33 23 -46 63l54 21q7 -25 26 -39q17 -12 47 -12q29 0 45 13q18 15 25 38zM55 667h68l42 -205q18 -87 25 -154q16 64 55 163l76 196h62l-249 -667h-60l78 221z"/>
<glyph glyph-name="afii10145" horiz-adv-x="380" unicode="Џ" d="M380 667l-82 -667h-105l-17 -130h-62l17 130h-105l82 667h61l-75 -610h150l75 610h61z"/>
<glyph glyph-name="afii10017" horiz-adv-x="320" unicode="А" d="M215 191l-14 235q-3 41 -3 80q0 38 3 77q-8 -47 -22 -103t-24 -91t-31 -104.5t-28 -93.5h119zM291 0h-65l-8 137h-139l-41 -137h-65l211 667h58z"/>
<glyph glyph-name="afii10018" horiz-adv-x="342" unicode="Б" d="M95 53h33q48 0 75 23q46 39 46 148q0 53 -26 77q-22 20 -73 20h-23zM108 667h224l-7 -57h-162l-29 -232h28q74 0 113 -39q37 -37 37 -111q0 -139 -65 -193q-41 -35 -112 -35h-109z"/>
<glyph glyph-name="afii10019" horiz-adv-x="346" unicode="В" d="M93 53h33q47 0 73 20q24 18 35.5 60t11.5 81q0 103 -85 103h-35zM133 372h33q48 0 70 27q34 40 34 142q0 40 -15 56t-54 16h-39zM108 667h96q72 0 100 -30t28 -102q0 -66 -23 -116q-13 -30 -31.5 -47t-48.5 -30q45 -13 62.5 -39.5t17.5 -74.5q0 -146 -75 -200 q-38 -28 -107 -28h-101z"/>
<glyph glyph-name="afii10020" horiz-adv-x="291" unicode="Г" d="M317 667l-7 -57h-148l-75 -610h-61l82 667h209z"/>
<glyph glyph-name="afii10021" horiz-adv-x="422" unicode="Д" d="M197 610l-32 -259q-17 -141 -43 -203q-21 -53 -62 -91h200l68 553h-131zM146 667h251l-75 -610h52l-24 -187h-62l17 130h-275l-17 -130h-58l24 187q41 21 68 62q41 63 57 202z"/>
<glyph glyph-name="afii10022" horiz-adv-x="297" unicode="Е" d="M313 667l-7 -57h-144l-29 -235h140l-6 -57h-141l-32 -261h144l-7 -57h-205l82 667h205z"/>
<glyph glyph-name="afii10024" horiz-adv-x="459" unicode="Ж" d="M426 0h-64l-91 336l-41 -336h-62l41 336l-175 -336h-64l187 355l-100 312h64l92 -303l37 303h62l-37 -303l165 303h64l-178 -318z"/>
<glyph glyph-name="afii10025" horiz-adv-x="360" unicode="З" d="M132 371h18q50 0 77 18q47 31 47 117q0 51 -23 79q-24 29 -69 29q-32 0 -60 -19q-23 -15 -40 -38l11 86q42 33 101 33q65 0 103 -36q43 -41 43 -121q0 -99 -48 -143q-21 -19 -51 -30q33 -11 54 -35q31 -35 31 -90q0 -111 -69 -179q-51 -51 -129 -51q-69 0 -118 43l10 86 q20 -30 44 -47q27 -20 64 -20q44 0 76 26q26 22 39.5 59t13.5 73q0 51 -30 79q-26 24 -85 24h-17z"/>
<glyph glyph-name="afii10026" horiz-adv-x="392" unicode="И" d="M26 0l82 667h62l-55 -444q-5 -40 -17 -87q9 21 16.5 40t11 27t6.5 14l198 450h62l-82 -667h-62l53 426q7 56 19 105q-17 -44 -39 -94l-193 -437h-62z"/>
<glyph glyph-name="afii10027" horiz-adv-x="392" unicode="Й" d="M330 808l54 -21q-17 -43 -51 -64q-31 -19 -78 -19t-76 20q-33 23 -46 63l54 21q7 -25 26 -39q17 -12 47 -12q29 0 45 13q18 15 25 38zM26 0l82 667h62l-55 -444q-5 -40 -17 -87q9 21 16.5 40t11 27t6.5 14l198 450h62l-82 -667h-62l53 426q7 56 19 105q-17 -44 -39 -94 l-193 -437h-62z"/>
<glyph glyph-name="afii10028" horiz-adv-x="320" unicode="К" d="M365 667l-180 -320l98 -347h-64l-91 336l-41 -336h-61l82 667h61l-37 -303l169 303h64z"/>
<glyph glyph-name="afii10029" horiz-adv-x="403" unicode="Л" d="M145 667h258l-82 -667h-62l75 610h-138l-42 -344q-10 -80 -20 -128q-16 -79 -50 -113q-31 -31 -77 -31q-22 0 -42 10l7 68q14 -17 34 -17t34 13q23 20 36 78q8 34 19 115z"/>
<glyph glyph-name="afii10030" horiz-adv-x="492" unicode="М" d="M444 667l-1 -667h-60l7 433q2 61 9 121q-1 -2 -9 -41q-7 -38 -20 -80l-126 -433h-50l-17 434v64q0 10 1.5 28t1.5 28q-10 -82 -20 -120l-107 -434h-60l174 667h53l14 -458q1 -19 1 -58q0 -31 -1 -47q11 56 25 103l133 460h52z"/>
<glyph glyph-name="afii10031" horiz-adv-x="380" unicode="Н" d="M380 667l-82 -667h-61l42 344h-150l-42 -344h-61l82 667h61l-33 -266h150l33 266h61z"/>
<glyph glyph-name="afii10032" horiz-adv-x="398" unicode="О" d="M321 482q0 134 -73 134q-46 0 -76 -52q-34 -57 -51 -169t-17 -204q0 -140 73 -140q50 0 81 58q29 54 46 171t17 202zM382 477q0 -192 -47 -330q-51 -156 -165 -156q-128 0 -128 215q0 47 4.5 99.5t18.5 121t36 122t62 90.5t91 37q128 0 128 -199z"/>
<glyph glyph-name="afii10033" horiz-adv-x="374" unicode="П" d="M374 667l-82 -667h-61l74 610h-143l-75 -610h-61l82 667h266z"/>
<glyph glyph-name="afii10034" horiz-adv-x="324" unicode="Р" d="M133 376h41q36 0 57 16t31 57.5t10 79.5q0 44 -18 62.5t-62 18.5h-30zM108 667h79q76 0 111.5 -28t35.5 -102q0 -81 -26 -140q-13 -28 -31.5 -44.5t-46.5 -23.5t-48 -8.5t-56 -1.5l-39 -319h-61z"/>
<glyph glyph-name="afii10035" horiz-adv-x="315" unicode="С" d="M350 655l-8 -68q-39 29 -73 29q-59 0 -96 -61q-34 -55 -50.5 -156t-16.5 -188q0 -160 88 -160q39 0 85 30l-7 -62q-44 -28 -89 -28q-54 0 -87.5 36t-44 80.5t-10.5 97.5q0 103 26 221.5t76 182.5q54 67 130 67q48 0 77 -21z"/>
<glyph glyph-name="afii10036" horiz-adv-x="261" unicode="Т" d="M313 667l-7 -57h-98l-75 -610h-61l75 610h-99l7 57h258z"/>
<glyph glyph-name="afii10037" horiz-adv-x="331" unicode="У" d="M55 667h68l42 -205q18 -87 25 -154q16 64 55 163l76 196h62l-249 -667h-60l78 221z"/>
<glyph glyph-name="afii10038" horiz-adv-x="515" unicode="Ф" d="M216 150l51 408q-56 -3 -94 -38q-34 -32 -52.5 -94t-18.5 -119q0 -80 39 -122q29 -31 75 -35zM325 558l-51 -408q61 0 101 40q34 33 49 92t15 113q0 87 -38 127q-28 30 -76 36zM196 0l11 90q-70 9 -111 52q-54 56 -54 166q0 63 19.5 134t64.5 115q60 58 146 61l9 76h62 l-9 -76q70 -9 111 -52q54 -55 54 -166q0 -67 -20 -140t-71 -117q-57 -48 -139 -53l-11 -90h-62z"/>
<glyph glyph-name="afii10039" horiz-adv-x="313" unicode="Х" d="M366 667l-165 -328l83 -339h-65l-41 189q-13 55 -15 95q-4 -17 -39 -97l-85 -187h-66l169 339l-87 328h65l39 -165q14 -59 17 -117q9 33 46 113l79 169h65z"/>
<glyph glyph-name="afii10040" horiz-adv-x="380" unicode="Ц" d="M376 667l-75 -610h58l-23 -187h-62l16 130h-264l82 667h61l-75 -610h146l75 610h61z"/>
<glyph glyph-name="afii10041" horiz-adv-x="369" unicode="Ч" d="M369 667l-82 -667h-62l41 338q-31 -10 -70 -10q-55 0 -86 22q-40 29 -40 85q0 26 6 71l20 161h63l-20 -164q-5 -37 -5 -50q0 -34 19 -50q18 -15 54 -15t67 12l33 267h62z"/>
<glyph glyph-name="afii10042" horiz-adv-x="575" unicode="Ш" d="M108 667h61l-75 -610h142l75 610h61l-75 -610h142l75 610h61l-82 -667h-467z"/>
<glyph glyph-name="afii10043" horiz-adv-x="583" unicode="Щ" d="M108 667h61l-75 -610h142l75 610h61l-75 -610h142l75 610h61l-75 -610h62l-23 -187h-62l16 130h-467z"/>
<glyph glyph-name="afii10044" horiz-adv-x="375" unicode="Ъ" d="M128 53h33q48 0 75 23q46 39 46 148q0 53 -26 77q-22 20 -73 20h-23zM167 378h28q74 0 113 -39q37 -37 37 -111q0 -139 -65 -193q-41 -35 -112 -35h-109l75 610h-86l7 57h148z"/>
<glyph glyph-name="afii10045" horiz-adv-x="482" unicode="Ы" d="M95 53h33q48 0 75 23q46 39 46 148q0 53 -26 77q-22 20 -73 20h-23zM134 378h28q74 0 113 -39q37 -37 37 -111q0 -139 -65 -193q-41 -35 -112 -35h-109l82 667h62zM400 0h-62l82 667h62z"/>
<glyph glyph-name="afii10046" horiz-adv-x="342" unicode="Ь" d="M95 53h33q48 0 75 23q46 39 46 148q0 53 -26 77q-22 20 -73 20h-23zM134 378h28q74 0 113 -39q37 -37 37 -111q0 -139 -65 -193q-41 -35 -112 -35h-109l82 667h62z"/>
<glyph glyph-name="afii10047" horiz-adv-x="362" unicode="Э" d="M10 28l11 83q13 -26 36 -43t51 -17q38 0 68 30q33 33 58 103q24 67 33 134h-163l7 57h163q3 24 3 54q0 115 -39 158q-26 29 -66 29q-28 0 -51 -15q-18 -12 -37 -33l10 83q38 25 86 25q63 0 105 -42q57 -59 57 -195q0 -150 -46 -277q-31 -87 -78 -129t-114 -42 q-55 0 -94 37z"/>
<glyph glyph-name="afii10048" horiz-adv-x="548" unicode="Ю" d="M400 616q-28 0 -51 -24q-35 -38 -58 -132q-30 -120 -30 -263q0 -95 28 -127q17 -19 45 -19q29 0 53 27q46 52 67 199q17 123 17 207q0 87 -29 116q-16 16 -42 16zM136 401h80q27 168 95 234q41 41 97 41q47 0 79 -33q28 -30 36.5 -72.5t8.5 -104.5q0 -104 -21 -226 q-24 -142 -84 -205q-43 -44 -99 -44q-53 0 -86 38q-43 51 -43 176q0 73 9 139h-79l-42 -344h-61l82 667h61z"/>
<glyph glyph-name="afii10049" horiz-adv-x="374" unicode="Я" d="M269 369l30 241h-36q-50 0 -75 -22q-43 -37 -43 -126q0 -49 24 -71q23 -22 73 -22h27zM0 0l187 314q-45 8 -74 38q-35 37 -35 108q0 114 61 168q44 39 138 39h97l-82 -667h-68l39 320l-187 -320h-76z"/>
<glyph glyph-name="afii10065" horiz-adv-x="322" unicode="а" d="M231 327q0 82 -48 82q-32 0 -53 -37q-20 -36 -31 -113.5t-11 -134.5q0 -85 48 -85q19 0 32.5 9.5t21.5 27.5t11.5 32t7.5 34q22 112 22 185zM300 447l-55 -447h-55l4 36q-38 -43 -81 -43q-82 0 -82 120q0 70 13 157.5t39 130.5q33 53 93 53q41 0 65 -37l4 30h55z"/>
<glyph glyph-name="afii10066" horiz-adv-x="327" unicode="б" d="M183 402q-24 0 -40 -16q-25 -25 -40 -106q-12 -66 -12 -130q0 -69 23 -92q14 -12 31 -12q21 0 37 18q31 32 44 103q12 67 12 137q0 57 -14 78q-13 20 -41 20zM304 700h53q-4 -46 -34 -74q-18 -17 -84 -43q-54 -21 -75 -42q-39 -38 -57 -147q11 23 33 42q22 18 53 18 q43 0 70 -28q34 -36 34 -122q0 -81 -17 -152q-18 -81 -59 -124q-33 -35 -81 -35q-42 0 -67 25q-39 39 -39 134q0 110 36 285q21 104 69 151q29 28 82 48q58 21 69 33q13 13 14 31z"/>
<glyph glyph-name="afii10067" horiz-adv-x="292" unicode="в" d="M83 52h27q48 0 68 18q23 23 23 67q0 38 -18 54q-17 15 -54 15h-27zM108 259h23q43 0 60 14q23 20 23 67q0 30 -15 44q-13 11 -42 11h-33zM75 447h88q57 0 83 -25q26 -23 26 -75q0 -60 -31 -89q-21 -19 -45 -24q25 -5 44 -24q21 -23 21 -68q0 -72 -36 -107 q-35 -35 -99 -35h-106z"/>
<glyph glyph-name="afii10068" horiz-adv-x="240" unicode="г" d="M21 0l55 447h180l-6 -52h-125l-48 -395h-56z"/>
<glyph glyph-name="afii10069" horiz-adv-x="335" unicode="д" d="M205 52l41 343h-104l-23 -183q-9 -65 -21 -97q-15 -39 -48 -63h155zM95 447h215l-49 -395h41l-20 -156h-53l13 104h-221l-12 -104h-54l20 156q43 17 65 57q18 33 28 113z"/>
<glyph glyph-name="afii10070" horiz-adv-x="308" unicode="е" d="M94 260h131q2 32 2 51q0 91 -47 91q-63 0 -86 -142zM207 152h56q-10 -66 -41 -112.5t-90 -46.5q-104 0 -104 160q0 66 13 124q8 41 24 78t48 68t72 31q96 0 96 -155q0 -41 -8 -87h-185q-5 -33 -5 -59q0 -107 54 -107q18 0 31 10t20.5 29.5t11 33t7.5 33.5z"/>
<glyph glyph-name="afii10072" horiz-adv-x="426" unicode="ж" d="M395 0h-64l-92 205l-26 -205h-54l25 205l-139 -205h-65l161 235l-105 212h62l91 -195l25 195h54l-24 -195l139 195h63l-158 -216z"/>
<glyph glyph-name="afii10073" horiz-adv-x="291" unicode="з" d="M185 232q25 -5 43 -23q25 -25 25 -68q0 -68 -43 -111q-37 -37 -98 -37q-68 0 -102 38l9 71q15 -26 37 -40t48 -14q38 0 60 24q23 26 23 65q0 35 -25 53q-18 13 -55 13h-18l7 54h9q53 0 76 22q21 21 21 54q0 29 -20 49q-17 17 -48 17q-28 0 -50 -16t-35 -34l9 75 q40 30 87 30q58 0 88 -30t30 -82q0 -47 -21 -74q-21 -26 -57 -36z"/>
<glyph glyph-name="afii10074" horiz-adv-x="331" unicode="и" d="M254 0h-56l33 274q3 31 10 62q-13 -37 -29 -67l-135 -269h-56l55 447h56l-33 -271q-4 -39 -12 -69q18 42 30 66l136 274h56z"/>
<glyph glyph-name="afii10075" horiz-adv-x="331" unicode="й" d="M256 597l53 -19q-13 -39 -41 -59q-27 -19 -69 -19q-44 0 -71 20q-29 21 -38 58l52 19q5 -21 18 -32q14 -13 39 -13q19 0 35 10q18 14 22 35zM254 0h-56l33 274q3 31 10 62q-13 -37 -29 -67l-135 -269h-56l55 447h56l-33 -271q-4 -39 -12 -69q18 42 30 66l136 274h56z"/>
<glyph glyph-name="afii10076" horiz-adv-x="290" unicode="к" d="M132 447l-24 -195l144 195h63l-162 -219l117 -228h-64l-103 205l-26 -205h-56l55 447h56z"/>
<glyph glyph-name="afii10077" horiz-adv-x="344" unicode="л" d="M324 447l-56 -447h-56l49 395h-105l-27 -214q-8 -60 -14 -84q-12 -52 -37 -77q-24 -24 -61 -24q-16 0 -37 7l7 56q11 -8 25 -8q15 0 28 9q24 19 37 123l33 264h214z"/>
<glyph glyph-name="afii10078" horiz-adv-x="416" unicode="м" d="M203 0h-46l-24 270q-4 44 -4 70q-2 -13 -16 -68l-70 -272h-53l124 447h50l23 -283q4 -38 4 -57q0 -3 -0.5 -10.5t-0.5 -12.5q12 46 23 80l93 283h51l13 -447h-53l-3 272q0 8 -0.5 20t-0.5 19q0 17 1 29q-10 -40 -20 -70z"/>
<glyph glyph-name="afii10079" horiz-adv-x="326" unicode="н" d="M249 0h-56l25 209h-115l-26 -209h-56l55 447h56l-22 -186h115l23 186h56z"/>
<glyph glyph-name="afii10080" horiz-adv-x="318" unicode="о" d="M232 298q0 104 -50 104q-29 0 -49.5 -30.5t-30 -76.5t-13.5 -83t-4 -65q0 -101 53 -101q28 0 48 30t29 75.5t13 82t4 64.5zM290 328v-17q0 -47 -6 -93.5t-21 -101.5t-48.5 -89t-81.5 -34q-105 0 -105 162q0 43 7 89.5t23.5 96t50.5 81.5t80 32q51 0 76 -36.5t25 -89.5z "/>
<glyph glyph-name="afii10081" horiz-adv-x="322" unicode="п" d="M245 0h-56l48 395h-112l-48 -395h-56l55 447h224z"/>
<glyph glyph-name="afii10082" horiz-adv-x="318" unicode="р" d="M234 325q0 84 -49 84q-51 0 -71 -93q-22 -108 -22 -198q0 -79 49 -79q32 0 49 32q20 32 32 115t12 139zM132 447l-3 -30q34 37 74 37q89 0 89 -119q0 -111 -27 -218q-30 -124 -112 -124q-43 0 -71 43l-27 -216h-55l77 627h55z"/>
<glyph glyph-name="afii10083" horiz-adv-x="242" unicode="с" d="M249 437l-8 -66q-25 31 -51 31q-27 0 -49 -28.5t-32 -58.5t-14 -59q-8 -50 -8 -94q0 -18 2 -35t7.5 -37t18 -32t30.5 -12q28 0 60 40l-8 -70q-31 -23 -66 -23q-38 0 -62.5 28t-32.5 61.5t-8 71.5q0 66 13 122q16 69 53.5 123.5t95.5 54.5q31 0 59 -17z"/>
<glyph glyph-name="afii10084" horiz-adv-x="256" unicode="т" d="M264 395h-87l-49 -395h-56l48 395h-86l6 52h230z"/>
<glyph glyph-name="afii10085" horiz-adv-x="291" unicode="у" d="M312 447l-232 -627h-59l71 192l-52 435h57l25 -248q6 -55 6 -112q6 20 35 103l91 257h58z"/>
<glyph glyph-name="afii10086" horiz-adv-x="400" unicode="ф" d="M152 46l43 356q-36 -4 -61 -29q-31 -31 -45.5 -91t-14.5 -114q0 -59 21 -89q20 -29 57 -33zM247 402l-43 -356q41 4 66 29q56 54 56 202q0 75 -30 104q-18 18 -49 21zM122 -180l21 173q-45 5 -75 35q-48 48 -48 145q0 66 19.5 132.5t57.5 102.5q42 39 102 46l25 213h56 l-25 -213q44 -5 76 -37q49 -49 49 -143q0 -69 -18.5 -135.5t-55.5 -101.5q-41 -39 -107 -44l-21 -173h-56z"/>
<glyph glyph-name="afii10087" horiz-adv-x="275" unicode="х" d="M296 447l-126 -218l71 -229h-63l-33 127q-12 44 -13 66q-9 -28 -28 -67l-63 -126h-62l129 229l-64 218h61q4 -15 12 -45.5t12.5 -49.5t9 -45.5t5.5 -48.5q23 58 29 70q7 13 19 37.5t22.5 44.5t19.5 37h62z"/>
<glyph glyph-name="afii10088" horiz-adv-x="329" unicode="ц" d="M303 447l-48 -395h50l-20 -156h-56l13 104h-221l55 447h56l-48 -395h115l48 395h56z"/>
<glyph glyph-name="afii10089" horiz-adv-x="294" unicode="ч" d="M163 0l26 211q-30 -9 -59 -9q-50 0 -75 21t-25 63q0 10 4 48l13 113h57l-14 -113q0 -3 -1.5 -15t-1.5 -18q0 -26 15 -36q13 -10 43 -10q26 0 50 10l23 182h56l-55 -447h-56z"/>
<glyph glyph-name="afii10090" horiz-adv-x="496" unicode="ш" d="M303 447l-48 -395h114l49 395h56l-55 -447h-398l55 447h57l-49 -395h115l48 395h56z"/>
<glyph glyph-name="afii10091" d="M303 447l-48 -395h114l49 395h56l-48 -395h50l-20 -156h-56l13 104h-392l55 447h57l-49 -395h115l48 395h56z" unicode="щ"/>
<glyph glyph-name="afii10092" horiz-adv-x="323" unicode="ъ" d="M124 52h29q43 0 65 21q26 26 26 76q0 36 -18 54q-18 17 -56 17h-6h-20zM60 0l49 395h-89l7 52h145l-21 -175h13q79 0 110 -34q29 -31 29 -84q0 -78 -42 -118q-38 -36 -122 -36h-79z"/>
<glyph glyph-name="afii10093" horiz-adv-x="422" unicode="ы" d="M84 52h29q43 0 65 21q26 26 26 77q0 35 -18 53q-18 17 -56 17h-6h-20zM21 0l55 447h56l-21 -175h13q79 0 111 -34q28 -30 28 -84q0 -78 -42 -118q-38 -36 -121 -36h-79zM347 0h-56l55 447h56z"/>
<glyph glyph-name="afii10094" horiz-adv-x="282" unicode="ь" d="M83 52h29q45 0 66 21q25 25 25 76q0 36 -18 54q-17 17 -56 17h-6h-19zM20 0l55 447h56l-21 -175h13q79 0 111 -34q28 -30 28 -84q0 -78 -42 -118q-38 -36 -121 -36h-79z"/>
<glyph glyph-name="afii10095" horiz-adv-x="276" unicode="э" d="M10 29l9 70q9 -22 25 -36q18 -17 44 -17q25 0 46 21q41 39 52 142h-114l7 52h113q1 7 1 20q0 72 -28 103q-16 18 -45 18q-20 0 -36 -12q-16 -11 -29 -29l9 75q29 18 65 18q49 0 79 -30q43 -43 43 -141q0 -72 -15 -135q-18 -77 -61 -119q-36 -36 -88 -36q-49 0 -77 36z "/>
<glyph glyph-name="afii10096" horiz-adv-x="439" unicode="ю" d="M304 402q-20 0 -35 -14q-28 -26 -45 -110q-14 -70 -14 -133q0 -53 14 -77q12 -22 36 -22q21 0 37 17q29 31 43 105q13 72 13 141q0 54 -17 77q-12 16 -32 16zM109 261h56q16 109 65 160q32 33 80 33q41 0 66 -25q35 -34 35 -118q0 -91 -16 -159q-18 -83 -60 -125 q-34 -34 -79 -34q-42 0 -68 28q-34 38 -34 131q0 27 3 57h-54l-26 -209h-56l55 447h56z"/>
<glyph glyph-name="afii10097" horiz-adv-x="303" unicode="я" d="M200 234l20 161h-30q-41 0 -62 -19q-27 -24 -27 -71q0 -41 24 -57q20 -14 57 -14h18zM0 0l134 187q-40 8 -63 29q-30 28 -30 79q0 77 44 118q36 34 109 34h89l-55 -447h-56l22 182l-124 -182h-70z"/>
<glyph glyph-name="afii10071" horiz-adv-x="308" unicode="ё" d="M179 563q0 -19 -14.5 -34t-34.5 -15q-15 0 -25.5 11.5t-10.5 27.5q0 18 14.5 32.5t32.5 14.5q16 0 27 -10.5t11 -26.5zM299 563q0 -19 -14.5 -34t-33.5 -15q-16 0 -26.5 11.5t-10.5 27.5q0 18 14.5 32.5t33.5 14.5q16 0 26.5 -10.5t10.5 -26.5zM94 260h131q2 32 2 51 q0 91 -47 91q-63 0 -86 -142zM207 152h56q-10 -66 -41 -112.5t-90 -46.5q-104 0 -104 160q0 66 13 124q8 41 24 78t48 68t72 31q96 0 96 -155q0 -36 -7 -87h-186q-5 -33 -5 -59q0 -107 54 -107q53 0 70 106z"/>
<glyph glyph-name="afii10099" horiz-adv-x="324" unicode="ђ" d="M111 729h56l-18 -155h104l-7 -52h-104l-16 -131q14 16 36 29q25 14 51 14q35 0 55 -20q23 -22 23 -61q0 -19 -3 -38l-44 -357q-10 -81 -42 -112q-27 -26 -70 -26q-25 0 -41 10l7 57q13 -11 30 -11q23 0 35 11q18 16 25 72l41 332q5 45 5 48q0 25 -13 38q-13 11 -31 11 q-28 0 -47 -19q-5 -5 -9.5 -11.5t-7.5 -15.5t-5.5 -15t-4.5 -17.5t-2.5 -15.5t-2 -17t-1.5 -14l-33 -263h-56l64 522h-49l7 52h49z"/>
<glyph glyph-name="afii10100" horiz-adv-x="240" unicode="ѓ" d="M307 610l-126 -103l-32 26l110 120zM21 0l55 447h180l-6 -52h-125l-48 -395h-56z"/>
<glyph glyph-name="afii10101" horiz-adv-x="259" unicode="є" d="M225 91l-9 -72q-35 -26 -74 -26q-43 0 -72 30q-42 44 -42 148q0 70 16 131q19 76 61 116q36 36 88 36q45 0 73 -25l-7 -70q-11 19 -23 29q-16 14 -40 14q-23 0 -43 -18q-41 -38 -54 -123h116l-7 -52h-117q-3 -21 -3 -44q0 -61 20 -92q17 -27 48 -27q18 0 37 13 q20 13 32 32z"/>
<glyph glyph-name="afii10102" horiz-adv-x="243" unicode="ѕ" d="M238 425l-7 -69q-33 46 -70 46q-27 0 -45 -20t-18 -48q0 -25 18.5 -49t40 -40.5t40 -45t18.5 -61.5q0 -58 -39 -101.5t-95 -43.5q-44 0 -78 31l7 66q35 -44 73 -44q31 0 52 24t21 55q0 21 -12 41t-29 37t-34 34.5t-29 40.5t-12 48q0 53 35.5 90.5t87.5 37.5q41 0 75 -29z "/>
<glyph glyph-name="afii10103" horiz-adv-x="154" unicode="і" d="M131 447l-54 -447h-56l55 447h55zM163 593q0 -19 -14 -33t-33 -14q-16 0 -26.5 10.5t-10.5 25.5q0 20 14.5 34t33.5 14q15 0 25.5 -10.5t10.5 -26.5z"/>
<glyph glyph-name="afii10104" horiz-adv-x="154" unicode="ї" d="M105 593q0 -19 -10 -34t-24 -15q-11 0 -18 11.5t-7 27.5q0 18 10 32.5t22 14.5t19.5 -10.5t7.5 -26.5zM186 593q0 -19 -10 -34t-24 -15q-10 0 -17.5 11.5t-7.5 27.5q0 18 10 32.5t23 14.5q11 0 18.5 -10.5t7.5 -26.5zM132 447l-55 -447h-56l55 447h56z"/>
<glyph glyph-name="afii10105" horiz-adv-x="159" unicode="ј" d="M137 447l-78 -627h-56l78 627h56zM168 593q0 -19 -13.5 -33t-32.5 -14q-16 0 -26.5 10.5t-10.5 25.5q0 19 13.5 33.5t32.5 14.5q16 0 26.5 -10.5t10.5 -26.5z"/>
<glyph glyph-name="afii10106" horiz-adv-x="475" unicode="љ" d="M275 52h30q44 0 65 21q26 26 26 77q0 36 -18 53t-56 17h-6h-20zM212 0l48 395h-104l-27 -214q-8 -60 -14 -84q-12 -52 -37 -77q-24 -24 -61 -24q-16 0 -37 7l7 56q11 -8 25 -8q17 0 27 9q25 20 38 123l32 264h215l-21 -175h13q79 0 110 -34q29 -31 29 -84q0 -77 -43 -118 q-38 -36 -121 -36h-79z"/>
<glyph glyph-name="afii10107" horiz-adv-x="456" unicode="њ" d="M257 52h29q43 0 65 21q26 26 26 76q0 36 -18 54q-18 17 -56 17h-6h-20zM193 0l28 220h-116l-28 -220h-56l55 447h56l-20 -175h115l22 175h56l-21 -175h13q79 0 111 -34q28 -30 28 -84q0 -78 -42 -118q-38 -36 -122 -36h-79z"/>
<glyph glyph-name="afii10108" horiz-adv-x="322" unicode="ћ" d="M21 0l64 522h-49l7 52h49l18 155h56l-19 -155h104l-7 -52h-104l-16 -131q43 43 91 43q74 0 74 -78q0 -24 -3 -45l-37 -311h-56l37 301q4 26 4 39q0 21 -11 34.5t-31 13.5q-22 0 -37.5 -9.5t-23.5 -27t-12 -33t-7 -37.5l-35 -281h-56z"/>
<glyph glyph-name="afii10109" horiz-adv-x="290" unicode="ќ" d="M327 610l-126 -103l-32 26l110 120zM132 447l-24 -195l144 195h63l-162 -219l117 -228h-64l-103 205l-26 -205h-56l55 447h56z"/>
<glyph glyph-name="afii10110" horiz-adv-x="291" unicode="ў" d="M232 597l53 -19q-13 -39 -41 -59q-27 -19 -69 -19q-44 0 -71 20q-29 21 -38 58l52 19q5 -21 18 -32q14 -13 39 -13q19 0 35 10q18 14 22 35zM312 447l-232 -627h-59l71 192l-52 435h57l25 -248q6 -55 6 -112q6 20 35 103l91 257h58z"/>
<glyph glyph-name="afii10193" horiz-adv-x="325" unicode="џ" d="M303 447l-55 -447h-86l-13 -104h-56l13 104h-85l55 447h56l-48 -395h115l48 395h56z"/>
<glyph glyph-name="afii10146" horiz-adv-x="365" unicode="Ѣ" d="M118 53h33q48 0 75 23q46 39 46 148q0 53 -26 77q-22 20 -73 20h-22zM180 557l-22 -179h27q74 0 113 -39q37 -37 37 -111q0 -139 -65 -193q-41 -35 -112 -35h-108l69 557h-89l7 57h88l10 80h61l-9 -80h126l-7 -57h-126z"/>
<glyph glyph-name="afii10194" horiz-adv-x="286" unicode="ѣ" d="M87 52h29q43 0 65 21q26 26 26 76q0 36 -18 54q-18 17 -56 17h-26zM24 0l49 395h-59l7 52h59l27 220h56l-27 -220h105l-7 -52h-105l-15 -123h13q79 0 111 -34q28 -30 28 -84q0 -78 -42 -118q-38 -36 -121 -36h-79z"/>
<glyph glyph-name="afii10147" horiz-adv-x="398" unicode="Ѳ" d="M309 316h-199q-6 -54 -6 -113q0 -99 28 -131q18 -21 45 -21q34 0 60 27q53 54 72 238zM117 373h198q6 68 6 109q0 88 -31 118q-19 16 -42 16q-32 0 -56 -24q-26 -24 -46 -89.5t-29 -129.5zM257 676q49 0 80 -33q45 -47 45 -174q0 -103 -20 -215q-27 -156 -87 -218 q-44 -45 -105 -45q-49 0 -81 32q-47 49 -47 183q0 127 26 238q30 132 87 189q43 43 102 43z"/>
<glyph glyph-name="afii10195" horiz-adv-x="318" unicode="ѳ" d="M224 201h-136q-3 -30 -3 -55q0 -60 21 -85q13 -15 32 -15q20 0 38 18q18 19 31 60t17 77zM95 254h135q2 24 2 52q0 60 -18 80q-12 16 -32 16q-23 0 -40 -19q-18 -19 -30.5 -58t-16.5 -71zM189 454q41 0 66 -25q35 -35 35 -121q0 -82 -17 -156q-18 -82 -59 -124 q-33 -35 -81 -35q-42 0 -67 25q-38 38 -38 137q0 72 18 143q20 79 59 119q35 37 84 37z"/>
<glyph glyph-name="afii10148" horiz-adv-x="321" unicode="Ѵ" d="M374 667l-215 -667h-54l-50 667h63l28 -442q2 -38 2 -57q0 -12 -0.5 -24.5t-1.5 -28t-1 -24.5q24 105 32 132l134 444h63z"/>
<glyph glyph-name="afii10196" horiz-adv-x="271" unicode="ѵ" d="M293 447l-153 -447h-60l-46 447h58l25 -267q4 -52 4 -77q0 -13 1 -19q6 33 26 94l87 269h58z"/>
<glyph glyph-name="afii10050" horiz-adv-x="312" unicode="Ґ" d="M26 0l82 667h167l15 121h62l-22 -178h-168l-75 -610h-61z"/>
<glyph glyph-name="afii10098" horiz-adv-x="261" unicode="ґ" d="M21 0l55 447h139l12 99h56l-19 -151h-139l-48 -395h-56z"/>
<glyph glyph-name="uni0492" horiz-adv-x="306" unicode="Ғ" d="M325 610h-149l-29 -234h116l-7 -57h-116l-39 -319h-62l39 319h-58l7 57h58l36 291h211z"/>
<glyph glyph-name="uni0493" horiz-adv-x="247" unicode="ғ" d="M28 0l24 193h-47l6 52h47l25 202h180l-7 -52h-124l-18 -150h105l-6 -52h-105l-24 -193h-56z"/>
<glyph glyph-name="uni0494" horiz-adv-x="373" unicode="Ҕ" d="M327 610h-164l-27 -221q29 16 68 16q64 0 100 -40q39 -43 39 -128q0 -57 -16 -119t-50 -95q-37 -35 -89 -35q-40 0 -72 23l26 59q21 -22 49 -22q24 0 42 18q21 20 33.5 71.5t12.5 95.5q0 61 -26 90q-22 25 -61 25q-33 0 -63 -19l-41 -329h-62l82 667h226z"/>
<glyph glyph-name="uni0495" horiz-adv-x="281" unicode="ҕ" d="M21 0l55 447h180l-6 -52h-125l-16 -134h4q61 0 99 -34q42 -39 42 -121q0 -63 -17 -131q-19 -74 -60 -112q-40 -37 -96 -43l8 63q25 2 47 21q30 26 44 86q15 60 15 116q0 57 -26 81q-20 19 -61 19h-6l-25 -206h-56z"/>
<glyph glyph-name="uni0496" horiz-adv-x="468" unicode="Җ" d="M326 349l80 -292h55l-24 -187h-61l17 130h-34l-88 336l-41 -336h-62l41 336l-175 -336h-64l187 355l-100 312h64l92 -303l37 303h62l-37 -303l165 303h64z"/>
<glyph glyph-name="uni0497" horiz-adv-x="426" unicode="җ" d="M288 231l83 -179h50l-20 -156h-56l13 104h-27l-92 205l-26 -205h-54l25 205l-139 -205h-65l161 235l-105 212h62l91 -195l25 195h54l-24 -195l139 195h63z"/>
<glyph glyph-name="uni0498" horiz-adv-x="360" unicode="Ҙ" d="M132 371h18q50 0 77 18q47 31 47 117q0 51 -23 79q-24 29 -69 29q-32 0 -60 -19q-23 -15 -40 -38l11 86q42 33 101 33q65 0 103 -36q43 -41 43 -121q0 -99 -48 -143q-21 -19 -51 -30q33 -11 54 -35q31 -35 31 -89q0 -110 -69 -180q-42 -42 -94 -48l-15 -124h-62l15 123 q-49 6 -91 41l10 86q20 -30 44 -47q27 -20 64 -20q44 0 76 26q26 22 39.5 59t13.5 73q0 51 -30 79q-26 24 -85 24h-17z"/>
<glyph glyph-name="uni0499" horiz-adv-x="291" unicode="ҙ" d="M185 232q25 -5 43 -23q25 -25 25 -68q0 -68 -43 -111q-29 -31 -69 -35l-12 -99h-56l13 98q-47 6 -76 37l9 71q15 -26 37 -40t48 -14q38 0 60 24q23 26 23 65q0 35 -25 53q-18 13 -55 13h-18l7 54h9q53 0 76 22q21 21 21 54q0 29 -20 49q-17 17 -48 17q-28 0 -50 -16 t-35 -34l9 75q40 30 87 30q58 0 88 -30t30 -82q0 -47 -21 -74q-21 -26 -57 -36z"/>
<glyph glyph-name="uni049A" horiz-adv-x="325" unicode="Қ" d="M365 667l-180 -320l78 -290h52l-24 -187h-62l17 130h-31l-87 336l-41 -336h-61l82 667h61l-37 -303l169 303h64z"/>
<glyph glyph-name="uni049B" horiz-adv-x="295" unicode="қ" d="M132 447l-24 -195l144 195h63l-162 -219l85 -176h46l-19 -156h-57l13 104h-19l-99 205l-26 -205h-56l55 447h56z"/>
<glyph glyph-name="uni049C" horiz-adv-x="403" unicode="Ҝ" d="M126 321l-39 -321h-61l82 667h61l-35 -288h41l16 137h56l-18 -152l155 303h64l-168 -318l102 -349h-64l-93 336l-21 -176h-56l19 161h-41z"/>
<glyph glyph-name="uni049D" horiz-adv-x="350" unicode="ҝ" d="M102 202l-24 -202h-57l56 447h56l-25 -195h32l12 93h47l-12 -93l124 195h64l-144 -217l94 -230h-63l-81 205l-14 -116h-47l14 113h-32z"/>
<glyph glyph-name="uni04A0" horiz-adv-x="366" unicode="Ҡ" d="M411 667l-180 -320l98 -347h-64l-91 336l-41 -336h-61l75 610h-99l7 57h160l-37 -303l169 303h64z"/>
<glyph glyph-name="uni04A1" horiz-adv-x="331" unicode="ҡ" d="M173 447l-24 -195l144 195h63l-162 -219l116 -228h-63l-103 205l-26 -205h-56l49 395h-87l7 52h142z"/>
<glyph glyph-name="uni04A2" horiz-adv-x="384" unicode="Ң" d="M380 667l-74 -610h58l-23 -187h-62l16 130h-58l42 344h-150l-42 -344h-61l82 667h61l-33 -266h150l33 266h61z"/>
<glyph glyph-name="uni04A3" horiz-adv-x="330" unicode="ң" d="M76 447h56l-22 -186h115l23 186h56l-48 -395h50l-20 -156h-56l13 104h-50l25 209h-115l-26 -209h-56z"/>
<glyph glyph-name="uni04A4" horiz-adv-x="474" unicode="Ҥ" d="M510 667l-7 -57h-130l-75 -610h-61l42 344h-150l-42 -344h-61l82 667h61l-33 -266h150l33 266h191z"/>
<glyph glyph-name="uni04A5" horiz-adv-x="387" unicode="ҥ" d="M192 0l26 209h-116l-25 -209h-56l55 447h56l-23 -186h116l23 186h155l-6 -52h-100l-48 -395h-57z"/>
<glyph glyph-name="uni04AA" horiz-adv-x="315" unicode="Ҫ" d="M350 655l-8 -68q-38 29 -72 29q-43 0 -76 -33q-41 -41 -65 -153q-23 -104 -23 -216q0 -105 33 -140q22 -23 58 -23q38 0 82 30l-7 -62q-25 -18 -56 -24l-16 -125h-62l16 125q-33 5 -60 32q-53 55 -53 185q0 113 28 226q30 128 91 189q49 49 116 49q44 0 74 -21z"/>
<glyph glyph-name="uni04AB" horiz-adv-x="242" unicode="ҫ" d="M249 437l-8 -66q-24 31 -51 31q-21 0 -44 -23q-32 -34 -45.5 -97t-13.5 -119q0 -78 27 -104q14 -13 32 -13q32 0 59 40l-8 -70q-14 -13 -31 -17l-13 -103h-56l13 102q-36 8 -56 40q-26 41 -26 118q0 66 20.5 143.5t60.5 117.5q37 37 81 37q31 0 59 -17z"/>
<glyph glyph-name="uni04AE" horiz-adv-x="315" unicode="Ү" d="M367 667l-168 -378l-35 -289h-61l35 289l-83 378h66l38 -191q14 -73 17 -123q18 58 44 122l81 192h66z"/>
<glyph glyph-name="uni04AF" horiz-adv-x="286" unicode="ү" d="M30 447h59l26 -172q11 -69 14 -135q19 55 53 140l67 167h58l-157 -378l-30 -249h-57l31 249z"/>
<glyph glyph-name="uni04B0" horiz-adv-x="316" unicode="Ұ" d="M368 667l-168 -378l-3 -30h102l-7 -54h-102l-25 -205h-61l26 205h-104l7 54h102l4 30l-83 378h66l38 -191q14 -73 17 -123q18 58 44 122l81 192h66z"/>
<glyph glyph-name="uni04B1" horiz-adv-x="286" unicode="ұ" d="M95 77l-65 370h59l26 -172q6 -41 13 -135q18 51 54 140l67 167h58l-156 -370l-3 -25h75l-7 -52h-75l-24 -180h-56l24 180h-75l7 52h75z"/>
<glyph glyph-name="uni04B2" horiz-adv-x="326" unicode="Ҳ" d="M366 667l-165 -328l66 -282h54l-22 -187h-62l15 130h-35l-39 189q-13 55 -15 95q-4 -17 -39 -97l-85 -187h-66l169 339l-87 328h65l39 -165q14 -59 17 -117q9 33 46 113l79 169h65z"/>
<glyph glyph-name="uni04B3" horiz-adv-x="280" unicode="ҳ" d="M296 447l-126 -218l53 -177h50l-20 -156h-56l13 104h-32l-33 127q-12 44 -13 66q-9 -28 -28 -67l-63 -126h-62l129 229l-64 218h61q4 -15 12 -45.5t12.5 -49.5t9 -45.5t5.5 -48.5q23 58 29 70q7 13 19 37.5t22.5 44.5t19.5 37h62z"/>
<glyph glyph-name="uni04B6" horiz-adv-x="373" unicode="Ҷ" d="M369 667l-75 -610h58l-23 -187h-62l16 130h-58l41 338q-31 -10 -70 -10q-55 0 -86 22q-40 29 -40 85q0 26 6 71l20 161h63l-20 -164q-5 -35 -5 -50q0 -34 19 -50q18 -15 54 -15t67 12l33 267h62z"/>
<glyph glyph-name="uni04B7" horiz-adv-x="299" unicode="ҷ" d="M212 0h-49l27 211q-26 -9 -60 -9q-50 0 -75 21t-25 63q0 10 4 48l13 113h57l-14 -113q0 -3 -1.5 -15t-1.5 -18q0 -26 15 -36q13 -10 43 -10q26 0 50 10l23 182h56l-48 -395h49l-19 -156h-57z"/>
<glyph glyph-name="uni04B8" horiz-adv-x="383" unicode="Ҹ" d="M383 667l-82 -667h-61l42 339q-24 -8 -42 -8l-19 -152h-56l19 151q-55 0 -86 31q-28 27 -28 78q0 22 6 67l20 161h61l-20 -164q-5 -37 -5 -53q0 -33 16 -48q16 -14 39 -14h4l17 140h56l-17 -141q23 0 42 9l33 271h61z"/>
<glyph glyph-name="uni04B9" horiz-adv-x="304" unicode="ҹ" d="M173 0l25 211q-13 -4 -32 -7l-13 -105h-47l13 105q-43 0 -68 25q-21 21 -21 57q0 17 4 48l13 113h57l-14 -113q-3 -27 -3 -32q0 -25 12 -35q7 -7 26 -9l12 95h48l-12 -96q15 0 32 6l23 184h56l-55 -447h-56z"/>
<glyph glyph-name="uni04BA" horiz-adv-x="366" unicode="Һ" d="M26 0l82 667h61l-34 -276q42 14 78 14q64 0 95 -28q28 -25 28 -79q0 -15 -4 -55l-30 -243h-61l29 236q4 30 4 45q0 34 -15 49q-18 18 -60 18q-37 0 -71 -17l-41 -331h-61z"/>
<glyph glyph-name="uni04BB" horiz-adv-x="325" unicode="һ" d="M166 729l-39 -318q43 43 91 43q74 0 74 -78q0 -24 -3 -45l-40 -331h-56l39 321q4 26 4 39q0 21 -11 34.5t-31 13.5q-69 0 -80 -107l-37 -301h-56l90 729h55z"/>
<glyph glyph-name="uni04C0" horiz-adv-x="146" unicode="Ӏ" d="M158 667l-81 -667h-56l82 667h55z"/>
<glyph glyph-name="uni04C1" horiz-adv-x="459" unicode="Ӂ" d="M368 808l54 -21q-17 -43 -51 -64q-31 -19 -78 -19t-76 20q-33 23 -46 63l54 21q7 -25 26 -39q17 -12 47 -12q29 0 45 13q18 15 25 38zM426 0h-64l-91 336l-41 -336h-62l41 336l-175 -336h-64l187 355l-100 312h64l92 -303l37 303h62l-37 -303l165 303h64l-178 -318z"/>
<glyph glyph-name="uni04C2" horiz-adv-x="426" unicode="ӂ" d="M308 597l53 -19q-13 -39 -41 -59q-27 -19 -69 -19q-44 0 -71 20q-29 21 -38 58l52 19q5 -21 18 -32q14 -13 39 -13q19 0 35 10q18 14 22 35zM395 0h-64l-92 205l-26 -205h-54l25 205l-139 -205h-65l161 235l-105 212h62l91 -195l25 195h54l-24 -195l139 195h63l-158 -216 z"/>
<glyph glyph-name="uni04C3" horiz-adv-x="364" unicode="Ӄ" d="M369 667l-154 -274q50 -5 82 -35q40 -39 40 -119q0 -34 -6 -85l-14 -115q-14 -119 -60 -164q-37 -35 -89 -35q-40 0 -72 23l26 59q22 -22 49 -22q24 0 42 18q31 31 43 129l14 116q5 52 5 75q0 53 -25 78t-64 25q-30 0 -60 -15l-39 -326h-61l82 667h61l-37 -303l169 303 h68z"/>
<glyph glyph-name="uni04C4" horiz-adv-x="295" unicode="ӄ" d="M132 447l-24 -195l144 195h63l-161 -218q30 -6 55 -31q40 -40 40 -110q0 -59 -15 -113q-19 -72 -60 -111t-95 -44l8 63q30 6 48 21q29 24 45 85q13 48 13 94q0 54 -27 78q-21 19 -59 19h-7l-23 -180h-56l55 447h56z"/>
<glyph glyph-name="uni04C7" horiz-adv-x="380" unicode="Ӈ" d="M380 667l-92 -734q-7 -59 -33 -86q-27 -27 -76 -27q-37 0 -69 18l8 64q21 -28 56 -28q24 0 37 13q14 14 18 54l50 403h-150l-42 -344h-61l82 667h61l-33 -266h150l33 266h61z"/>
<glyph glyph-name="uni04C8" horiz-adv-x="326" unicode="ӈ" d="M132 447l-22 -186h115l23 186h56l-59 -489q-10 -81 -42 -112q-27 -26 -70 -26q-25 0 -41 10l7 57q13 -11 30 -11q23 0 35 11q19 17 25 71l29 251h-115l-26 -209h-56l55 447h56z"/>
<glyph glyph-name="uni04D0" horiz-adv-x="320" unicode="Ӑ" d="M288 808l54 -21q-17 -43 -51 -64q-31 -19 -78 -19t-76 20q-33 23 -46 63l54 21q7 -25 26 -39q17 -12 47 -12q29 0 45 13q18 15 25 38zM215 191l-14 235q-3 41 -3 80q0 38 3 77q-8 -47 -22 -103t-24 -91t-31 -104.5t-28 -93.5h119zM291 0h-65l-8 137h-139l-41 -137h-65 l211 667h58z"/>
<glyph glyph-name="uni04D1" horiz-adv-x="322" unicode="ӑ" d="M252 597l53 -19q-13 -39 -41 -59q-27 -19 -69 -19q-44 0 -71 20q-29 21 -38 58l52 19q5 -21 18 -32q14 -13 39 -13q19 0 35 10q18 14 22 35zM231 327q0 82 -48 82q-32 0 -53 -37q-20 -36 -31 -113.5t-11 -134.5q0 -85 48 -85q19 0 32.5 9.5t21.5 27.5t11.5 32t7.5 34 q22 112 22 185zM300 447l-55 -447h-55l4 36q-38 -43 -81 -43q-82 0 -82 120q0 70 13 157.5t39 130.5q33 53 93 53q41 0 65 -37l4 30h55z"/>
<glyph glyph-name="uni04D2" horiz-adv-x="320" unicode="Ӓ" d="M197 769q0 -19 -14.5 -34t-34.5 -15q-16 0 -26.5 11.5t-10.5 27.5q0 19 14.5 33.5t33.5 14.5q17 0 27.5 -10.5t10.5 -27.5zM323 769q0 -19 -14.5 -34t-34.5 -15q-16 0 -26.5 11.5t-10.5 27.5q0 19 14.5 33.5t33.5 14.5q17 0 27.5 -10.5t10.5 -27.5zM215 191l-14 235 q-3 41 -3 80q0 38 3 77q-8 -47 -22 -103t-24 -91t-31 -104.5t-28 -93.5h119zM291 0h-65l-8 137h-139l-41 -137h-65l211 667h58z"/>
<glyph glyph-name="uni04D3" horiz-adv-x="322" unicode="ӓ" d="M184 562q0 -20 -15 -34.5t-34 -14.5q-16 0 -26.5 11.5t-10.5 27.5q0 19 14.5 33.5t33.5 14.5q16 0 27 -11t11 -27zM310 562q0 -20 -15 -34.5t-34 -14.5q-16 0 -26.5 11.5t-10.5 27.5q0 19 14.5 33.5t33.5 14.5q16 0 27 -11t11 -27zM231 327q0 82 -48 82q-32 0 -53 -37 q-20 -36 -31 -113.5t-11 -134.5q0 -85 48 -85q19 0 32.5 9.5t21.5 27.5t11.5 32t7.5 34q22 112 22 185zM300 447l-55 -447h-55l4 36q-38 -43 -81 -43q-82 0 -82 120q0 70 13 157.5t39 130.5q33 53 93 53q41 0 65 -37l4 30h55z"/>
<glyph glyph-name="uni04D4" horiz-adv-x="455" unicode="Ӕ" d="M225 190l-12 282q-1 14 -1 41q0 13 0.5 41t0.5 41q-16 -64 -33 -122l-85 -283h130zM436 0h-204l-5 137h-149l-40 -137h-65l211 667h219l3 -57h-141l13 -235h133l3 -57h-133l15 -261h138z"/>
<glyph glyph-name="uni04D5" d="M214 167q0 85 -57 85q-43 0 -62.5 -40.5t-19.5 -89.5q0 -76 56 -76q41 0 62 38t21 83zM280 261h136q0 4 1 12t1.5 14t0.5 12q0 23 -3.5 43.5t-17 40t-35.5 19.5q-36 0 -57.5 -47.5t-25.5 -93.5zM76 366l7 62q42 26 83 26q80 0 105 -75q15 31 42.5 53t59.5 22 q38 0 61.5 -28t30.5 -61t7 -71q0 -26 -6 -80h-194q-4 -36 -4 -53q0 -116 60 -116q55 0 72 110h52q-10 -64 -44.5 -113t-91.5 -49q-59 0 -84 74q-18 -33 -48.5 -53.5t-66.5 -20.5q-51 0 -73.5 35t-22.5 89q0 43 12.5 82.5t43.5 69t75 29.5q49 0 74 -37q4 32 4 49 q0 39 -17.5 65.5t-55.5 26.5q-33 0 -81 -36z" unicode="ӕ"/>
<glyph glyph-name="uni04D6" horiz-adv-x="297" unicode="Ӗ" d="M303 808l54 -21q-17 -43 -51 -64q-31 -19 -78 -19t-76 20q-33 23 -46 63l54 21q7 -25 26 -39q17 -12 47 -12q29 0 45 13q18 15 25 38zM313 667l-7 -57h-144l-29 -235h140l-6 -57h-141l-32 -261h144l-7 -57h-205l82 667h205z"/>
<glyph glyph-name="uni04D7" horiz-adv-x="308" unicode="ӗ" d="M247 597l53 -19q-13 -39 -41 -59q-27 -19 -69 -19q-44 0 -71 20q-29 21 -38 58l52 19q5 -21 18 -32q14 -13 39 -13q19 0 35 10q18 14 22 35zM94 260h131q2 32 2 51q0 91 -47 91q-63 0 -86 -142zM207 152h56q-10 -66 -41 -112.5t-90 -46.5q-104 0 -104 160q0 66 13 124 q8 41 24 78t48 68t72 31q96 0 96 -155q0 -41 -8 -87h-185q-5 -33 -5 -59q0 -107 54 -107q18 0 31 10t20.5 29.5t11 33t7.5 33.5z"/>
<glyph glyph-name="uni04D8" horiz-adv-x="387" unicode="Ә" d="M290 295h-172q-15 -85 -15 -144q0 -50 18 -75t48 -25q31 0 52 18q29 24 46 94q12 48 23 132zM63 352h235q10 63 10 124q0 77 -20 108q-20 32 -57 32q-33 0 -54 -24q-24 -25 -35 -71l-58 24q21 60 58 96q36 35 92 35q69 0 105 -53q32 -47 32 -138q0 -55 -11 -150t-26 -156 q-26 -109 -74 -152q-40 -36 -99 -36q-55 0 -84 33q-35 38 -35 125q0 67 21 203z"/>
<glyph glyph-name="afii10846" horiz-adv-x="314" unicode="ә" d="M218 187h-133q-1 -9 -1 -33q0 -72 18 -94q11 -15 31 -15t36 15t28 46.5t16 50t5 30.5zM36 235h189q5 32 5 70q0 58 -20 80q-15 16 -36 16q-24 0 -40 -17q-25 -25 -38 -78l-53 22q14 56 52 93q34 33 85 33q46 0 73 -27q33 -33 33 -115q0 -85 -17 -160q-18 -82 -59 -124 q-35 -35 -81 -35q-37 0 -63 25q-38 37 -38 128q0 41 8 89z"/>
<glyph glyph-name="uni04DA" horiz-adv-x="387" unicode="Ӛ" d="M227 769q0 -19 -14.5 -34t-34.5 -15q-16 0 -26.5 11.5t-10.5 27.5q0 19 14.5 33.5t33.5 14.5q17 0 27.5 -10.5t10.5 -27.5zM353 769q0 -19 -14.5 -34t-34.5 -15q-16 0 -26.5 11.5t-10.5 27.5q0 19 14.5 33.5t33.5 14.5q17 0 27.5 -10.5t10.5 -27.5zM290 295h-172 q-15 -85 -15 -144q0 -50 18 -75t48 -25q31 0 52 18q29 24 46 94q12 48 23 132zM63 352h235q10 63 10 124q0 77 -20 108q-20 32 -57 32q-33 0 -54 -24q-24 -25 -35 -71l-58 24q21 60 58 96q36 35 92 35q69 0 105 -53q32 -47 32 -138q0 -55 -11 -150t-26 -156 q-26 -109 -74 -152q-40 -36 -99 -36q-55 0 -84 33q-35 38 -35 125q0 67 21 203z"/>
<glyph glyph-name="uni04DB" horiz-adv-x="314" unicode="ӛ" d="M173 562q0 -20 -14.5 -34.5t-34.5 -14.5q-16 0 -26.5 11.5t-10.5 27.5q0 19 14.5 33.5t33.5 14.5q17 0 27.5 -11t10.5 -27zM299 562q0 -20 -14.5 -34.5t-34.5 -14.5q-16 0 -26.5 11.5t-10.5 27.5q0 19 14.5 33.5t33.5 14.5q17 0 27.5 -11t10.5 -27zM218 187h-133 q-1 -9 -1 -33q0 -72 18 -94q11 -15 31 -15t36 15t28 46.5t16 50t5 30.5zM36 235h189q5 32 5 70q0 58 -20 80q-15 16 -36 16q-24 0 -40 -17q-25 -25 -38 -78l-53 22q14 56 52 93q34 33 85 33q46 0 73 -27q33 -33 33 -115q0 -85 -17 -160q-18 -82 -59 -124q-35 -35 -81 -35 q-37 0 -63 25q-38 37 -38 128q0 41 8 89z"/>
<glyph glyph-name="uni04DC" horiz-adv-x="459" unicode="Ӝ" d="M267 769q0 -19 -14.5 -34t-34.5 -15q-16 0 -26.5 11.5t-10.5 27.5q0 19 14.5 33.5t33.5 14.5q17 0 27.5 -10.5t10.5 -27.5zM393 769q0 -19 -14.5 -34t-34.5 -15q-16 0 -26.5 11.5t-10.5 27.5q0 19 14.5 33.5t33.5 14.5q17 0 27.5 -10.5t10.5 -27.5zM426 0h-64l-91 336 l-41 -336h-62l41 336l-175 -336h-64l187 355l-100 312h64l92 -303l37 303h62l-37 -303l165 303h64l-178 -318z"/>
<glyph glyph-name="uni04DD" horiz-adv-x="426" unicode="ӝ" d="M233 562q0 -20 -14.5 -34.5t-34.5 -14.5q-16 0 -26.5 11.5t-10.5 27.5q0 19 14.5 33.5t33.5 14.5q17 0 27.5 -11t10.5 -27zM359 562q0 -20 -14.5 -34.5t-34.5 -14.5q-16 0 -26.5 11.5t-10.5 27.5q0 19 14.5 33.5t33.5 14.5q17 0 27.5 -11t10.5 -27zM395 0h-64l-92 205 l-26 -205h-54l25 205l-139 -205h-65l161 235l-105 212h62l91 -195l25 195h54l-24 -195l139 195h63l-158 -216z"/>
<glyph glyph-name="uni04DE" horiz-adv-x="360" unicode="Ӟ" d="M197 769q0 -19 -14.5 -34t-34.5 -15q-16 0 -26.5 11.5t-10.5 27.5q0 19 14.5 33.5t33.5 14.5q17 0 27.5 -10.5t10.5 -27.5zM323 769q0 -19 -14.5 -34t-34.5 -15q-16 0 -26.5 11.5t-10.5 27.5q0 19 14.5 33.5t33.5 14.5q17 0 27.5 -10.5t10.5 -27.5zM132 371h18 q50 0 77 18q47 31 47 117q0 51 -23 79q-24 29 -69 29q-32 0 -60 -19q-23 -15 -40 -38l11 86q42 33 101 33q65 0 103 -36q43 -41 43 -121q0 -99 -48 -143q-21 -19 -51 -30q33 -11 54 -35q31 -35 31 -90q0 -111 -69 -179q-51 -51 -129 -51q-69 0 -118 43l10 86q20 -30 44 -47 q27 -20 64 -20q44 0 76 26q26 22 39.5 59t13.5 73q0 51 -30 79q-26 24 -85 24h-17z"/>
<glyph glyph-name="uni04DF" horiz-adv-x="291" unicode="ӟ" d="M147 562q0 -20 -14.5 -34.5t-34.5 -14.5q-16 0 -26.5 11.5t-10.5 27.5q0 19 14.5 33.5t33.5 14.5q17 0 27.5 -11t10.5 -27zM273 562q0 -20 -14.5 -34.5t-34.5 -14.5q-16 0 -26.5 11.5t-10.5 27.5q0 19 14.5 33.5t33.5 14.5q17 0 27.5 -11t10.5 -27zM185 232q25 -5 43 -23 q25 -25 25 -68q0 -68 -43 -111q-37 -37 -98 -37q-68 0 -102 38l9 71q15 -26 37 -40t48 -14q38 0 60 24q23 26 23 65q0 35 -25 53q-18 13 -55 13h-18l7 54h9q53 0 76 22q21 21 21 54q0 29 -20 49q-17 17 -48 17q-28 0 -50 -16t-35 -34l9 75q40 30 87 30q58 0 88 -30t30 -82 q0 -47 -21 -74q-21 -26 -57 -36z"/>
<glyph glyph-name="uni04E2" horiz-adv-x="392" unicode="Ӣ" d="M370 782l-7 -55h-221l6 55h222zM26 0l82 667h62l-55 -444q-5 -40 -17 -87q9 21 16.5 40t11 27t6.5 14l198 450h62l-82 -667h-62l53 426q7 56 19 105q-17 -44 -39 -94l-193 -437h-62z"/>
<glyph glyph-name="uni04E3" horiz-adv-x="331" unicode="ӣ" d="M321 575l-7 -55h-221l6 55h222zM254 0h-56l33 274q3 31 10 62q-13 -37 -29 -67l-135 -269h-56l55 447h56l-33 -271q-4 -39 -12 -69q18 42 30 66l136 274h56z"/>
<glyph glyph-name="uni04E4" horiz-adv-x="392" unicode="Ӥ" d="M247 769q0 -19 -14.5 -34t-34.5 -15q-16 0 -26.5 11.5t-10.5 27.5q0 19 14.5 33.5t33.5 14.5q17 0 27.5 -10.5t10.5 -27.5zM373 769q0 -19 -14.5 -34t-34.5 -15q-16 0 -26.5 11.5t-10.5 27.5q0 19 14.5 33.5t33.5 14.5q17 0 27.5 -10.5t10.5 -27.5zM26 0l82 667h62 l-55 -444q-5 -40 -17 -87q9 21 16.5 40t11 27t6.5 14l198 450h62l-82 -667h-62l53 426q7 56 19 105q-17 -44 -39 -94l-193 -437h-62z"/>
<glyph glyph-name="uni04E5" horiz-adv-x="331" unicode="ӥ" d="M188 562q0 -20 -15 -34.5t-34 -14.5q-16 0 -26.5 11.5t-10.5 27.5q0 19 14.5 33.5t33.5 14.5q16 0 27 -11t11 -27zM314 562q0 -20 -15 -34.5t-34 -14.5q-16 0 -26.5 11.5t-10.5 27.5q0 19 14.5 33.5t33.5 14.5q16 0 27 -11t11 -27zM254 0h-56l33 274q3 31 10 62 q-13 -37 -29 -67l-135 -269h-56l55 447h56l-33 -271q-4 -39 -12 -69q18 42 30 66l136 274h56z"/>
<glyph glyph-name="uni04E6" horiz-adv-x="398" unicode="Ӧ" d="M242 769q0 -19 -15 -34t-34 -15q-16 0 -26.5 11.5t-10.5 27.5q0 19 14.5 33.5t33.5 14.5q16 0 27 -10.5t11 -27.5zM368 769q0 -19 -15 -34t-34 -15q-16 0 -26.5 11.5t-10.5 27.5q0 19 14.5 33.5t33.5 14.5q16 0 27 -10.5t11 -27.5zM321 482q0 134 -73 134q-46 0 -76 -52 q-34 -57 -51 -169t-17 -204q0 -140 73 -140q50 0 81 58q29 54 46 171t17 202zM382 477q0 -192 -47 -330q-51 -156 -165 -156q-128 0 -128 215q0 47 4.5 99.5t18.5 121t36 122t62 90.5t91 37q128 0 128 -199z"/>
<glyph glyph-name="uni04E7" horiz-adv-x="318" unicode="ӧ" d="M182 562q0 -20 -15 -34.5t-34 -14.5q-16 0 -26.5 11.5t-10.5 27.5q0 19 14.5 33.5t33.5 14.5q16 0 27 -11t11 -27zM308 562q0 -20 -15 -34.5t-34 -14.5q-16 0 -26.5 11.5t-10.5 27.5q0 19 14.5 33.5t33.5 14.5q16 0 27 -11t11 -27zM232 298q0 104 -50 104 q-29 0 -49.5 -30.5t-30 -76.5t-13.5 -83t-4 -65q0 -101 53 -101q28 0 48 30t29 75.5t13 82t4 64.5zM290 328v-17q0 -47 -6 -93.5t-21 -101.5t-48.5 -89t-81.5 -34q-105 0 -105 162q0 43 7 89.5t23.5 96t50.5 81.5t80 32q51 0 76 -36.5t25 -89.5z"/>
<glyph glyph-name="uni04E8" horiz-adv-x="398" unicode="Ө" d="M309 316h-199q-6 -54 -6 -113q0 -99 28 -131q18 -21 45 -21q34 0 60 27q53 54 72 238zM117 373h198q6 68 6 109q0 88 -31 118q-19 16 -42 16q-32 0 -56 -24q-26 -24 -46 -89.5t-29 -129.5zM257 676q49 0 80 -33q45 -47 45 -174q0 -103 -20 -215q-27 -156 -87 -218 q-44 -45 -105 -45q-49 0 -81 32q-47 49 -47 183q0 127 26 238q30 132 87 189q43 43 102 43z"/>
<glyph glyph-name="uni04E9" horiz-adv-x="318" unicode="ө" d="M224 201h-136q-3 -30 -3 -55q0 -60 21 -85q13 -15 32 -15q20 0 38 18q18 19 31 60t17 77zM95 254h135q2 24 2 52q0 60 -18 80q-12 16 -32 16q-23 0 -40 -19q-18 -19 -30.5 -58t-16.5 -71zM189 454q41 0 66 -25q35 -35 35 -121q0 -82 -17 -156q-18 -82 -59 -124 q-33 -35 -81 -35q-42 0 -67 25q-38 38 -38 137q0 72 18 143q20 79 59 119q35 37 84 37z"/>
<glyph glyph-name="uni04EA" horiz-adv-x="398" unicode="Ӫ" d="M242 769q0 -19 -15 -34t-34 -15q-16 0 -26.5 11.5t-10.5 27.5q0 19 14.5 33.5t33.5 14.5q16 0 27 -10.5t11 -27.5zM368 769q0 -19 -15 -34t-34 -15q-16 0 -26.5 11.5t-10.5 27.5q0 19 14.5 33.5t33.5 14.5q16 0 27 -10.5t11 -27.5zM309 316h-199q-6 -54 -6 -113 q0 -99 28 -131q18 -21 45 -21q34 0 60 27q53 54 72 238zM117 373h198q6 68 6 109q0 88 -31 118q-19 16 -42 16q-32 0 -56 -24q-26 -24 -46 -89.5t-29 -129.5zM257 676q49 0 80 -33q45 -47 45 -174q0 -103 -20 -215q-27 -156 -87 -218q-44 -45 -105 -45q-49 0 -81 32 q-47 49 -47 183q0 127 26 238q30 132 87 189q43 43 102 43z"/>
<glyph glyph-name="uni04EB" horiz-adv-x="318" unicode="ӫ" d="M182 562q0 -20 -15 -34.5t-34 -14.5q-16 0 -26.5 11.5t-10.5 27.5q0 19 14.5 33.5t33.5 14.5q16 0 27 -11t11 -27zM308 562q0 -20 -15 -34.5t-34 -14.5q-16 0 -26.5 11.5t-10.5 27.5q0 19 14.5 33.5t33.5 14.5q16 0 27 -11t11 -27zM224 201h-136q-3 -30 -3 -55 q0 -60 21 -85q13 -15 32 -15q20 0 38 18q18 19 31 60t17 77zM95 254h135q2 24 2 52q0 60 -18 80q-12 16 -32 16q-23 0 -40 -19q-18 -19 -30.5 -58t-16.5 -71zM189 454q41 0 66 -25q35 -35 35 -121q0 -82 -17 -156q-18 -82 -59 -124q-33 -35 -81 -35q-42 0 -67 25 q-38 38 -38 137q0 72 18 143q20 79 59 119q35 37 84 37z"/>
<glyph glyph-name="uni04EE" horiz-adv-x="331" unicode="Ӯ" d="M345 782l-7 -55h-221l6 55h222zM55 667h68l42 -205q18 -87 25 -154q16 64 55 163l76 196h62l-249 -667h-60l78 221z"/>
<glyph glyph-name="uni04EF" horiz-adv-x="291" unicode="ӯ" d="M295 575l-7 -55h-221l6 55h222zM312 447l-232 -627h-59l71 192l-52 435h57l25 -248q6 -55 6 -112q6 20 35 103l91 257h58z"/>
<glyph glyph-name="uni04F0" horiz-adv-x="331" unicode="Ӱ" d="M217 769q0 -19 -14.5 -34t-34.5 -15q-16 0 -26.5 11.5t-10.5 27.5q0 19 14.5 33.5t33.5 14.5q17 0 27.5 -10.5t10.5 -27.5zM343 769q0 -19 -14.5 -34t-34.5 -15q-16 0 -26.5 11.5t-10.5 27.5q0 19 14.5 33.5t33.5 14.5q17 0 27.5 -10.5t10.5 -27.5zM55 667h68l42 -205 q18 -87 25 -154q16 64 55 163l76 196h62l-249 -667h-60l78 221z"/>
<glyph glyph-name="uni04F1" horiz-adv-x="291" unicode="ӱ" d="M161 562q0 -20 -14.5 -34.5t-34.5 -14.5q-16 0 -26.5 11.5t-10.5 27.5q0 19 14.5 33.5t33.5 14.5q17 0 27.5 -11t10.5 -27zM287 562q0 -20 -14.5 -34.5t-34.5 -14.5q-16 0 -26.5 11.5t-10.5 27.5q0 19 14.5 33.5t33.5 14.5q17 0 27.5 -11t10.5 -27zM312 447l-232 -627 h-59l71 192l-52 435h57l25 -248q6 -55 6 -112q6 20 35 103l91 257h58z"/>
<glyph glyph-name="uni04F2" horiz-adv-x="331" unicode="Ӳ" d="M255 830l-83 -116l-35 13l65 125zM356 830l-83 -116l-35 13l65 125zM55 667h68l42 -205q18 -87 25 -154q16 64 55 163l76 196h62l-249 -667h-60l78 221z"/>
<glyph glyph-name="uni04F3" horiz-adv-x="291" unicode="ӳ" d="M210 623l-83 -116l-35 13l65 125zM311 623l-83 -116l-35 13l65 125zM312 447l-232 -627h-59l71 192l-52 435h57l25 -248q6 -55 6 -112q6 20 35 103l91 257h58z"/>
<glyph glyph-name="uni04F4" horiz-adv-x="369" unicode="Ӵ" d="M222 769q0 -19 -15 -34t-34 -15q-16 0 -26.5 11.5t-10.5 27.5q0 19 14.5 33.5t33.5 14.5q16 0 27 -10.5t11 -27.5zM348 769q0 -19 -15 -34t-34 -15q-16 0 -26.5 11.5t-10.5 27.5q0 19 14.5 33.5t33.5 14.5q16 0 27 -10.5t11 -27.5zM369 667l-82 -667h-62l41 338 q-31 -10 -70 -10q-55 0 -86 22q-40 29 -40 85q0 26 6 71l20 161h63l-20 -164q-5 -37 -5 -50q0 -34 19 -50q18 -15 54 -15t67 12l33 267h62z"/>
<glyph glyph-name="uni04F5" horiz-adv-x="294" unicode="ӵ" d="M157 562q0 -20 -14.5 -34.5t-34.5 -14.5q-16 0 -26.5 11.5t-10.5 27.5q0 19 14.5 33.5t33.5 14.5q17 0 27.5 -11t10.5 -27zM283 562q0 -20 -14.5 -34.5t-34.5 -14.5q-16 0 -26.5 11.5t-10.5 27.5q0 19 14.5 33.5t33.5 14.5q17 0 27.5 -11t10.5 -27zM163 0l26 211 q-30 -9 -59 -9q-50 0 -75 21t-25 63q0 10 4 48l13 113h57l-14 -113q0 -3 -1.5 -15t-1.5 -18q0 -26 15 -36q13 -10 43 -10q26 0 50 10l23 182h56l-55 -447h-56z"/>
<glyph glyph-name="uni04F8" horiz-adv-x="482" unicode="Ӹ" d="M287 769q0 -19 -14.5 -34t-34.5 -15q-16 0 -26.5 11.5t-10.5 27.5q0 19 14.5 33.5t33.5 14.5q17 0 27.5 -10.5t10.5 -27.5zM413 769q0 -19 -14.5 -34t-34.5 -15q-16 0 -26.5 11.5t-10.5 27.5q0 19 14.5 33.5t33.5 14.5q17 0 27.5 -10.5t10.5 -27.5zM95 53h33q48 0 75 23 q46 39 46 148q0 53 -26 77q-22 20 -73 20h-23zM134 378h28q74 0 113 -39q37 -37 37 -111q0 -139 -65 -193q-41 -35 -112 -35h-109l82 667h62zM400 0h-62l82 667h62z"/>
<glyph glyph-name="uni04F9" horiz-adv-x="422" unicode="ӹ" d="M235 562q0 -20 -14.5 -34.5t-34.5 -14.5q-16 0 -26.5 11.5t-10.5 27.5q0 19 14.5 33.5t33.5 14.5q17 0 27.5 -11t10.5 -27zM361 562q0 -20 -14.5 -34.5t-34.5 -14.5q-16 0 -26.5 11.5t-10.5 27.5q0 19 14.5 33.5t33.5 14.5q17 0 27.5 -11t10.5 -27zM84 52h29q43 0 65 21 q26 26 26 77q0 35 -18 53q-18 17 -56 17h-6h-20zM21 0l55 447h56l-21 -175h13q79 0 111 -34q28 -30 28 -84q0 -78 -42 -118q-38 -36 -121 -36h-79zM347 0h-56l55 447h56z"/>
<glyph glyph-name="endash" horiz-adv-x="574" unicode="–" d="M505 237h-434l6 50h434z"/>
<glyph glyph-name="emdash" horiz-adv-x="820" unicode="—" d="M757 287l-6 -50h-680l6 50h680z"/>
<glyph glyph-name="quoteleft" horiz-adv-x="201" unicode="‘" d="M221 655l-93 -205l-58 29l111 197z"/>
<glyph glyph-name="quotesinglbase" horiz-adv-x="201" unicode="‚" d="M141 55l-111 -197l-40 20l93 205z"/>
<glyph glyph-name="quotedblleft" horiz-adv-x="318" unicode="“" d="M221 655l-93 -205l-58 29l111 197zM337 655l-93 -205l-58 29l112 197z"/>
<glyph glyph-name="quotedblright" horiz-adv-x="318" unicode="”" d="M220 647l-111 -197l-40 20l93 206zM336 647l-111 -197l-40 20l93 206z"/>
<glyph glyph-name="dagger" horiz-adv-x="365" unicode="†" d="M337 473h-93l-79 -646h-53l79 646h-94l6 46h94l26 210h53l-26 -210h93z"/>
<glyph glyph-name="daggerdbl" horiz-adv-x="370" unicode="‡" d="M300 136h-93l-38 -309h-53l38 309h-94l5 47h94l36 290h-94l6 46h94l26 210h53l-26 -210h93l-6 -46h-93l-36 -290h93z"/>
<glyph glyph-name="ellipsis" horiz-adv-x="483" unicode="…" d="M102 44q0 -20 -15 -35.5t-35 -15.5q-39 0 -39 45q0 17 16 31t34 14q17 0 28 -11.5t11 -27.5zM263 44q0 -20 -15 -35.5t-35 -15.5q-17 0 -28.5 11.5t-11.5 28.5q0 19 15.5 34.5t35.5 15.5q16 0 27.5 -11.5t11.5 -27.5zM424 44q0 -20 -15 -35.5t-35 -15.5q-17 0 -28.5 11.5 t-11.5 28.5q0 3 1 5q4 18 17.5 31.5t31.5 13.5q17 0 28.5 -11t11.5 -28z"/>
<glyph glyph-name="perthousand" horiz-adv-x="743" unicode="‰" d="M702 242q0 -51 -11 -115q-13 -80 -40 -109q-23 -23 -59 -23t-55 20q-21 23 -21 74q0 50 14 127q12 73 39 98q25 23 62 23q31 0 50 -19q21 -21 21 -76zM623 295q-13 0 -23 -10q-14 -13 -27 -93q-11 -69 -11 -101q0 -27 7 -40q8 -14 26 -14t29 17q14 21 24 94q9 63 9 103 q0 24 -9 34q-8 10 -25 10zM468 242q0 -51 -11 -115q-13 -80 -40 -109q-23 -23 -59 -23t-55 20q-21 23 -21 74q0 50 14 127q12 73 39 98q25 23 62 23q31 0 50 -19q21 -21 21 -76zM392 295q-16 0 -26 -10q-14 -13 -27 -93q-11 -69 -11 -101q0 -27 7 -40q8 -14 26 -14t29 17 q14 21 24 94q9 63 9 103q0 24 -9 34q-8 10 -22 10zM249 576q0 -51 -11 -115q-13 -80 -40 -109q-23 -23 -59 -23t-55 20q-21 23 -21 74q0 50 14 127q12 73 39 98q25 23 62 23q31 0 50 -19q21 -21 21 -76zM173 629q-16 0 -26 -10q-14 -13 -27 -93q-11 -69 -11 -101 q0 -27 7 -40q8 -14 26 -14t29 17q14 22 24 94q9 63 9 103q0 24 -9 34q-8 10 -22 10zM477 667l-371 -667h-46l371 667h46z"/>
<glyph glyph-name="guilsinglleft" horiz-adv-x="210" unicode="‹" d="M199 404l-114 -167l72 -171l-40 -23l-83 194l130 188z"/>
<glyph glyph-name="guilsinglright" horiz-adv-x="210" unicode="›" d="M178 237l-130 -194l-35 23l114 171l-73 167l41 21z"/>
<glyph glyph-name="fraction" horiz-adv-x="125" unicode="⁄" d="M284 667l-371 -667h-46l371 667h46z"/>
<glyph glyph-name="Euro" horiz-adv-x="366" unicode="€" d="M414 655l-8 -68q-41 29 -73 29q-99 0 -141 -187h148l-31 -57h-127q-6 -42 -8 -67h90l-31 -56h-63v-38q0 -160 88 -160q37 0 85 30l-7 -62q-44 -28 -89 -28q-54 0 -87.5 36t-44 80.5t-10.5 97.5q0 29 1 44h-82l31 56h55q7 48 10 67h-88l31 57h68q59 247 206 247 q47 0 77 -21z"/>
<glyph glyph-name="trademark" horiz-adv-x="448" unicode="™" d="M216 667l-5 -39h-55l-42 -341h-41l42 341h-55l5 39h151zM435 667l-1 -380h-41l5 260l-77 -260h-33l-10 256l-63 -256h-41l100 380h35l9 -281l82 281h35z"/>
<glyph glyph-name="partialdiff" horiz-adv-x="494" unicode="∂" d="M394 215q0 72 -42 120.5t-112 48.5q-69 0 -115 -52.5t-46 -122.5q0 -69 45.5 -120.5t113.5 -51.5q70 0 113 53t43 125zM80 614l7 49q77 -12 132.5 -34.5t103.5 -69.5q63 -59 96 -145.5t33 -177.5q0 -104 -56.5 -175.5t-157.5 -71.5q-90 0 -152 66t-62 156t59.5 154.5 t147.5 64.5q95 0 152 -82q-16 49 -32 79q-54 111 -179 164q-35 14 -92 23z"/>
<glyph glyph-name="product" horiz-adv-x="688" unicode="∏" d="M655 -250h-216v50h83v900h-350v-900h82v-50h-216v50h78v900h-78v50h617v-50h-77v-900h77v-50z"/>
<glyph glyph-name="summation" horiz-adv-x="667" unicode="∑" d="M604 -250h-571v57l250 464l-250 423v56h561v-220h-51l-4 170h-444l253 -430l-255 -470h456l2 169h53v-219z"/>
<glyph glyph-name="minus" horiz-adv-x="501" unicode="−" d="M480 305h-434v53h434v-53z"/>
<glyph glyph-name="radical" horiz-adv-x="667" unicode="√" d="M708 777h-201l-232 -777h-64l-90 308h-79v50h124l43 -141q8 -25 18.5 -72t14.5 -63h4q5 22 23 89q2 6 11.5 44.5t15.5 58.5q8 30 25.5 85.5t24.5 80.5l114 387h248v-50z"/>
<glyph glyph-name="infinity" horiz-adv-x="667" unicode="∞" d="M319 340q-30 46 -61 73.5t-73 27.5q-43 0 -69.5 -29t-26.5 -72t26.5 -72t69.5 -29q30 0 57 17.5t41.5 35t35.5 48.5zM605 340q0 43 -26.5 72t-69.5 29q-70 0 -134 -101q30 -46 61 -73.5t73 -27.5q43 0 69.5 28.5t26.5 72.5zM661 339q0 -65 -40.5 -107t-105.5 -42 q-54 0 -93 29.5t-74 82.5q-76 -112 -167 -112q-66 0 -107 42.5t-41 109.5q0 65 42 107t106 42q91 0 165 -113q35 54 74.5 83.5t94.5 29.5q66 0 106 -43t40 -109z"/>
<glyph glyph-name="approxequal" d="M467 321l35 -21q-53 -106 -137 -106q-38 0 -109.5 35.5t-102.5 35.5q-54 0 -95 -76l-34 22q53 108 132 108q39 0 111 -35.5t104 -35.5q33 0 54.5 19t41.5 54zM467 477l35 -21q-53 -106 -137 -106q-37 0 -109.5 35.5t-102.5 35.5q-54 0 -95 -76l-34 22q53 108 133 108 q38 0 109.5 -35.5t104.5 -35.5t54.5 19t41.5 54z" unicode="≈"/>
<glyph glyph-name="notequal" d="M480 235h-238l-56 -119h-47l56 119h-148v50h171l47 99h-219v51h242l55 114h47l-54 -114h143v-51h-166l-48 -99h215v-50z" unicode="≠"/>
<glyph glyph-name="lessequal" d="M467 71h-433v50h433v-50zM467 151l-433 193v49l433 193v-53l-374 -165l374 -164v-53z" unicode="≤"/>
<glyph glyph-name="greaterequal" d="M479 71h-433v50h433v-50zM479 344l-433 -193v53l373 165l-373 164v53l433 -193v-49z" unicode="≥"/>
<glyph glyph-name="dotmath" horiz-adv-x="201" unicode="⋅" d="M173 351q0 -26 -19.5 -46t-45.5 -20q-25 0 -38 16t-13 42q0 23 21 41t44 18q22 0 36.5 -14.5t14.5 -36.5z"/>
<glyph glyph-name="lozenge" horiz-adv-x="667" unicode="◊" d="M542 334l-196 269l-196 -269l196 -270zM606 334l-260 -360l-259 360l259 359z"/>
</font>
</defs>
</svg>
