<?xml version="1.0" encoding="UTF-8" standalone="no"?>
<!DOCTYPE svg  PUBLIC '-//W3C//DTD SVG 1.1//EN'  'http://www.w3.org/Graphics/SVG/1.1/DTD/svg11.dtd'>
<svg xmlns="http://www.w3.org/2000/svg">
<defs>
<font id="FuturaNewCondExtraBold-Obl" horiz-adv-x="500">
<font-face slope="-12" underline-position="-50" font-weight="800" descent="-200" panose-1="2 11 10 6 2 2 4 9 2 3" units-per-em="1000" unicode-range="U+0020-25CA" bbox="-186 -250 1024 906" x-height="467" underline-thickness="50" font-family="FuturaNewCondExtraBold" ascent="800" font-style="italic" cap-height="667"/>
<missing-glyph horiz-adv-x="1000"/>
<glyph glyph-name=".notdef" horiz-adv-x="1000"/>
<glyph glyph-name=".null" horiz-adv-x="0"/>
<glyph glyph-name="nonmarkingreturn" horiz-adv-x="333"/>
<glyph glyph-name="space" horiz-adv-x="233" unicode=" "/>
<glyph glyph-name="exclam" horiz-adv-x="314" unicode="!" d="M242 103q0 -44 -34.5 -78.5t-78.5 -34.5q-38 0 -62.5 25.5t-24.5 63.5q0 45 33.5 79.5t78.5 34.5q39 0 63.5 -25.5t24.5 -64.5zM303 690l-54 -450h-173l54 450h173z"/>
<glyph glyph-name="quotedbl" horiz-adv-x="413" unicode='&quot;' d="M234 667l-24 -268h-96l-24 268h144zM422 667l-25 -268h-95l-24 268h144z"/>
<glyph glyph-name="numbersign" horiz-adv-x="600" unicode="#" d="M374 382h-85l-23 -83h84zM639 498l-32 -116h-100l-23 -83h101l-32 -117h-102l-51 -182h-134l52 182h-84l-52 -182h-132l52 182h-102l33 117h101l23 83h-100l32 116h101l48 169h131l-47 -169h84l48 169h133l-48 -169h100z"/>
<glyph glyph-name="dollar" horiz-adv-x="532" unicode="$" d="M472 642l-24 -202q-45 71 -99 71q-20 0 -34.5 -12.5t-14.5 -31.5q0 -15 14 -30.5t34.5 -32t41 -36.5t34.5 -53t14 -72q0 -94 -62 -169q-33 -38 -90 -67l-12 -101h-84l10 85q-43 2 -68.5 7.5t-62.5 22.5l26 208q16 -33 43.5 -54t60.5 -21q23 0 40.5 13t17.5 36 q0 18 -21.5 41.5t-46.5 45t-46.5 59t-21.5 80.5q0 105 72 180q45 47 98 65l11 93h84l-10 -88q47 -10 96 -37z"/>
<glyph glyph-name="percent" horiz-adv-x="713" unicode="%" d="M576 191q0 48 -20 48t-28 -32t-8 -66q0 -49 21 -49q19 0 27 33t8 66zM692 189q0 -78 -44.5 -136t-115.5 -58q-61 0 -94.5 38t-33.5 105q0 85 44 142t122 57q61 0 91.5 -40t30.5 -108zM599 667l-370 -667h-92l372 667h90zM219 533q0 48 -20 48t-28 -32t-8 -66 q0 -49 21 -49q19 0 27 33t8 66zM335 531q0 -78 -44.5 -136t-115.5 -58q-61 0 -94.5 38t-33.5 105q0 85 44 142t122 57q61 0 91.5 -40t30.5 -108z"/>
<glyph glyph-name="ampersand" horiz-adv-x="620" unicode="&amp;" d="M295 160l-54 87q-38 -21 -38 -57q0 -20 12.5 -33.5t32.5 -13.5q23 0 47 17zM369 511q0 14 -9 22.5t-23 8.5q-17 0 -29 -12t-12 -29t23 -61q50 40 50 71zM508 316l76 -122q-50 -48 -77 -70l76 -124h-192l-22 36q-76 -48 -153 -48t-129.5 52.5t-52.5 128.5q0 129 136 202 q-36 52 -36 111q0 80 62.5 138.5t143.5 58.5q73 0 125.5 -45t52.5 -117q0 -112 -134 -192l54 -86q39 39 70 77z"/>
<glyph glyph-name="quotesingle" horiz-adv-x="225" unicode="&apos;" d="M234 667l-24 -268h-96l-24 268h144z"/>
<glyph glyph-name="parenleft" horiz-adv-x="330" unicode="(" d="M231 737l119 -69q-153 -252 -153 -501q0 -170 54 -315l-136 -69q-73 172 -73 356q0 316 189 598z"/>
<glyph glyph-name="parenright" horiz-adv-x="330" unicode=")" d="M86 668l136 69q73 -167 73 -358q0 -315 -189 -596l-119 69q71 111 112.5 241.5t41.5 258.5q0 169 -55 316z"/>
<glyph glyph-name="asterisk" horiz-adv-x="525" unicode="*" d="M486 530l-108 -15l59 -93l-98 -55l-47 99l-69 -85l-82 77l79 76l-101 40l48 103l95 -52l7 110l111 -14l-20 -108l105 28z"/>
<glyph glyph-name="plus" d="M480 280h-151v-153h-130v153h-152v120h152v153h130v-153h151v-120z" unicode="+"/>
<glyph glyph-name="comma" horiz-adv-x="289" unicode="," d="M250 159l-154 -320h-140l120 320h174z"/>
<glyph glyph-name="hyphen" horiz-adv-x="317" unicode="-" d="M262 186h-217l16 134h217z"/>
<glyph glyph-name="period" horiz-adv-x="289" unicode="." d="M228 102q0 -44 -34 -78t-78 -34q-38 0 -63.5 26t-25.5 64q0 44 34 78t78 34q38 0 63.5 -26t25.5 -64z"/>
<glyph glyph-name="slash" horiz-adv-x="526" unicode="/" d="M565 729l-489 -945h-120l489 945h120z"/>
<glyph glyph-name="zero" horiz-adv-x="532" unicode="0" d="M343 436q0 87 -43 87q-26 0 -44 -37t-25.5 -93t-10.5 -96t-3 -71q0 -82 38 -82q35 0 56.5 66t26.5 123.5t5 102.5zM516 426q0 -95 -20 -178q-12 -50 -32.5 -93.5t-51 -82.5t-74 -61.5t-95.5 -22.5q-55 0 -95.5 22.5t-62.5 62t-32 84.5t-10 97q0 93 21 171 q27 106 93.5 180t165.5 74q53 0 91.5 -21.5t60 -58.5t31.5 -80t10 -93z"/>
<glyph glyph-name="one" horiz-adv-x="532" unicode="1" d="M438 667l-82 -667h-177l62 510h-71l19 157h249z"/>
<glyph glyph-name="two" horiz-adv-x="532" unicode="2" d="M260 425h-172q9 110 75.5 182t174.5 72q84 0 134.5 -51.5t50.5 -135.5q0 -51 -18 -100.5t-51.5 -93.5t-66.5 -78t-77 -72q37 3 165 5l-19 -153h-452l209 243q29 33 45.5 53.5t41.5 56.5t37.5 69t12.5 63q0 18 -9 32t-26 14q-49 0 -55 -106z"/>
<glyph glyph-name="three" horiz-adv-x="532" unicode="3" d="M257 477h-171q18 92 81.5 147t155.5 55q78 0 130.5 -47.5t52.5 -124.5q0 -66 -42 -117q-19 -24 -57 -45q71 -44 71 -131q0 -99 -74.5 -162.5t-174.5 -63.5q-82 0 -138 45t-56 125q0 7 2 20t2 18h173q-1 -6 -1 -18q0 -42 37 -42q26 0 41.5 22.5t15.5 49.5q0 60 -63 60 q-6 0 -16 -1t-16 -1l18 142q7 -1 21 -1q81 0 81 80q0 43 -31 43t-42 -53z"/>
<glyph glyph-name="four" horiz-adv-x="532" unicode="4" d="M183 279h98q25 165 31 200q-78 -134 -129 -200zM508 279l-17 -144h-56l-17 -135h-177l16 135h-238l17 141l247 391h217l-48 -388h56z"/>
<glyph glyph-name="five" horiz-adv-x="532" unicode="5" d="M514 667l-19 -157h-187l-24 -75q10 1 30 1q76 0 122.5 -50.5t46.5 -126.5q0 -113 -84 -192t-197 -79q-92 0 -174 52l40 158q73 -46 135 -46q40 0 70.5 22t30.5 61q0 66 -96 66q-56 0 -119 -23l98 389h327z"/>
<glyph glyph-name="six" horiz-adv-x="532" unicode="6" d="M320 254q0 23 -10.5 41t-31.5 18q-18 0 -31 -13t-19 -33.5t-8.5 -38.5t-2.5 -35q0 -61 39 -61q34 0 49 40t15 82zM456 667l-128 -190q-16 -24 -39 -52q34 18 64 18q67 0 102.5 -54.5t35.5 -124.5q0 -114 -73.5 -195t-186.5 -81q-90 0 -139 56t-49 148q0 36 12.5 81t26 79 t44 89t45 78.5t52 81.5t42.5 66h191z"/>
<glyph glyph-name="seven" horiz-adv-x="532" unicode="7" d="M583 667l-377 -667h-191l201 355q46 80 104 155h-222l19 157h466z"/>
<glyph glyph-name="eight" horiz-adv-x="532" unicode="8" d="M308 225q0 52 -36 52q-24 0 -38 -27.5t-14 -54.5q0 -53 36 -53q26 0 39 27t13 56zM335 492q0 17 -7.5 30t-23.5 13q-23 0 -33.5 -22.5t-10.5 -48.5q0 -45 33 -45q21 0 31.5 24.5t10.5 48.5zM512 513q0 -67 -40 -116q-24 -29 -69 -50q84 -37 84 -130q0 -100 -74.5 -164.5 t-175.5 -64.5q-82 0 -141.5 49t-59.5 129q0 90 67 146q22 18 66 35q-43 15 -63 43t-20 75q0 92 70 153t163 61q79 0 136 -44.5t57 -121.5z"/>
<glyph glyph-name="nine" horiz-adv-x="532" unicode="9" d="M342 475q0 60 -39 60q-24 0 -40 -23.5t-20.5 -49t-4.5 -50.5q0 -23 10.5 -41t31.5 -18q24 0 39 24t19 48.5t4 49.5zM102 0l128 189q20 30 39 53q-33 -19 -65 -19q-66 0 -101.5 54.5t-35.5 124.5q0 114 74 195.5t187 81.5q90 0 138.5 -56t48.5 -148q0 -36 -12.5 -81.5 t-25.5 -78.5t-45 -90t-44.5 -77t-53 -82t-42.5 -66h-190z"/>
<glyph glyph-name="colon" horiz-adv-x="289" unicode=":" d="M228 102q0 -44 -34 -78t-78 -34q-38 0 -63.5 26t-25.5 64q0 44 34 78t78 34q38 0 63.5 -26t25.5 -64zM263 387q0 -44 -34 -78t-78 -34q-38 0 -63.5 26t-25.5 64q0 44 34 78t78 34q38 0 63.5 -26t25.5 -64z"/>
<glyph glyph-name="semicolon" horiz-adv-x="289" unicode=";" d="M250 159l-154 -320h-140l120 320h174zM296 387q0 -44 -34 -78t-78 -34q-38 0 -63.5 25.5t-25.5 63.5q0 45 33.5 79t78.5 34q38 0 63.5 -26t25.5 -64z"/>
<glyph glyph-name="less" d="M466 58l-433 222v109l433 220v-128l-296 -147l295 -148z" unicode="&lt;"/>
<glyph glyph-name="equal" d="M480 197h-433v113h433v-113zM480 370h-433v113h433v-113z" unicode="="/>
<glyph glyph-name="greater" d="M493 279l-433 -221v129l296 147l-295 147l-1 128l433 -221v-109z" unicode="&gt;"/>
<glyph glyph-name="question" horiz-adv-x="501" unicode="?" d="M337 103q0 -44 -34.5 -78.5t-78.5 -34.5q-38 0 -62.5 25.5t-24.5 63.5q0 45 33.5 79.5t78.5 34.5q39 0 63.5 -25.5t24.5 -64.5zM242 478h-171q10 79 45 129q31 45 83 70t109 25q86 0 137 -52t51 -138q0 -72 -40 -129.5t-111 -77.5l-7 -65h-169l19 160q18 -2 27 -2 q104 0 104 102q0 54 -31 54q-37 0 -46 -76z"/>
<glyph glyph-name="at" horiz-adv-x="733" unicode="@" d="M457 349q0 27 -14 43.5t-40 16.5q-40 0 -70 -37t-30 -78q0 -26 16 -42t41 -16q39 0 68 36t29 77zM554 98l10 -80q-94 -30 -206 -30q-141 0 -228 79t-87 219q0 158 119 275t278 117q121 0 201.5 -69t80.5 -188q0 -86 -47 -163q-27 -43 -66 -73.5t-83 -30.5q-25 0 -45.5 15 t-24.5 39q-52 -63 -133 -63q-55 0 -88.5 39t-33.5 95q0 80 60.5 151.5t139.5 71.5q68 0 92 -48l12 38l88 -1l-60 -189q-12 -41 -12 -53q0 -22 20 -22q21 0 48 32q54 64 54 152q0 89 -58.5 138t-149.5 49q-124 0 -214.5 -90.5t-90.5 -215.5q0 -91 53 -154q60 -70 186 -70 q95 0 185 30z"/>
<glyph glyph-name="A" horiz-adv-x="524" unicode="A" d="M300 305v87q0 1 3 115q-3 -11 -10.5 -43.5t-12.5 -50.5q-6 -21 -24 -86t-29 -100h75q-2 52 -2 78zM491 0h-183l-3 85h-119l-25 -85h-184l240 667h217z"/>
<glyph glyph-name="B" horiz-adv-x="522" unicode="B" d="M229 272l-16 -127q5 -1 15 -1q34 0 58 20t24 54q0 28 -19 41.5t-48 13.5q-2 0 -6.5 -0.5t-7.5 -0.5zM259 522l-14 -114q4 -1 12 -1q33 0 55 17.5t22 48.5q0 50 -56 50q-13 0 -19 -1zM100 667h206q206 0 206 -165q0 -68 -36.5 -111t-103.5 -49q60 -8 88.5 -37.5 t28.5 -89.5q0 -94 -64.5 -154.5t-158.5 -60.5h-248z"/>
<glyph glyph-name="C" horiz-adv-x="438" unicode="C" d="M461 662l-23 -190q-35 40 -77 40q-50 0 -83.5 -39.5t-45 -87t-11.5 -96.5q0 -55 22 -91t73 -36q47 0 97 43l-34 -193q-59 -24 -109 -24q-113 0 -172.5 77.5t-59.5 194.5q0 77 21 150t61 134t106 98t147 37q48 0 88 -17z"/>
<glyph glyph-name="D" horiz-adv-x="529" unicode="D" d="M257 500l-42 -339q34 2 59 24.5t37 57.5t17.5 68t5.5 65q0 124 -77 124zM100 667h153q126 0 195 -71.5t69 -197.5q0 -158 -75 -270q-47 -69 -108.5 -98.5t-149.5 -29.5h-166z"/>
<glyph glyph-name="E" horiz-adv-x="405" unicode="E" d="M430 667l-20 -157h-152l-12 -97h137l-19 -151h-136l-13 -102h152l-19 -160h-330l82 667h330z"/>
<glyph glyph-name="F" horiz-adv-x="382" unicode="F" d="M413 667l-19 -157h-136l-12 -97h127l-19 -151h-126l-33 -262h-177l82 667h313z"/>
<glyph glyph-name="G" horiz-adv-x="552" unicode="G" d="M543 514l-180 -64q0 68 -44 68q-25 0 -43.5 -23t-24.5 -42.5t-14 -50.5q-21 -93 -21 -161q0 -93 53 -93q32 0 50 30t23 67h-65l17 140h247q-8 -85 -24 -148q-26 -111 -91.5 -180t-172.5 -69q-111 0 -163.5 74.5t-52.5 190.5q0 95 24 177q31 107 102.5 178t174.5 71 q156 0 205 -165z"/>
<glyph glyph-name="H" horiz-adv-x="531" unicode="H" d="M539 667l-82 -667h-177l33 268h-85l-33 -268h-177l82 667h177l-29 -236h85l29 236h177z"/>
<glyph glyph-name="I" horiz-adv-x="269" unicode="I" d="M277 667l-82 -667h-177l82 667h177z"/>
<glyph glyph-name="J" horiz-adv-x="349" unicode="J" d="M357 667l-57 -463q-11 -85 -37 -125q-57 -91 -177 -91q-53 0 -113 22l23 186q25 -39 66 -39q55 0 65 82l52 428h178z"/>
<glyph glyph-name="K" horiz-adv-x="533" unicode="K" d="M564 667l-181 -322l117 -345h-191l-79 319l-35 -319h-177l82 667h177l-40 -298l140 298h187z"/>
<glyph glyph-name="L" horiz-adv-x="363" unicode="L" d="M348 160l-19 -160h-311l82 667h177l-62 -507h133z"/>
<glyph glyph-name="M" horiz-adv-x="755" unicode="M" d="M712 667l-18 -667h-185q10 130 35 425q-28 -110 -126 -425h-145l-11 321q0 5 -0.5 17t-0.5 17q0 24 2 70q-13 -100 -71 -425h-190l158 667h221l9 -225q2 -34 2 -50q0 -12 -0.5 -25.5t-1.5 -29.5t-1 -25q10 43 24 94t23 81t30 95t27 85h219z"/>
<glyph glyph-name="N" horiz-adv-x="554" unicode="N" d="M562 667l-82 -667h-169l-59 245q-19 81 -28 139q-1 -18 -3 -53.5t-3 -52.5q-2 -35 -31 -278h-169l82 667h169l60 -234q8 -32 20 -93.5t15 -74.5v39q0 134 10 213l19 150h169z"/>
<glyph glyph-name="O" horiz-adv-x="558" unicode="O" d="M362 408q0 103 -47 103q-19 0 -35 -18t-26 -45.5t-16 -50.5t-9 -42q-7 -41 -7 -89q0 -109 48 -109q19 0 35.5 18.5t26.5 47t15.5 51.5t8.5 44q6 45 6 90zM546 422q0 -101 -26 -191q-31 -103 -99.5 -173t-166.5 -70q-50 0 -95 24t-74 65q-47 69 -47 186q0 100 29 187 q34 98 104 163.5t166 65.5q102 0 155.5 -75.5t53.5 -181.5z"/>
<glyph glyph-name="P" horiz-adv-x="498" unicode="P" d="M241 368h9q36 0 57.5 25.5t21.5 61.5q0 29 -14.5 47.5t-42.5 18.5h-13zM100 667h172q238 0 238 -193q0 -115 -73 -190q-66 -67 -180 -67q-11 0 -35 2l-27 -219h-177z"/>
<glyph glyph-name="Q" horiz-adv-x="566" unicode="Q" d="M362 403q0 108 -50 108q-32 0 -53.5 -54.5t-29.5 -104.5q-7 -41 -7 -89q0 -106 49 -106q25 0 44.5 31.5t28 62.5t12.5 60q6 45 6 92zM354 -93l-50 89q-24 -8 -54 -8q-71 0 -121 40.5t-71 99t-21 128.5q0 95 24 174q32 106 102.5 177.5t171.5 71.5q72 0 121.5 -40.5 t70.5 -99.5t21 -129q0 -90 -28 -181.5t-83 -150.5l69 -92z"/>
<glyph glyph-name="R" horiz-adv-x="525" unicode="R" d="M239 358h12q35 0 59 29.5t24 65.5q0 64 -75 64zM100 667h181q230 0 230 -191q0 -147 -124 -199l98 -277h-192q-6 24 -23.5 93t-25.5 107q-3 13 -8.5 38.5t-8.5 38.5q-8 -93 -32 -277h-177z"/>
<glyph glyph-name="S" horiz-adv-x="398" unicode="S" d="M408 645l-25 -204q-37 73 -95 73q-19 0 -36 -12.5t-17 -31.5t22 -41t48 -41.5t48 -57.5t22 -84q0 -105 -69 -181.5t-173 -76.5q-63 0 -127 29l26 209q44 -73 104 -73q23 0 40.5 13.5t17.5 36.5q0 16 -14 32.5t-34.5 33.5t-41 38t-34.5 54t-14 73q0 95 67.5 170t160.5 75 q62 0 124 -34z"/>
<glyph glyph-name="T" horiz-adv-x="377" unicode="T" d="M431 667l-20 -160h-102l-62 -507h-177l62 507h-98l20 160h377z"/>
<glyph glyph-name="U" horiz-adv-x="537" unicode="U" d="M545 667l-58 -472q-11 -98 -85 -155q-66 -52 -155 -52q-92 0 -148.5 47t-56.5 137q0 24 3 48l55 447h177l-53 -431q-2 -22 -2 -33q0 -46 39 -46q16 0 26.5 7t16 20.5t7.5 24t4 27.5l53 431h177z"/>
<glyph glyph-name="V" horiz-adv-x="510" unicode="V" d="M564 667l-261 -667h-181l-68 667h186q12 -250 12 -312q0 -41 -4 -123q9 42 19 84t25.5 96t23 78t30 95t25.5 82h193z"/>
<glyph glyph-name="W" horiz-adv-x="742" unicode="W" d="M796 667l-215 -667h-171q-16 302 -16 397v20q-8 -30 -20 -92q-5 -21 -20 -83l-63 -242h-173l-64 667h175q3 -78 7 -241q2 -38 2 -57q0 -39 -2 -119q27 129 113 417h152q14 -217 15 -287v-46v-92q26 134 49 218l58 207h173z"/>
<glyph glyph-name="X" horiz-adv-x="509" unicode="X" d="M552 667l-190 -321l119 -346h-197q-9 37 -26 124q-8 35 -10 55q-25 -61 -83 -179h-193l202 346l-111 321h197q3 -19 11 -55.5t11 -54.5l9 -48q14 45 62 158h199z"/>
<glyph glyph-name="Y" horiz-adv-x="493" unicode="Y" d="M547 667l-200 -385l-35 -282h-177l35 282l-116 385h185q30 -146 37 -206q21 56 87 206h184z"/>
<glyph glyph-name="Z" horiz-adv-x="507" unicode="Z" d="M544 667l-2 -19l-206 -363q-14 -25 -41 -70t-38 -63q34 3 203 8l-19 -160h-453l2 14l181 326q53 95 110 170h-191l19 157h435z"/>
<glyph glyph-name="bracketleft" horiz-adv-x="344" unicode="[" d="M372 729l-14 -119h-102l-85 -699h101l-15 -120h-251l115 938h251z"/>
<glyph glyph-name="backslash" horiz-adv-x="562" unicode="\" d="M53 729h120l372 -945h-120z"/>
<glyph glyph-name="bracketright" horiz-adv-x="344" unicode="]" d="M346 729l-115 -938h-252l15 120h101l86 699h-101l14 119h252z"/>
<glyph glyph-name="asciicircum" d="M509 330h-136l-110 233l-110 -233h-135l160 337h170z" unicode="^"/>
<glyph glyph-name="underscore" d="M472 -166h-500v120h500v-120z" unicode="_"/>
<glyph glyph-name="grave" d="M340 530h-98l-68 148h138z" unicode="`"/>
<glyph glyph-name="a" horiz-adv-x="489" unicode="a" d="M282 288q0 46 -28 46q-31 0 -45 -51t-14 -95q0 -55 31 -55q30 0 43 54.5t13 100.5zM479 467l-57 -467h-171q3 13 7.5 39.5t7.5 39.5q-53 -89 -130 -89q-33 0 -56.5 17t-35 45t-16.5 56t-5 59q0 69 14 128q8 33 21 63t32.5 58t48.5 44.5t63 16.5q40 0 62 -21.5t37 -62.5 q1 12 2.5 37t1.5 37h174z"/>
<glyph glyph-name="b" horiz-adv-x="489" unicode="b" d="M290 273q0 60 -34 60q-20 0 -33 -29.5t-16.5 -57.5t-3.5 -51q0 -56 31 -56q30 0 43 46.5t13 87.5zM101 729h171q-3 -21 -15 -122.5t-20 -155.5q-6 -32 -8 -52q25 38 51.5 58t66.5 20q35 0 60 -16t37.5 -43.5t17.5 -56.5t5 -62q0 -70 -14 -129q-18 -73 -60 -126.5 t-107 -53.5q-37 0 -57 17.5t-39 55.5q-1 -11 -2 -32t-2 -31h-175z"/>
<glyph glyph-name="c" horiz-adv-x="298" unicode="c" d="M309 475l-19 -152q-41 -3 -64 -30t-23 -68q0 -28 14.5 -50.5t40.5 -22.5h11l-19 -159q-22 -3 -46 -3q-88 0 -133.5 60t-45.5 150q0 109 71.5 193t178.5 84q12 0 34 -2z"/>
<glyph glyph-name="d" horiz-adv-x="489" unicode="d" d="M288 274q0 59 -29 59q-31 0 -44.5 -46.5t-13.5 -89.5q0 -58 33 -58q29 0 41.5 47t12.5 88zM511 729l-89 -729h-174q1 12 5.5 34t5.5 29q-27 -36 -52.5 -54.5t-61.5 -18.5q-66 0 -94.5 51t-28.5 123q0 70 14 129q18 74 60 129t107 55q39 0 61 -19.5t39 -58.5q4 62 38 330 h170z"/>
<glyph glyph-name="e" horiz-adv-x="474" unicode="e" d="M207 290h79q0 2 0.5 6t0.5 6q0 47 -34 47q-20 0 -31.5 -18t-14.5 -41zM266 157h166q-26 -80 -84 -123.5t-141 -43.5q-89 0 -136.5 51t-47.5 140q0 116 68 205.5t180 89.5q87 0 133.5 -55.5t46.5 -144.5q0 -27 -8 -79h-250q-1 -6 -1 -19q0 -53 32 -53q31 0 42 32z"/>
<glyph glyph-name="f" horiz-adv-x="296" unicode="f" d="M352 728l-20 -161q-17 17 -33 17q-27 0 -32 -48l-8 -69h61l-17 -140h-61l-40 -327h-171l40 327h-49l17 140h50q1 9 4.5 45t5.5 51.5t8.5 41t16.5 43.5q22 43 62 67.5t88 24.5q35 0 78 -12z"/>
<glyph glyph-name="g" horiz-adv-x="485" unicode="g" d="M284 279q0 57 -27 57q-21 0 -34.5 -29t-17 -57t-3.5 -51q0 -63 30 -63q28 0 40 50t12 93zM475 467l-59 -479q-10 -83 -49 -128q-65 -75 -183 -75q-91 0 -137.5 40t-47.5 129h174q0 -38 31 -38q18 0 28.5 11.5t13.5 23t6 31.5q4 34 9 72q-50 -61 -114 -61 q-44 0 -73.5 30.5t-40 69t-10.5 81.5q0 62 15 122q19 71 62 126t106 55q52 0 93 -71l4 61h172z"/>
<glyph glyph-name="h" horiz-adv-x="483" unicode="h" d="M272 729l-32 -261q-7 -50 -16 -90q53 99 134 99q47 0 73.5 -33.5t26.5 -82.5q0 -22 -3 -43l-39 -318h-171l31 247q2 18 2 26q0 31 -23 31q-36 0 -44 -69l-29 -235h-171l90 729h171z"/>
<glyph glyph-name="i" horiz-adv-x="249" unicode="i" d="M239 467l-57 -467h-171l58 467h170zM273 624q0 -44 -34.5 -78.5t-78.5 -34.5q-37 0 -62.5 25.5t-25.5 63.5q0 45 34 79t79 34q38 0 63 -25.5t25 -63.5z"/>
<glyph glyph-name="j" horiz-adv-x="252" unicode="j" d="M242 467l-85 -682h-170l83 682h172zM274 624v-10q0 -10 -8 -29q-12 -32 -41.5 -53t-62.5 -21q-38 0 -63 25.5t-25 63.5q0 45 33.5 79t78.5 34q39 0 63.5 -25t24.5 -64z"/>
<glyph glyph-name="k" horiz-adv-x="487" unicode="k" d="M505 467l-139 -215l93 -252h-190l-41 146q-14 48 -18 81l-28 -227h-171l90 729h171l-57 -462q9 19 33 62l75 138h182z"/>
<glyph glyph-name="l" horiz-adv-x="250" unicode="l" d="M272 729l-90 -729h-171l90 729h171z"/>
<glyph glyph-name="m" horiz-adv-x="722" unicode="m" d="M69 467h170q-5 -39 -12 -78q55 88 130 88q46 0 71 -25t39 -72q22 47 50.5 72t74.5 25q47 0 76.5 -30.5t29.5 -77.5q0 -17 -4 -49l-39 -320h-171l30 245q0 3 2 15.5t2 18.5q0 30 -22 30q-39 0 -47 -73l-29 -236h-171l29 235q4 28 4 41q0 29 -24 29q-14 0 -23 -6t-14 -20.5 t-6.5 -21.5t-3.5 -25l-29 -232h-171z"/>
<glyph glyph-name="n" horiz-adv-x="483" unicode="n" d="M69 467h170q-14 -84 -15 -89q53 99 134 99q47 0 73.5 -33.5t26.5 -82.5q0 -22 -3 -43l-39 -318h-171l31 247q2 18 2 26q0 31 -23 31q-36 0 -44 -69l-29 -235h-171z"/>
<glyph glyph-name="o" horiz-adv-x="480" unicode="o" d="M291 269q0 77 -37 77q-32 0 -48 -52.5t-16 -95.5q0 -77 37 -77q32 0 48 52.5t16 95.5zM456 280q0 -123 -64.5 -206.5t-183.5 -83.5q-90 0 -137 54t-47 146q0 116 66.5 201.5t179.5 85.5q89 0 137.5 -53.5t48.5 -143.5z"/>
<glyph glyph-name="p" horiz-adv-x="489" unicode="p" d="M290 272q0 62 -31 62q-15 0 -26.5 -16t-17 -40.5t-8 -44.5t-2.5 -35q0 -62 29 -62q28 0 42 48.5t14 87.5zM241 467l-12 -66q49 76 115 76q46 0 75 -32t38.5 -71.5t9.5 -84.5q0 -67 -15 -122q-18 -70 -60 -123.5t-105 -53.5t-99 73q0 -25 -6 -77l-25 -201h-171l85 682h170 z"/>
<glyph glyph-name="q" horiz-adv-x="487" unicode="q" d="M286 272q0 62 -30 62q-29 0 -41.5 -47t-12.5 -88q0 -63 31 -63q27 0 40 49t13 87zM477 467l-84 -682h-171l25 201q2 16 4 26q1 9 5 26t5 25q-53 -73 -118 -73q-35 0 -60 17t-37.5 45.5t-17.5 58t-5 62.5q0 63 15 123q18 71 61.5 126t106.5 55q68 0 96 -76l4 66h171z"/>
<glyph glyph-name="r" horiz-adv-x="339" unicode="r" d="M360 478l-24 -194q-25 15 -46 15q-33 0 -57 -27q-21 -23 -26 -72l-25 -200h-171l58 467h170l-20 -91q51 99 141 102z"/>
<glyph glyph-name="s" horiz-adv-x="389" unicode="s" d="M390 439l-74 -127q-35 41 -65 41q-11 0 -20.5 -7t-9.5 -18q0 -17 22 -29.5t49 -22t49 -36.5t22 -69q0 -79 -61.5 -130t-142.5 -51q-45 0 -79.5 11.5t-79.5 37.5l78 129q38 -49 79 -49q14 0 25 7t11 20q0 10 -8 17.5t-13 9.5t-19 7q-49 19 -76.5 46t-27.5 73 q0 79 64 128.5t145 49.5q66 0 132 -38z"/>
<glyph glyph-name="t" horiz-adv-x="297" unicode="t" d="M319 467l-17 -140h-56l-41 -327h-170l40 327h-49l17 140h49l17 137h171l-17 -137h56z"/>
<glyph glyph-name="u" horiz-adv-x="492" unicode="u" d="M482 467l-35 -287q-12 -99 -85 -147q-66 -43 -145 -43q-78 0 -132 39.5t-54 114.5l3 36l35 287h170l-32 -263q0 -1 -1.5 -14.5t-1.5 -20.5q0 -34 31 -34q13 0 22 6t13.5 19t5.5 20.5t3 23.5l32 263h171z"/>
<glyph glyph-name="v" horiz-adv-x="439" unicode="v" d="M468 467l-191 -467h-178l-70 467h173q12 -161 12 -202q0 -31 -2 -93q17 70 88 295h168z"/>
<glyph glyph-name="w" horiz-adv-x="672" unicode="w" d="M701 467l-191 -467h-169v280l-87 -280h-168l-57 467h168l8 -150q1 -22 1 -66v-66q6 34 17.5 74.5t20 65.5t26 75t23.5 67h145q7 -173 7 -222q0 -40 -1 -60q22 87 87 282h170z"/>
<glyph glyph-name="x" horiz-adv-x="475" unicode="x" d="M491 467l-163 -223l119 -244h-198q-17 62 -25 110q-20 -45 -61 -110h-191l169 240l-104 227h195q18 -87 20 -101q8 20 26 54t24 47h189z"/>
<glyph glyph-name="y" horiz-adv-x="458" unicode="y" d="M487 467l-301 -682h-176l110 234l-82 448h172q2 -18 7 -57t7.5 -61.5t5 -55.5t2.5 -61q0 -5 -0.5 -15t-0.5 -15q36 133 48 164l38 101h170z"/>
<glyph glyph-name="z" horiz-adv-x="428" unicode="z" d="M441 467l-138 -238q-26 -46 -55 -88h126l-17 -141h-369l141 242q30 52 55 85h-130l17 140h370z"/>
<glyph glyph-name="braceleft" horiz-adv-x="503" unicode="{" d="M461 726l-14 -114q-7 0 -20 0.5t-19 0.5q-30 0 -45.5 -11t-21.5 -47q-4 -29 -10 -88.5t-12.5 -95.5t-18.5 -60t-54 -51q27 -19 36.5 -39t9.5 -53q0 -11 -2 -35l-20 -157q0 -1 -1.5 -11t-1.5 -15q0 -27 14.5 -35t45.5 -8q23 0 34 1l-14 -115q-52 -2 -78 -2 q-67 0 -101.5 23t-34.5 87q0 12 2 34l24 189q2 18 2 28q0 48 -46 58l13 110q32 6 46 24t18 52l22 188q10 80 49.5 112.5t120.5 32.5q12 0 24.5 -0.5t28 -1.5t24.5 -1z"/>
<glyph glyph-name="bar" d="M318 -250h-130v1000h130v-1000z" unicode="|"/>
<glyph glyph-name="braceright" horiz-adv-x="504" unicode="}" d="M415 310l-13 -110q-45 -10 -57 -46q-8 -25 -8 -30l-23 -189q-10 -84 -51.5 -114t-129.5 -30q-21 0 -65 2l14 115q7 -1 21 -1h5q22 0 32 1t21.5 6.5t17 17t9.5 32.5q3 19 9 74.5t13.5 101t19.5 69.5q11 23 54 51q-27 19 -36.5 38.5t-9.5 52.5q0 11 2 35l19 157l3 33 q0 37 -62 37q-6 0 -17 -0.5t-15 -0.5l14 114q9 0 24.5 1t28 1.5t24.5 0.5q67 0 102 -23t35 -87q0 -11 -2 -35l-23 -188q-2 -18 -2 -28q0 -50 46 -58z"/>
<glyph glyph-name="asciitilde" horiz-adv-x="667" unicode="~" d="M556 748l73 -43q-29 -63 -65 -98.5t-94 -35.5q-31 0 -92 25t-91 25q-28 0 -42.5 -14.5t-30.5 -46.5l-71 47q12 30 19 45q44 94 132 94q34 0 96 -24.5t94 -24.5q26 0 42 12.5t30 38.5z"/>
<glyph glyph-name="uni00A0" horiz-adv-x="233" unicode=" "/>
<glyph glyph-name="exclamdown" horiz-adv-x="315" unicode="¡" d="M245 227l-56 -450h-173l55 450h174zM279 388q0 -45 -34 -79.5t-79 -34.5q-39 0 -63.5 25.5t-24.5 64.5q0 44 34.5 78.5t78.5 34.5q37 0 62.5 -25.5t25.5 -63.5z"/>
<glyph glyph-name="cent" horiz-adv-x="532" unicode="¢" d="M417 590l-18 -148q-40 -2 -63.5 -30t-23.5 -69q0 -28 14 -49t41 -21h11l-19 -161q-9 -2 -25 -2t-23 -1l-10 -86h-84l13 105q-97 62 -97 187q0 109 69 194q31 38 82 62l12 108h84l-10 -86q5 1 16 1t31 -4z"/>
<glyph glyph-name="sterling" horiz-adv-x="532" unicode="£" d="M503 584l-107 -96q-12 24 -25 37t-34 13q-23 0 -38.5 -18.5t-15.5 -42.5q0 -16 6 -48t6 -48h159l-12 -93h-148q-7 -70 -58 -129q36 -2 71 -21q19 -11 35 -11q31 0 56 32l82 -48q-62 -123 -171 -123q-41 0 -81 17q-7 3 -18 8t-16.5 7t-15.5 4t-21 2q-39 0 -88 -30l-39 82 q49 33 83 48q28 41 28 98q0 22 -8 64h-60l11 93h33q-12 67 -12 85q0 91 63 151t154 60q106 0 181 -93z"/>
<glyph glyph-name="currency" horiz-adv-x="667" unicode="¤" d="M488 377q0 56 -40 96.5t-96 40.5t-96 -40.5t-40 -96.5t40 -96t96 -40t96 40t40 96zM666 138l-70 -71l-103 103q-67 -45 -142 -45q-68 0 -140 44l-102 -102l-70 70l103 103q-44 64 -44 138q0 72 44 137l-104 104l71 71l104 -104q67 44 140 44q71 0 137 -43l103 102l70 -70 l-102 -102q45 -70 45 -139q0 -73 -43 -137z"/>
<glyph glyph-name="yen" horiz-adv-x="532" unicode="¥" d="M567 667l-111 -212h78l-11 -94h-115l-34 -66h141l-12 -93h-146l-25 -202h-177l25 202h-157l11 93h152l-20 66h-124l12 94h84l-64 212h184q32 -157 38 -206q30 82 87 206h184z"/>
<glyph glyph-name="brokenbar" d="M318 -250h-130v415h130v-415zM318 335h-130v415h130v-415z" unicode="¦"/>
<glyph glyph-name="section" horiz-adv-x="525" unicode="§" d="M335 279q0 27 -16 42t-43 15q-30 0 -51 -21t-21 -51q0 -27 15.5 -43t42.5 -16q31 0 52 21.5t21 52.5zM19 7h147q0 -3 -1 -9.5t-1.5 -11.5t-0.5 -9q0 -63 61 -63q28 0 47.5 18.5t19.5 46.5q0 9 -4 18t-8 15t-14 13.5t-14.5 10.5t-17 10.5t-14.5 8.5l-72 42 q-48 31 -71 64.5t-23 85.5q0 99 89 162q-21 31 -30.5 56t-9.5 62q0 94 70 153.5t166 59.5q77 0 122.5 -41.5t45.5 -117.5q0 -10 -1 -20.5t-2.5 -24t-2.5 -20.5h-140q3 21 3 42q0 61 -54 61q-26 0 -43.5 -16t-17.5 -42q0 -25 24.5 -46.5t59.5 -40.5t70 -40.5t59.5 -56.5 t24.5 -80q0 -95 -82 -156q55 -47 55 -122q0 -100 -75 -167t-177 -67q-82 0 -137 44.5t-55 124.5q0 10 2 28.5t2 24.5z"/>
<glyph glyph-name="dieresis" d="M273 602q0 -8 -5 -20q-9 -23 -30 -37.5t-45 -14.5q-28 0 -46 18t-18 46q0 32 24.5 56t56.5 24q31 0 47 -20t16 -52zM463 610q0 -31 -24.5 -55.5t-56.5 -24.5q-27 0 -45 18.5t-18 45.5q0 32 24 56t56 24q28 0 46 -18t18 -46z" unicode="¨"/>
<glyph glyph-name="copyright" horiz-adv-x="760" unicode="©" d="M497 270l-8 -128q-39 -16 -74 -16q-85 0 -132 59t-47 147q0 92 51 150t142 58q36 0 62 -11v-127q-4 3 -13 11.5t-13 11.5t-13 6.5t-20 3.5q-36 0 -51.5 -30.5t-15.5 -70.5q0 -39 15 -68.5t50 -29.5q6 0 11.5 1t11 3t9 3.5t9.5 6t8.5 6t9 7.5t8.5 7zM660 333 q0 113 -77 194.5t-189 81.5t-190 -81t-78 -194q0 -112 78 -194.5t190 -82.5t189 81.5t77 194.5zM740 333q0 -144 -101 -246t-245 -102t-246 102.5t-102 246.5t102.5 246t246.5 102q143 0 244 -103t101 -246z"/>
<glyph glyph-name="ordfeminine" horiz-adv-x="284" unicode="ª" d="M147 475q0 -14 5 -20t12 -6q10 0 19 15q7 13 14 50q5 28 5 45q0 16 -4 24q-5 8 -13 8q-7 0 -14 -7q-11 -11 -18 -49q-6 -34 -6 -60zM269 297h-242l6 48h242zM279 372h-99l8 45q-12 -24 -31 -37q-19 -14 -39 -14q-31 0 -50 25q-20 26 -20 77q0 49 12.5 102t41.5 81 q22 22 52 22q22 0 36 -13t22 -36l2 43h101z"/>
<glyph glyph-name="guillemotleft" horiz-adv-x="485" unicode="«" d="M437 63l-85 -50l-124 226l179 226l71 -66l-134 -168zM237 63l-85 -50l-124 226l179 226l71 -66l-134 -168z"/>
<glyph glyph-name="logicalnot" d="M455 0h-130v150h-303v117h433v-267z" unicode="¬"/>
<glyph glyph-name="uni00AD" horiz-adv-x="317" unicode="­" d="M262 186h-217l16 134h217z"/>
<glyph glyph-name="registered" horiz-adv-x="760" unicode="®" d="M740 333q0 -144 -101 -246t-245 -102t-246 102.5t-102 246.5t102.5 246t246.5 102q143 0 244 -103t101 -246zM660 333q0 113 -77 194.5t-189 81.5t-190 -81t-78 -194q0 -112 78 -194.5t190 -82.5t189 81.5t77 194.5zM372 357h5q18 0 29 13t11 31q0 40 -45 40v-84z M543 154h-117l-54 143v-143h-109v375h109q68 0 111 -30.5t43 -96.5q0 -68 -61 -93z"/>
<glyph glyph-name="macron" d="M469 647l-12 -94h-335l12 94h335z" unicode="¯"/>
<glyph glyph-name="degree" d="M361 509q0 31 -22.5 53t-54.5 22q-31 0 -53.5 -22t-22.5 -53t22 -53.5t54 -22.5t54.5 22t22.5 54zM439 509q0 -64 -45.5 -108.5t-109.5 -44.5q-63 0 -108.5 45t-45.5 108t45.5 107t108.5 44q64 0 109.5 -44t45.5 -107z" unicode="°"/>
<glyph glyph-name="plusminus" d="M471 50h-433v120h433v-120zM471 357h-152v-154h-130v154h-151v120h151v153h130v-153h152v-120z" unicode="±"/>
<glyph glyph-name="twosuperior" horiz-adv-x="347" unicode="²" d="M193 519h-110q5 67 46.5 111t106.5 44q53 0 85 -30t32 -83q0 -57 -34 -104.5t-91 -97.5q48 3 96 3l-11 -95h-282l130 147q24 27 37 43t29 46t16 54q0 25 -19 25q-28 0 -31 -63z"/>
<glyph glyph-name="threesuperior" horiz-adv-x="347" unicode="³" d="M193 550h-108q11 56 49.5 90t94.5 34q49 0 82.5 -28t33.5 -76q0 -64 -57 -97q41 -25 41 -77q0 -59 -45.5 -97.5t-105.5 -38.5q-50 0 -86.5 26t-36.5 74q0 9 2 27h110q-1 -4 -1 -13q0 -22 21 -22q15 0 23.5 12.5t8.5 28.5q0 33 -36 33q-8 0 -22 -2l11 89q2 0 7 -0.5 t8 -0.5q47 0 47 46q0 24 -17 24q-18 0 -24 -32z"/>
<glyph glyph-name="acute" d="M437 678l-105 -148h-98l65 148h138z" unicode="´"/>
<glyph glyph-name="mu" horiz-adv-x="582" unicode="µ" d="M515 0h-156l8 64q-14 -33 -37 -53q-25 -21 -61 -21q-39 0 -62 23q-21 21 -31 53l-34 -281h-156l83 682h172l-27 -219q-3 -36 -3 -42q0 -40 19 -64q20 -24 53 -24q28 0 50 20q31 29 41 114l26 215h172z"/>
<glyph glyph-name="paragraph" horiz-adv-x="667" unicode="¶" d="M647 667l-12 -100h-73l-81 -667h-110l81 667h-83l-82 -667h-110l52 421h-13q-70 0 -114 38.5t-44 107.5q0 88 61 144t193 56h335z"/>
<glyph glyph-name="periodcentered" horiz-adv-x="322" unicode="·" d="M291 353q0 -52 -39.5 -91t-91.5 -39q-44 0 -73.5 29.5t-29.5 73.5q0 52 39 91.5t91 39.5q45 0 74.5 -29.5t29.5 -74.5z"/>
<glyph glyph-name="cedilla" d="M307 -106l-126 -117l-71 54l102 122z" unicode="¸"/>
<glyph glyph-name="onesuperior" horiz-adv-x="347" unicode="¹" d="M300 667l-49 -400h-112l37 303h-43l12 97h155z"/>
<glyph glyph-name="ordmasculine" horiz-adv-x="284" unicode="º" d="M189 598q-8 0 -15 -7q-12 -12 -19 -49q-5 -30 -5 -53q0 -24 7 -32q6 -7 14 -7t15 7q11 10 18 42q7 33 7 57q0 20 -6 31t-16 11zM273 297h-246l6 48h246zM54 505q0 81 49 130q37 38 94 38q48 0 78 -31q32 -34 32 -94q0 -88 -49 -137q-37 -37 -94 -37q-48 0 -76 31 q-34 35 -34 100z"/>
<glyph glyph-name="guillemotright" horiz-adv-x="483" unicode="»" d="M210 79l133 168l-92 168l85 50l123 -226l-178 -226zM10 79l133 168l-92 168l85 50l123 -226l-178 -226z"/>
<glyph glyph-name="onequarter" horiz-adv-x="831" unicode="¼" d="M650 667l-370 -667h-92l372 667h90zM600 169h54q12 88 16 107q-41 -70 -70 -107zM300 667l-49 -400h-112l37 303h-43l12 97h155zM796 169l-11 -89h-34l-10 -80h-112l10 80h-145l10 86l151 234h135l-28 -231h34z"/>
<glyph glyph-name="onehalf" horiz-adv-x="831" unicode="½" d="M650 667l-370 -667h-92l372 667h90zM300 667l-49 -400h-112l37 303h-43l12 97h155zM643 252h-109q5 67 46.5 111t106.5 44q53 0 85 -30t32 -83q0 -57 -34 -104.5t-91 -97.5q48 3 96 3l-11 -95h-282l130 147q82 93 82 143q0 25 -20 25q-28 0 -31 -63z"/>
<glyph glyph-name="threequarters" horiz-adv-x="831" unicode="¾" d="M678 667l-370 -667h-92l372 667h90zM599 169h55q14 99 16 107q-42 -70 -71 -107zM193 550h-108q11 56 49.5 90t94.5 34q49 0 82.5 -28t33.5 -76q0 -64 -57 -97q41 -25 41 -77q0 -59 -45.5 -97.5t-105.5 -38.5q-50 0 -86.5 26t-36.5 74q0 9 2 27h110q-1 -4 -1 -13 q0 -22 21 -22q15 0 23.5 12.5t8.5 28.5q0 33 -36 33q-8 0 -22 -2l11 89q2 0 7 -0.5t8 -0.5q47 0 47 46q0 24 -17 24q-18 0 -24 -32zM796 169l-11 -89h-34l-10 -80h-112l10 80h-145l10 86l150 234h136l-28 -231h34z"/>
<glyph glyph-name="questiondown" horiz-adv-x="501" unicode="¿" d="M263 -11h171q-5 -43 -13.5 -70t-30.5 -59q-32 -45 -83.5 -70t-108.5 -25q-86 0 -137 52t-51 138q0 72 39.5 129.5t110.5 77.5l9 65h169l-21 -160q-16 2 -26 2q-104 0 -104 -102q0 -54 30 -54q37 0 46 76zM370 387q0 -45 -33.5 -79t-78.5 -34q-39 0 -63.5 25.5t-24.5 64.5 q0 44 34.5 78.5t78.5 34.5q38 0 62.5 -26t24.5 -64z"/>
<glyph glyph-name="Agrave" horiz-adv-x="524" unicode="À" d="M380 720h-98l-68 148h138zM300 305v87q0 1 3 115q-3 -11 -10.5 -43.5t-12.5 -50.5q-6 -21 -24 -86t-29 -100h75q-2 52 -2 78zM491 0h-183l-3 85h-119l-25 -85h-184l240 667h217z"/>
<glyph glyph-name="Aacute" horiz-adv-x="524" unicode="Á" d="M467 868l-105 -148h-98l65 148h138zM300 305v87q0 1 3 115q-3 -11 -10.5 -43.5t-12.5 -50.5q-6 -21 -24 -86t-29 -100h75q-2 52 -2 78zM491 0h-183l-3 85h-119l-25 -85h-184l240 667h217z"/>
<glyph glyph-name="Acircumflex" horiz-adv-x="524" unicode="Â" d="M462 720h-125l-15 42l-28 -42h-102l89 132h134zM300 305v87q0 1 3 115q-3 -11 -10.5 -43.5t-12.5 -50.5q-6 -21 -24 -86t-29 -100h75q-2 52 -2 78zM491 0h-183l-3 85h-119l-25 -85h-184l240 667h217z"/>
<glyph glyph-name="Atilde" horiz-adv-x="524" unicode="Ã" d="M413 855h88q-5 -56 -35.5 -94.5t-84.5 -38.5q-25 0 -61 16.5t-50 16.5q-25 0 -31 -35h-89q4 34 12 56q13 33 41 54.5t62 21.5q27 0 63.5 -16.5t52.5 -16.5q26 0 32 36zM300 305v87q0 1 3 115q-3 -11 -10.5 -43.5t-12.5 -50.5q-6 -21 -24 -86t-29 -100h75q-2 52 -2 78z M491 0h-183l-3 85h-119l-25 -85h-184l240 667h217z"/>
<glyph glyph-name="Adieresis" horiz-adv-x="524" unicode="Ä" d="M313 792q0 -7 -5 -20q-9 -23 -30 -37.5t-45 -14.5q-28 0 -46 18t-18 46q0 32 24.5 56t56.5 24q31 0 47 -20t16 -52zM503 800q0 -31 -24.5 -55.5t-56.5 -24.5q-27 0 -45 18.5t-18 45.5q0 32 24 56t56 24q28 0 46 -18t18 -46zM300 305v87q0 1 3 115q-3 -11 -10.5 -43.5 t-12.5 -50.5q-6 -21 -24 -86t-29 -100h75q-2 52 -2 78zM491 0h-183l-3 85h-119l-25 -85h-184l240 667h217z"/>
<glyph glyph-name="Aring" horiz-adv-x="524" unicode="Å" d="M297 810q0 -16 10.5 -26.5t26.5 -10.5t26.5 10.5t10.5 26.5t-10.5 26.5t-26.5 10.5t-26.5 -10.5t-10.5 -26.5zM238 810q0 40 28 68t68 28t68 -28t28 -68t-28 -68t-67 -28q-40 0 -68.5 28.5t-28.5 67.5zM300 305v87q0 1 3 115q-3 -11 -10.5 -43.5t-12.5 -50.5 q-6 -21 -24 -86t-29 -100h75q-2 52 -2 78zM491 0h-183l-3 85h-119l-25 -85h-184l240 667h217z"/>
<glyph glyph-name="AE" horiz-adv-x="606" unicode="Æ" d="M219 223h74q-2 122 -2 184q0 33 2 99q-17 -77 -74 -283zM630 667l-19 -157h-177l3 -97h148l-18 -151h-122l4 -102h119l-20 -160h-252l-2 85h-114l-24 -85h-184l234 667h424z"/>
<glyph glyph-name="Ccedilla" horiz-adv-x="438" unicode="Ç" d="M331 -113l-126 -124l-77 53l107 137zM461 662l-23 -190q-35 40 -77 40q-50 0 -83.5 -39.5t-45 -87t-11.5 -96.5q0 -55 22 -91t73 -36q47 0 97 43l-34 -193q-59 -24 -109 -24q-113 0 -172.5 77.5t-59.5 194.5q0 77 21 150t61 134t106 98t147 37q48 0 88 -17z"/>
<glyph glyph-name="Egrave" horiz-adv-x="405" unicode="È" d="M340 720h-98l-68 148h138zM430 667l-20 -157h-152l-12 -97h137l-19 -151h-136l-13 -102h152l-19 -160h-330l82 667h330z"/>
<glyph glyph-name="Eacute" horiz-adv-x="405" unicode="É" d="M417 868l-105 -148h-98l65 148h138zM430 667l-20 -157h-152l-12 -97h137l-19 -151h-136l-13 -102h152l-19 -160h-330l82 667h330z"/>
<glyph glyph-name="Ecircumflex" horiz-adv-x="405" unicode="Ê" d="M407 720h-125l-15 42l-28 -42h-102l89 132h134zM430 667l-20 -157h-152l-12 -97h137l-19 -151h-136l-13 -102h152l-19 -160h-330l82 667h330z"/>
<glyph glyph-name="Edieresis" horiz-adv-x="405" unicode="Ë" d="M253 792q0 -7 -5 -20q-9 -23 -30 -37.5t-45 -14.5q-28 0 -46 18t-18 46q0 32 24.5 56t56.5 24q31 0 47 -20t16 -52zM443 800q0 -31 -24.5 -55.5t-56.5 -24.5q-27 0 -45 18.5t-18 45.5q0 32 24 56t56 24q28 0 46 -18t18 -46zM430 667l-20 -157h-152l-12 -97h137l-19 -151 h-136l-13 -102h152l-19 -160h-330l82 667h330z"/>
<glyph glyph-name="Igrave" horiz-adv-x="269" unicode="Ì" d="M255 720h-98l-68 148h138zM277 667l-82 -667h-177l82 667h177z"/>
<glyph glyph-name="Iacute" horiz-adv-x="269" unicode="Í" d="M322 868l-105 -148h-98l65 148h138zM277 667l-82 -667h-177l82 667h177z"/>
<glyph glyph-name="Icircumflex" horiz-adv-x="269" unicode="Î" d="M327 720h-125l-15 42l-28 -42h-102l89 132h134zM277 667l-82 -667h-177l82 667h177z"/>
<glyph glyph-name="Idieresis" horiz-adv-x="269" unicode="Ï" d="M178 792q0 -7 -5 -20q-9 -23 -30 -37.5t-45 -14.5q-28 0 -46 18t-18 46q0 32 24.5 56t56.5 24q31 0 47 -20t16 -52zM368 800q0 -31 -24.5 -55.5t-56.5 -24.5q-27 0 -45 18.5t-18 45.5q0 32 24 56t56 24q28 0 46 -18t18 -46zM277 667l-82 -667h-177l82 667h177z"/>
<glyph glyph-name="Eth" horiz-adv-x="533" unicode="Ð" d="M234 287l-16 -126q51 3 81 52q38 63 38 164q0 124 -77 124l-13 -104h50l-14 -110h-49zM103 667h153q103 0 165 -44q50 -35 74.5 -96t24.5 -128q0 -160 -75 -271q-46 -69 -108.5 -98.5t-149.5 -29.5h-166l35 287h-39l14 110h39z"/>
<glyph glyph-name="Ntilde" horiz-adv-x="554" unicode="Ñ" d="M438 855h88q-5 -56 -35.5 -94.5t-84.5 -38.5q-26 0 -61.5 16.5t-49.5 16.5q-25 0 -31 -35h-89q4 34 12 56q13 33 41 54.5t62 21.5q27 0 63.5 -16.5t52.5 -16.5q26 0 32 36zM562 667l-82 -667h-169l-59 245q-19 81 -28 139q-1 -18 -3 -53.5t-3 -52.5q-2 -35 -31 -278h-169 l82 667h169l60 -234q8 -32 20 -93.5t15 -74.5v39q0 134 10 213l19 150h169z"/>
<glyph glyph-name="Ograve" horiz-adv-x="558" unicode="Ò" d="M395 720h-98l-68 148h138zM362 408q0 103 -47 103q-19 0 -35 -18t-26 -45.5t-16 -50.5t-9 -42q-7 -41 -7 -89q0 -109 48 -109q19 0 35.5 18.5t26.5 47t15.5 51.5t8.5 44q6 45 6 90zM546 422q0 -101 -26 -191q-31 -103 -99.5 -173t-166.5 -70q-50 0 -95 24t-74 65 q-47 69 -47 186q0 100 29 187q34 98 104 163.5t166 65.5q102 0 155.5 -75.5t53.5 -181.5z"/>
<glyph glyph-name="Oacute" horiz-adv-x="558" unicode="Ó" d="M492 868l-105 -148h-98l65 148h138zM362 408q0 103 -47 103q-19 0 -35 -18t-26 -45.5t-16 -50.5t-9 -42q-7 -41 -7 -89q0 -109 48 -109q19 0 35.5 18.5t26.5 47t15.5 51.5t8.5 44q6 45 6 90zM546 422q0 -101 -26 -191q-31 -103 -99.5 -173t-166.5 -70q-50 0 -95 24 t-74 65q-47 69 -47 186q0 100 29 187q34 98 104 163.5t166 65.5q102 0 155.5 -75.5t53.5 -181.5z"/>
<glyph glyph-name="Ocircumflex" horiz-adv-x="558" unicode="Ô" d="M477 720h-125l-15 42l-28 -42h-102l89 132h134zM362 408q0 103 -47 103q-19 0 -35 -18t-26 -45.5t-16 -50.5t-9 -42q-7 -41 -7 -89q0 -109 48 -109q19 0 35.5 18.5t26.5 47t15.5 51.5t8.5 44q6 45 6 90zM546 422q0 -101 -26 -191q-31 -103 -99.5 -173t-166.5 -70 q-50 0 -95 24t-74 65q-47 69 -47 186q0 100 29 187q34 98 104 163.5t166 65.5q102 0 155.5 -75.5t53.5 -181.5z"/>
<glyph glyph-name="Otilde" horiz-adv-x="558" unicode="Õ" d="M438 855h88q-5 -56 -35.5 -94.5t-84.5 -38.5q-26 0 -61.5 16.5t-49.5 16.5q-25 0 -31 -35h-89q4 34 12 56q13 33 41 54.5t62 21.5q27 0 63.5 -16.5t52.5 -16.5q26 0 32 36zM362 408q0 103 -47 103q-19 0 -35 -18t-26 -45.5t-16 -50.5t-9 -42q-7 -41 -7 -89 q0 -109 48 -109q19 0 35.5 18.5t26.5 47t15.5 51.5t8.5 44q6 45 6 90zM546 422q0 -101 -26 -191q-31 -103 -99.5 -173t-166.5 -70q-50 0 -95 24t-74 65q-47 69 -47 186q0 100 29 187q34 98 104 163.5t166 65.5q102 0 155.5 -75.5t53.5 -181.5z"/>
<glyph glyph-name="Odieresis" horiz-adv-x="558" unicode="Ö" d="M328 792q0 -7 -5 -20q-9 -23 -30 -37.5t-45 -14.5q-28 0 -46 18t-18 46q0 32 24.5 56t56.5 24q31 0 47 -20t16 -52zM518 800q0 -31 -24.5 -55.5t-56.5 -24.5q-27 0 -45 18.5t-18 45.5q0 32 24 56t56 24q28 0 46 -18t18 -46zM362 408q0 103 -47 103q-19 0 -35 -18 t-26 -45.5t-16 -50.5t-9 -42q-7 -41 -7 -89q0 -109 48 -109q19 0 35.5 18.5t26.5 47t15.5 51.5t8.5 44q6 45 6 90zM546 422q0 -101 -26 -191q-31 -103 -99.5 -173t-166.5 -70q-50 0 -95 24t-74 65q-47 69 -47 186q0 100 29 187q34 98 104 163.5t166 65.5q102 0 155.5 -75.5 t53.5 -181.5z"/>
<glyph glyph-name="multiply" d="M374 144l-111 111l-111 -111l-85 85l111 111l-111 111l85 85l111 -111l111 111l85 -85l-111 -111l111 -111z" unicode="×"/>
<glyph glyph-name="Oslash" horiz-adv-x="586" unicode="Ø" d="M380 364l-138 -174q7 -39 41 -39q25 0 44 24.5t29.5 63.5t15.5 68t8 57zM229 301l138 174q-10 41 -42 41q-67 0 -95 -209q-1 -4 -1 -6zM606 631l-68 -85q22 -67 22 -135q0 -88 -24 -172q-33 -105 -104.5 -178t-172.5 -73q-80 0 -143 60l-54 -68l-57 44l71 92 q-27 69 -27 136q0 96 24 176q31 106 101.5 178.5t172.5 72.5q85 0 149 -66l51 64z"/>
<glyph glyph-name="Ugrave" horiz-adv-x="537" unicode="Ù" d="M380 720h-98l-68 148h138zM545 667l-58 -472q-11 -98 -85 -155q-66 -52 -155 -52q-92 0 -148.5 47t-56.5 137q0 24 3 48l55 447h177l-53 -431q-2 -22 -2 -33q0 -46 39 -46q16 0 26.5 7t16 20.5t7.5 24t4 27.5l53 431h177z"/>
<glyph glyph-name="Uacute" horiz-adv-x="537" unicode="Ú" d="M477 868l-105 -148h-98l65 148h138zM545 667l-58 -472q-11 -98 -85 -155q-66 -52 -155 -52q-92 0 -148.5 47t-56.5 137q0 24 3 48l55 447h177l-53 -431q-2 -22 -2 -33q0 -46 39 -46q16 0 26.5 7t16 20.5t7.5 24t4 27.5l53 431h177z"/>
<glyph glyph-name="Ucircumflex" horiz-adv-x="537" unicode="Û" d="M462 720h-125l-15 42l-28 -42h-102l89 132h134zM545 667l-58 -472q-11 -98 -85 -155q-66 -52 -155 -52q-92 0 -148.5 47t-56.5 137q0 24 3 48l55 447h177l-53 -431q-2 -22 -2 -33q0 -46 39 -46q16 0 26.5 7t16 20.5t7.5 24t4 27.5l53 431h177z"/>
<glyph glyph-name="Udieresis" horiz-adv-x="537" unicode="Ü" d="M313 792q0 -7 -5 -20q-9 -23 -30 -37.5t-45 -14.5q-28 0 -46 18t-18 46q0 32 24.5 56t56.5 24q31 0 47 -20t16 -52zM503 800q0 -31 -24.5 -55.5t-56.5 -24.5q-27 0 -45 18.5t-18 45.5q0 32 24 56t56 24q28 0 46 -18t18 -46zM545 667l-58 -472q-11 -98 -85 -155 q-66 -52 -155 -52q-92 0 -148.5 47t-56.5 137q0 24 3 48l55 447h177l-53 -431q-2 -22 -2 -33q0 -46 39 -46q16 0 26.5 7t16 20.5t7.5 24t4 27.5l53 431h177z"/>
<glyph glyph-name="Yacute" horiz-adv-x="493" unicode="Ý" d="M452 868l-105 -148h-98l65 148h138zM547 667l-200 -385l-35 -282h-177l35 282l-116 385h185q30 -146 37 -206q21 56 87 206h184z"/>
<glyph glyph-name="Thorn" horiz-adv-x="498" unicode="Þ" d="M229 275h9q36 0 58 25.5t22 61.5q0 29 -15 47.5t-43 18.5q-8 0 -12 -1zM277 667l-11 -93q88 -2 137 -26q95 -46 95 -167q0 -116 -73 -190q-65 -66 -186 -66h-28l-16 -125h-177l82 667h177z"/>
<glyph glyph-name="germandbls" horiz-adv-x="518" unicode="ß" d="M40 467h47q10 88 27 129q26 64 86 104.5t128 40.5q74 0 126.5 -47.5t52.5 -121.5q0 -56 -28.5 -103t-79.5 -60q36 -5 55 -24q41 -41 41 -119q0 -46 -18.5 -96.5t-47.5 -85.5q-67 -81 -185 -84l17 143q57 15 57 122q0 59 -34 62l17 140q23 2 32.5 25.5t9.5 50.5 q0 43 -33 43q-38 0 -45 -63l-64 -523h-171l40 327h-47z"/>
<glyph glyph-name="agrave" horiz-adv-x="489" unicode="à" d="M325 530h-98l-68 148h138zM282 288q0 46 -28 46q-31 0 -45 -51t-14 -95q0 -55 31 -55q30 0 43 54.5t13 100.5zM479 467l-57 -467h-171q3 13 7.5 39.5t7.5 39.5q-53 -89 -130 -89q-33 0 -56.5 17t-35 45t-16.5 56t-5 59q0 69 14 128q8 33 21 63t32.5 58t48.5 44.5t63 16.5 q40 0 62 -21.5t37 -62.5q1 12 2.5 37t1.5 37h174z"/>
<glyph glyph-name="aacute" horiz-adv-x="489" unicode="á" d="M412 678l-105 -148h-98l65 148h138zM282 288q0 46 -28 46q-31 0 -45 -51t-14 -95q0 -55 31 -55q30 0 43 54.5t13 100.5zM479 467l-57 -467h-171q3 13 7.5 39.5t7.5 39.5q-53 -89 -130 -89q-33 0 -56.5 17t-35 45t-16.5 56t-5 59q0 69 14 128q8 33 21 63t32.5 58 t48.5 44.5t63 16.5q40 0 62 -21.5t37 -62.5q1 12 2.5 37t1.5 37h174z"/>
<glyph glyph-name="acircumflex" horiz-adv-x="489" unicode="â" d="M437 530h-125l-15 42l-28 -42h-102l89 132h134zM282 288q0 46 -28 46q-31 0 -45 -51t-14 -95q0 -55 31 -55q30 0 43 54.5t13 100.5zM479 467l-57 -467h-171q3 13 7.5 39.5t7.5 39.5q-53 -89 -130 -89q-33 0 -56.5 17t-35 45t-16.5 56t-5 59q0 69 14 128q8 33 21 63 t32.5 58t48.5 44.5t63 16.5q40 0 62 -21.5t37 -62.5q1 12 2.5 37t1.5 37h174z"/>
<glyph glyph-name="atilde" horiz-adv-x="489" unicode="ã" d="M398 665h88q-5 -56 -35.5 -94.5t-84.5 -38.5q-26 0 -62 16.5t-49 16.5q-25 0 -31 -35h-89q4 34 12 56q13 33 41 54.5t62 21.5q27 0 63.5 -16.5t52.5 -16.5q26 0 32 36zM282 288q0 46 -28 46q-31 0 -45 -51t-14 -95q0 -55 31 -55q30 0 43 54.5t13 100.5zM479 467l-57 -467 h-171q3 13 7.5 39.5t7.5 39.5q-53 -89 -130 -89q-33 0 -56.5 17t-35 45t-16.5 56t-5 59q0 69 14 128q8 33 21 63t32.5 58t48.5 44.5t63 16.5q40 0 62 -21.5t37 -62.5q1 12 2.5 37t1.5 37h174z"/>
<glyph glyph-name="adieresis" horiz-adv-x="489" unicode="ä" d="M288 602q0 -8 -5 -20q-9 -23 -30 -37.5t-45 -14.5q-28 0 -46 18t-18 46q0 32 24.5 56t56.5 24q31 0 47 -20t16 -52zM478 610q0 -31 -24.5 -55.5t-56.5 -24.5q-27 0 -45 18.5t-18 45.5q0 32 24 56t56 24q28 0 46 -18t18 -46zM282 288q0 46 -28 46q-31 0 -45 -51t-14 -95 q0 -55 31 -55q30 0 43 54.5t13 100.5zM479 467l-57 -467h-171q3 13 7.5 39.5t7.5 39.5q-53 -89 -130 -89q-33 0 -56.5 17t-35 45t-16.5 56t-5 59q0 69 14 128q8 33 21 63t32.5 58t48.5 44.5t63 16.5q40 0 62 -21.5t37 -62.5q1 12 2.5 37t1.5 37h174z"/>
<glyph glyph-name="aring" horiz-adv-x="489" unicode="å" d="M247 619q0 -16 10.5 -26.5t26.5 -10.5t26.5 10.5t10.5 26.5t-10.5 26.5t-26.5 10.5t-26.5 -10.5t-10.5 -26.5zM188 619q0 40 28 68t68 28t68 -28t28 -68t-28 -68t-68 -28t-68 28t-28 68zM282 288q0 46 -28 46q-31 0 -45 -51t-14 -95q0 -55 31 -55q30 0 43 54.5t13 100.5z M479 467l-57 -467h-171q3 13 7.5 39.5t7.5 39.5q-53 -89 -130 -89q-33 0 -56.5 17t-35 45t-16.5 56t-5 59q0 69 14 128q8 33 21 63t32.5 58t48.5 44.5t63 16.5q40 0 62 -21.5t37 -62.5q1 12 2.5 37t1.5 37h174z"/>
<glyph glyph-name="ae" horiz-adv-x="724" unicode="æ" d="M273 156q0 17 -11.5 26t-29.5 9q-20 0 -35 -13.5t-15 -33.5q0 -35 41 -35q22 0 36 13t14 34zM453 291h86q0 65 -36 65t-50 -65zM88 321l17 135q80 21 140 21q87 0 135 -46q68 46 138 46q88 0 135.5 -56t47.5 -145q0 -26 -8 -78h-252q0 -3 -0.5 -9t-0.5 -9q0 -62 37 -62 q27 0 43 35l161 -3q-17 -44 -36.5 -73t-53.5 -51q-56 -36 -135 -36q-77 0 -130 48q-74 -48 -154 -48q-66 0 -111 38t-45 103q0 79 53 124.5t133 45.5q39 0 86 -10q-1 57 -83 57q-60 0 -117 -27z"/>
<glyph glyph-name="ccedilla" horiz-adv-x="298" unicode="ç" d="M268 -106l-126 -117l-71 54l102 122zM309 475l-19 -152q-41 -3 -64 -30t-23 -68q0 -28 14.5 -50.5t40.5 -22.5h11l-19 -159q-22 -3 -46 -3q-88 0 -133.5 60t-45.5 150q0 109 71.5 193t178.5 84q12 0 34 -2z"/>
<glyph glyph-name="egrave" horiz-adv-x="474" unicode="è" d="M327 530h-98l-68 148h138zM207 290h79q0 2 0.5 6t0.5 6q0 47 -34 47q-20 0 -31.5 -18t-14.5 -41zM266 157h166q-26 -80 -84 -123.5t-141 -43.5q-89 0 -136.5 51t-47.5 140q0 116 68 205.5t180 89.5q87 0 133.5 -55.5t46.5 -144.5q0 -27 -8 -79h-250q-1 -6 -1 -19 q0 -53 32 -53q31 0 42 32z"/>
<glyph glyph-name="eacute" horiz-adv-x="474" unicode="é" d="M424 678l-105 -148h-98l65 148h138zM207 290h79q0 2 0.5 6t0.5 6q0 47 -34 47q-20 0 -31.5 -18t-14.5 -41zM266 157h166q-26 -80 -84 -123.5t-141 -43.5q-89 0 -136.5 51t-47.5 140q0 116 68 205.5t180 89.5q87 0 133.5 -55.5t46.5 -144.5q0 -27 -8 -79h-250 q-1 -6 -1 -19q0 -53 32 -53q31 0 42 32z"/>
<glyph glyph-name="ecircumflex" horiz-adv-x="474" unicode="ê" d="M422 530h-125l-15 42l-28 -42h-102l89 132h134zM207 290h79q0 2 0.5 6t0.5 6q0 47 -34 47q-20 0 -31.5 -18t-14.5 -41zM266 157h166q-26 -80 -84 -123.5t-141 -43.5q-89 0 -136.5 51t-47.5 140q0 116 68 205.5t180 89.5q87 0 133.5 -55.5t46.5 -144.5q0 -27 -8 -79h-250 q-1 -6 -1 -19q0 -53 32 -53q31 0 42 32z"/>
<glyph glyph-name="edieresis" horiz-adv-x="474" unicode="ë" d="M260 602q0 -8 -5 -20q-9 -23 -30 -37.5t-45 -14.5q-28 0 -46 18t-18 46q0 32 24.5 56t56.5 24q31 0 47 -20t16 -52zM450 610q0 -31 -24.5 -55.5t-56.5 -24.5q-27 0 -45 18.5t-18 45.5q0 32 24 56t56 24q28 0 46 -18t18 -46zM207 290h79q0 2 0.5 6t0.5 6q0 47 -34 47 q-20 0 -31.5 -18t-14.5 -41zM266 157h166q-26 -80 -84 -123.5t-141 -43.5q-89 0 -136.5 51t-47.5 140q0 116 68 205.5t180 89.5q87 0 133.5 -55.5t46.5 -144.5q0 -27 -8 -79h-250q-1 -6 -1 -19q0 -53 32 -53q31 0 42 32z"/>
<glyph glyph-name="igrave" horiz-adv-x="250" unicode="ì" d="M225 530h-98l-68 148h138zM239 467l-57 -467h-171l58 467h170z"/>
<glyph glyph-name="iacute" horiz-adv-x="250" unicode="í" d="M292 678l-105 -148h-98l65 148h138zM239 467l-57 -467h-171l58 467h170z"/>
<glyph glyph-name="icircumflex" horiz-adv-x="250" unicode="î" d="M297 530h-125l-15 42l-28 -42h-102l89 132h134zM239 467l-57 -467h-171l58 467h170z"/>
<glyph glyph-name="idieresis" horiz-adv-x="250" unicode="ï" d="M138 602q0 -8 -5 -20q-9 -23 -30 -37.5t-45 -14.5q-28 0 -46 18t-18 46q0 32 24.5 56t56.5 24q31 0 47 -20t16 -52zM328 610q0 -31 -24.5 -55.5t-56.5 -24.5q-27 0 -45 18.5t-18 45.5q0 32 24 56t56 24q28 0 46 -18t18 -46zM239 467l-57 -467h-171l58 467h170z"/>
<glyph glyph-name="eth" horiz-adv-x="481" unicode="ð" d="M291 268q0 77 -38 77q-32 0 -48 -53t-16 -95q0 -77 37 -77q17 0 31 18t20.5 43.5t10 48t3.5 38.5zM416 663l-70 -37q57 -56 86 -137t29 -168q0 -156 -63 -238q-71 -93 -185 -93q-93 0 -141 53t-48 147q0 113 64 198.5t174 87.5q-11 51 -34 88l-96 -54l-33 70l78 43 q-41 31 -77 48l52 69q72 -21 128 -62l98 53z"/>
<glyph glyph-name="ntilde" horiz-adv-x="483" unicode="ñ" d="M375 665h88q-5 -56 -35.5 -94.5t-84.5 -38.5q-25 0 -61 16.5t-50 16.5q-25 0 -31 -35h-89q4 34 12 56q13 33 41 54.5t62 21.5q27 0 63.5 -16.5t52.5 -16.5q26 0 32 36zM69 467h170q-14 -84 -15 -89q53 99 134 99q47 0 73.5 -33.5t26.5 -82.5q0 -22 -3 -43l-39 -318h-171 l31 247q2 18 2 26q0 31 -23 31q-36 0 -44 -69l-29 -235h-171z"/>
<glyph glyph-name="ograve" horiz-adv-x="480" unicode="ò" d="M330 530h-98l-68 148h138zM291 269q0 77 -37 77q-32 0 -48 -52.5t-16 -95.5q0 -77 37 -77q32 0 48 52.5t16 95.5zM456 280q0 -123 -64.5 -206.5t-183.5 -83.5q-90 0 -137 54t-47 146q0 116 66.5 201.5t179.5 85.5q89 0 137.5 -53.5t48.5 -143.5z"/>
<glyph glyph-name="oacute" horiz-adv-x="480" unicode="ó" d="M437 678l-105 -148h-98l65 148h138zM291 269q0 77 -37 77q-32 0 -48 -52.5t-16 -95.5q0 -77 37 -77q32 0 48 52.5t16 95.5zM456 280q0 -123 -64.5 -206.5t-183.5 -83.5q-90 0 -137 54t-47 146q0 116 66.5 201.5t179.5 85.5q89 0 137.5 -53.5t48.5 -143.5z"/>
<glyph glyph-name="ocircumflex" horiz-adv-x="480" unicode="ô" d="M422 530h-125l-15 42l-28 -42h-102l89 132h134zM291 269q0 77 -37 77q-32 0 -48 -52.5t-16 -95.5q0 -77 37 -77q32 0 48 52.5t16 95.5zM456 280q0 -123 -64.5 -206.5t-183.5 -83.5q-90 0 -137 54t-47 146q0 116 66.5 201.5t179.5 85.5q89 0 137.5 -53.5t48.5 -143.5z"/>
<glyph glyph-name="otilde" horiz-adv-x="480" unicode="õ" d="M373 665h88q-5 -56 -35.5 -94.5t-84.5 -38.5q-25 0 -61 16.5t-50 16.5q-25 0 -31 -35h-89q4 34 12 56q13 33 41 54.5t62 21.5q27 0 63.5 -16.5t52.5 -16.5q26 0 32 36zM291 269q0 77 -37 77q-32 0 -48 -52.5t-16 -95.5q0 -77 37 -77q32 0 48 52.5t16 95.5zM456 280 q0 -123 -64.5 -206.5t-183.5 -83.5q-90 0 -137 54t-47 146q0 116 66.5 201.5t179.5 85.5q89 0 137.5 -53.5t48.5 -143.5z"/>
<glyph glyph-name="odieresis" horiz-adv-x="480" unicode="ö" d="M263 602q0 -8 -5 -20q-9 -23 -30 -37.5t-45 -14.5q-28 0 -46 18t-18 46q0 32 24.5 56t56.5 24q31 0 47 -20t16 -52zM453 610q0 -31 -24.5 -55.5t-56.5 -24.5q-27 0 -45 18.5t-18 45.5q0 32 24 56t56 24q28 0 46 -18t18 -46zM291 269q0 77 -37 77q-32 0 -48 -52.5 t-16 -95.5q0 -77 37 -77q32 0 48 52.5t16 95.5zM456 280q0 -123 -64.5 -206.5t-183.5 -83.5q-90 0 -137 54t-47 146q0 116 66.5 201.5t179.5 85.5q89 0 137.5 -53.5t48.5 -143.5z"/>
<glyph glyph-name="divide" d="M338 170q0 -30 -22 -52t-52 -22q-31 0 -53 21.5t-22 52.5t21.5 52.5t52.5 21.5t53 -21.5t22 -52.5zM480 280h-433v120h433v-120zM338 510q0 -30 -22 -52t-52 -22q-31 0 -53 21.5t-22 52.5t21.5 52.5t52.5 21.5t53 -21.5t22 -52.5z" unicode="÷"/>
<glyph glyph-name="oslash" horiz-adv-x="480" unicode="ø" d="M291 269q0 77 -37 77q-32 0 -48 -52.5t-16 -95.5q0 -77 37 -77q32 0 48 52.5t16 95.5zM484 472l-58 -72q31 -50 31 -126q0 -119 -66.5 -201.5t-182.5 -82.5q-54 0 -96 21l-54 -67l-60 48l58 73q-32 53 -32 125q0 115 67 201t178 86q55 0 100 -24l54 66z"/>
<glyph glyph-name="ugrave" horiz-adv-x="492" unicode="ù" d="M325 530h-98l-68 148h138zM482 467l-35 -287q-12 -99 -85 -147q-66 -43 -145 -43q-78 0 -132 39.5t-54 114.5l3 36l35 287h170l-32 -263q0 -1 -1.5 -14.5t-1.5 -20.5q0 -34 31 -34q13 0 22 6t13.5 19t5.5 20.5t3 23.5l32 263h171z"/>
<glyph glyph-name="uacute" horiz-adv-x="492" unicode="ú" d="M422 678l-105 -148h-98l65 148h138zM482 467l-35 -287q-12 -99 -85 -147q-66 -43 -145 -43q-78 0 -132 39.5t-54 114.5l3 36l35 287h170l-32 -263q0 -1 -1.5 -14.5t-1.5 -20.5q0 -34 31 -34q13 0 22 6t13.5 19t5.5 20.5t3 23.5l32 263h171z"/>
<glyph glyph-name="ucircumflex" horiz-adv-x="492" unicode="û" d="M418 530h-125l-15 42l-28 -42h-102l89 132h134zM482 467l-35 -287q-12 -99 -85 -147q-66 -43 -145 -43q-78 0 -132 39.5t-54 114.5l3 36l35 287h170l-32 -263q0 -1 -1.5 -14.5t-1.5 -20.5q0 -34 31 -34q13 0 22 6t13.5 19t5.5 20.5t3 23.5l32 263h171z"/>
<glyph glyph-name="udieresis" horiz-adv-x="492" unicode="ü" d="M269 602q0 -8 -5 -20q-9 -23 -30 -37.5t-45 -14.5q-28 0 -46 18t-18 46q0 32 24.5 56t56.5 24q31 0 47 -20t16 -52zM459 610q0 -31 -24.5 -55.5t-56.5 -24.5q-27 0 -45 18.5t-18 45.5q0 32 24 56t56 24q28 0 46 -18t18 -46zM482 467l-35 -287q-12 -99 -85 -147 q-66 -43 -145 -43q-78 0 -132 39.5t-54 114.5l3 36l35 287h170l-32 -263q0 -1 -1.5 -14.5t-1.5 -20.5q0 -34 31 -34q13 0 22 6t13.5 19t5.5 20.5t3 23.5l32 263h171z"/>
<glyph glyph-name="yacute" horiz-adv-x="458" unicode="ý" d="M412 678l-105 -148h-98l65 148h138zM487 467l-301 -682h-176l110 234l-82 448h172q2 -18 7 -57t7.5 -61.5t5 -55.5t2.5 -61q0 -5 -0.5 -15t-0.5 -15q36 133 48 164l38 101h170z"/>
<glyph glyph-name="thorn" horiz-adv-x="490" unicode="þ" d="M291 270q0 64 -30 64q-28 0 -41 -48t-13 -87q0 -63 28 -63q15 0 27 16.5t17.5 40t8.5 43.5t3 34zM275 729l-32 -262q-3 -22 -13 -66q48 76 115 76q46 0 75 -32t38.5 -71t9.5 -84q0 -43 -9.5 -91.5t-29 -97t-56 -80t-83.5 -31.5q-37 0 -59.5 18t-41.5 55q-5 -91 -32 -278 h-171l118 944h171z"/>
<glyph glyph-name="OE" horiz-adv-x="697" unicode="Œ" d="M220 262q0 -74 25 -96q10 -10 26 -10q17 0 33 16q29 29 46 119q12 60 12 119q0 70 -21 91q-10 10 -24 10q-20 0 -35 -16q-26 -27 -43 -92q-19 -72 -19 -141zM675 413l-19 -151h-134l-12 -102h149l-19 -160h-328l6 49q-44 -57 -102 -57q-83 0 -131 74q-47 74 -47 190 q0 105 31.5 201.5t89.5 154.5q61 61 136 61q66 0 93 -52l6 46h326l-19 -157h-148l-12 -97h134z"/>
<glyph glyph-name="oe" horiz-adv-x="726" unicode="œ" d="M293 271q0 76 -38 76q-32 0 -48 -53t-16 -96q0 -77 37 -77q23 0 38.5 31t21 63t5.5 56zM454 290h86q0 59 -36 59t-50 -59zM521 157h162q-27 -79 -86.5 -123t-138.5 -44q-73 0 -121 43q-46 -43 -117 -43q-93 0 -144.5 53t-51.5 147q0 120 66.5 202.5t184.5 83.5 q73 0 117 -42q58 42 129 42q87 -1 135 -56t48 -143q0 -30 -9 -80h-253v-17q0 -61 36 -61q30 0 43 38z"/>
<glyph glyph-name="Scaron" horiz-adv-x="398" unicode="Š" d="M438 852l-88 -132h-134l-48 132h125l15 -42l29 42h101zM408 645l-25 -204q-37 73 -95 73q-19 0 -36 -12.5t-17 -31.5t22 -41t48 -41.5t48 -57.5t22 -84q0 -105 -69 -181.5t-173 -76.5q-63 0 -127 29l26 209q44 -73 104 -73q23 0 40.5 13.5t17.5 36.5q0 16 -14 32.5 t-34.5 33.5t-41 38t-34.5 54t-14 73q0 95 67.5 170t160.5 75q62 0 124 -34z"/>
<glyph glyph-name="scaron" horiz-adv-x="389" unicode="š" d="M413 662l-88 -132h-134l-48 132h125l15 -42l29 42h101zM390 439l-74 -127q-35 41 -65 41q-11 0 -20.5 -7t-9.5 -18q0 -17 22 -29.5t49 -22t49 -36.5t22 -69q0 -79 -61.5 -130t-142.5 -51q-45 0 -79.5 11.5t-79.5 37.5l78 129q38 -49 79 -49q14 0 25 7t11 20q0 10 -8 17.5 t-13 9.5t-19 7q-49 19 -76.5 46t-27.5 73q0 79 64 128.5t145 49.5q66 0 132 -38z"/>
<glyph glyph-name="Ydieresis" horiz-adv-x="493" unicode="Ÿ" d="M288 792q0 -7 -5 -20q-9 -23 -30 -37.5t-45 -14.5q-28 0 -46 18t-18 46q0 32 24.5 56t56.5 24q31 0 47 -20t16 -52zM478 800q0 -31 -24.5 -55.5t-56.5 -24.5q-27 0 -45 18.5t-18 45.5q0 32 24 56t56 24q28 0 46 -18t18 -46zM547 667l-200 -385l-35 -282h-177l35 282 l-116 385h185q30 -146 37 -206q21 56 87 206h184z"/>
<glyph glyph-name="circumflex" d="M422 530h-125l-15 42l-28 -42h-102l89 132h134z" unicode="ˆ"/>
<glyph glyph-name="tilde" d="M383 665h88q-5 -56 -35.5 -94.5t-84.5 -38.5q-25 0 -61 16.5t-50 16.5q-25 0 -31 -35h-89q4 34 12 56q13 33 41 54.5t62 21.5q27 0 63.5 -16.5t52.5 -16.5q26 0 32 36z" unicode="˜"/>
<glyph glyph-name="uni0394" horiz-adv-x="667" unicode="Δ" d="M434 118l-130 390l-130 -390h260zM622 0h-634l245 667h141z"/>
<glyph glyph-name="uni03BC" horiz-adv-x="582" unicode="μ" d="M515 0h-156l8 64q-14 -33 -37 -53q-25 -21 -61 -21q-39 0 -62 23q-21 21 -31 53l-34 -281h-156l83 682h172l-27 -219q-3 -36 -3 -42q0 -40 19 -64q20 -24 53 -24q28 0 50 20q31 29 41 114l26 215h172z"/>
<glyph glyph-name="pi" horiz-adv-x="708" unicode="π" d="M672 327h-76v-327h-172v327h-135v-327h-172v327h-77v140h632v-140z"/>
<glyph glyph-name="afii10023" horiz-adv-x="410" unicode="Ё" d="M254 785q0 -7 -5 -20q-9 -23 -30 -37.5t-45 -14.5q-28 0 -46 18t-18 46q0 32 24.5 56t56.5 24q31 0 47 -20t16 -52zM439 793q0 -31 -24.5 -55.5t-56.5 -24.5q-27 0 -45 18.5t-18 45.5q0 32 24 56t56 24q28 0 46 -18t18 -46zM430 667l-20 -157h-152l-12 -97h137l-19 -151 h-136l-13 -102h152l-19 -160h-330l82 667h330z"/>
<glyph glyph-name="afii10051" horiz-adv-x="581" unicode="Ђ" d="M76 0l63 507h-99l20 160h429l-20 -160h-154l-8 -65q-4 -38 -13 -64q55 33 109 33q71 0 113 -53q40 -50 40 -133q0 -61 -19.5 -114.5t-51.5 -83.5q-45 -43 -123 -43q-39 0 -74 14l31 142q11 -9 24 -9t24 14q13 17 13 54q0 29 -12 43q-12 15 -30 15q-20 0 -56 -17l-29 -240 h-177z"/>
<glyph glyph-name="afii10052" horiz-adv-x="382" unicode="Ѓ" d="M407 868l-105 -148h-98l65 148h138zM413 667l-19 -157h-136l-63 -510h-177l82 667h313z"/>
<glyph glyph-name="afii10053" horiz-adv-x="485" unicode="Є" d="M446 210l-32 -189q-60 -33 -130 -33q-108 0 -171 65q-75 77 -75 218q0 91 31.5 181t91.5 148q82 79 207 79q73 0 132 -32l-23 -189q-18 23 -39 37q-27 17 -63 17q-52 0 -86 -32q-29 -27 -42 -67h164l-20 -149h-165q1 -46 32 -77q28 -27 74 -27q35 0 64 13q28 12 50 37z "/>
<glyph glyph-name="afii10054" horiz-adv-x="398" unicode="Ѕ" d="M408 645l-25 -204q-37 73 -95 73q-19 0 -36 -12.5t-17 -31.5t22 -41t48 -41.5t48 -57.5t22 -84q0 -105 -69 -181.5t-173 -76.5q-63 0 -127 29l26 209q44 -73 104 -73q23 0 40.5 13.5t17.5 36.5q0 16 -14 32.5t-34.5 33.5t-41 38t-34.5 54t-14 73q0 95 67.5 170t160.5 75 q62 0 124 -34z"/>
<glyph glyph-name="afii10055" horiz-adv-x="269" unicode="І" d="M277 667l-82 -667h-177l82 667h177z"/>
<glyph glyph-name="afii10056" horiz-adv-x="269" unicode="Ї" d="M184 792q0 -10 -4 -20q-6 -23 -21 -37.5t-31 -14.5q-20 0 -32.5 18t-12.5 46q0 32 17 56t40 24q22 0 33 -20t11 -52zM317 800q0 -32 -17.5 -56t-39.5 -24q-19 0 -31.5 18.5t-12.5 45.5q0 32 16.5 56t39.5 24q20 0 32.5 -18t12.5 -46zM277 667l-82 -667h-177l82 667h177z "/>
<glyph glyph-name="afii10057" horiz-adv-x="349" unicode="Ј" d="M357 667l-57 -463q-11 -85 -37 -125q-57 -91 -177 -91q-53 0 -113 22l23 186q25 -39 66 -39q55 0 65 82l52 428h178z"/>
<glyph glyph-name="afii10058" horiz-adv-x="803" unicode="Љ" d="M535 278l-16 -133q4 -1 12 -1q38 0 61 25q18 18 18 51q0 30 -20 46q-16 13 -44 13q-7 0 -11 -1zM527 0h-201l62 503h-80l-27 -221q-22 -179 -82 -240q-52 -53 -147 -53q-40 0 -72 8l22 178q16 -16 37 -16q25 0 42 15q23 22 32 97l49 396h421l-30 -245h9q118 0 174 -55 q52 -52 52 -133q0 -103 -65 -168q-67 -66 -196 -66z"/>
<glyph glyph-name="afii10059" horiz-adv-x="758" unicode="Њ" d="M490 278l-16 -133q4 -1 12 -1q38 0 61 25q18 18 18 51q0 30 -20 46q-16 13 -44 13q-7 0 -11 -1zM482 0h-201l33 278h-86l-33 -278h-177l82 667h177l-30 -245h86l30 245h175l-30 -245h9q118 0 174 -55q52 -52 52 -133q0 -103 -65 -168q-67 -66 -196 -66z"/>
<glyph glyph-name="afii10060" horiz-adv-x="569" unicode="Ћ" d="M75 0l64 507h-99l20 160h429l-20 -160h-154l-15 -107q41 15 90 15q73 0 114 -40q40 -39 40 -106q0 -11 -7 -76l-23 -193h-176l20 158q5 45 5 50q0 24 -10 35q-10 12 -31 12q-20 0 -40 -11l-30 -244h-177z"/>
<glyph glyph-name="afii10061" horiz-adv-x="533" unicode="Ќ" d="M472 868l-105 -148h-98l65 148h138zM564 667l-181 -322l117 -345h-191l-79 319l-35 -319h-177l82 667h177l-40 -298l140 298h187z"/>
<glyph glyph-name="afii10062" d="M377 874l125 -37q-17 -67 -72 -99q-45 -27 -121 -27q-75 0 -118 26q-56 34 -73 99l127 38q4 -26 20 -41q17 -15 47 -15t47 17q14 16 18 39zM54 667h184l23 -109q15 -70 17 -141q22 78 49 146l41 104h186l-318 -667h-177l108 230z" unicode="Ў"/>
<glyph glyph-name="afii10145" horiz-adv-x="530" unicode="Џ" d="M277 667l-62 -504h84l62 504h177l-82 -667h-139l-16 -130h-160l16 130h-139l82 667h177z"/>
<glyph glyph-name="afii10017" horiz-adv-x="524" unicode="А" d="M300 305v87q0 1 3 115q-3 -11 -10.5 -43.5t-12.5 -50.5q-6 -21 -24 -86t-29 -100h75q-2 52 -2 78zM491 0h-183l-3 85h-119l-25 -85h-184l240 667h217z"/>
<glyph glyph-name="afii10018" horiz-adv-x="491" unicode="Б" d="M228 272l-15 -127q4 -1 13 -1q34 0 52 20q20 20 20 56q0 27 -16 40q-13 13 -39 13q-3 0 -8.5 -0.5t-6.5 -0.5zM222 0h-204l82 667h367l-19 -157h-190l-13 -104h10q121 0 175 -54q46 -46 46 -122q0 -104 -64 -165q-67 -65 -190 -65z"/>
<glyph glyph-name="afii10019" horiz-adv-x="522" unicode="В" d="M229 272l-16 -127q5 -1 15 -1q34 0 58 20t24 54q0 28 -19 41.5t-48 13.5q-2 0 -6.5 -0.5t-7.5 -0.5zM259 522l-14 -114q4 -1 12 -1q33 0 55 17.5t22 48.5q0 50 -56 50q-13 0 -19 -1zM100 667h206q206 0 206 -165q0 -68 -36.5 -111t-103.5 -49q60 -8 88.5 -37.5 t28.5 -89.5q0 -94 -64.5 -154.5t-158.5 -60.5h-248z"/>
<glyph glyph-name="afii10020" horiz-adv-x="382" unicode="Г" d="M413 667l-19 -157h-136l-63 -510h-177l82 667h313z"/>
<glyph glyph-name="afii10021" horiz-adv-x="583" unicode="Д" d="M297 509l-21 -169q-11 -94 -29 -131q-15 -30 -43 -51h123l43 351h-73zM152 667h411l-63 -509h56l-35 -288h-152l16 130h-247l-16 -130h-152l36 288q34 8 56 30q36 36 49 142z"/>
<glyph glyph-name="afii10022" horiz-adv-x="405" unicode="Е" d="M430 667l-20 -157h-152l-12 -97h137l-19 -151h-136l-13 -102h152l-19 -160h-330l82 667h330z"/>
<glyph glyph-name="afii10024" horiz-adv-x="777" unicode="Ж" d="M709 0h-182l-61 321l-34 -321h-170l45 321l-140 -321h-182l177 349l-98 318h180l69 -300l31 300h170l-42 -300l142 300h178l-176 -324z"/>
<glyph glyph-name="afii10025" horiz-adv-x="452" unicode="З" d="M70 453l24 190q62 36 139 36q107 0 163 -58q46 -47 46 -123q0 -73 -40 -114q-37 -37 -96 -45q52 0 86 -34t34 -92q0 -44 -18.5 -88.5t-50.5 -74.5q-66 -62 -180 -62q-75 0 -157 43l25 201q21 -36 49 -57q30 -23 69 -23q35 0 53 17q17 15 17 42t-24 43q-19 12 -58 12h-26 l17 148h24q44 0 65 11q26 14 26 42q0 21 -18 35q-19 15 -55 15q-32 0 -61 -18q-23 -14 -53 -46z"/>
<glyph glyph-name="afii10026" horiz-adv-x="557" unicode="И" d="M18 0l82 667h170l-23 -185q-14 -118 -47 -225q45 105 92 195l115 215h158l-82 -667h-170l22 178q12 102 37 214q-27 -79 -87 -190l-109 -202h-158z"/>
<glyph glyph-name="afii10027" horiz-adv-x="557" unicode="Й" d="M417 874l125 -37q-17 -67 -72 -99q-45 -27 -121 -27q-75 0 -118 26q-56 34 -73 99l127 38q4 -26 20 -41q17 -15 47 -15t47 17q14 16 18 39zM18 0l82 667h170l-23 -185q-14 -118 -47 -225q45 105 92 195l115 215h158l-82 -667h-170l22 178q12 102 37 214q-27 -79 -87 -190 l-109 -202h-158z"/>
<glyph glyph-name="afii10028" horiz-adv-x="533" unicode="К" d="M564 667l-181 -322l117 -345h-191l-79 319l-35 -319h-177l82 667h177l-40 -298l140 298h187z"/>
<glyph glyph-name="afii10029" horiz-adv-x="580" unicode="Л" d="M162 667h426l-82 -667h-180l62 503h-80l-27 -221q-22 -179 -82 -240q-52 -53 -147 -53q-40 0 -72 8l22 178q16 -16 37 -16q25 0 42 15q23 22 32 97z"/>
<glyph glyph-name="afii10030" horiz-adv-x="755" unicode="М" d="M712 667l-18 -667h-185q10 130 35 425q-28 -110 -126 -425h-145l-11 321q0 5 -0.5 17t-0.5 17q0 24 2 70q-13 -100 -71 -425h-190l158 667h221l9 -225q2 -34 2 -50q0 -12 -0.5 -25.5t-1.5 -29.5t-1 -25q10 43 24 94t23 81t30 95t27 85h219z"/>
<glyph glyph-name="afii10031" horiz-adv-x="531" unicode="Н" d="M539 667l-82 -667h-177l33 268h-85l-33 -268h-177l82 667h177l-29 -236h85l29 236h177z"/>
<glyph glyph-name="afii10032" horiz-adv-x="558" unicode="О" d="M315 511q-17 0 -35 -19q-25 -27 -41 -91q-17 -67 -17 -139t22 -94q11 -11 26 -11q19 0 33 16q28 31 44 99q15 61 15 134q0 77 -22 96q-10 9 -25 9zM337 679q86 0 140 -57q69 -72 69 -208q0 -96 -30.5 -195t-94.5 -161q-71 -70 -167 -70q-87 0 -146 62q-70 72 -70 213 q0 116 34.5 203t88.5 139q75 74 176 74z"/>
<glyph glyph-name="afii10033" horiz-adv-x="531" unicode="П" d="M539 667l-82 -667h-177l62 504h-85l-62 -504h-177l82 667h439z"/>
<glyph glyph-name="afii10034" horiz-adv-x="498" unicode="Р" d="M241 368h9q36 0 57.5 25.5t21.5 61.5q0 29 -14.5 47.5t-42.5 18.5h-13zM100 667h172q238 0 238 -193q0 -115 -73 -190q-66 -67 -180 -67q-11 0 -35 2l-27 -219h-177z"/>
<glyph glyph-name="afii10035" horiz-adv-x="438" unicode="С" d="M461 662l-23 -190q-35 40 -77 40q-50 0 -83.5 -39.5t-45 -87t-11.5 -96.5q0 -55 22 -91t73 -36q47 0 97 43l-34 -193q-59 -24 -109 -24q-113 0 -172.5 77.5t-59.5 194.5q0 77 21 150t61 134t106 98t147 37q48 0 88 -17z"/>
<glyph glyph-name="afii10036" horiz-adv-x="377" unicode="Т" d="M431 667l-20 -160h-102l-62 -507h-177l62 507h-98l20 160h377z"/>
<glyph glyph-name="afii10037" d="M54 667h184l23 -109q15 -70 17 -141q22 78 49 146l41 104h186l-318 -667h-177l108 230z" unicode="У"/>
<glyph glyph-name="afii10038" horiz-adv-x="703" unicode="Ф" d="M276 245l27 218q-37 -1 -63 -25q-36 -34 -36 -98q0 -45 24 -70q20 -20 48 -25zM451 463l-26 -217q42 1 69 30q31 34 31 96q0 45 -23 68q-20 20 -51 23zM232 0l11 90q-82 9 -140 63q-65 63 -65 169q0 131 75 211q74 78 195 85l10 86h176l-10 -86q88 -10 142 -65 q65 -65 65 -174q0 -132 -78 -208q-73 -71 -194 -81l-11 -90h-176z"/>
<glyph glyph-name="afii10039" horiz-adv-x="509" unicode="Х" d="M552 667l-190 -321l119 -346h-197q-9 37 -26 124q-8 35 -10 55q-25 -61 -83 -179h-193l202 346l-111 321h197q3 -19 11 -55.5t11 -54.5l9 -48q14 45 62 158h199z"/>
<glyph glyph-name="afii10040" horiz-adv-x="558" unicode="Ц" d="M277 667l-62 -504h82l62 504h177l-62 -504h70l-37 -293h-160l17 130h-346l82 667h177z"/>
<glyph glyph-name="afii10041" horiz-adv-x="521" unicode="Ч" d="M270 0l33 269q-38 -11 -79 -11q-71 0 -113 33q-51 40 -51 112q0 29 6 74l24 190h176l-22 -178q-3 -27 -3 -30q0 -21 13 -32q12 -11 35 -11q18 0 33 7l30 244h177l-82 -667h-177z"/>
<glyph glyph-name="afii10042" horiz-adv-x="780" unicode="Ш" d="M276 667l-62 -504h80l62 504h176l-62 -504h80l62 504h176l-82 -667h-688l82 667h176z"/>
<glyph glyph-name="afii10043" horiz-adv-x="820" unicode="Щ" d="M278 667l-62 -504h80l62 504h176l-62 -504h80l62 504h176l-62 -504h78l-37 -293h-160l17 130h-606l82 667h176z"/>
<glyph glyph-name="afii10044" horiz-adv-x="555" unicode="Ъ" d="M287 278l-16 -133q4 -1 12 -1q38 0 61 25q18 18 18 51q0 30 -20 46q-16 13 -44 13q-7 0 -11 -1zM279 0h-203l62 507h-83l20 160h260l-30 -245h9q118 0 174 -55q52 -52 52 -133q0 -103 -65 -168q-67 -66 -196 -66z"/>
<glyph glyph-name="afii10045" horiz-adv-x="751" unicode="Ы" d="M229 278l-16 -133q4 -1 12 -1q38 0 61 25q18 18 18 51q0 30 -20 46q-16 13 -44 13q-7 0 -11 -1zM220 0h-202l82 667h177l-30 -245h8q118 0 174 -55q52 -50 52 -131q0 -105 -65 -170q-67 -66 -196 -66zM674 0h-177l79 667h183z"/>
<glyph glyph-name="afii10046" horiz-adv-x="497" unicode="Ь" d="M229 278l-16 -133q4 -1 12 -1q38 0 61 25q18 18 18 51q0 30 -20 46q-16 13 -44 13q-7 0 -11 -1zM221 0h-203l82 667h177l-30 -245h9q118 0 174 -55q52 -52 52 -133q0 -103 -65 -168q-67 -66 -196 -66z"/>
<glyph glyph-name="afii10047" horiz-adv-x="496" unicode="Э" d="M40 29l11 193q16 -25 43 -44q29 -20 66 -20q45 0 77 28q31 28 40 75h-151l19 151h150q-7 48 -36 74t-76 26q-32 0 -61 -16q-24 -14 -44 -35l24 188q55 30 117 30q115 0 184 -69q37 -37 59 -97.5t22 -132.5q0 -87 -30.5 -176t-92.5 -147q-73 -69 -183 -69q-40 0 -69 9.5 t-69 31.5z"/>
<glyph glyph-name="afii10048" horiz-adv-x="810" unicode="Ю" d="M567 511q-17 0 -35 -19q-25 -27 -41 -91q-17 -67 -17 -139t22 -94q11 -11 26 -11q19 0 33 16q28 31 44 99q15 61 15 134q0 77 -22 96q-10 9 -25 9zM247 425h69q24 109 97 182q73 72 174 72q88 0 142 -57q69 -72 69 -208q0 -97 -30.5 -195.5t-94.5 -161.5 q-69 -69 -172 -69q-84 0 -137 53q-70 70 -70 227h-66l-33 -268h-177l82 667h177z"/>
<glyph glyph-name="afii10049" horiz-adv-x="541" unicode="Я" d="M334 358l19 159q-2 0 -6.5 0.5t-7.5 0.5q-34 0 -56 -21q-28 -24 -28 -70q0 -30 19 -49q22 -20 54 -20h6zM0 0l155 269q-41 18 -63 50q-28 40 -28 102q0 107 63 172q73 74 250 74h172l-82 -667h-177l19 147q12 91 18 120l-128 -267h-199z"/>
<glyph glyph-name="afii10065" horiz-adv-x="489" unicode="а" d="M282 288q0 46 -28 46q-31 0 -45 -51t-14 -95q0 -55 31 -55q30 0 43 54.5t13 100.5zM479 467l-57 -467h-171q3 13 7.5 39.5t7.5 39.5q-53 -89 -130 -89q-33 0 -56.5 17t-35 45t-16.5 56t-5 59q0 69 14 128q8 33 21 63t32.5 58t48.5 44.5t63 16.5q40 0 62 -21.5t37 -62.5 q1 12 2.5 37t1.5 37h174z"/>
<glyph glyph-name="afii10066" horiz-adv-x="503" unicode="б" d="M270 346q-13 0 -24 -11q-18 -18 -29 -60.5t-11 -79.5t11 -57q10 -17 26 -17q15 0 25 12q19 19 29 61t10 79q0 35 -11 56q-8 17 -26 17zM376 557l-38 -11q-74 -22 -102 -49q-42 -40 -49 -103q19 39 47 59q33 24 81 24q64 0 106 -42q51 -53 51 -152q0 -60 -19.5 -127 t-64.5 -110q-59 -56 -159 -56q-84 0 -131 48q-58 59 -58 186q0 96 30 211q31 116 90 174q33 32 70.5 49t91.5 31q51 13 67 32q11 12 13 29h131q-5 -77 -50 -131q-35 -42 -107 -62z"/>
<glyph glyph-name="afii10067" horiz-adv-x="476" unicode="в" d="M195 108h6q35 0 48 9q19 13 19 37q0 20 -17 30q-15 6 -38 6h-8zM216 280h7q36 0 50 12q15 13 15 34q0 16 -14 26q-11 7 -41 7h-7zM68 467h200q113 0 153 -40q31 -33 31 -83q0 -47 -26 -73q-31 -31 -83 -31v-2h4q47 0 73 -27q22 -24 22 -64q0 -58 -35 -96 q-48 -51 -145 -51h-251z"/>
<glyph glyph-name="afii10068" horiz-adv-x="364" unicode="г" d="M351 327h-128l-40 -327h-172l57 467h300z"/>
<glyph glyph-name="afii10069" horiz-adv-x="533" unicode="д" d="M294 136l24 195h-61l-10 -79q-6 -45 -17 -70q-13 -28 -38 -46h102zM122 467h378l-40 -331h53l-32 -251h-138l15 115h-236l-14 -115h-138l31 251q35 7 55 27q33 31 45 132z"/>
<glyph glyph-name="afii10070" horiz-adv-x="474" unicode="е" d="M207 290h79q0 2 0.5 6t0.5 6q0 47 -34 47q-20 0 -31.5 -18t-14.5 -41zM266 157h166q-26 -80 -84 -123.5t-141 -43.5q-89 0 -136.5 51t-47.5 140q0 116 68 205.5t180 89.5q87 0 133.5 -55.5t46.5 -144.5q0 -27 -8 -79h-250q-1 -6 -1 -19q0 -53 32 -53q31 0 42 32z"/>
<glyph glyph-name="afii10072" horiz-adv-x="723" unicode="ж" d="M686 0h-187l-26 96q-18 67 -25 120l-27 -216h-168l27 216q-29 -70 -55 -120l-50 -96h-192l145 239l-79 228h178l30 -104q17 -60 26 -118l27 222h168l-27 -222q18 44 56 118l54 104h180l-137 -228z"/>
<glyph glyph-name="afii10073" horiz-adv-x="435" unicode="з" d="M108 303l-55 127q41 21 74 32q48 15 101 15q99 0 147 -48q34 -34 34 -85q0 -48 -29 -75q-28 -27 -74 -30q42 -3 68 -28q25 -23 25 -65q0 -55 -41 -99q-55 -57 -157 -57q-62 0 -110 18q-40 15 -81 45l82 121q12 -23 37 -38q22 -14 49 -14q16 0 32 8q12 8 12 23 q0 19 -20 26q-15 5 -49 5h-20l13 109h30q26 0 41 4q22 7 22 25q0 12 -13 20q-11 7 -33 7q-25 0 -46 -12q-12 -7 -39 -34z"/>
<glyph glyph-name="afii10074" horiz-adv-x="504" unicode="и" d="M68 467h166l-16 -131q-7 -59 -22 -123q24 53 46 90l94 164h158l-57 -467h-166l15 125q4 35 22 129q-23 -55 -46 -94l-93 -160h-158z"/>
<glyph glyph-name="afii10075" horiz-adv-x="504" unicode="й" d="M351 677l111 -26q-19 -67 -72 -102q-39 -25 -100 -25q-65 0 -103 27q-50 34 -60 100l118 26q-2 -27 12 -42q12 -13 34 -13q25 0 38 13q16 14 22 42zM68 467h166l-16 -131q-7 -59 -22 -123q24 53 46 90l94 164h158l-57 -467h-166l15 125q4 35 22 129q-23 -55 -46 -94 l-93 -160h-158z"/>
<glyph glyph-name="afii10076" horiz-adv-x="487" unicode="к" d="M456 0h-190l-24 80q-24 81 -34 123l-25 -203h-172l57 467h172l-27 -221q31 77 70 147l40 74h182l-139 -234z"/>
<glyph glyph-name="afii10077" horiz-adv-x="506" unicode="л" d="M496 467l-57 -467h-172l40 327h-60l-13 -104q-18 -145 -72 -196q-41 -38 -115 -38q-35 0 -67 10l17 139q10 -7 24 -7q20 0 32 10q22 17 31 90l29 236h383z"/>
<glyph glyph-name="afii10078" horiz-adv-x="636" unicode="м" d="M347 0h-118l-17 169q-5 48 -5 87v20q-4 -44 -17 -108l-33 -168h-167l118 467h182l16 -156q6 -62 6 -98v-19q12 57 32 112l56 161h182l4 -467h-167l9 155q3 65 9 121q-12 -55 -34 -118z"/>
<glyph glyph-name="afii10079" horiz-adv-x="486" unicode="н" d="M240 467l-19 -159h64l19 159h172l-57 -467h-172l21 168h-64l-21 -168h-172l57 467h172z"/>
<glyph glyph-name="afii10080" horiz-adv-x="480" unicode="о" d="M254 346q-13 0 -24 -11q-18 -18 -29 -60.5t-11 -79.5t11 -57q10 -17 26 -17q15 0 25 12q19 19 29 61t10 79q0 35 -11 56q-8 17 -26 17zM270 477q82 0 131 -47q55 -53 55 -152q0 -66 -22 -126.5t-62 -99.5q-64 -62 -164 -62q-79 0 -127 44q-57 52 -57 156q0 137 85 222 q67 65 161 65z"/>
<glyph glyph-name="afii10081" horiz-adv-x="484" unicode="п" d="M417 0h-172l40 327h-62l-40 -327h-172l57 467h406z"/>
<glyph glyph-name="afii10082" horiz-adv-x="489" unicode="р" d="M290 272q0 62 -31 62q-15 0 -26.5 -16t-17 -40.5t-8 -44.5t-2.5 -35q0 -62 29 -62q28 0 42 48.5t14 87.5zM241 467l-12 -66q49 76 115 76q46 0 75 -32t38.5 -71.5t9.5 -84.5q0 -67 -15 -122q-18 -70 -60 -123.5t-105 -53.5t-99 73q0 -25 -6 -77l-25 -201h-171l85 682h170 z"/>
<glyph glyph-name="afii10083" horiz-adv-x="298" unicode="с" d="M309 475l-19 -152q-41 -3 -64 -30t-23 -68q0 -28 14.5 -50.5t40.5 -22.5h11l-19 -159q-22 -3 -46 -3q-88 0 -133.5 60t-45.5 150q0 109 71.5 193t178.5 84q12 0 34 -2z"/>
<glyph glyph-name="afii10084" horiz-adv-x="376" unicode="т" d="M398 467l-17 -140h-94l-41 -327h-170l40 327h-90l17 140h355z"/>
<glyph glyph-name="afii10085" horiz-adv-x="458" unicode="у" d="M487 467l-301 -682h-176l110 234l-82 448h172q2 -18 7 -57t7.5 -61.5t5 -55.5t2.5 -61q0 -5 -0.5 -15t-0.5 -15q36 133 48 164l38 101h170z"/>
<glyph glyph-name="afii10086" horiz-adv-x="641" unicode="ф" d="M238 133l25 201q-32 -2 -54 -22q-34 -31 -34 -96q0 -40 18 -62q16 -21 45 -21zM403 334l-25 -201q35 1 56 22q33 32 33 94q0 38 -17 60q-15 20 -47 25zM179 -215l27 208q-72 3 -125 56q-57 59 -57 162q0 121 74 193q65 63 167 70l25 193h170l-25 -193q74 -13 125 -65 q57 -61 57 -154q0 -127 -73 -198q-66 -64 -168 -64l-27 -208h-170z"/>
<glyph glyph-name="afii10087" horiz-adv-x="475" unicode="х" d="M491 467l-163 -223l119 -244h-198q-17 62 -25 110q-20 -45 -61 -110h-191l169 240l-104 227h195q18 -87 20 -101q8 20 26 54t24 47h189z"/>
<glyph glyph-name="afii10088" horiz-adv-x="507" unicode="ц" d="M304 467h172l-40 -327h61l-31 -255h-142l14 115h-327l57 467h172l-40 -327h64z"/>
<glyph glyph-name="afii10089" horiz-adv-x="476" unicode="ч" d="M237 0l20 161q-34 -10 -71 -10q-73 0 -112 37q-34 34 -34 91q0 27 5 65l15 123h170l-15 -122q-2 -14 -2 -26q0 -16 9 -23q8 -7 24 -7q15 0 27 8l21 170h172l-57 -467h-172z"/>
<glyph glyph-name="afii10090" horiz-adv-x="714" unicode="ш" d="M302 467h168l-40 -327h66l40 327h168l-57 -467h-636l57 467h168l-40 -327h66z"/>
<glyph glyph-name="afii10091" horiz-adv-x="741" unicode="щ" d="M302 467h168l-40 -327h66l40 327h168l-40 -327h67l-31 -255h-142l14 115h-561l57 467h168l-40 -327h66z"/>
<glyph glyph-name="afii10092" horiz-adv-x="526" unicode="ъ" d="M256 110h5q36 0 50 7q21 11 21 38q0 14 -9 24q-13 14 -51 14h-6zM279 301h53q87 0 131 -36q43 -36 43 -100q0 -75 -45 -119q-48 -46 -139 -46h-252l40 327h-80l17 140h252z"/>
<glyph glyph-name="afii10093" horiz-adv-x="694" unicode="ы" d="M196 110h5q36 0 50 7q21 11 21 38q0 14 -9 24q-13 14 -51 14h-6zM219 301h49q87 0 131 -36q43 -36 43 -100q0 -75 -45 -119q-48 -46 -139 -46h-248l57 467h172zM626 0h-172l57 467h172z"/>
<glyph glyph-name="afii10094" horiz-adv-x="466" unicode="ь" d="M196 110h5q36 0 50 7q21 11 21 38q0 14 -9 24q-13 14 -51 14h-6zM219 301h53q87 0 131 -36q43 -36 43 -100q0 -75 -45 -119q-48 -46 -139 -46h-252l57 467h172z"/>
<glyph glyph-name="afii10095" horiz-adv-x="389" unicode="э" d="M20 22l17 133q29 -33 75 -33q33 0 53 15q22 18 27 45h-107l13 104h103q-5 30 -26 45q-18 14 -51 14q-37 0 -68 -23l17 135q46 20 95 20q90 0 142 -54q55 -57 55 -162q0 -51 -17.5 -109t-59.5 -101q-58 -61 -152 -61q-68 0 -116 32z"/>
<glyph glyph-name="afii10096" horiz-adv-x="706" unicode="ю" d="M480 346q-13 0 -24 -11q-18 -18 -29 -60.5t-11 -79.5t11 -57q10 -17 26 -17q15 0 25 12q19 19 29 61t10 79q0 35 -11 56q-8 17 -26 17zM217 306h55q17 74 76 122q60 49 144 49q85 0 135 -48q55 -54 55 -153q0 -68 -22 -128t-62 -99q-62 -59 -164 -59q-84 0 -130 49 q-47 49 -49 131h-56l-20 -170h-168l57 467h168z"/>
<glyph glyph-name="afii10097" horiz-adv-x="478" unicode="я" d="M270 250l11 95h-9h-6q-30 0 -44 -12q-15 -13 -15 -37q0 -22 15 -34t42 -12h6zM0 0l104 162q-30 11 -48 35q-22 31 -22 76q0 85 50 137q34 35 79.5 46t121.5 11h183l-57 -467h-172l12 102q5 43 10 73q-7 -18 -15.5 -36.5t-9.5 -19.5l-55 -119h-181z"/>
<glyph glyph-name="afii10071" horiz-adv-x="474" unicode="ё" d="M262 602q0 -8 -5 -20q-9 -23 -30 -37.5t-45 -14.5q-28 0 -46 18t-18 46q0 32 24.5 56t56.5 24q31 0 47 -20t16 -52zM452 610q0 -31 -24.5 -55.5t-56.5 -24.5q-27 0 -45 18.5t-18 45.5q0 32 24 56t56 24q28 0 46 -18t18 -46zM207 290h79q0 2 0.5 6t0.5 6q0 47 -34 47 q-20 0 -31.5 -18t-14.5 -41zM266 157h166q-26 -80 -84 -123.5t-141 -43.5q-89 0 -136.5 51t-47.5 140q0 116 68 205.5t180 89.5q87 0 133.5 -55.5t46.5 -144.5q0 -27 -8 -79h-250q-1 -6 -1 -19q0 -53 32 -53q31 0 42 32z"/>
<glyph glyph-name="afii10099" horiz-adv-x="492" unicode="ђ" d="M20 0l64 499h-54l14 105h53l15 125h173l-16 -125h118l-14 -105h-118l-8 -74q-7 -57 -14 -90q15 32 40 58q42 42 94 42q40 0 66 -26q33 -35 33 -104q0 -38 -9 -98l-27 -200q-5 -39 -10.5 -65.5t-20.5 -59.5t-38 -54q-47 -43 -127 -43q-32 0 -74 10l18 145q13 -15 31 -15 t31 13q12 15 16 49l27 202q4 27 4 40q0 18 -7 26q-6 7 -15 7q-14 0 -25 -11q-14 -15 -20 -50l-27 -201h-173z"/>
<glyph glyph-name="afii10100" horiz-adv-x="364" unicode="ѓ" d="M369 678l-105 -148h-98l65 148h138zM351 327h-128l-40 -327h-172l57 467h300z"/>
<glyph glyph-name="afii10101" horiz-adv-x="390" unicode="є" d="M343 140l-17 -133q-46 -17 -101 -17q-90 0 -140 48q-60 58 -60 167q0 125 78 205q66 67 171 67q60 0 106 -24l-16 -132q-35 26 -74 26q-32 0 -53 -15q-23 -15 -32 -44h105l-13 -106h-105q4 -27 23 -44q21 -18 58 -18q39 0 70 20z"/>
<glyph glyph-name="afii10102" horiz-adv-x="389" unicode="ѕ" d="M390 439l-74 -127q-35 41 -65 41q-11 0 -20.5 -7t-9.5 -18q0 -17 22 -29.5t49 -22t49 -36.5t22 -69q0 -79 -61.5 -130t-142.5 -51q-45 0 -79.5 11.5t-79.5 37.5l78 129q38 -49 79 -49q14 0 25 7t11 20q0 10 -8 17.5t-13 9.5t-19 7q-49 19 -76.5 46t-27.5 73 q0 79 64 128.5t145 49.5q66 0 132 -38z"/>
<glyph glyph-name="afii10103" horiz-adv-x="249" unicode="і" d="M239 467l-57 -467h-171l58 467h170zM273 624q0 -44 -34.5 -78.5t-78.5 -34.5q-37 0 -62.5 25.5t-25.5 63.5q0 45 34 79t79 34q38 0 63 -25.5t25 -63.5z"/>
<glyph glyph-name="afii10104" horiz-adv-x="249" unicode="ї" d="M117 693q16 0 27 -13q16 -17 16 -52q0 -48 -26 -76q-16 -18 -35 -18q-16 0 -28 12q-18 18 -18 55q0 50 30 77q17 15 34 15zM245 693q15 0 26 -13q17 -18 17 -52q0 -47 -27 -76q-16 -18 -35 -18q-15 0 -27 12q-17 19 -17 55q0 47 30 77q15 15 33 15zM239 467l-57 -467 h-171l58 467h170z"/>
<glyph glyph-name="afii10105" horiz-adv-x="252" unicode="ј" d="M242 467l-85 -682h-170l83 682h172zM274 624v-10q0 -10 -8 -29q-12 -32 -41.5 -53t-62.5 -21q-38 0 -63 25.5t-25 63.5q0 45 33.5 79t78.5 34q39 0 63.5 -25t24.5 -64z"/>
<glyph glyph-name="afii10106" horiz-adv-x="719" unicode="љ" d="M449 110h5q36 0 50 7q21 11 21 38q0 14 -9 24q-13 14 -51 14h-6zM472 301h53q87 0 131 -36q43 -36 43 -100q0 -75 -45 -119q-48 -46 -139 -46h-248l40 327h-60l-13 -104q-18 -145 -72 -196q-41 -38 -115 -38q-35 0 -67 10l17 139q10 -7 24 -7q20 0 32 10q22 17 31 90 l29 236h379z"/>
<glyph glyph-name="afii10107" horiz-adv-x="704" unicode="њ" d="M434 110h5q36 0 50 7q21 11 21 38q0 14 -9 24q-13 14 -51 14h-6zM457 301h53q87 0 131 -36q43 -36 43 -100q0 -75 -45 -119q-48 -46 -139 -46h-252l24 193h-65l-24 -193h-172l57 467h172l-19 -166h64l20 166h172z"/>
<glyph glyph-name="afii10108" horiz-adv-x="489" unicode="ћ" d="M20 0l61 499h-54l14 105h53l15 125h173l-15 -125h118l-14 -105h-118l-8 -73q-7 -50 -16 -90q53 99 134 99q47 0 73.5 -33.5t26.5 -82.5q0 -22 -3 -43l-35 -276h-171l27 207q2 16 2 24q0 31 -23 31q-36 0 -44 -69l-25 -193h-171z"/>
<glyph glyph-name="afii10109" horiz-adv-x="487" unicode="ќ" d="M437 678l-105 -148h-98l65 148h138zM456 0h-190l-24 80q-24 81 -34 123l-25 -203h-172l57 467h172l-27 -221q31 77 70 147l40 74h182l-139 -234z"/>
<glyph glyph-name="afii10110" horiz-adv-x="458" unicode="ў" d="M320 677l111 -26q-19 -67 -72 -102q-39 -25 -100 -25q-65 0 -103 27q-50 34 -60 100l118 26q-2 -27 12 -42q12 -13 34 -13q25 0 38 13q16 14 22 42zM487 467l-301 -682h-176l110 234l-82 448h172q2 -18 7 -57t7.5 -61.5t5 -55.5t2.5 -61q0 -5 -0.5 -15t-0.5 -15 q36 133 48 164l38 101h170z"/>
<glyph glyph-name="afii10193" horiz-adv-x="486" unicode="џ" d="M304 467h172l-57 -467h-133l-14 -115h-142l14 115h-133l57 467h172l-40 -327h64z"/>
<glyph glyph-name="afii10146" horiz-adv-x="538" unicode="Ѣ" d="M270 278l-16 -133q4 -1 12 -1q38 0 61 25q18 18 18 51q0 30 -20 46q-16 12 -55 12zM262 0h-203l61 489h-85l17 130h84l10 85h177l-11 -85h104l-16 -130h-104l-8 -73h9q120 0 174 -53q52 -52 52 -129q0 -50 -18.5 -96.5t-51.5 -77.5q-65 -60 -191 -60z"/>
<glyph glyph-name="afii10194" horiz-adv-x="498" unicode="ѣ" d="M229 110h5q36 0 50 7q21 11 21 38q0 14 -9 24q-13 14 -51 14h-6zM257 343l-5 -46h52q87 0 131 -36q43 -36 43 -100q0 -71 -44 -115q-48 -46 -139 -46h-252l42 343h-60l15 124h60l25 200h172l-25 -200h97l-15 -124h-97z"/>
<glyph glyph-name="afii10147" horiz-adv-x="558" unicode="Ѳ" d="M348 276h-126q0 -90 23 -113q10 -10 25 -10q16 0 32 14q16 16 29 47t17 62zM240 407h122q1 5 1 18q0 61 -23 81q-9 9 -25 9q-17 0 -35 -19q-29 -32 -40 -89zM337 679q86 0 140 -57q69 -72 69 -208q0 -96 -30.5 -195t-94.5 -161q-71 -70 -167 -70q-87 0 -146 62 q-70 72 -70 213q0 116 34.5 203t88.5 139q75 74 176 74z"/>
<glyph glyph-name="afii10195" horiz-adv-x="480" unicode="ѳ" d="M282 185h-94q0 -37 11 -55q10 -17 28 -17q15 0 28 11q22 22 27 61zM201 291h92q-2 31 -10 45q-10 18 -30 18q-14 0 -25 -10q-19 -16 -27 -53zM270 477q82 0 131 -47q55 -53 55 -152q0 -66 -22 -126.5t-62 -99.5q-64 -62 -164 -62q-79 0 -127 44q-57 52 -57 156 q0 137 85 222q67 65 161 65z"/>
<glyph glyph-name="afii10148" horiz-adv-x="510" unicode="Ѵ" d="M564 667l-261 -667h-181l-68 667h186q12 -250 12 -312q0 -41 -4 -123q9 42 19 84t25.5 96t23 78t30 95t25.5 82h193z"/>
<glyph glyph-name="afii10196" horiz-adv-x="439" unicode="ѵ" d="M468 467l-191 -467h-178l-70 467h173q12 -161 12 -202q0 -31 -2 -93q17 70 88 295h168z"/>
<glyph glyph-name="afii10050" horiz-adv-x="451" unicode="Ґ" d="M100 667h216l17 142h156l-36 -299h-195l-63 -510h-177z"/>
<glyph glyph-name="afii10098" horiz-adv-x="403" unicode="ґ" d="M68 467h200l18 140h142l-35 -280h-170l-40 -327h-172z"/>
<glyph glyph-name="uni0492" horiz-adv-x="405" unicode="Ғ" d="M417 510h-138l-12 -97h128l-19 -151h-128l-32 -262h-177l32 262h-66l19 151h66l31 254h315z"/>
<glyph glyph-name="uni0493" horiz-adv-x="388" unicode="ғ" d="M392 467l-17 -140h-128l-7 -62h100l-18 -140h-100l-15 -125h-172l15 125h-50l18 140h50l24 202h300z"/>
<glyph glyph-name="uni0494" horiz-adv-x="523" unicode="Ҕ" d="M426 667l-19 -157h-149l-9 -68q-7 -45 -13 -64q55 33 109 33q71 0 113 -53q40 -50 40 -133q0 -61 -19.5 -114.5t-51.5 -83.5q-45 -43 -123 -43q-39 0 -74 14l31 142q11 -9 24 -9t24 14q13 17 13 54q0 29 -12 43q-12 15 -30 15q-20 0 -56 -17l-29 -240h-177l82 667h326z "/>
<glyph glyph-name="uni0495" horiz-adv-x="464" unicode="ҕ" d="M359 327h-136l-9 -72h15q101 0 152 -52q53 -54 53 -152q0 -121 -74 -193q-71 -68 -200 -73l16 136q32 2 53 20q38 32 38 105q0 53 -22 73q-17 16 -45 16l-17 -135h-172l57 467h308z"/>
<glyph glyph-name="uni0496" horiz-adv-x="777" unicode="Җ" d="M64 667h180l69 -300l31 300h170l-42 -300l142 300h178l-176 -324l49 -180h72l-37 -292h-156l17 129h-34l-61 321l-34 -321h-170l45 321l-140 -321h-182l177 349z"/>
<glyph glyph-name="uni0497" horiz-adv-x="723" unicode="җ" d="M49 467h178l30 -104q17 -60 26 -118l27 222h168l-27 -222q18 44 56 118l54 104h180l-137 -228l30 -99h63l-31 -255h-142l14 115h-36l-27 96q-22 75 -27 120l-27 -216h-168l27 216q-29 -70 -55 -120l-50 -96h-192l145 239z"/>
<glyph glyph-name="uni0498" horiz-adv-x="452" unicode="Ҙ" d="M70 453l24 190q62 36 139 36q107 0 163 -58q46 -47 46 -123q0 -73 -40 -114q-37 -37 -96 -45q52 0 86 -34t34 -98q0 -82 -47 -141q-45 -55 -111 -66l-16 -130h-160l16 128q-47 10 -88 33l25 201q21 -36 49 -57q30 -23 69 -23q35 0 53 17q17 15 17 42t-24 43 q-19 12 -58 12h-26l17 148h24q44 0 65 11q26 14 26 42q0 21 -18 35q-19 15 -55 15q-32 0 -61 -18q-23 -14 -53 -46z"/>
<glyph glyph-name="uni0499" horiz-adv-x="435" unicode="ҙ" d="M108 303l-55 127q41 21 74 32q48 15 101 15q99 0 147 -48q34 -34 34 -85q0 -48 -29 -75q-28 -27 -74 -30q40 -3 67 -28q26 -24 26 -66q0 -64 -43 -105q-38 -36 -92 -41l-14 -114h-142l14 112q-50 12 -112 56l82 121q12 -23 37 -38q22 -14 49 -14q16 0 32 8q12 8 12 23 q0 19 -20 26q-15 5 -49 5h-20l13 109h30q26 0 41 4q22 7 22 25q0 12 -13 20q-11 7 -33 7q-25 0 -46 -12q-12 -7 -39 -34z"/>
<glyph glyph-name="uni049A" horiz-adv-x="533" unicode="Қ" d="M564 667l-181 -322l62 -182h77l-37 -292h-156l17 129h-37l-79 319l-35 -319h-177l82 667h177l-40 -298l140 298h187z"/>
<glyph glyph-name="uni049B" horiz-adv-x="492" unicode="қ" d="M68 467h172l-27 -221q31 77 70 147l40 74h187l-141 -229l35 -98h65l-31 -255h-142l14 115h-42l-26 80q-16 49 -34 123l-25 -203h-172z"/>
<glyph glyph-name="uni049C" horiz-adv-x="663" unicode="Ҝ" d="M231 293l-36 -293h-177l82 667h177l-34 -274h43l19 150h87l-21 -168l137 292h186l-175 -322l95 -345h-190l-60 317l-19 -158h-87l16 134h-43z"/>
<glyph glyph-name="uni049D" horiz-adv-x="581" unicode="ҝ" d="M205 181l-22 -181h-172l57 467h172l-22 -186h33l11 95h72l-15 -123q23 69 62 140l40 74h178l-137 -231l86 -236h-184l-24 80q-18 56 -28 116l-14 -118h-72l12 103h-33z"/>
<glyph glyph-name="uni04A0" horiz-adv-x="623" unicode="Ҡ" d="M654 667l-181 -322l117 -345h-191l-79 319l-35 -319h-177l62 510h-130l19 157h308l-40 -298l140 298h187z"/>
<glyph glyph-name="uni04A1" horiz-adv-x="571" unicode="ҡ" d="M544 0h-199l-24 80q-24 81 -34 123l-25 -203h-172l40 327h-110l17 140h282l-27 -221q31 77 70 147l40 74h187l-141 -231z"/>
<glyph glyph-name="uni04A2" horiz-adv-x="560" unicode="Ң" d="M539 667l-63 -504h70l-38 -292h-160l18 129h-86l33 268h-85l-33 -268h-177l82 667h177l-29 -236h85l29 236h177z"/>
<glyph glyph-name="uni04A3" horiz-adv-x="507" unicode="ң" d="M240 467l-19 -159h64l19 159h172l-40 -327h61l-31 -255h-142l14 115h-91l21 168h-64l-21 -168h-172l57 467h172z"/>
<glyph glyph-name="uni04A4" horiz-adv-x="629" unicode="Ҥ" d="M100 667h177l-29 -236h85l29 236h298l-19 -157h-121l-63 -510h-177l33 268h-85l-33 -268h-177z"/>
<glyph glyph-name="uni04A5" horiz-adv-x="576" unicode="ҥ" d="M240 467l-19 -159h64l19 159h276l-17 -140h-104l-40 -327h-172l21 168h-64l-21 -168h-172l57 467h172z"/>
<glyph glyph-name="uni04AA" horiz-adv-x="438" unicode="Ҫ" d="M461 662l-23 -190q-35 40 -77 40q-50 0 -83.5 -39.5t-45 -87t-11.5 -96.5q0 -55 22 -91t73 -36q47 0 97 43l-34 -193q-28 -12 -38 -14l-29 -137h-160l30 142q-71 27 -107.5 97t-36.5 160q0 77 21 150t61 134t106 98t147 37q48 0 88 -17z"/>
<glyph glyph-name="uni04AB" horiz-adv-x="307" unicode="ҫ" d="M279 152l-20 -159l-20 -3l-13 -105h-136l16 127q-39 28 -58 67q-23 49 -23 112q0 131 79 214q68 72 172 72q7 0 23.5 -1t18.5 -1l-18 -152q-39 0 -64 -23q-29 -26 -29 -72q0 -39 20 -59q17 -17 47 -17h5z"/>
<glyph glyph-name="uni04AE" horiz-adv-x="493" unicode="Ү" d="M547 667l-200 -385l-35 -282h-177l35 282l-116 385h185q30 -146 37 -206q21 56 87 206h184z"/>
<glyph glyph-name="uni04AF" horiz-adv-x="458" unicode="ү" d="M25 467h176l12 -115q10 -88 10 -158q29 106 48 160l39 113h183l-204 -448l-28 -234h-171l27 234z"/>
<glyph glyph-name="uni04B0" horiz-adv-x="493" unicode="Ұ" d="M547 667l-197 -367l-3 -26h118l-18 -143h-118l-17 -131h-177l17 131h-118l18 143h118l3 26l-119 367h185q30 -146 37 -206q21 56 87 206h184z"/>
<glyph glyph-name="uni04B1" horiz-adv-x="465" unicode="ұ" d="M32 467h176l13 -110q10 -90 11 -155q16 69 47 157l38 108h183l-197 -397l-3 -18h106l-13 -105h-106l-19 -162h-172l19 162h-105l13 105h105l3 18z"/>
<glyph glyph-name="uni04B2" horiz-adv-x="509" unicode="Ҳ" d="M552 667l-190 -321l61 -183h70l-36 -292h-156l16 129h-33q-6 23 -14.5 66.5t-11.5 57.5q-8 35 -10 55q-25 -61 -83 -179h-193l202 346l-111 321h197q12 -66 22 -110l9 -48q14 45 62 158h199z"/>
<glyph glyph-name="uni04B3" horiz-adv-x="475" unicode="ҳ" d="M491 467l-163 -223l50 -104h65l-31 -255h-142l14 115h-31q-19 49 -29 110q-20 -45 -61 -110h-191l169 240l-104 227h195q18 -87 20 -101q8 20 26 54t24 47h189z"/>
<glyph glyph-name="uni04B6" horiz-adv-x="550" unicode="Ҷ" d="M356 0h-86l33 269q-38 -11 -79 -11q-71 0 -113 33q-51 40 -51 112q0 29 6 74l24 190h176l-22 -178q-3 -21 -3 -30q0 -21 13 -32q12 -11 35 -11q18 0 33 7l30 244h177l-63 -504h70l-36 -292h-160z"/>
<glyph glyph-name="uni04B7" horiz-adv-x="495" unicode="ҷ" d="M326 0h-89l20 161q-34 -10 -71 -10q-73 0 -112 37q-34 34 -34 91q0 27 5 65l15 123h170l-15 -122q-2 -14 -2 -26q0 -16 9 -23q8 -7 24 -7q15 0 27 8l21 170h172l-41 -327h60l-31 -255h-142z"/>
<glyph glyph-name="uni04B8" horiz-adv-x="595" unicode="Ҹ" d="M344 0l33 267q-17 -6 -40 -9l-14 -119h-83l15 119h-10q-94 0 -143 46q-42 40 -42 103q0 25 6 70l24 190h172l-22 -178q-3 -22 -3 -38q0 -20 12 -29q11 -7 25 -7l17 136h83l-17 -138q19 1 39 9l30 245h177l-82 -667h-177z"/>
<glyph glyph-name="uni04B9" horiz-adv-x="543" unicode="ҹ" d="M304 0l20 165q-16 -7 -34 -9l-10 -86h-72l9 80h-7q-92 0 -134 38q-36 32 -36 89q0 29 5 67l15 123h161l-14 -117q-3 -27 -3 -31q0 -21 10 -29q9 -7 20 -7l12 103h72l-12 -102q20 2 34 10l21 173h172l-57 -467h-172z"/>
<glyph glyph-name="uni04BA" horiz-adv-x="515" unicode="Һ" d="M277 667l-31 -251q41 15 90 15q73 0 114 -40q40 -39 40 -106q0 -17 -7 -76l-26 -209h-176l22 174q5 45 5 50q0 24 -10 35q-10 12 -31 12q-20 0 -40 -11l-32 -260h-177l82 667h177z"/>
<glyph glyph-name="uni04BB" horiz-adv-x="483" unicode="һ" d="M272 729l-32 -261q-7 -50 -16 -90q53 99 134 99q47 0 73.5 -33.5t26.5 -82.5q0 -22 -3 -43l-39 -318h-171l31 247q2 18 2 26q0 31 -23 31q-36 0 -44 -69l-29 -235h-171l90 729h171z"/>
<glyph glyph-name="uni04C0" horiz-adv-x="250" unicode="Ӏ" d="M265 667l-83 -667h-171l83 667h171z"/>
<glyph glyph-name="uni04C1" horiz-adv-x="777" unicode="Ӂ" d="M502 874l125 -37q-17 -67 -72 -99q-45 -27 -121 -27q-75 0 -118 26q-56 34 -73 99l127 38q4 -26 20 -41q17 -15 47 -15t47 17q14 16 18 39zM709 0h-182l-61 321l-34 -321h-170l45 321l-140 -321h-182l177 349l-98 318h180l69 -300l31 300h170l-42 -300l142 300h178 l-176 -324z"/>
<glyph glyph-name="uni04C2" horiz-adv-x="723" unicode="ӂ" d="M451 677l111 -26q-19 -67 -72 -102q-39 -25 -100 -25q-65 0 -103 27q-50 34 -60 100l118 26q-2 -27 12 -42q12 -13 34 -13q25 0 38 13q16 14 22 42zM686 0h-187l-26 96q-18 67 -25 120l-27 -216h-168l27 216q-29 -70 -55 -120l-50 -96h-192l145 239l-79 228h178l30 -104 q17 -60 26 -118l27 222h168l-27 -222q18 44 56 118l54 104h180l-137 -228z"/>
<glyph glyph-name="uni04C3" horiz-adv-x="558" unicode="Ӄ" d="M100 667h177l-40 -286l141 286h190l-161 -278q52 -12 82 -57q31 -46 31 -136q0 -63 -11 -129q-20 -130 -72 -182q-45 -45 -134 -45q-50 0 -86 14l29 142q13 -10 31 -10q17 0 26 9q23 20 30 110q7 80 7 93q0 36 -17 52q-14 14 -37 14q-30 0 -64 -20l-27 -244h-177z"/>
<glyph glyph-name="uni04C4" horiz-adv-x="492" unicode="ӄ" d="M68 467h172l-27 -221q31 77 70 147l40 74h187l-145 -237q44 -15 67 -53q25 -40 25 -106q0 -56 -19 -115t-57 -97q-69 -70 -211 -74l17 136q32 0 53 20q38 37 38 115q0 44 -20 63q-16 15 -59 15l-16 -134h-172z"/>
<glyph glyph-name="uni04C7" horiz-adv-x="532" unicode="Ӈ" d="M363 667h177l-87 -710q-12 -96 -57 -135q-41 -37 -126 -37q-42 0 -81 12l17 139q13 -12 30 -12q18 0 28 12q10 11 16 58l34 274h-86l-33 -268h-177l82 667h177l-29 -236h86z"/>
<glyph glyph-name="uni04C8" horiz-adv-x="486" unicode="ӈ" d="M240 467l-19 -159h64l19 159h172l-55 -460q-15 -130 -69 -179q-47 -43 -127 -43q-32 0 -74 10l18 145q13 -15 31 -15t31 13q11 13 15 50l22 180h-64l-21 -168h-172l57 467h172z"/>
<glyph glyph-name="uni04D0" horiz-adv-x="524" unicode="Ӑ" d="M397 874l125 -37q-17 -67 -72 -99q-45 -27 -121 -27q-75 0 -118 26q-56 34 -73 99l127 38q4 -26 20 -41q17 -15 47 -15t47 17q14 16 18 39zM300 305v87q0 1 3 115q-3 -11 -10.5 -43.5t-12.5 -50.5q-6 -21 -24 -86t-29 -100h75q-2 52 -2 78zM491 0h-183l-3 85h-119 l-25 -85h-184l240 667h217z"/>
<glyph glyph-name="uni04D1" horiz-adv-x="489" unicode="ӑ" d="M345 677l111 -26q-19 -67 -72 -102q-39 -25 -100 -25q-65 0 -103 27q-50 34 -60 100l118 26q-2 -27 12 -42q12 -13 34 -13q25 0 38 13q16 14 22 42zM282 288q0 46 -28 46q-31 0 -45 -51t-14 -95q0 -55 31 -55q30 0 43 54.5t13 100.5zM479 467l-57 -467h-171 q3 13 7.5 39.5t7.5 39.5q-53 -89 -130 -89q-33 0 -56.5 17t-35 45t-16.5 56t-5 59q0 69 14 128q8 33 21 63t32.5 58t48.5 44.5t63 16.5q40 0 62 -21.5t37 -62.5q1 12 2.5 37t1.5 37h174z"/>
<glyph glyph-name="uni04D2" horiz-adv-x="524" unicode="Ӓ" d="M303 792q0 -7 -5 -20q-9 -23 -30 -37.5t-45 -14.5q-28 0 -46 18t-18 46q0 32 24.5 56t56.5 24q31 0 47 -20t16 -52zM493 800q0 -31 -24.5 -55.5t-56.5 -24.5q-27 0 -45 18.5t-18 45.5q0 32 24 56t56 24q28 0 46 -18t18 -46zM300 305v87q0 1 3 115q-3 -11 -10.5 -43.5 t-12.5 -50.5q-6 -21 -24 -86t-29 -100h75q-2 52 -2 78zM491 0h-183l-3 85h-119l-25 -85h-184l240 667h217z"/>
<glyph glyph-name="uni04D3" horiz-adv-x="489" unicode="ӓ" d="M283 602q0 -8 -5 -20q-9 -23 -30 -37.5t-45 -14.5q-28 0 -46 18t-18 46q0 32 24.5 56t56.5 24q31 0 47 -20t16 -52zM473 610q0 -31 -24.5 -55.5t-56.5 -24.5q-27 0 -45 18.5t-18 45.5q0 32 24 56t56 24q28 0 46 -18t18 -46zM282 288q0 46 -28 46q-31 0 -45 -51t-14 -95 q0 -55 31 -55q30 0 43 54.5t13 100.5zM479 467l-57 -467h-171q3 13 7.5 39.5t7.5 39.5q-53 -89 -130 -89q-33 0 -56.5 17t-35 45t-16.5 56t-5 59q0 69 14 128q8 33 21 63t32.5 58t48.5 44.5t63 16.5q40 0 62 -21.5t37 -62.5q1 12 2.5 37t1.5 37h174z"/>
<glyph glyph-name="uni04D4" horiz-adv-x="606" unicode="Ӕ" d="M219 223h74q-2 122 -2 184q0 33 2 99q-17 -77 -74 -283zM630 667l-19 -157h-177l3 -97h148l-18 -151h-122l4 -102h119l-20 -160h-252l-2 85h-114l-24 -85h-184l234 667h424z"/>
<glyph glyph-name="uni04D5" horiz-adv-x="724" unicode="ӕ" d="M273 156q0 17 -11.5 26t-29.5 9q-20 0 -35 -13.5t-15 -33.5q0 -35 41 -35q22 0 36 13t14 34zM453 291h86q0 65 -36 65t-50 -65zM88 321l17 135q80 21 140 21q87 0 135 -46q68 46 138 46q88 0 135.5 -56t47.5 -145q0 -26 -8 -78h-252q0 -3 -0.5 -9t-0.5 -9q0 -62 37 -62 q27 0 43 35l161 -3q-17 -44 -36.5 -73t-53.5 -51q-56 -36 -135 -36q-77 0 -130 48q-74 -48 -154 -48q-66 0 -111 38t-45 103q0 79 53 124.5t133 45.5q39 0 86 -10q-1 57 -83 57q-60 0 -117 -27z"/>
<glyph glyph-name="uni04D6" horiz-adv-x="405" unicode="Ӗ" d="M342 874l125 -37q-17 -67 -72 -99q-45 -27 -121 -27q-75 0 -118 26q-56 34 -73 99l127 38q4 -26 20 -41q17 -15 47 -15t47 17q14 16 18 39zM430 667l-20 -157h-152l-12 -97h137l-19 -151h-136l-13 -102h152l-19 -160h-330l82 667h330z"/>
<glyph glyph-name="uni04D7" horiz-adv-x="474" unicode="ӗ" d="M335 677l111 -26q-19 -67 -72 -102q-39 -25 -100 -25q-65 0 -103 27q-50 34 -60 100l118 26q-2 -27 12 -42q12 -13 34 -13q25 0 38 13q16 14 22 42zM207 290h79q0 2 0.5 6t0.5 6q0 47 -34 47q-20 0 -31.5 -18t-14.5 -41zM266 157h166q-26 -80 -84 -123.5t-141 -43.5 q-89 0 -136.5 51t-47.5 140q0 116 68 205.5t180 89.5q87 0 133.5 -55.5t46.5 -144.5q0 -27 -8 -79h-250q-1 -6 -1 -19q0 -53 32 -53q31 0 42 32z"/>
<glyph glyph-name="uni04D8" horiz-adv-x="554" unicode="Ә" d="M341 253h-129q-1 -9 -1 -25q0 -49 17 -66q11 -13 34 -13q21 0 38 15q29 26 41 89zM47 385h310v17q0 73 -18 98q-14 18 -38 18t-38 -14q-19 -17 -30 -54l-168 55q37 80 99 126q66 48 151 48q97 0 158 -61q69 -71 69 -208q0 -97 -30.5 -195t-94.5 -161q-38 -38 -76.5 -52 t-92.5 -14q-90 0 -140 52q-70 73 -70 226q0 42 6 92z"/>
<glyph glyph-name="afii10846" horiz-adv-x="482" unicode="ә" d="M272 176h-81v-8q0 -31 11 -42q9 -9 24 -9q14 0 24 10q16 16 22 49zM201 308l-154 38q27 56 78 91q58 40 138 40q88 0 138 -48q57 -54 57 -155q0 -66 -22 -126.5t-62 -99.5q-60 -58 -161 -58q-87 0 -134 51q-55 58 -55 164q0 22 7 64h254q1 5 1 18q0 31 -12 43 q-10 11 -28 11q-15 0 -27 -8q-13 -9 -18 -25z"/>
<glyph glyph-name="uni04DA" horiz-adv-x="554" unicode="Ӛ" d="M300 792q0 -7 -5 -20q-9 -23 -30 -37.5t-45 -14.5q-28 0 -46 18t-18 46q0 32 24.5 56t56.5 24q31 0 47 -20t16 -52zM490 800q0 -31 -24.5 -55.5t-56.5 -24.5q-27 0 -45 18.5t-18 45.5q0 32 24 56t56 24q28 0 46 -18t18 -46zM341 253h-129q-1 -9 -1 -25q0 -49 17 -66 q11 -13 34 -13q21 0 38 15q29 26 41 89zM47 385h310v17q0 73 -18 98q-14 18 -38 18t-38 -14q-19 -17 -30 -54l-168 55q37 80 99 126q66 48 151 48q97 0 158 -61q69 -71 69 -208q0 -97 -30.5 -195t-94.5 -161q-38 -38 -76.5 -52t-92.5 -14q-90 0 -140 52q-70 73 -70 226 q0 42 6 92z"/>
<glyph glyph-name="uni04DB" horiz-adv-x="482" unicode="ӛ" d="M248 602q0 -8 -5 -20q-9 -23 -30 -37.5t-45 -14.5q-28 0 -46 18t-18 46q0 32 24.5 56t56.5 24q31 0 47 -20t16 -52zM438 610q0 -31 -24.5 -55.5t-56.5 -24.5q-27 0 -45 18.5t-18 45.5q0 32 24 56t56 24q28 0 46 -18t18 -46zM272 176h-81v-8q0 -31 11 -42q9 -9 24 -9 q14 0 24 10q16 16 22 49zM201 308l-154 38q27 56 78 91q58 40 138 40q88 0 138 -48q57 -54 57 -155q0 -66 -22 -126.5t-62 -99.5q-60 -58 -161 -58q-87 0 -134 51q-55 58 -55 164q0 22 7 64h254q1 5 1 18q0 31 -12 43q-10 11 -28 11q-15 0 -27 -8q-13 -9 -18 -25z"/>
<glyph glyph-name="uni04DC" horiz-adv-x="777" unicode="Ӝ" d="M411 792q0 -7 -5 -20q-9 -23 -30 -37.5t-45 -14.5q-28 0 -46 18t-18 46q0 32 24.5 56t56.5 24q31 0 47 -20t16 -52zM601 800q0 -31 -24.5 -55.5t-56.5 -24.5q-27 0 -45 18.5t-18 45.5q0 32 24 56t56 24q28 0 46 -18t18 -46zM709 0h-182l-61 321l-34 -321h-170l45 321 l-140 -321h-182l177 349l-98 318h180l69 -300l31 300h170l-42 -300l142 300h178l-176 -324z"/>
<glyph glyph-name="uni04DD" horiz-adv-x="723" unicode="ӝ" d="M378 602q0 -8 -5 -20q-9 -23 -30 -37.5t-45 -14.5q-28 0 -46 18t-18 46q0 32 24.5 56t56.5 24q31 0 47 -20t16 -52zM568 610q0 -31 -24.5 -55.5t-56.5 -24.5q-27 0 -45 18.5t-18 45.5q0 32 24 56t56 24q28 0 46 -18t18 -46zM686 0h-187l-26 96q-18 67 -25 120l-27 -216 h-168l27 216q-29 -70 -55 -120l-50 -96h-192l145 239l-79 228h178l30 -104q17 -60 26 -118l27 222h168l-27 -222q18 44 56 118l54 104h180l-137 -228z"/>
<glyph glyph-name="uni04DE" horiz-adv-x="452" unicode="Ӟ" d="M233 792q0 -7 -5 -20q-9 -23 -30 -37.5t-45 -14.5q-28 0 -46 18t-18 46q0 32 24.5 56t56.5 24q31 0 47 -20t16 -52zM423 800q0 -31 -24.5 -55.5t-56.5 -24.5q-27 0 -45 18.5t-18 45.5q0 32 24 56t56 24q28 0 46 -18t18 -46zM70 453l24 190q62 36 139 36q107 0 163 -58 q46 -47 46 -123q0 -73 -40 -114q-37 -37 -96 -45q52 0 86 -34t34 -92q0 -44 -18.5 -88.5t-50.5 -74.5q-66 -62 -180 -62q-75 0 -157 43l25 201q21 -36 49 -57q30 -23 69 -23q35 0 53 17q17 15 17 42t-24 43q-19 12 -58 12h-26l17 148h24q44 0 65 11q26 14 26 42q0 21 -18 35 q-19 15 -55 15q-32 0 -61 -18q-23 -14 -53 -46z"/>
<glyph glyph-name="uni04DF" horiz-adv-x="435" unicode="ӟ" d="M213 602q0 -8 -5 -20q-9 -23 -30 -37.5t-45 -14.5q-28 0 -46 18t-18 46q0 32 24.5 56t56.5 24q31 0 47 -20t16 -52zM403 610q0 -31 -24.5 -55.5t-56.5 -24.5q-27 0 -45 18.5t-18 45.5q0 32 24 56t56 24q28 0 46 -18t18 -46zM108 303l-55 127q41 21 74 32q48 15 101 15 q99 0 147 -48q34 -34 34 -85q0 -48 -29 -75q-28 -27 -74 -30q42 -3 68 -28q25 -23 25 -65q0 -55 -41 -99q-55 -57 -157 -57q-62 0 -110 18q-40 15 -81 45l82 121q12 -23 37 -38q22 -14 49 -14q16 0 32 8q12 8 12 23q0 19 -20 26q-15 5 -49 5h-20l13 109h30q26 0 41 4 q22 7 22 25q0 12 -13 20q-11 7 -33 7q-25 0 -46 -12q-12 -7 -39 -34z"/>
<glyph glyph-name="uni04E2" horiz-adv-x="557" unicode="Ӣ" d="M519 837l-12 -94h-335l12 94h335zM18 0l82 667h170l-23 -185q-14 -118 -47 -225q45 105 92 195l115 215h158l-82 -667h-170l22 178q12 102 37 214q-27 -79 -87 -190l-109 -202h-158z"/>
<glyph glyph-name="uni04E3" horiz-adv-x="504" unicode="ӣ" d="M464 647l-12 -94h-335l12 94h335zM68 467h166l-16 -131q-7 -59 -22 -123q24 53 46 90l94 164h158l-57 -467h-166l15 125q4 35 22 129q-23 -55 -46 -94l-93 -160h-158z"/>
<glyph glyph-name="uni04E4" horiz-adv-x="557" unicode="Ӥ" d="M323 792q0 -7 -5 -20q-9 -23 -30 -37.5t-45 -14.5q-28 0 -46 18t-18 46q0 32 24.5 56t56.5 24q31 0 47 -20t16 -52zM513 800q0 -31 -24.5 -55.5t-56.5 -24.5q-27 0 -45 18.5t-18 45.5q0 32 24 56t56 24q28 0 46 -18t18 -46zM18 0l82 667h170l-23 -185q-14 -118 -47 -225 q45 105 92 195l115 215h158l-82 -667h-170l22 178q12 102 37 214q-27 -79 -87 -190l-109 -202h-158z"/>
<glyph glyph-name="uni04E5" horiz-adv-x="504" unicode="ӥ" d="M275 602q0 -8 -5 -20q-9 -23 -30 -37.5t-45 -14.5q-28 0 -46 18t-18 46q0 32 24.5 56t56.5 24q31 0 47 -20t16 -52zM465 610q0 -31 -24.5 -55.5t-56.5 -24.5q-27 0 -45 18.5t-18 45.5q0 32 24 56t56 24q28 0 46 -18t18 -46zM68 467h166l-16 -131q-7 -59 -22 -123 q24 53 46 90l94 164h158l-57 -467h-166l15 125q4 35 22 129q-23 -55 -46 -94l-93 -160h-158z"/>
<glyph glyph-name="uni04E6" horiz-adv-x="558" unicode="Ӧ" d="M328 792q0 -7 -5 -20q-9 -23 -30 -37.5t-45 -14.5q-28 0 -46 18t-18 46q0 32 24.5 56t56.5 24q31 0 47 -20t16 -52zM518 800q0 -31 -24.5 -55.5t-56.5 -24.5q-27 0 -45 18.5t-18 45.5q0 32 24 56t56 24q28 0 46 -18t18 -46zM315 511q-17 0 -35 -19q-25 -27 -41 -91 q-17 -67 -17 -139t22 -94q11 -11 26 -11q19 0 33 16q28 31 44 99q15 61 15 134q0 77 -22 96q-10 9 -25 9zM337 679q86 0 140 -57q69 -72 69 -208q0 -96 -30.5 -195t-94.5 -161q-71 -70 -167 -70q-87 0 -146 62q-70 72 -70 213q0 116 34.5 203t88.5 139q75 74 176 74z"/>
<glyph glyph-name="uni04E7" horiz-adv-x="480" unicode="ӧ" d="M263 602q0 -8 -5 -20q-9 -23 -30 -37.5t-45 -14.5q-28 0 -46 18t-18 46q0 32 24.5 56t56.5 24q31 0 47 -20t16 -52zM453 610q0 -31 -24.5 -55.5t-56.5 -24.5q-27 0 -45 18.5t-18 45.5q0 32 24 56t56 24q28 0 46 -18t18 -46zM254 346q-13 0 -24 -11q-18 -18 -29 -60.5 t-11 -79.5t11 -57q10 -17 26 -17q15 0 25 12q19 19 29 61t10 79q0 35 -11 56q-8 17 -26 17zM270 477q82 0 131 -47q55 -53 55 -152q0 -66 -22 -126.5t-62 -99.5q-64 -62 -164 -62q-79 0 -127 44q-57 52 -57 156q0 137 85 222q67 65 161 65z"/>
<glyph glyph-name="uni04E8" horiz-adv-x="558" unicode="Ө" d="M348 276h-126q0 -90 23 -113q10 -10 25 -10q16 0 32 14q16 16 29 47t17 62zM240 407h122q1 5 1 18q0 61 -23 81q-9 9 -25 9q-17 0 -35 -19q-29 -32 -40 -89zM337 679q86 0 140 -57q69 -72 69 -208q0 -96 -30.5 -195t-94.5 -161q-71 -70 -167 -70q-87 0 -146 62 q-70 72 -70 213q0 116 34.5 203t88.5 139q75 74 176 74z"/>
<glyph glyph-name="uni04E9" horiz-adv-x="480" unicode="ө" d="M282 185h-94q0 -37 11 -55q10 -17 28 -17q15 0 28 11q22 22 27 61zM201 291h92q-2 31 -10 45q-10 18 -30 18q-14 0 -25 -10q-19 -16 -27 -53zM270 477q82 0 131 -47q55 -53 55 -152q0 -66 -22 -126.5t-62 -99.5q-64 -62 -164 -62q-79 0 -127 44q-57 52 -57 156 q0 137 85 222q67 65 161 65z"/>
<glyph glyph-name="uni04EA" horiz-adv-x="558" unicode="Ӫ" d="M328 792q0 -7 -5 -20q-9 -23 -30 -37.5t-45 -14.5q-28 0 -46 18t-18 46q0 32 24.5 56t56.5 24q31 0 47 -20t16 -52zM518 800q0 -31 -24.5 -55.5t-56.5 -24.5q-27 0 -45 18.5t-18 45.5q0 32 24 56t56 24q28 0 46 -18t18 -46zM348 276h-126q0 -90 23 -113q10 -10 25 -10 q16 0 32 14q16 16 29 47t17 62zM240 407h122q1 5 1 18q0 61 -23 81q-9 9 -25 9q-17 0 -35 -19q-29 -32 -40 -89zM337 679q86 0 140 -57q69 -72 69 -208q0 -96 -30.5 -195t-94.5 -161q-71 -70 -167 -70q-87 0 -146 62q-70 72 -70 213q0 116 34.5 203t88.5 139q75 74 176 74z "/>
<glyph glyph-name="uni04EB" horiz-adv-x="480" unicode="ӫ" d="M263 602q0 -8 -5 -20q-9 -23 -30 -37.5t-45 -14.5q-28 0 -46 18t-18 46q0 32 24.5 56t56.5 24q31 0 47 -20t16 -52zM453 610q0 -31 -24.5 -55.5t-56.5 -24.5q-27 0 -45 18.5t-18 45.5q0 32 24 56t56 24q28 0 46 -18t18 -46zM282 185h-94q0 -37 11 -55q10 -17 28 -17 q15 0 28 11q22 22 27 61zM201 291h92q-2 31 -10 45q-10 18 -30 18q-14 0 -25 -10q-19 -16 -27 -53zM270 477q82 0 131 -47q55 -53 55 -152q0 -66 -22 -126.5t-62 -99.5q-64 -62 -164 -62q-79 0 -127 44q-57 52 -57 156q0 137 85 222q67 65 161 65z"/>
<glyph glyph-name="uni04EE" d="M484 837l-12 -94h-335l12 94h335zM54 667h184l23 -109q15 -70 17 -141q22 78 49 146l41 104h186l-318 -667h-177l108 230z" unicode="Ӯ"/>
<glyph glyph-name="uni04EF" horiz-adv-x="458" unicode="ӯ" d="M434 647l-12 -94h-335l12 94h335zM487 467l-301 -682h-176l110 234l-82 448h172q2 -18 7 -57t7.5 -61.5t5 -55.5t2.5 -61q0 -5 -0.5 -15t-0.5 -15q36 133 48 164l38 101h170z"/>
<glyph glyph-name="uni04F0" d="M293 792q0 -7 -5 -20q-9 -23 -30 -37.5t-45 -14.5q-28 0 -46 18t-18 46q0 32 24.5 56t56.5 24q31 0 47 -20t16 -52zM483 800q0 -31 -24.5 -55.5t-56.5 -24.5q-27 0 -45 18.5t-18 45.5q0 32 24 56t56 24q28 0 46 -18t18 -46zM54 667h184l23 -109q15 -70 17 -141 q22 78 49 146l41 104h186l-318 -667h-177l108 230z" unicode="Ӱ"/>
<glyph glyph-name="uni04F1" horiz-adv-x="458" unicode="ӱ" d="M248 602q0 -8 -5 -20q-9 -23 -30 -37.5t-45 -14.5q-28 0 -46 18t-18 46q0 32 24.5 56t56.5 24q31 0 47 -20t16 -52zM438 610q0 -31 -24.5 -55.5t-56.5 -24.5q-27 0 -45 18.5t-18 45.5q0 32 24 56t56 24q28 0 46 -18t18 -46zM487 467l-301 -682h-176l110 234l-82 448h172 q2 -18 7 -57t7.5 -61.5t5 -55.5t2.5 -61q0 -5 -0.5 -15t-0.5 -15q36 133 48 164l38 101h170z"/>
<glyph glyph-name="uni04F2" d="M351 868l-104 -148h-88l65 148h127zM516 868l-105 -148h-88l65 148h128zM54 667h184l23 -109q15 -70 17 -141q22 78 49 146l41 104h186l-318 -667h-177l108 230z" unicode="Ӳ"/>
<glyph glyph-name="uni04F3" horiz-adv-x="458" unicode="ӳ" d="M306 678l-104 -148h-88l65 148h127zM471 678l-105 -148h-88l65 148h128zM487 467l-301 -682h-176l110 234l-82 448h172q2 -18 7 -57t7.5 -61.5t5 -55.5t2.5 -61q0 -5 -0.5 -15t-0.5 -15q36 133 48 164l38 101h170z"/>
<glyph glyph-name="uni04F4" horiz-adv-x="521" unicode="Ӵ" d="M303 792q0 -7 -5 -20q-9 -23 -30 -37.5t-45 -14.5q-28 0 -46 18t-18 46q0 32 24.5 56t56.5 24q31 0 47 -20t16 -52zM493 800q0 -31 -24.5 -55.5t-56.5 -24.5q-27 0 -45 18.5t-18 45.5q0 32 24 56t56 24q28 0 46 -18t18 -46zM270 0l33 269q-38 -11 -79 -11q-71 0 -113 33 q-51 40 -51 112q0 29 6 74l24 190h176l-22 -178q-3 -27 -3 -30q0 -21 13 -32q12 -11 35 -11q18 0 33 7l30 244h177l-82 -667h-177z"/>
<glyph glyph-name="uni04F5" horiz-adv-x="476" unicode="ӵ" d="M253 602q0 -8 -5 -20q-9 -23 -30 -37.5t-45 -14.5q-28 0 -46 18t-18 46q0 32 24.5 56t56.5 24q31 0 47 -20t16 -52zM443 610q0 -31 -24.5 -55.5t-56.5 -24.5q-27 0 -45 18.5t-18 45.5q0 32 24 56t56 24q28 0 46 -18t18 -46zM237 0l20 161q-34 -10 -71 -10q-73 0 -112 37 q-34 34 -34 91q0 27 5 65l15 123h170l-15 -122q-2 -14 -2 -26q0 -16 9 -23q8 -7 24 -7q15 0 27 8l21 170h172l-57 -467h-172z"/>
<glyph glyph-name="uni04F8" horiz-adv-x="751" unicode="Ӹ" d="M408 792q0 -7 -5 -20q-9 -23 -30 -37.5t-45 -14.5q-28 0 -46 18t-18 46q0 32 24.5 56t56.5 24q31 0 47 -20t16 -52zM598 800q0 -31 -24.5 -55.5t-56.5 -24.5q-27 0 -45 18.5t-18 45.5q0 32 24 56t56 24q28 0 46 -18t18 -46zM229 278l-16 -133q4 -1 12 -1q38 0 61 25 q18 18 18 51q0 30 -20 46q-16 13 -44 13q-7 0 -11 -1zM220 0h-202l82 667h177l-30 -245h8q118 0 174 -55q52 -50 52 -131q0 -105 -65 -170q-67 -66 -196 -66zM674 0h-177l79 667h183z"/>
<glyph glyph-name="uni04F9" horiz-adv-x="694" unicode="ӹ" d="M368 602q0 -8 -5 -20q-9 -23 -30 -37.5t-45 -14.5q-28 0 -46 18t-18 46q0 32 24.5 56t56.5 24q31 0 47 -20t16 -52zM558 610q0 -31 -24.5 -55.5t-56.5 -24.5q-27 0 -45 18.5t-18 45.5q0 32 24 56t56 24q28 0 46 -18t18 -46zM196 110h5q36 0 50 7q21 11 21 38q0 14 -9 24 q-13 14 -51 14h-6zM219 301h49q87 0 131 -36q43 -36 43 -100q0 -75 -45 -119q-48 -46 -139 -46h-248l57 467h172zM626 0h-172l57 467h172z"/>
<glyph glyph-name="endash" horiz-adv-x="574" unicode="–" d="M500 193h-434l14 120h434z"/>
<glyph glyph-name="emdash" horiz-adv-x="820" unicode="—" d="M746 193h-680l14 120h680z"/>
<glyph glyph-name="quoteleft" horiz-adv-x="320" unicode="‘" d="M341 721l-120 -321h-174l154 321h140z"/>
<glyph glyph-name="quotesinglbase" horiz-adv-x="320" unicode="‚" d="M279 159l-154 -320h-140l120 320h174z"/>
<glyph glyph-name="quotedblleft" horiz-adv-x="560" unicode="“" d="M348 721l-120 -321h-174l154 321h140zM581 721l-120 -321h-174l154 321h140z"/>
<glyph glyph-name="quotedblright" horiz-adv-x="560" unicode="”" d="M348 721l-154 -321h-140l120 321h174zM581 721l-154 -321h-140l120 321h174z"/>
<glyph glyph-name="dagger" horiz-adv-x="525" unicode="†" d="M541 566l-18 -140h-157l-78 -635h-158l78 635h-157l17 140h157l21 163h157l-20 -163h158z"/>
<glyph glyph-name="daggerdbl" horiz-adv-x="525" unicode="‡" d="M540 565l-16 -138h-158l-24 -199h157l-17 -137h-157l-37 -300h-158l37 300h-158l17 137h158l24 199h-157l17 138h157l20 164h158l-20 -164h157z"/>
<glyph glyph-name="ellipsis" horiz-adv-x="985" unicode="…" d="M248 102q0 -44 -34.5 -78t-78.5 -34q-38 0 -63 26t-25 64q0 44 34 78t78 34q38 0 63.5 -26t25.5 -64zM576 102q0 -44 -34 -78t-78 -34q-38 0 -63.5 26t-25.5 64q0 44 34 78t78 34q38 0 63.5 -26t25.5 -64zM905 102q0 -44 -34.5 -78t-78.5 -34q-38 0 -63 26t-25 64 q0 44 33.5 78t77.5 34q39 0 64.5 -25.5t25.5 -64.5z"/>
<glyph glyph-name="perthousand" horiz-adv-x="1057" unicode="‰" d="M908 191q0 48 -20 48t-28 -32t-8 -66q0 -49 21 -49q19 0 27 33t8 66zM1024 189q0 -78 -44.5 -136t-115.5 -58q-61 0 -94.5 38t-33.5 105q0 85 44 142t122 57q61 0 91.5 -40t30.5 -108zM576 191q0 48 -20 48t-28 -32t-8 -66q0 -49 21 -49q19 0 27 33t8 66zM692 189 q0 -78 -44.5 -136t-115.5 -58q-61 0 -94.5 38t-33.5 105q0 85 44 142t122 57q61 0 91.5 -40t30.5 -108zM599 667l-370 -667h-92l372 667h90zM219 533q0 48 -20 48t-28 -32t-8 -66q0 -49 21 -49q19 0 27 33t8 66zM335 531q0 -78 -44.5 -136t-115.5 -58q-61 0 -94.5 38 t-33.5 105q0 85 44 142t122 57q61 0 91.5 -40t30.5 -108z"/>
<glyph glyph-name="guilsinglleft" horiz-adv-x="285" unicode="‹" d="M237 63l-85 -50l-124 226l179 226l71 -66l-134 -168z"/>
<glyph glyph-name="guilsinglright" horiz-adv-x="283" unicode="›" d="M10 79l133 168l-92 168l85 50l123 -226l-178 -226z"/>
<glyph glyph-name="fraction" horiz-adv-x="64" unicode="⁄" d="M276 667l-370 -667h-92l372 667h90z"/>
<glyph glyph-name="Euro" horiz-adv-x="532" unicode="€" d="M498 205l-35 -193q-59 -24 -110 -24q-105 0 -164 64t-70 171h-105l41 78h63q1 21 7 58h-94l43 78h71q39 112 120 177t194 65q48 0 87 -17l-24 -190q-34 40 -78 40q-71 0 -109 -75h173l-49 -78h-150l-4 -25q-2 -22 -2 -33h132l-41 -78h-81q22 -61 85 -61q45 0 100 43z"/>
<glyph glyph-name="trademark" horiz-adv-x="657" unicode="™" d="M279 667l-12 -96h-59l-35 -284h-110l35 284h-57l12 96h226zM660 667l-9 -380h-114l15 195l-62 -195h-89l-8 185l-34 -185h-117l92 380h134l8 -164l51 164h133z"/>
<glyph glyph-name="partialdiff" d="M244 323h-10q-9 0 -30 -8q-28 -12 -44 -38.5t-16 -58.5q0 -46 28 -78t73 -32t73.5 32t28.5 77t-29 75.5t-74 30.5zM56 557l17 112q188 -20 288 -106q127 -109 127 -294q0 -120 -64.5 -199t-181.5 -79q-96 0 -164 66.5t-68 162.5q0 89 59 150.5t148 61.5q75 0 121 -45 q-62 149 -282 170z" unicode="∂"/>
<glyph glyph-name="product" horiz-adv-x="733" unicode="∏" d="M696 -250h-294v117h80v766h-226v-766h79v-117h-292v117h83v766h-83v117h653v-117h-82v-766h82v-117z"/>
<glyph glyph-name="summation" horiz-adv-x="667" unicode="∑" d="M632 -250h-609v130l244 387l-244 353v130h600v-247h-117l-13 130h-323l249 -366l-249 -400h332l8 133h122v-250z"/>
<glyph glyph-name="minus" horiz-adv-x="501" unicode="−" d="M481 280h-434v120h434v-120z"/>
<glyph glyph-name="radical" horiz-adv-x="667" unicode="√" d="M706 710h-178l-165 -710h-173l-56 271h-95v116h202l21 -99q10 -72 10 -131h11q9 142 43 290l89 380h291v-117z"/>
<glyph glyph-name="infinity" horiz-adv-x="667" unicode="∞" d="M283 339q-34 46 -69 46q-20 0 -35 -13t-15 -33t15.5 -33t35.5 -13q32 0 68 46zM530 340q0 19 -15.5 32.5t-34.5 13.5q-36 0 -69 -47q34 -46 69 -46q20 0 35 13.5t15 33.5zM664 340q0 -71 -45.5 -117.5t-116.5 -46.5q-82 0 -152 79q-71 -79 -156 -79q-71 0 -117.5 46 t-46.5 117t46 117t117 46q45 0 79.5 -20t71.5 -58q70 78 156 78q72 0 118 -45t46 -117z"/>
<glyph glyph-name="approxequal" d="M433 324l73 -42q-30 -65 -64.5 -99.5t-94.5 -34.5q-32 0 -94.5 25t-87.5 25q-19 0 -34 -9.5t-22 -20t-18 -31.5l-71 46q27 68 59.5 104t92.5 36q34 0 96.5 -25t92.5 -25q41 0 72 51zM433 528l73 -43q-30 -65 -64.5 -99.5t-94.5 -34.5q-30 0 -95 25t-87 25 q-28 0 -43.5 -15.5t-30.5 -45.5l-71 47q26 66 59 102.5t93 36.5q34 0 95.5 -24.5t93.5 -24.5q26 0 42 12.5t30 38.5z" unicode="≈"/>
<glyph glyph-name="notequal" d="M478 171h-241l-49 -95h-102l47 95h-88v117h141l34 67h-175v116h228l55 108h102l-54 -108h102v-116h-155l-33 -67h188v-117z" unicode="≠"/>
<glyph glyph-name="lessequal" d="M467 0h-433v117h433v-117zM467 145l-433 208v109l433 207v-121l-296 -141l295 -141z" unicode="≤"/>
<glyph glyph-name="greaterequal" d="M480 0h-434v117h434v-117zM480 353l-434 -208v121l297 141l-296 141l-1 121l434 -207v-109z" unicode="≥"/>
<glyph glyph-name="dotmath" horiz-adv-x="322" unicode="⋅" d="M291 353q0 -52 -39.5 -91t-91.5 -39q-44 0 -73.5 29.5t-29.5 73.5q0 52 39 91.5t91 39.5q45 0 74.5 -29.5t29.5 -74.5z"/>
<glyph glyph-name="lozenge" horiz-adv-x="667" unicode="◊" d="M454 334l-108 148l-107 -148l107 -148zM606 334l-260 -360l-259 360l259 359z"/>
</font>
</defs>
</svg>
